<svg id="Layer_1" data-name="Layer 1" xmlns="http://www.w3.org/2000/svg" viewBox="0 0 48 48"><defs><style>.cls-1{fill:#fff;}</style></defs><title>cdn</title><path class="cls-1" d="M25,49A24,24,0,1,1,49,25,24.1,24.1,0,0,1,25,49ZM25,2.5A22.5,22.5,0,1,0,47.5,25,22.5,22.5,0,0,0,25,2.5Z" transform="translate(-1 -1)"/><path class="cls-1" d="M25,49c-7.8,0-14.1-10.8-14.1-24S17.2,1,25,1,39.1,11.8,39.1,25,32.8,49,25,49ZM25,2.5C18,2.5,12.3,12.6,12.3,25S18,47.5,25,47.5,37.7,37.4,37.7,25,32,2.5,25,2.5Z" transform="translate(-1 -1)"/><rect class="cls-1" x="23.3" y="0.7" width="1.5" height="46.55"/><path class="cls-1" d="M25,39.1C11.8,39.1,1,32.8,1,25S11.8,10.9,25,10.9,49,17.2,49,25,38.2,39.1,25,39.1Zm0-26.8C12.6,12.3,2.5,18,2.5,25S12.6,37.7,25,37.7,47.5,32,47.5,25,37.4,12.3,25,12.3Z" transform="translate(-1 -1)"/><rect class="cls-1" x="0.7" y="23.3" width="46.5" height="1.45"/><path class="cls-1" d="M41.8,8.9a6.5,6.5,0,0,0-6.4,6.5c0,6.5,6.4,11.6,6.4,11.6s6.5-5.1,6.5-11.6A6.5,6.5,0,0,0,41.8,8.9Zm0,10.3A3.8,3.8,0,0,1,38,15.4a3.9,3.9,0,1,1,7.7,0A3.8,3.8,0,0,1,41.8,19.2Z" transform="translate(-1 -1)"/><path class="cls-1" d="M8.3,3.6A6.4,6.4,0,0,0,1.9,10c0,6.5,6.4,11.6,6.4,11.6s6.5-5.1,6.5-11.6A6.5,6.5,0,0,0,8.3,3.6Zm0,10.2a3.8,3.8,0,0,1,0-7.6A3.9,3.9,0,0,1,12.2,10,3.9,3.9,0,0,1,8.3,13.8Z" transform="translate(-1 -1)"/><path class="cls-1" d="M21.8,27.6A6.4,6.4,0,0,0,15.4,34c0,6.5,6.4,11.6,6.4,11.6s6.4-5.1,6.4-11.6A6.4,6.4,0,0,0,21.8,27.6Zm0,10.3A3.9,3.9,0,0,1,18,34a3.8,3.8,0,0,1,7.6,0A3.9,3.9,0,0,1,21.8,37.9Z" transform="translate(-1 -1)"/></svg>