<svg xmlns="http://www.w3.org/2000/svg" width="72.089" height="50.462" viewBox="0 0 72.089 50.462">
  <path id="code-editor" d="M14.418,39.209H57.671V68.045H64.88V37.407A5.425,5.425,0,0,0,59.473,32H12.616a5.427,5.427,0,0,0-5.407,5.407V68.045h7.209Zm55.869,32.44H1.8a1.819,1.819,0,0,0-1.8,1.8v1.8a7.223,7.223,0,0,0,7.209,7.209H64.88a7.223,7.223,0,0,0,7.209-7.209v-1.8A1.815,1.815,0,0,0,70.287,71.649ZM41.215,60.633a2.257,2.257,0,0,0,3.181,0L49.8,55.221a2.256,2.256,0,0,0,0-3.189L44.4,46.626a2.254,2.254,0,1,0-3.185,3.189l3.814,3.812L41.21,57.438A2.25,2.25,0,0,0,41.215,60.633Zm-10.34-14a2.252,2.252,0,0,0-3.185,0l-5.407,5.407a2.256,2.256,0,0,0,0,3.189l5.407,5.407a2.273,2.273,0,0,0,1.6.652,2.253,2.253,0,0,0,1.593-3.847l-3.812-3.812,3.814-3.812A2.445,2.445,0,0,0,30.874,46.632Z" transform="translate(0 -32)" fill="#fff"/>
</svg>
