<?xml version="1.0" encoding="utf-8"?>
<!-- Generator: Adobe Illustrator 24.0.0, SVG Export Plug-In . SVG Version: 6.00 Build 0)  -->
<svg version="1.1" id="Layer_1" xmlns="http://www.w3.org/2000/svg" xmlns:xlink="http://www.w3.org/1999/xlink" x="0px" y="0px"
	 viewBox="0 0 50 50" style="enable-background:new 0 0 50 50;" xml:space="preserve">
<style type="text/css">
	.st0{fill:#FFFFFF;}
</style>
<path class="st0" d="M12,12.6c-4.3,0-8.7,1.3-8.7,3.9v29.2h0c0.2,2.4,4.5,3.7,8.7,3.7s8.4-1.3,8.7-3.7h0V16.5
	C20.7,13.9,16.3,12.6,12,12.6z M19,37.2c0,0.3-0.4,0.7-1.2,1.1c-0.2,0.1-0.4,0.2-0.6,0.2c-0.8,0.3-1.7,0.5-2.8,0.7
	c-0.8,0.1-1.6,0.2-2.5,0.2c-0.9,0-1.7-0.1-2.5-0.2c-1-0.1-2-0.4-2.8-0.7c-0.2-0.1-0.4-0.2-0.6-0.2C5.4,37.9,5,37.5,5,37.2v-1.7
	c0.4,0.2,0.8,0.4,1.2,0.6C7.8,36.7,9.9,37,12,37s4.2-0.3,5.8-0.9c0.4-0.2,0.8-0.4,1.2-0.6V37.2z M19,33.1c0,0.3-0.4,0.7-1.2,1.1
	c-0.2,0.1-0.4,0.2-0.6,0.2c-0.8,0.3-1.7,0.5-2.8,0.7c-0.8,0.1-1.6,0.2-2.5,0.2c-0.9,0-1.7-0.1-2.5-0.2c-1-0.1-2-0.4-2.8-0.7
	c-0.2-0.1-0.4-0.2-0.6-0.2C5.4,33.8,5,33.3,5,33.1v-1.7c0.4,0.2,0.8,0.4,1.2,0.6c1.6,0.6,3.7,0.9,5.8,0.9s4.2-0.3,5.8-0.9
	c0.4-0.2,0.8-0.4,1.2-0.6V33.1z M19,28.9c0,0.3-0.4,0.7-1.2,1.1c-0.2,0.1-0.4,0.2-0.6,0.2c-0.8,0.3-1.7,0.5-2.8,0.7
	c-0.8,0.1-1.6,0.2-2.5,0.2c-0.9,0-1.7-0.1-2.5-0.2c-1-0.1-2-0.4-2.8-0.7c-0.2-0.1-0.4-0.2-0.6-0.2C5.4,29.6,5,29.2,5,28.9v-1.7
	c0.4,0.2,0.8,0.4,1.2,0.6c1.6,0.6,3.7,0.9,5.8,0.9s4.2-0.3,5.8-0.9c0.4-0.2,0.8-0.4,1.2-0.6V28.9z M19,24.8c0,0.3-0.4,0.7-1.2,1.1
	c-0.2,0.1-0.4,0.2-0.6,0.2c-0.8,0.3-1.7,0.5-2.8,0.7C13.7,27,12.9,27,12,27c-0.9,0-1.7-0.1-2.5-0.2c-1-0.1-2-0.4-2.8-0.7
	c-0.2-0.1-0.4-0.2-0.6-0.2C5.4,25.5,5,25.1,5,24.8v-1.7c0.4,0.2,0.8,0.4,1.2,0.6c1.6,0.6,3.7,0.9,5.8,0.9s4.2-0.3,5.8-0.9
	c0.4-0.2,0.8-0.4,1.2-0.6V24.8z M17.8,21.8c-0.2,0.1-0.4,0.2-0.6,0.2c-0.8,0.3-1.7,0.5-2.8,0.7c-0.8,0.1-1.6,0.2-2.5,0.2
	c-0.9,0-1.7-0.1-2.5-0.2c-1-0.1-2-0.4-2.8-0.7c-0.2-0.1-0.4-0.2-0.6-0.2C5.4,21.4,5,20.9,5,20.7v-1.7c0.4,0.2,0.8,0.4,1.2,0.6
	c1.6,0.6,3.7,0.9,5.8,0.9s4.2-0.3,5.8-0.9c0.4-0.2,0.8-0.4,1.2-0.6v1.7C19,20.9,18.6,21.4,17.8,21.8z M5,39.6
	c0.4,0.2,0.8,0.4,1.2,0.6c1.6,0.6,3.7,0.9,5.8,0.9s4.2-0.3,5.8-0.9c0.4-0.2,0.8-0.4,1.2-0.6v1.7c0,0.3-0.4,0.7-1.2,1.1
	c-0.2,0.1-0.4,0.2-0.6,0.2c-0.8,0.3-1.7,0.5-2.8,0.7c-0.8,0.1-1.6,0.2-2.5,0.2c-0.9,0-1.7-0.1-2.5-0.2c-1-0.1-2-0.4-2.8-0.7
	c-0.2-0.1-0.4-0.2-0.6-0.2C5.4,42,5,41.6,5,41.3V39.6z M6.8,15.1c1.4-0.5,3.2-0.8,5.2-0.8s3.9,0.3,5.2,0.8c1.2,0.5,1.8,1,1.8,1.4
	c0,0.3-0.4,0.7-1.2,1.1c-0.2,0.1-0.4,0.2-0.6,0.2c-0.8,0.3-1.7,0.5-2.8,0.7c-0.8,0.1-1.6,0.2-2.5,0.2c-0.9,0-1.7-0.1-2.5-0.2
	c-1-0.1-2-0.4-2.8-0.7c-0.2-0.1-0.4-0.2-0.6-0.2C5.4,17.2,5,16.8,5,16.5C5,16.2,5.6,15.6,6.8,15.1z M17.3,46.8
	c-1.4,0.5-3.2,0.8-5.2,0.8s-3.9-0.3-5.2-0.8c-1.2-0.5-1.8-1-1.8-1.4v-1.7c0.4,0.2,0.8,0.4,1.2,0.6c1.6,0.6,3.7,0.9,5.8,0.9
	s4.2-0.3,5.8-0.9c0.4-0.2,0.8-0.4,1.2-0.6v1.7C19,45.8,18.5,46.4,17.3,46.8z"/>
<path class="st0" d="M32.9,0.5c-4.3,0-8.7,1.3-8.7,3.9v22c0.5-0.7,1.1-1.3,1.7-1.8v-1.2c0.3,0.1,0.5,0.3,0.8,0.4
	c0.5-0.4,1.1-0.8,1.6-1.2c-0.2-0.1-0.5-0.2-0.7-0.2c-0.2-0.1-0.4-0.2-0.6-0.2c-0.8-0.4-1.2-0.9-1.2-1.1v-1.7
	c0.4,0.2,0.8,0.4,1.2,0.6c1.4,0.5,3,0.8,4.8,0.9c0.3,0,0.7,0,1,0c2.1,0,4.2-0.3,5.8-0.9c0.3-0.1,0.5-0.2,0.7-0.3
	c0.2-0.1,0.3-0.2,0.5-0.2v0.3c0.6,0,1.1,0.1,1.7,0.2V4.4C41.6,1.9,37.2,0.5,32.9,0.5z M39.9,16.8c0,0.3-0.4,0.7-1.2,1.1
	c-0.2,0.1-0.4,0.2-0.6,0.2c-0.8,0.3-1.7,0.5-2.8,0.7c-0.8,0.1-1.6,0.2-2.5,0.2c-0.9,0-1.7-0.1-2.5-0.2c-1-0.1-2-0.4-2.8-0.7
	c-0.2-0.1-0.4-0.2-0.6-0.2c-0.8-0.4-1.2-0.9-1.2-1.1v-1.7c0.4,0.2,0.8,0.4,1.2,0.6c1.6,0.6,3.7,0.9,5.8,0.9s4.2-0.3,5.8-0.9
	c0.4-0.2,0.8-0.4,1.2-0.6V16.8z M39.9,12.7c0,0.3-0.4,0.7-1.2,1.1c-0.2,0.1-0.4,0.2-0.6,0.2c-0.8,0.3-1.7,0.5-2.8,0.7
	c-0.8,0.1-1.6,0.2-2.5,0.2c-0.9,0-1.7-0.1-2.5-0.2c-1-0.1-2-0.4-2.8-0.7c-0.2-0.1-0.4-0.2-0.6-0.2c-0.8-0.4-1.2-0.9-1.2-1.1V11
	c0.4,0.2,0.8,0.4,1.2,0.6c1.6,0.6,3.7,0.9,5.8,0.9s4.2-0.3,5.8-0.9c0.4-0.2,0.8-0.4,1.2-0.6V12.7z M39.9,8.6c0,0.3-0.4,0.7-1.2,1.1
	c-0.2,0.1-0.4,0.2-0.6,0.2c-0.8,0.3-1.7,0.5-2.8,0.7c-0.8,0.1-1.6,0.2-2.5,0.2c-0.9,0-1.7-0.1-2.5-0.2c-1-0.1-2-0.4-2.8-0.7
	c-0.2-0.1-0.4-0.2-0.6-0.2c-0.8-0.4-1.2-0.9-1.2-1.1V6.9c0.4,0.2,0.8,0.4,1.2,0.6c1.6,0.6,3.7,0.9,5.8,0.9s4.2-0.3,5.8-0.9
	c0.4-0.2,0.8-0.4,1.2-0.6V8.6z M38.7,5.6c-0.2,0.1-0.4,0.2-0.6,0.2c-0.8,0.3-1.7,0.5-2.8,0.7c-0.8,0.1-1.6,0.2-2.5,0.2
	c-0.9,0-1.7-0.1-2.5-0.2c-1-0.1-2-0.4-2.8-0.7c-0.2-0.1-0.4-0.2-0.6-0.2c-0.8-0.4-1.2-0.9-1.2-1.1c0-0.3,0.5-0.9,1.8-1.4
	c1.4-0.5,3.2-0.8,5.2-0.8s3.9,0.3,5.2,0.8c1.2,0.5,1.8,1,1.8,1.4C39.9,4.7,39.5,5.2,38.7,5.6z"/>
<g>
	<path class="st0" d="M38.2,23.1c-0.4,0-0.9,0-1.3,0.1c-0.4-0.1-0.9-0.1-1.3-0.1c-3.1,0-5.9,1.5-7.9,3.9c0,0,0,0-0.1,0.1
		c-0.6,0.8-1.2,1.7-1.6,2.6c0,0,0,0,0,0.1c-0.3,0.7-0.6,1.4-0.7,2.1c0,0,0,0.1,0,0.1c-0.3,1.1-0.4,2.2-0.4,3.4c0,1.9,0.4,3.6,1,5.2
		c0,0,0,0,0,0c0.4,0.9,0.9,1.8,1.5,2.6c0,0,0,0,0,0.1c0.6,0.8,1.3,1.5,2,2.1c0,0,0,0,0.1,0.1c1.8,1.4,3.9,2.2,6.2,2.2
		c0.4,0,0.8,0,1.3-0.1c0.4,0.1,0.8,0.1,1.3,0.1c6,0,10.8-5.5,10.8-12.3S44.1,23.1,38.2,23.1z M33.7,24.2c-0.1,0.1-0.3,0.1-0.4,0.2
		c-0.1,0-0.2,0.1-0.2,0.1c-0.1,0.1-0.2,0.1-0.3,0.2h-0.8c0.6-0.3,1.3-0.5,1.9-0.7C33.8,24.1,33.8,24.2,33.7,24.2z M29.4,42.6h-1.5
		c-0.4-0.5-0.7-1.1-1-1.7h1.6c0.1,0.2,0.1,0.3,0.2,0.4c0,0.1,0.1,0.1,0.1,0.2c0.1,0.2,0.2,0.3,0.3,0.5c0,0.1,0.1,0.1,0.1,0.2
		C29.3,42.3,29.4,42.5,29.4,42.6z M26.7,30.3h1.6c-0.1,0.2-0.1,0.4-0.2,0.6c0,0.1,0,0.1-0.1,0.2c-0.1,0.2-0.1,0.4-0.2,0.6h-1.7
		C26.4,31.1,26.5,30.7,26.7,30.3z M25.7,35.4c0-0.3,0-0.6,0-0.8h1.7c0,0,0,0,0,0c0,0.3,0,0.5,0,0.8c0,0.1,0,0.3,0,0.4h-1.7
		C25.7,35.7,25.7,35.5,25.7,35.4z M27.4,36.7c0,0.2,0,0.4,0.1,0.5c0,0,0,0,0,0c0,0.2,0.1,0.5,0.1,0.7h-1.7c-0.1-0.4-0.1-0.8-0.2-1.3
		H27.4z M27.7,32.4c0,0.1,0,0.1,0,0.2c0,0.1,0,0.1,0,0.2c-0.1,0.3-0.1,0.5-0.1,0.8c0,0,0,0,0,0c0,0,0,0.1,0,0.1h-1.7
		c0.1-0.4,0.1-0.9,0.2-1.3H27.7z M27.8,38.8c0,0.1,0,0.1,0,0.2c0,0,0,0,0,0.1c0.1,0.3,0.1,0.5,0.2,0.8c0,0.1,0,0.1,0.1,0.2
		c0,0,0,0.1,0,0.1h-1.6c-0.2-0.4-0.3-0.8-0.4-1.3H27.8z M29.2,28.6c0,0.1-0.1,0.1-0.1,0.2c-0.1,0.2-0.2,0.3-0.3,0.5
		c0,0.1-0.1,0.1-0.1,0.2c0,0,0,0,0,0h-1.6c0.3-0.6,0.7-1.2,1.1-1.7h1.5c-0.1,0.1-0.1,0.1-0.2,0.2C29.4,28.2,29.3,28.4,29.2,28.6z
		 M30.4,25.6h1.2c-0.1,0.1-0.2,0.2-0.3,0.3c-0.1,0.1-0.2,0.2-0.3,0.2c-0.1,0.1-0.2,0.2-0.2,0.3c-0.1,0.1-0.2,0.2-0.2,0.3
		c-0.1,0.1-0.1,0.2-0.2,0.2H29C29.4,26.4,29.9,26,30.4,25.6z M28.6,43.4H30c0,0.1,0.1,0.1,0.1,0.2c0.1,0.2,0.3,0.3,0.4,0.5
		c0.1,0.1,0.2,0.2,0.2,0.3c0.1,0.1,0.2,0.2,0.2,0.3c0,0,0.1,0.1,0.1,0.1h-1.3C29.4,44.3,29,43.9,28.6,43.4z M33.8,46.6
		c-1-0.2-1.9-0.6-2.7-1.1h1c0.1,0,0.1,0.1,0.2,0.1c0.1,0.1,0.2,0.1,0.3,0.2c0.2,0.1,0.3,0.2,0.5,0.3c0.1,0,0.2,0.1,0.2,0.1
		c0.1,0.1,0.3,0.2,0.4,0.2C33.8,46.6,33.8,46.6,33.8,46.6z M38.2,46.8c-0.3,0-0.7,0-1-0.1l-0.2,0c0,0,0,0-0.1,0
		c-0.1,0-0.3,0-0.4-0.1c0,0,0,0,0,0c-0.1,0-0.3-0.1-0.4-0.1c0,0,0,0-0.1,0c-0.1,0-0.3-0.1-0.4-0.1c0,0-0.1,0-0.1,0
		c-0.1,0-0.2-0.1-0.3-0.1c-0.1,0-0.2-0.1-0.3-0.1c-0.1,0-0.1,0-0.2-0.1c-2.3-1-4.2-2.9-5.3-5.3c0,0,0,0,0-0.1
		c-0.1-0.1-0.1-0.3-0.2-0.4c0-0.1,0-0.1-0.1-0.2c0-0.1-0.1-0.2-0.1-0.3c0-0.1-0.1-0.1-0.1-0.2c0-0.1-0.1-0.2-0.1-0.3
		c0-0.1,0-0.2-0.1-0.2c0-0.1-0.1-0.2-0.1-0.3c0-0.1,0-0.2-0.1-0.3c0-0.1,0-0.2-0.1-0.3c0-0.1,0-0.2-0.1-0.3c0-0.1,0-0.2-0.1-0.3
		c0-0.1,0-0.2,0-0.3c0-0.1,0-0.2,0-0.3c0-0.1,0-0.2,0-0.3c0-0.1,0-0.2,0-0.3c0-0.1,0-0.2,0-0.2c0-0.1,0-0.2,0-0.4c0-0.1,0-0.1,0-0.2
		c0-0.2,0-0.4,0-0.6s0-0.4,0-0.6c0-0.1,0-0.1,0-0.2c0-0.1,0-0.2,0-0.4c0-0.1,0-0.2,0-0.2c0-0.1,0-0.2,0-0.3c0-0.1,0-0.2,0-0.3
		c0-0.1,0-0.2,0-0.3c0-0.1,0-0.2,0-0.3c0-0.1,0-0.2,0.1-0.3c0-0.1,0-0.2,0.1-0.3c0-0.1,0-0.2,0.1-0.3c0-0.1,0-0.2,0.1-0.3
		c0-0.1,0.1-0.2,0.1-0.3c0-0.1,0-0.2,0.1-0.2c0-0.1,0.1-0.2,0.1-0.3c0-0.1,0-0.1,0.1-0.2c0-0.1,0.1-0.2,0.1-0.3c0-0.1,0-0.1,0.1-0.2
		c0.1-0.1,0.1-0.3,0.2-0.4c0,0,0,0,0-0.1c1.2-2.4,3-4.3,5.3-5.3c0.1,0,0.1,0,0.2-0.1c0.1,0,0.2-0.1,0.3-0.1c0.1,0,0.2-0.1,0.3-0.1
		c0,0,0.1,0,0.1,0c0.1,0,0.3-0.1,0.4-0.1c0,0,0,0,0.1,0c0.1,0,0.3-0.1,0.4-0.1c0,0,0,0,0,0c0.1,0,0.3-0.1,0.4-0.1c0,0,0,0,0.1,0
		l0.2,0c0.3,0,0.7-0.1,1-0.1c5.5,0,10,5.1,10,11.4S43.7,46.8,38.2,46.8z"/>
	<path class="st0" d="M30.6,35.4c0-0.3,0-0.5,0-0.8c0-0.2-0.2-0.4-0.4-0.5c-0.2,0-0.4,0.2-0.5,0.4c0,0.3,0,0.6,0,0.9v0
		c0,0.2,0.2,0.4,0.4,0.4S30.6,35.6,30.6,35.4z"/>
	<path class="st0" d="M45.5,33c0,0.2,0.2,0.3,0.4,0.3c0,0,0.1,0,0.1,0c0.2-0.1,0.4-0.3,0.3-0.5c-0.1-0.3-0.2-0.6-0.2-0.8
		c-0.1-0.2-0.3-0.3-0.5-0.3c-0.2,0.1-0.3,0.3-0.3,0.5C45.3,32.4,45.4,32.7,45.5,33z"/>
	<path class="st0" d="M43.7,41.3c-0.2,0.2-0.3,0.4-0.5,0.6c-0.2,0.2-0.2,0.4,0,0.6c0.1,0.1,0.2,0.1,0.3,0.1c0.1,0,0.2,0,0.3-0.1
		c0.2-0.2,0.4-0.4,0.6-0.7c0.1-0.2,0.1-0.4-0.1-0.6C44.1,41.1,43.9,41.2,43.7,41.3z"/>
	<path class="st0" d="M30.9,37.8c-0.1-0.2-0.3-0.4-0.5-0.3c-0.2,0.1-0.4,0.3-0.3,0.5c0.1,0.3,0.2,0.6,0.2,0.8
		c0.1,0.2,0.2,0.3,0.4,0.3c0,0,0.1,0,0.1,0c0.2-0.1,0.3-0.3,0.3-0.5C31.1,38.3,31,38.1,30.9,37.8z"/>
	<path class="st0" d="M42.4,27.1c-0.2-0.2-0.5-0.3-0.8-0.4c-0.2-0.1-0.5,0-0.6,0.2c-0.1,0.2,0,0.5,0.2,0.6c0.2,0.1,0.5,0.3,0.7,0.4
		c0.1,0,0.2,0.1,0.2,0.1c0.1,0,0.3-0.1,0.4-0.2C42.6,27.5,42.6,27.2,42.4,27.1z"/>
	<path class="st0" d="M41.3,43.3c-0.2,0.1-0.5,0.2-0.7,0.3c-0.2,0.1-0.3,0.3-0.2,0.5c0.1,0.2,0.2,0.3,0.4,0.3c0,0,0.1,0,0.1,0
		c0.3-0.1,0.5-0.2,0.8-0.4c0.2-0.1,0.3-0.4,0.2-0.6C41.7,43.3,41.5,43.2,41.3,43.3z"/>
	<path class="st0" d="M44.9,29.6c-0.2-0.2-0.3-0.5-0.5-0.7c-0.1-0.2-0.4-0.2-0.6-0.1c-0.2,0.1-0.2,0.4-0.1,0.6
		c0.2,0.2,0.3,0.4,0.5,0.6c0.1,0.1,0.2,0.2,0.4,0.2c0.1,0,0.2,0,0.2-0.1C44.9,30,45,29.8,44.9,29.6z"/>
	<path class="st0" d="M46.2,34.9c-0.2,0-0.4,0.2-0.4,0.4c0,0.3,0,0.5,0,0.8c0,0.2,0.2,0.4,0.4,0.5c0,0,0,0,0,0
		c0.2,0,0.4-0.2,0.4-0.4c0-0.3,0-0.6,0-0.8v0C46.6,35.1,46.4,34.9,46.2,34.9z"/>
	<path class="st0" d="M45.8,38.3c-0.2-0.1-0.5,0-0.5,0.3c-0.1,0.3-0.2,0.5-0.3,0.8c-0.1,0.2,0,0.5,0.2,0.6c0.1,0,0.1,0,0.2,0
		c0.2,0,0.3-0.1,0.4-0.3c0.1-0.3,0.2-0.5,0.3-0.8C46.1,38.6,46,38.3,45.8,38.3z"/>
	<path class="st0" d="M39.1,25.9c-0.3,0-0.6-0.1-0.9-0.1h0c-0.2,0-0.4,0.2-0.4,0.4c0,0.2,0.2,0.4,0.4,0.4c0.3,0,0.5,0,0.8,0
		c0,0,0,0,0,0c0.2,0,0.4-0.2,0.4-0.4C39.5,26.1,39.3,25.9,39.1,25.9z"/>
	<path class="st0" d="M32.2,40.7c-0.1-0.2-0.4-0.2-0.6-0.1c-0.2,0.1-0.2,0.4-0.1,0.6c0.2,0.2,0.3,0.5,0.5,0.7
		c0.1,0.1,0.2,0.2,0.3,0.2c0.1,0,0.2,0,0.3-0.1c0.2-0.1,0.2-0.4,0.1-0.6C32.5,41.2,32.4,40.9,32.2,40.7z"/>
	<path class="st0" d="M31.2,30.9c-0.2-0.1-0.5,0-0.6,0.2c-0.1,0.3-0.2,0.5-0.3,0.8c-0.1,0.2,0,0.5,0.3,0.5c0,0,0.1,0,0.1,0
		c0.2,0,0.3-0.1,0.4-0.3c0.1-0.3,0.2-0.5,0.3-0.8C31.5,31.3,31.4,31,31.2,30.9z"/>
	<path class="st0" d="M38.2,44.1c-0.3,0-0.5,0-0.8,0c-0.2,0-0.4,0.1-0.5,0.4c0,0.2,0.1,0.4,0.4,0.5c0.3,0,0.6,0.1,0.9,0.1h0
		c0.2,0,0.4-0.2,0.4-0.4S38.4,44.1,38.2,44.1z"/>
	<path class="st0" d="M32.6,28.2c-0.2,0.2-0.4,0.4-0.6,0.7c-0.1,0.2-0.1,0.4,0.1,0.6c0.1,0.1,0.2,0.1,0.3,0.1c0.1,0,0.2-0.1,0.3-0.2
		c0.2-0.2,0.3-0.4,0.5-0.6c0.2-0.2,0.2-0.4,0-0.6C33,28.1,32.8,28.1,32.6,28.2z"/>
	<path class="st0" d="M35.6,26.3c-0.3,0.1-0.5,0.2-0.8,0.4c-0.2,0.1-0.3,0.4-0.2,0.6c0.1,0.1,0.2,0.2,0.4,0.2c0.1,0,0.1,0,0.2,0
		c0.2-0.1,0.5-0.2,0.7-0.3c0.2-0.1,0.3-0.3,0.2-0.5C36,26.3,35.8,26.2,35.6,26.3z"/>
	<path class="st0" d="M35.1,43.4c-0.2-0.1-0.5-0.3-0.7-0.4c-0.2-0.1-0.5-0.1-0.6,0.1c-0.1,0.2-0.1,0.5,0.1,0.6
		c0.2,0.2,0.5,0.3,0.8,0.4c0.1,0,0.1,0,0.2,0c0.2,0,0.3-0.1,0.4-0.2C35.4,43.7,35.4,43.5,35.1,43.4z"/>
</g>
</svg>
