<svg id="Layer_1" data-name="Layer 1" xmlns="http://www.w3.org/2000/svg" viewBox="0 0 44 44"><defs><style>.cls-1{fill:#fff;}</style></defs><title>cpu-white</title><path class="cls-1" d="M9.4,4.6l-5,5V34.4l5,5H34.3l5-5V9.6l-5-5ZM38,33.9l-4.2,4.2H10L5.7,33.9V10.2L10,5.9H33.8L38,10.2Z" transform="translate(0)"/><polygon class="cls-1" points="11 7.3 7.2 11.1 7.2 32.9 11 36.7 32.7 36.7 36.5 32.9 36.5 11.1 32.7 7.3 11 7.3"/><path class="cls-1" d="M12.8,1.2A1.2,1.2,0,0,0,11.6,0h-.2a1.2,1.2,0,0,0-1.3,1.2h0V2.8h2.7Z" transform="translate(0)"/><path class="cls-1" d="M18,1.2A1.2,1.2,0,0,0,16.8,0h-.2a1.2,1.2,0,0,0-1.2,1.2V2.8H18Z" transform="translate(0)"/><path class="cls-1" d="M23.3,1.2A1.2,1.2,0,0,0,22.1,0h-.2a1.2,1.2,0,0,0-1.2,1.2V2.8h2.6Z" transform="translate(0)"/><path class="cls-1" d="M28.6,1.2A1.2,1.2,0,0,0,27.4,0h-.2A1.2,1.2,0,0,0,26,1.2V2.8h2.6Z" transform="translate(0)"/><path class="cls-1" d="M33.9,1.2A1.2,1.2,0,0,0,32.6,0h-.2a1.2,1.2,0,0,0-1.2,1.2h0V2.8h2.7Z" transform="translate(0)"/><path class="cls-1" d="M10.1,42.8A1.2,1.2,0,0,0,11.3,44h.3a1.2,1.2,0,0,0,1.2-1.2h0V41.2H10.1Z" transform="translate(0)"/><path class="cls-1" d="M15.4,42.8A1.2,1.2,0,0,0,16.6,44h.2A1.2,1.2,0,0,0,18,42.8V41.2H15.4Z" transform="translate(0)"/><path class="cls-1" d="M20.7,42.8A1.2,1.2,0,0,0,21.9,44h.2a1.2,1.2,0,0,0,1.2-1.2h0V41.2H20.7Z" transform="translate(0)"/><path class="cls-1" d="M26,42.8A1.2,1.2,0,0,0,27.2,44h.2a1.2,1.2,0,0,0,1.2-1.2h0V41.2H26Z" transform="translate(0)"/><path class="cls-1" d="M31.2,42.8A1.2,1.2,0,0,0,32.4,44h.3a1.2,1.2,0,0,0,1.2-1.2h0V41.2H31.2Z" transform="translate(0)"/><path class="cls-1" d="M42.8,10.1H41.2v2.7h1.6A1.2,1.2,0,0,0,44,11.6h0a1.2,1.2,0,0,0-1.2-1.3Z" transform="translate(0)"/><path class="cls-1" d="M42.8,15.4H41.2V18h1.6A1.2,1.2,0,0,0,44,16.8v-.2a1.2,1.2,0,0,0-1.2-1.2Z" transform="translate(0)"/><path class="cls-1" d="M42.8,20.7H41.2v2.6h1.6A1.2,1.2,0,0,0,44,22.1h0v-.2a1.2,1.2,0,0,0-1.2-1.2Z" transform="translate(0)"/><path class="cls-1" d="M42.8,25.9H41.2v2.7h1.6A1.3,1.3,0,0,0,44,27.4v-.2a1.2,1.2,0,0,0-1.2-1.3Z" transform="translate(0)"/><path class="cls-1" d="M42.8,31.2H41.2v2.7h1.6A1.2,1.2,0,0,0,44,32.7v-.2a1.2,1.2,0,0,0-1.2-1.3Z" transform="translate(0)"/><path class="cls-1" d="M0,11.4H0a1.2,1.2,0,0,0,1.2,1.3H2.8V10.1H1.2A1.2,1.2,0,0,0,0,11.4Z" transform="translate(0)"/><path class="cls-1" d="M0,16.6v.2A1.2,1.2,0,0,0,1.2,18H2.8V15.4H1.2A1.2,1.2,0,0,0,0,16.6Z" transform="translate(0)"/><path class="cls-1" d="M0,21.9v.2a1.2,1.2,0,0,0,1.2,1.3H2.8V20.7H1.2A1.2,1.2,0,0,0,0,21.9Z" transform="translate(0)"/><path class="cls-1" d="M0,27.2v.2a1.2,1.2,0,0,0,1.2,1.2H2.8V25.9H1.2A1.2,1.2,0,0,0,0,27.1Z" transform="translate(0)"/><path class="cls-1" d="M0,32.5v.2a1.2,1.2,0,0,0,1.2,1.2H2.8V31.2H1.2A1.2,1.2,0,0,0,0,32.5Z" transform="translate(0)"/><path class="cls-1" d="M13,25.1h-.6l-.4-.4a1.4,1.4,0,0,1-.2-.6V20a1.4,1.4,0,0,1,.2-.6l.4-.4h5.7v1H12.9v4h5.2v1Z" transform="translate(0)"/><path class="cls-1" d="M19,25.1V18.9h5.7a1,1,0,0,1,.4.5.8.8,0,0,1,.2.5v1.8a1.4,1.4,0,0,1-.2.6l-.4.4H20v2.1Zm1.2-3.2h4V20.1h0a.1.1,0,0,0-.1-.1H20.2a7961314590657.1,7961314590657.1,0,0,1-.2.2v1.6a.1.1,0,0,0,.1.1Z" transform="translate(0)"/><path class="cls-1" d="M26.5,25l-.4-.4a.7.7,0,0,1-.2-.6V18.9h1v5a.1.1,0,0,0,.1.1.1.1,0,0,0,.1.1H31a.1.1,0,0,0,.1-.1h0v-5h1.1V24a1.4,1.4,0,0,1-.2.6l-.4.4H26.5Z" transform="translate(0)"/></svg>