<svg id="Layer_1" data-name="Layer 1" xmlns="http://www.w3.org/2000/svg" viewBox="0 0 45.8 48.9"><defs><style>.cls-1{fill:#fff;}</style></defs><title>Customized-Pricing</title><path class="cls-1" d="M8.7,12.1C4.4,12.1,0,13.4,0,16V45.2H0c.2,2.4,4.5,3.7,8.7,3.7s8.4-1.3,8.7-3.7h0V16C17.4,13.4,13,12.1,8.7,12.1Zm7,24.6c0,.3-.4.7-1.2,1.1l-.6.2-2.8.7-2.5.2-2.5-.2A12.8,12.8,0,0,1,3.3,38l-.6-.2c-.6-.4-1-.8-1-1.1V35l1.2.6a19.1,19.1,0,0,0,11.6,0l1.2-.6Zm0-4.1c0,.3-.4.7-1.2,1.1l-.6.2-2.8.7-2.5.2-2.5-.2a12.8,12.8,0,0,1-2.8-.7l-.6-.2c-.6-.4-1-.9-1-1.1V30.9l1.2.6a19.1,19.1,0,0,0,11.6,0l1.2-.6Zm0-4.2c0,.3-.4.7-1.2,1.1l-.6.2-2.8.7-2.5.2-2.5-.2a12.8,12.8,0,0,1-2.8-.7l-.6-.2c-.6-.4-1-.8-1-1.1V26.7l1.2.6a19.1,19.1,0,0,0,11.6,0l1.2-.6Zm0-4.1c0,.3-.4.7-1.2,1.1l-.6.2-2.8.7a9.7,9.7,0,0,1-2.4.2l-2.5-.2a12.8,12.8,0,0,1-2.8-.7l-.6-.2c-.7-.4-1.1-.8-1.1-1.1V22.6l1.2.6a19.1,19.1,0,0,0,11.6,0l1.2-.6Zm-1.2-3-.6.2-2.8.7-2.5.2-2.5-.2a12.8,12.8,0,0,1-2.8-.7l-.6-.2c-.6-.4-1-.9-1-1.1V18.5l1.2.6a19.1,19.1,0,0,0,11.6,0l1.2-.6v1.7C15.7,20.4,15.3,20.9,14.5,21.3ZM1.7,39.1l1.2.6a19.1,19.1,0,0,0,11.6,0l1.2-.6v1.7c0,.3-.4.7-1.2,1.1l-.6.2-2.8.7L8.6,43l-2.5-.2a12.8,12.8,0,0,1-2.8-.7l-.6-.2c-.6-.4-1-.8-1-1.1ZM3.5,14.6a15.3,15.3,0,0,1,5.2-.8,15.3,15.3,0,0,1,5.2.8c1.2.5,1.8,1,1.8,1.4s-.4.7-1.2,1.1l-.6.2-2.8.7-2.5.2L6.1,18a12.8,12.8,0,0,1-2.8-.7l-.6-.2c-.6-.4-1-.8-1-1.1S2.3,15.1,3.5,14.6ZM14,46.3a15.3,15.3,0,0,1-5.2.8,15.3,15.3,0,0,1-5.2-.8c-1.2-.5-1.8-1-1.8-1.4V43.2l1.2.6a19.1,19.1,0,0,0,11.6,0l1.2-.6v1.7C15.7,45.3,15.2,45.9,14,46.3Z" transform="translate(0)"/><path class="cls-1" d="M29.6,0c-4.3,0-8.7,1.3-8.7,3.9v22a9.8,9.8,0,0,1,1.7-1.8V22.9l.8.4L25,22.1l-.7-.2-.6-.2c-.8-.4-1.2-.9-1.2-1.1V18.9l1.2.6a19.4,19.4,0,0,0,4.8.9h1a19,19,0,0,0,5.8-.9l.7-.3.5-.2v.3l1.7.2V3.9C38.3,1.4,33.9,0,29.6,0Zm7,16.3c0,.3-.4.7-1.2,1.1l-.6.2-2.8.7-2.5.2L27,18.3a12.8,12.8,0,0,1-2.8-.7l-.6-.2c-.8-.4-1.2-.9-1.2-1.1V14.6l1.2.6a19,19,0,0,0,5.8.9,19,19,0,0,0,5.8-.9l1.2-.6v1.7Zm0-4.1c0,.3-.4.7-1.2,1.1l-.6.2-2.8.7-2.5.2L27,14.2a12.8,12.8,0,0,1-2.8-.7l-.6-.2c-.8-.4-1.2-.9-1.2-1.1V10.5l1.2.6a19,19,0,0,0,5.8.9,19,19,0,0,0,5.8-.9l1.2-.6v1.7Zm0-4.1c0,.3-.4.7-1.2,1.1l-.6.2-2.8.7-2.5.2L27,10.1a12.8,12.8,0,0,1-2.8-.7l-.6-.2c-.8-.4-1.2-.9-1.2-1.1V6.4l1.2.6a19,19,0,0,0,5.8.9A19,19,0,0,0,35.2,7l1.2-.6V8.1Zm-1.2-3-.6.2L32,6l-2.5.2L27,6a12.8,12.8,0,0,1-2.8-.7l-.6-.2c-.8-.4-1.2-.9-1.2-1.1s.5-.9,1.8-1.4a15.3,15.3,0,0,1,5.2-.8,15.3,15.3,0,0,1,5.2.8c1.2.5,1.8,1,1.8,1.4S36.2,4.7,35.4,5.1Z" transform="translate(0)"/><path class="cls-1" d="M34.9,22.6H32.3a10.5,10.5,0,0,0-7.9,3.9h-.1a12,12,0,0,0-1.6,2.7h0a8.6,8.6,0,0,0-.7,2.1h0a13.2,13.2,0,0,0-.4,3.4,15.5,15.5,0,0,0,1,5.2h0a13.5,13.5,0,0,0,1.5,2.6h0a13.4,13.4,0,0,0,2,2.1h.1a10,10,0,0,0,6.2,2.2H35c6,0,10.8-5.5,10.8-12.3S40.8,22.6,34.9,22.6Zm-4.5,1.1-.4.2h-.2l-.3.2h-.8l1.9-.7ZM26.1,42.1H24.6a9.5,9.5,0,0,1-1-1.7h1.6c.1.2.1.3.2.4s.1.1.1.2l.3.5c0,.1.1.1.1.2A.8.8,0,0,1,26.1,42.1ZM23.4,29.8H25a4.2,4.2,0,0,0-.5,1.4H22.8Zm-1,5.1v-.8h1.7v1.2H22.4Zm1.9,2.5H22.6c-.1-.4-.1-.8-.2-1.3h1.7A4,4,0,0,0,24.3,37.4Zm.1-5.5v.4a2.2,2.2,0,0,0-.1.8H22.6c.1-.4.1-.9.2-1.3Zm.1,6.4v.2h0c.1.3.1.5.2.8s0,.1.1.2H23.2a6.5,6.5,0,0,1-.4-1.3h1.7Zm1.4-10.2c0,.1-.1.1-.1.2l-.3.5c0,.1-.1.1-.1.2H23.8a9.9,9.9,0,0,1,1.1-1.7h1.5l-.2.2Zm1.2-3h1.2l-.3.3-.3.2-.2.3-.2.3-.2.2H25.7A8.6,8.6,0,0,1,27.1,25.1ZM25.3,42.9h1.4c0,.1.1.1.1.2l.4.5c.1.1.2.2.2.3s.2.2.2.3H26.4A6.9,6.9,0,0,0,25.3,42.9Zm5.2,3.2A8.1,8.1,0,0,1,27.8,45H29l.3.2.5.3H30l.4.2Zm4.4.2H31.4A10.5,10.5,0,0,1,26.1,41h0c-.1-.1-.1-.3-.2-.4v-.2c0-.1-.1-.2-.1-.3s-.1-.1-.1-.2-.1-.2-.1-.3,0-.2-.1-.2-.1-.2-.1-.3a.4.4,0,0,0-.1-.3,3,3,0,0,1-.3-.9s-.2-2.4-.2-3.2.2-2.8.2-2.8.2-.9.3-1.2a14,14,0,0,1,.7-1.9,11.4,11.4,0,0,1,5.3-5.3h3.5c5.5,0,10,5.1,10,11.4S40.4,46.3,34.9,46.3Z" transform="translate(0)"/><path class="cls-1" d="M27.3,34.9v-.8a.7.7,0,0,0-.4-.5.7.7,0,0,0-.5.4v.9h0a.4.4,0,0,0,.4.4h0C27,35.3,27.3,35.1,27.3,34.9Z" transform="translate(0)"/><path class="cls-1" d="M42.2,32.5c0,.2.2.3.4.3h.1c.2-.1.4-.3.3-.5a2.4,2.4,0,0,1-.2-.8c-.1-.2-.3-.4-.5-.3s-.4.3-.3.5h0A2.4,2.4,0,0,0,42.2,32.5Z" transform="translate(0)"/><path class="cls-1" d="M40.4,40.8l-.5.6c-.2.1-.2.4,0,.6h.6l.6-.7a.5.5,0,0,0-.1-.6A.7.7,0,0,0,40.4,40.8Z" transform="translate(0)"/><path class="cls-1" d="M27.6,37.3c-.1-.2-.3-.4-.5-.3s-.4.3-.3.5a2.4,2.4,0,0,1,.2.8c.1.2.2.3.4.3h.1a.5.5,0,0,0,.3-.5A2.4,2.4,0,0,0,27.6,37.3Z" transform="translate(0)"/><path class="cls-1" d="M39.1,26.6a2,2,0,0,0-.8-.4.4.4,0,1,0-.4.8l.7.4h.2l.4-.2C39.3,27,39.3,26.7,39.1,26.6Z" transform="translate(0)"/><path class="cls-1" d="M38,42.8l-.7.3a.4.4,0,0,0-.2.5c.1.2.2.3.4.3h.1l.8-.4a.5.5,0,0,0,.2-.6A.7.7,0,0,0,38,42.8Z" transform="translate(0)"/><path class="cls-1" d="M41.6,29.1l-.5-.7c-.1-.2-.4-.2-.6-.1s-.2.4-.1.6l.5.6.4.2h.2c.2-.1.3-.4.1-.5Z" transform="translate(0)"/><path class="cls-1" d="M42.9,34.4a.4.4,0,0,0-.4.4h0v.8a.7.7,0,0,0,.4.5h0a.4.4,0,0,0,.4-.4h0v-.8h0C43.3,34.7,43.1,34.4,42.9,34.4Z" transform="translate(0)"/><path class="cls-1" d="M42.5,37.8h-.4a.4.4,0,0,0-.1.3l-.3.8a.5.5,0,0,0,.2.6h.2c.2,0,.3-.1.4-.3l.3-.8C42.8,38.1,42.7,37.8,42.5,37.8Z" transform="translate(0)"/><path class="cls-1" d="M35.8,25.4h-.9a.4.4,0,0,0,0,.8h.8a.4.4,0,0,0,.4-.4h0C36.2,25.6,36,25.4,35.8,25.4Z" transform="translate(0)"/><path class="cls-1" d="M28.9,40.2c-.1-.2-.4-.2-.6-.1s-.2.4-.1.6l.5.7.3.2h.3c.2-.1.2-.4.1-.6Z" transform="translate(0)"/><path class="cls-1" d="M27.9,30.4a.5.5,0,0,0-.6.2l-.3.8a.3.3,0,0,0,0,.4h.4c.2,0,.3-.1.4-.3l.3-.8C28.2,30.8,28.1,30.5,27.9,30.4Z" transform="translate(0)"/><path class="cls-1" d="M34.9,43.6h-.8a.5.5,0,1,0-.5.9h1.3a.4.4,0,0,0,.4-.4h0C35.3,44,35.1,43.6,34.9,43.6Z" transform="translate(0)"/><path class="cls-1" d="M29.3,27.7l-.6.7a.5.5,0,0,0,.1.6h.3l.3-.2.5-.6c.2-.1.2-.4,0-.6h-.6Z" transform="translate(0)"/><path class="cls-1" d="M32.3,25.8l-.8.4a.5.5,0,0,0-.2.6.5.5,0,0,0,.4.2h.2l.7-.3a.4.4,0,0,0,.2-.5C32.7,25.8,32.5,25.7,32.3,25.8Z" transform="translate(0)"/><path class="cls-1" d="M31.8,42.9l-.7-.4c-.2-.1-.5-.1-.6.1s-.1.5.1.6l.8.4h.2a.5.5,0,0,0,.4-.2C32.1,43.2,32.1,43,31.8,42.9Z" transform="translate(0)"/></svg>