<svg xmlns="http://www.w3.org/2000/svg" width="72.007" height="64.314" viewBox="0 0 72.007 64.314">
  <g id="developer" transform="translate(-0.534 -1.75)">
    <path id="Path_67519" data-name="Path 67519" d="M68.32,26.013c1.632-3.327,6.937-16.008-2.7-23.886a1.569,1.569,0,0,0-.847-.377c-6.278,0-14.093,7.69-16.51,10.2a45.858,45.858,0,0,0-23.353,0C22.431,9.409,14.553,1.75,8.526,1.75a1.569,1.569,0,0,0-1,.345C-.765,8.812,1.746,19.861,4.791,25.888A29.536,29.536,0,0,0,.679,44.093C1.5,54.482,10.1,66.064,21.019,66.064H52.061c10.986,0,19.555-11.582,20.339-21.972a29.5,29.5,0,0,0-4.08-18.08ZM49.08,58.249H23.969A10.986,10.986,0,0,1,12.983,47.263c0-18.55,12.963-11.08,23.541-11.08s23.541-7.659,23.541,11.08A10.986,10.986,0,0,1,49.08,58.249Z" transform="translate(0 0)" fill="#fff"/>
    <ellipse id="Ellipse_9935" data-name="Ellipse 9935" cx="3.139" cy="4.708" rx="3.139" ry="4.708" transform="translate(44.434 42.555)" fill="#fff"/>
    <ellipse id="Ellipse_9936" data-name="Ellipse 9936" cx="3.139" cy="4.708" rx="3.139" ry="4.708" transform="translate(22.463 42.555)" fill="#fff"/>
  </g>
</svg>
