<svg id="Layer_1" data-name="Layer 1" xmlns="http://www.w3.org/2000/svg" viewBox="0 0 186.13 49.72"><defs><style>.cls-1{fill:#d06d28;}.cls-2,.cls-3{fill:#035189;}.cls-3{fill-rule:evenodd;}</style></defs><title>smartcoud-logo</title><path class="cls-1" d="M.87,37.87c0-7,5.5-12.13,12.77-12.13A13.14,13.14,0,0,1,23.87,30L18.54,34.8a5.75,5.75,0,0,0-4.44-2.23c-2.63,0-4.86,2-4.86,5.3s2.16,5.2,4.76,5.2a6.33,6.33,0,0,0,4.64-2.23l5.29,4.76c-2.46,3.1-6,4.4-10,4.4C6.51,50,.87,44.9.87,37.87Z" transform="translate(-0.87 -0.28)"/><path class="cls-1" d="M25,49.53V26.21h8.24V42.77h9.06v6.76Z" transform="translate(-0.87 -0.28)"/><path class="cls-1" d="M80.81,39.34V26.21h8.33v13c0,2.5,1.13,3.86,3.23,3.86s3.33-1.36,3.33-3.86v-13h8.24V39.34C103.94,45.9,99.5,50,92.37,50S80.81,45.9,80.81,39.34Z" transform="translate(-0.87 -0.28)"/><path class="cls-1" d="M105.44,49.53V26.21h11.3c8.1,0,13.3,4.53,13.3,11.59s-5.2,11.73-13.3,11.73Zm8.34-6.79h2.59c3.17,0,5.2-1.9,5.2-4.9s-2-4.84-5.2-4.84h-2.59Z" transform="translate(-0.87 -0.28)"/><path class="cls-1" d="M137.67,49.53,128.2,26.21H137l4.86,14h0l4.87-14h8.73L146,49.53Z" transform="translate(-0.87 -0.28)"/><path class="cls-1" d="M187,36.44V49.53h-8.33V36.7c0-1.9-.9-2.76-2.1-2.76s-2.1.86-2.1,2.76v2.38h-8.33V36.74c0-1.9-.87-2.8-2.07-2.8s-2.13.86-2.13,2.76V49.53h-8.33V36.44c0-6.7,4.1-10.7,9.13-10.7A9,9,0,0,1,170,29.2a9.94,9.94,0,0,1,7.84-3.46C182.8,25.74,187,29.74,187,36.44Z" transform="translate(-0.87 -0.28)"/><path class="cls-2" d="M29.06,21.54l3.23-5.77a16.3,16.3,0,0,0,8.23,2.8c1,0,1.93-.3,1.93-1.1,0-1-1.1-1.27-3.43-1.73-5.4-1.13-9.46-3-9.46-7.83,0-5.1,4.53-7.6,10.56-7.6a17,17,0,0,1,9.8,2.63l-3.3,5.77a14.09,14.09,0,0,0-6.93-2.4c-1.1,0-1.84.2-1.84,1s.87,1.2,3.37,1.73c6.13,1.27,9.5,3.07,9.5,7.56,0,5.1-4.57,8-10.73,8C35.62,24.57,31.36,23.34,29.06,21.54Z" transform="translate(-0.87 -0.28)"/><path class="cls-2" d="M86,11V24.1H77.62V11.27c0-1.9-.9-2.76-2.1-2.76s-2.1.86-2.1,2.76V24.1H65.09V11.31c0-1.9-.87-2.8-2.07-2.8s-2.13.86-2.13,2.76V24.1H52.56V11c0-6.7,4.09-10.7,9.13-10.7A9,9,0,0,1,69,3.77,9.93,9.93,0,0,1,76.78.31C81.75.31,86,4.31,86,11Z" transform="translate(-0.87 -0.28)"/><path class="cls-2" d="M111.75,11V24.1h-8.23V19.94H96.79V24.1H88.46V11C88.46,4.61,93.22.28,100.09.28S111.75,4.61,111.75,11Zm-15,2.17h6.73V11a3.44,3.44,0,0,0-3.43-3.76c-2,0-3.3,1.5-3.3,3.76Z" transform="translate(-0.87 -0.28)"/><path class="cls-2" d="M128.22,24.1l-4.07-5.86h-1.56V24.1h-8.33V11.34c0-7.43,3.63-11,10.69-11,6.8,0,10.73,4.36,10.73,9.1,0,3.4-1.33,5.86-3.8,7.3l5.2,7.39ZM122.59,12H125c1.76,0,2.93-.77,2.93-2.27a2.55,2.55,0,0,0-2.7-2.66c-1.67,0-2.63,1.33-2.63,3.6Z" transform="translate(-0.87 -0.28)"/><path class="cls-2" d="M158.82.77V7.61h-6.73V24.1h-8.34V7.61h-6.66V.77Z" transform="translate(-0.87 -0.28)"/><path class="cls-3" d="M75.45,35.87l-.35-.18v-1a4.55,4.55,0,0,0-4.52-4.52,4.46,4.46,0,0,0-2.52.78,8.19,8.19,0,0,1,1.63,4.15h3.52l-6.1,6.16L61,35.11l2.51,0h3.38c-.52-4.37-2.31-6.54-3.69-7.49a8.36,8.36,0,0,0-2.92-1.18l0,0-.33-.05h0a8.14,8.14,0,0,0-1-.07,9.68,9.68,0,0,0-9.5,8.62,5.46,5.46,0,0,0,.12,1.64,6.48,6.48,0,0,0-.77.06A6.65,6.65,0,0,0,43.43,43a6.53,6.53,0,0,0,6.51,6.51H64.75c-4.34-.11-9.06-3.63-9.48-6.51l-3.51.06,6.1-6.16L64,43H60.44c.5,6,7.19,6.51,7.19,6.51h5a7.05,7.05,0,0,0,7-7A7.7,7.7,0,0,0,75.45,35.87Z" transform="translate(-0.87 -0.28)"/><path class="cls-1" d="M173.78,39.64H166.9A1.35,1.35,0,0,0,165.55,41v.19a1.35,1.35,0,0,0,1.35,1.36h6.88a1.36,1.36,0,0,0,1.35-1.36V41A1.36,1.36,0,0,0,173.78,39.64Zm.08,1.89a.46.46,0,0,1-.45-.46.46.46,0,1,1,.91,0A.46.46,0,0,1,173.86,41.53Z" transform="translate(-0.87 -0.28)"/><path class="cls-1" d="M173.78,43.1H166.9a1.35,1.35,0,0,0-1.35,1.35v.2A1.34,1.34,0,0,0,166.9,46h6.88a1.35,1.35,0,0,0,1.35-1.35v-.2A1.36,1.36,0,0,0,173.78,43.1Zm.08,1.88a.45.45,0,0,1-.45-.46.46.46,0,1,1,.45.46Z" transform="translate(-0.87 -0.28)"/><path class="cls-1" d="M173.78,46.59H166.9a1.34,1.34,0,0,0-1.35,1.35v.2a1.35,1.35,0,0,0,1.35,1.35h6.88a1.36,1.36,0,0,0,1.35-1.35v-.2A1.35,1.35,0,0,0,173.78,46.59Zm.08,1.88a.46.46,0,1,1,.46-.46A.46.46,0,0,1,173.86,48.47Z" transform="translate(-0.87 -0.28)"/></svg>