<svg id="_01" data-name="01" xmlns="http://www.w3.org/2000/svg" viewBox="0 0 440 512"><defs><style>.cls-1{fill:#e67225;}</style></defs><title>notification</title><path class="cls-1" d="M456,357.3a40.1,40.1,0,0,1-20-34.8V230c0-82.2-55.2-151.6-130.5-173.1A53.4,53.4,0,0,0,306,50a50,50,0,0,0-100,0,53.4,53.4,0,0,0,.5,6.9C131.2,78.4,76,147.8,76,230v92.5a40.1,40.1,0,0,1-20,34.8,40.2,40.2,0,0,0-20,33.9C35.6,413.7,54.3,432,76.8,432H176a80,80,0,0,0,160,0h99.2c22.5,0,41.2-18.3,40.8-40.8A40.2,40.2,0,0,0,456,357.3Z" transform="translate(-36)"/></svg>