<svg xmlns="http://www.w3.org/2000/svg" width="254.555" height="222.246" viewBox="0 0 254.555 222.246">
  <g id="ooops-icon" transform="translate(-846.016 -431.099)">
    <g id="Group_6463" data-name="Group 6463" transform="translate(846.458 432.835)">
      <path id="Path_43417" data-name="Path 43417" d="M902.953,625.386c-1.6-3.529.723-6.649,1.178-9.938.773-5.592,1.45-11.136.7-16.759-1.244-9.381-8-14.526-17.4-13.968a87.01,87.01,0,0,0-20.26,3.482,6.548,6.548,0,0,0-.566-.627l5.986-5.238c-11.377-14.071-13.438-29.672-5.853-43.141-6.487-3.112-13.4-4.828-20.283-6.95,5.925-1.038,11.936-.912,17.768-2.237a40.768,40.768,0,0,0,10.744-3.728c7.8-4.275,11.363-10.861,10.547-19.771-1.043-11.381-6.511-20.986-12.212-30.5-1.335-2.227-2.737-4.413-4.621-7.444,3.3.636,4.691,2.381,6.37,3.552,4.315,3.014,8.67,5.953,13.649,7.773,8.427,3.081,13.274.475,15.274-8.217,1.407-6.111.846-12.258.185-18.4-.248-2.306-1.009-4.6-.326-6.914,2.907-1.251,3.457,1.338,4.522,2.757,5.668,7.55,11.473,14.971,18.374,21.464a51.626,51.626,0,0,0,9.485,7.247c9.712,5.613,17.389,3.692,22.791-6.154,5.678-10.349,7.784-21.75,8.847-33.37.157-1.718.022-3.462.022-5.194l1.406-.28c1.01,3.316,2.042,6.625,3.023,9.95,1.745,5.914,3.541,11.814,6.757,17.139,6.015,9.963,13.875,11.922,23.908,5.86,9-5.437,15.745-13.3,22.383-21.25a20.31,20.31,0,0,1,4.776-4.664c-.943,4.818-1.948,9.623-2.811,14.455a63.853,63.853,0,0,0-.774,17.881c1.281,12.353,8.86,18.837,21.294,18.074a69.448,69.448,0,0,0,20.053-4.652c1.65-.616,3.341-1.119,5.91-1.972-2.081,4.8-6.54,6.065-8.661,9.75,3.8,3.362,2.916,8.389,3.811,12.839,1.916,9.529,1.592,19.4,4.189,28.841.606,2.207.463,4.689-1.04,6.213-1.713,1.741-.729,3.3-.71,4.973-3.958-1.3,5.168,2.651,5.307,7.36.1,3.276,1.392,4.8,4.183,5.973a155.114,155.114,0,0,1,14.223,6.868c-7.673.339-15.332.622-22.74,2.622a51.264,51.264,0,0,0-9.667,3.492c-8.68,4.369-12.26,12.1-10.417,21.7a48.774,48.774,0,0,0,4.816,13.784c2.293,4.31,4.742,8.537,7.262,13.045-3.3-.363-5.766-2.568-8.61-3.8-5.335-2.3-10.688-4.478-16.527-5.142-8.33-.947-14.164,2.563-16.781,10.505-2.541,7.718-2.416,15.685-1.269,25.094-3.344-4.6-5.867-8.2-8.518-11.7-3.62-4.776-7.487-9.339-12.512-12.739-8.026-5.432-14.464-4.2-19.891,3.871-3.571,5.311-5.627,11.306-7.427,17.393-2.062-.015-1.511-1.747-1.856-2.755-3.177-9.275-6.638-18.415-12.736-26.259-8.863-11.4-19.7-14.061-32.681-7.814a72.725,72.725,0,0,0-22.61,17.513Z" transform="translate(-846.458 -432.835)" fill="#035189" stroke="#fff" stroke-width="3"/>
      <path id="Path_43420" data-name="Path 43420" d="M971.942,548.558c.265,2.071.42,3.68.681,5.273,1.567,9.563,1.576,9.562-8.163,12-10.981,2.749-10.895,2.732-13.075-8.279-2.3-11.61-5.145-23.127-6.994-34.8-.637-4.024-.768-8.234-1.479-12.313-.493-2.829,1.235-4.065,3.337-4.826A92.728,92.728,0,0,1,979.17,499.6c6.9.093,11.488,4.1,13.725,10.513a55.764,55.764,0,0,1,3.328,17.343c.192,10.474-4.125,16.109-14.3,18.859C978.811,547.159,975.625,547.739,971.942,548.558Zm-5.987-32.894c1.18,6.4,2.242,12.154,3.354,18.187,6.6-1.243,5.483-5.786,4.686-9.627C973.176,520.284,973.556,514.729,965.955,515.665Z" transform="translate(-837.907 -426.912)" fill="#fff"/>
      <path id="Path_43421" data-name="Path 43421" d="M900.946,533.345a20.926,20.926,0,0,1,11.227-16.869c8.161-4.238,16.89-5.693,25.458-.924,6.844,3.808,8.011,11.126,9.99,17.79a34.648,34.648,0,0,1,1.163,7.42c1.291,18.569-10.508,29.452-29.057,26.783a15.9,15.9,0,0,1-12.381-8.726A52.977,52.977,0,0,1,900.946,533.345Zm29.443,15.625c-.508-7.2-1.494-14.329-4.144-21.116-.618-1.583-1.573-2.934-3.552-2.708a2.5,2.5,0,0,0-2.288,2.6,59.959,59.959,0,0,0,4.713,26.331,2.517,2.517,0,0,0,3.151,1.456,2.694,2.694,0,0,0,2.105-2.775C930.441,551.5,930.389,550.232,930.389,548.971Z" transform="translate(-841.623 -425.76)" fill="#fff"/>
      <path id="Path_43422" data-name="Path 43422" d="M998.008,536.133a53.351,53.351,0,0,0,13.784,1.465c1.827-.057,3.975.327,4.406-1.991.52-2.8-2.042-3.147-3.87-3.512a49.85,49.85,0,0,1-9.928-2.745c-6.732-2.873-10.83-9.09-10.362-17.565.318-5.758,5.618-11.453,12.521-13.325a56.531,56.531,0,0,1,18.348-1.549c4.173.254,6.439,2.122,5.977,6.529-.207,1.978-.469,3.951-.734,5.922-.414,3.088-1.618,4.513-5.1,3.239a13.473,13.473,0,0,0-8.579-.01,2.742,2.742,0,0,0-2.222,2.143c-.187,1.557,1.03,2.283,2.269,2.592,2.28.568,4.636.831,6.919,1.386,9.287,2.257,14.2,8.253,14.253,17.28.046,8.123-4.42,13.188-13.791,15.635a46.452,46.452,0,0,1-17.236,1.489c-7.015-.819-7.8-1.721-7.955-8.9A22.572,22.572,0,0,1,998.008,536.133Z" transform="translate(-833.545 -427.163)" fill="#fff"/>
      <path id="Path_43423" data-name="Path 43423" d="M864.786,545.443c-.257-15.378,13.142-25.173,26.716-20.1,11.326,4.235,11,15.048,12.3,24.451a17.126,17.126,0,0,1-9.752,17.846c-13.02,6.247-23.855,1.394-27.709-12.471C865.378,551.689,864.61,548.146,864.786,545.443Zm23.5,7.5a50.817,50.817,0,0,0-3.107-15.733c-.509-1.392-1.219-2.738-3.081-2.447-1.935.3-1.979,1.873-2.015,3.326a49.728,49.728,0,0,0,2.237,15.539c.723,2.4.655,6.48,4.113,5.979S886.947,555.217,888.285,552.947Z" transform="translate(-844.834 -424.747)" fill="#fff"/>
      <path id="Path_43424" data-name="Path 43424" d="M1042.232,536.122c-3.077.453-4.583-1.388-5.272-4.475-2.566-11.494-5.118-22.992-7.871-34.442-.763-3.18.233-4.507,3.217-5.514,13.688-4.621,14.478-4.233,16.6,9.72,1.306,8.581,2.535,17.174,3.817,25.758C1053.515,532.446,1049.457,536.036,1042.232,536.122Z" transform="translate(-830.275 -427.848)" fill="#fff"/>
      <path id="Path_43425" data-name="Path 43425" d="M1054.262,537.028c2.765,9.713,1.7,11.558-7.343,13.6-3.9.88-6.547-.39-7.793-4.026-1.339-3.9-1.083-7.459,3.345-9.519,4-1.861,7.932-1.255,11.89.047Z" transform="translate(-829.427 -423.69)" fill="#fff"/>
    </g>
  </g>
</svg>
