<svg xmlns="http://www.w3.org/2000/svg" width="50.062" height="50.21" viewBox="0 0 50.062 50.21">
  <g id="price-orange" transform="translate(-11.906 -16.335)">
    <g id="Group_2079" data-name="Group 2079" transform="translate(-316.864 -187.385) rotate(-45)">
      <path id="Union_1" data-name="Union 1" d="M5,22.161a5,5,0,0,1-5-5V5A5,5,0,0,1,5,0H38.972v.37a3.985,3.985,0,0,1,1.676,1.164l5.994,6.928a4,4,0,0,1,0,5.234l-5.994,6.928a3.987,3.987,0,0,1-1.676,1.164v.37Z" transform="translate(64 400.95)" fill="#e67225"/>
      <circle id="Ellipse_26" data-name="Ellipse 26" cx="1.528" cy="1.528" r="1.528" transform="translate(107.557 410.12)" fill="#fff"/>
      <path id="Path_80" data-name="Path 80" d="M2.28-4.7V-2.21H.825V-9.272H3.58a3.188,3.188,0,0,1,1.4.291,2.145,2.145,0,0,1,.929.827,2.306,2.306,0,0,1,.325,1.22A2.028,2.028,0,0,1,5.523-5.3a2.96,2.96,0,0,1-1.967.6Zm0-1.179h1.3a1.278,1.278,0,0,0,.88-.272.988.988,0,0,0,.3-.776,1.165,1.165,0,0,0-.306-.839,1.142,1.142,0,0,0-.844-.33H2.28ZM9.847-4.8H8.688V-2.21H7.233V-9.272H9.857a2.966,2.966,0,0,1,1.931.558,1.925,1.925,0,0,1,.679,1.576,2.173,2.173,0,0,1-.313,1.205,2.134,2.134,0,0,1-.948.769l1.528,2.886v.068H11.171ZM8.688-5.974H9.862a1.2,1.2,0,0,0,.849-.279,1,1,0,0,0,.3-.769,1.067,1.067,0,0,0-.284-.786,1.179,1.179,0,0,0-.871-.286H8.688ZM15.12-2.21H13.665V-9.272H15.12Zm6.893-2.353a2.5,2.5,0,0,1-.842,1.795,2.956,2.956,0,0,1-2,.655,2.658,2.658,0,0,1-2.137-.914,3.749,3.749,0,0,1-.779-2.51v-.432a4.234,4.234,0,0,1,.359-1.795A2.69,2.69,0,0,1,17.64-8.954a2.874,2.874,0,0,1,1.55-.415,2.879,2.879,0,0,1,1.969.655,2.686,2.686,0,0,1,.863,1.838H20.567a1.475,1.475,0,0,0-.381-.992,1.41,1.41,0,0,0-1-.308,1.236,1.236,0,0,0-1.089.521,2.922,2.922,0,0,0-.371,1.618V-5.5a3.128,3.128,0,0,0,.347,1.673A1.213,1.213,0,0,0,19.17-3.3a1.437,1.437,0,0,0,1.006-.308,1.391,1.391,0,0,0,.381-.953Zm5.2-.708H24.423v1.892H27.7V-2.21H22.968V-9.272h4.724v1.179H24.423V-6.41h2.794Z" transform="translate(71.447 417.679)" fill="#fff"/>
    </g>
    <path id="Path_42975" data-name="Path 42975" d="M127.844,412.977s6.114-.644,6.842,1.831-6.988,2.62-11.937,0" transform="translate(-328.682 -179.606) rotate(-45)" fill="none" stroke="#e67225" stroke-width="1"/>
  </g>
</svg>
