<svg id="Layer_1" data-name="Layer 1" xmlns="http://www.w3.org/2000/svg" viewBox="0 0 509.7 133.7"><defs><style>.cls-1{fill:#366f9f;}.cls-2{fill:#ffd343;}</style></defs><title>python-logo</title><g id="Layer_4" data-name="Layer 4"><path id="path46" d="M207.1,260.6c0-16.8-4.8-25.5-14.4-26a26.9,26.9,0,0,0-11.2,1.8,17.3,17.3,0,0,0-5.9,3.1v40.2c6.1,3.9,11.6,5.6,16.4,5.4C202,284.5,207.1,276.3,207.1,260.6Zm11.8.7q0,12.9-6,21.3a22.3,22.3,0,0,1-18.7,9.9c-6,.2-12.2-1.7-18.6-5.6v36.5l-10.3-3.7V238.6a23.1,23.1,0,0,1,6.5-5.4c6.1-3.6,13.6-5.4,22.4-5.5h.1c8-.1,14.2,3.2,18.5,9.9S218.9,251.7,218.9,261.3Z" transform="translate(0 -192.8)"/><path id="path48" d="M281.9,285.3c0,11.5-1.1,19.4-3.4,23.8s-6.7,7.9-13.2,10.6a50.5,50.5,0,0,1-17.1,3.4l-1.7-6.5a82,82,0,0,0,13.1-2.5c5-1.7,8.4-4.3,10.3-7.8s2.3-8.2,2.3-16.2v-2.7a52.8,52.8,0,0,1-22.2,4.8,20.2,20.2,0,0,1-13.4-4.8,16.4,16.4,0,0,1-6.5-13.3V231.2l10.3-3.5v43.2c0,4.6,1.5,8.2,4.5,10.7s6.8,3.7,11.6,3.6,9.8-1.9,15.2-5.5V229.3H282v56Z" transform="translate(0 -192.8)"/><path id="path50" d="M322.2,291.9h-3.4c-5.8,0-10.4-1.4-13.6-4.2a14.5,14.5,0,0,1-4.9-11.5V235.7h-7.1v-6.5h7.1V212l10.3-3.7v20.9h11.6v6.5H310.6V276c0,3.9,1,6.6,3.1,8.2s4.6,2.1,8.5,2.3Z" transform="translate(0 -192.8)"/><path id="path52" d="M384.5,291.1H374.2V251.3a18.6,18.6,0,0,0-2.8-10.4,10.3,10.3,0,0,0-9.1-4.9q-7.1,0-17.7,7.5v47.7H334.3V196l10.3-3.2v43.3a35.9,35.9,0,0,1,21.6-7.2c5.5,0,9.9,1.8,13.3,5.5a19.4,19.4,0,0,1,5.1,13.7v43Z" transform="translate(0 -192.8)"/><path id="path54" d="M439.3,259c0-6.5-1.2-11.8-3.7-16s-7.4-7.9-13.5-8.2c-11.3.7-16.9,8.7-16.9,24.3,0,7.1,1.2,13.1,3.5,17.8s7.6,9.1,13.6,9C433.7,285.8,439.3,276.8,439.3,259Zm11.3.1c0,9.2-2.4,16.9-7.1,23s-12.3,10.3-21.4,10.3S406,289,400.9,282.1s-6.9-13.8-6.9-23,2.5-15.9,7.5-21.9,12.2-9.4,20.7-9.4a26.6,26.6,0,0,1,20.9,9.4Q450.6,246.1,450.6,259.1Z" transform="translate(0 -192.8)"/><path id="path56" d="M509.7,291.1H499.4v-42q0-6.9-4.2-10.8c-2.8-2.6-6.5-3.8-11.1-3.7a24.9,24.9,0,0,0-14,4.8v51.8H459.8V238c5.9-4.3,11.4-7.1,16.4-8.5a51.4,51.4,0,0,1,12.4-1.8,31.1,31.1,0,0,1,6.9.7,20.5,20.5,0,0,1,9.9,5.2,13.9,13.9,0,0,1,4.2,10.2v47.3Z" transform="translate(0 -192.8)"/><path id="path1948" class="cls-1" d="M63.5,196.4a84,84,0,0,0-14.8,1.3c-13.1,2.3-15.5,7.2-15.5,16.1v11.8h31v3.9H21.6c-9,0-16.9,5.4-19.4,15.7-2.8,11.8-3,19.2,0,31.5,2.2,9.2,7.5,15.7,16.5,15.7H29.4V278.2c0-10.2,8.9-19.3,19.4-19.3h31a15.6,15.6,0,0,0,15.5-15.8V213.6c0-8.4-7.1-14.7-15.5-16.1A128.7,128.7,0,0,0,63.5,196.4Zm-16.7,9.5a5.9,5.9,0,0,1,5.8,5.9,5.8,5.8,0,1,1-11.6,0A5.7,5.7,0,0,1,46.8,205.9Z" transform="translate(0 -192.8)"/><path id="path1950" class="cls-2" d="M99.1,229.5v13.8C99.1,254,90,263,79.7,263h-31a15.8,15.8,0,0,0-15.5,15.8v29.5c0,8.4,7.3,13.4,15.5,15.8,9.8,2.9,19.2,3.4,31,0,7.8-2.3,15.5-6.8,15.5-15.8V296.5h-31v-3.9h46.5c9,0,12.4-6.3,15.5-15.7s3.1-19.1,0-31.5c-2.2-9-6.5-15.7-15.5-15.7l-11.6-.2ZM81.6,304.3a5.9,5.9,0,0,1,0,11.8,5.9,5.9,0,0,1,0-11.8Z" transform="translate(0 -192.8)"/></g></svg>