<svg id="Layer_1" data-name="Layer 1" xmlns="http://www.w3.org/2000/svg" viewBox="0 0 6.21 8.75"><defs><style>.cls-1{fill:#fff;}</style></defs><title>rupee-icon</title><path class="cls-1" d="M19,10.73h5.64v0c-.33.51-.52.78-.56.82H22.61a1.86,1.86,0,0,1,.42.88h1.61s0,0,0,0c-.36.54-.54.81-.55.81h-1a2.5,2.5,0,0,1-.4,1,2.45,2.45,0,0,1-.92.77,3.67,3.67,0,0,1-1.57.39v0s1.13,1.38,3.39,4h-1.5q-3.3-3.84-3.3-3.87v-.8a6.77,6.77,0,0,0,.69,0c1.23,0,2-.4,2.3-1.2a.94.94,0,0,0,.07-.37H18.5s0,0,0,0l.56-.81H21.7a1.52,1.52,0,0,0-.88-.72,2.77,2.77,0,0,0-.84-.15H18.49v0C18.85,11,19,10.73,19,10.73Z" transform="translate(-18.48 -10.73)"/></svg>