<svg id="Layer_1" data-name="Layer 1" xmlns="http://www.w3.org/2000/svg" viewBox="0 0 47.4 47"><defs><style>.cls-1{fill:#fff;}</style></defs><title>security-white</title><path class="cls-1" d="M12.2,13.1H2.6c-.4,0-.4.1-.4-.4V10.6c0-.4,0-.4.3-.4H21.9c.5,0,.4-.1.4.5v2c0,.3,0,.3-.3.3H12.2Z" transform="translate(0 -1.7)"/><path class="cls-1" d="M10,26.5H2.4c-.2,0-.2,0-.2-.2V24c0-.2,0-.2.2-.2H17.5c.4,0,.4-.1.4.4v2c0,.3,0,.3-.3.3Z" transform="translate(0 -1.7)"/><path class="cls-1" d="M41.1,4.9h0c.1.3.4.2.4.4s.3.2.3.4.2.4.6.4.1.1,0,.1l-.9.9c-.2.3-.6.4-.8.8s-.3.3-.6.4-.2.4-.4.5.1.3-.1.3-.3.2-.4.4-.3.2-.4.4-.5.7-.9.8-.4.2-.4.5-.2.2-.4.2-.2-.1-.3-.2h-.1c-.1-.1-.3-.1-.4-.3l-.4-.4c-.1-.3-.1-.4.2-.6l.7-.6.6-.7a2.7,2.7,0,0,1,.8-.7c.2-.2.3-.4.5-.5h.1l.7-.7.6-.7L41,5Z" transform="translate(0 -1.7)"/><path class="cls-1" d="M39.6,13.1a3.7,3.7,0,0,1,1.5-.1l.4-.2h2.4l.5-.3c.5,0,.5,0,.5.5v.2c.2.2,0,.4.2.6V14c0,.3,0,.3-.3.4s-.4,0-.7.3h-4c-.1,0-.2,0-.3.2s-.1-.3-.2-.4-.1-.1-.1-.3v-.9C39.4,13.5,39.4,13.3,39.6,13.1Z" transform="translate(0 -1.7)"/><path class="cls-1" d="M34.6,2.5h0c.4,0,.4-.1.4.3s0,.4-.2.6v1c-.1.1,0,.3-.1.5v.8a.4.4,0,0,1-.1.3c-.1,0-.1.1-.1.2V7c0,.2-.1.5-.1.7h-2a.4.4,0,0,1-.1-.3,2.8,2.8,0,0,0,.1-1.3c.2-.1,0-.4.2-.6V4.9a2,2,0,0,1,.1-.7v-1a.6.6,0,0,1,.1-.4c.1-.1,0-.2.1-.4s0-.3.2-.3h.7C34.1,2.5,34.4,2.3,34.6,2.5Z" transform="translate(0 -1.7)"/><path class="cls-1" d="M26,22c0,.1,0,.2-.2.2h-.6c0-.1,0-.2.2-.2A.6.6,0,0,1,26,22Z" transform="translate(0 -1.7)"/><path class="cls-1" d="M47.2,29.2v-.4a.2.2,0,0,1,.2-.2v.3C47.4,29.2,47.3,29.2,47.2,29.2Z" transform="translate(0 -1.7)"/><path class="cls-1" d="M32.4,7.6h.4c.1,0,.1,0,.1.1h-.4A.1.1,0,0,1,32.4,7.6Z" transform="translate(0 -1.7)"/><path class="cls-1" d="M46.6,32.1c0-.3,0-.3.2-.4S46.8,32,46.6,32.1Z" transform="translate(0 -1.7)"/><path class="cls-1" d="M47.4,21.6c0-.1-.1-.1,0,0s-.6.1-.9.1-.3.1-.4.1H44.8c-.1,0-.2,0-.2.1h-3c-.1-.2-.3-.1-.5-.2H39.9c-.1,0-.2,0-.2-.1h-.1a1,1,0,0,1-.7-.2h-.3a.1.1,0,0,0-.1-.1l-.7-.2h-.1c0-.4-.4-.1-.4-.5s-.3-.2-.4-.1-.2-.2-.4-.2-.4-.1-.6-.3h-.2l-.3-.2-.3-.2H35c-.3,0-.3-.4-.6-.4s-.5-.4-.6-.6-.1-.1-.2-.1h-.2c.1.2-.2.2-.3.4l-.4.5c-.4.1-.6.6-1.1.8s-.3.1-.3.2a1,1,0,0,1-.5.4l-.5.3c-.1,0-.3,0-.3.2s-.1.2-.3.2-.1.2-.2.2-.7.1-.9.3h-.1l-.9.2h-.1c-.1.2-.2.1-.4.2h-4c-.2,0-.4.1-.5-.2H21.3c-.2-.1-.5.1-.6-.2l-.6-.2c-.3,0-.3,0-.3.3v4.5a1.5,1.5,0,0,1,.1.7c0,.3-.1.6.1.8a5.1,5.1,0,0,0,.1,1.7c.1.2,0,.5,0,.7v.2c.2.1.1.3.2.4v.5a1.3,1.3,0,0,1,.1.6c0,.1,0,.2.1.2h.1a1.7,1.7,0,0,0,.1.7c.1.1,0,.4.2.6s0,.3.1.4.2.1.2.3a.4.4,0,0,0,.1.3.4.4,0,0,1,.1.3c0,.2.3.1.3.2h0c0,.3.2.5.2.7s0,.1.1.1a.1.1,0,0,1,.1.1.8.8,0,0,0,.2.5l.3.5c.1.2.1.5.3.6s.2.3.3.6l.3.6c.2.1,0,.3.2.3s.1.1.2.2a1.6,1.6,0,0,0,.5.8c.2.1.2.4.4.4s.4.4.4.7h.1c.2.1.2.5.6.5s.2.2.2.3.4.4.5.7.3.3.5.5.2.4.4.4h.1l.9.8.3.2c.3.1.4.3.6.5s.1.2.2.2l.3.2c0,.2.2.1.3.2s.1.3.3.2.3.1.3.3H31c.2,0,.2.3.4.3s.4.3.6.5h.1c.3,0,.4.5.6.5s.1.2.3.3.1.2.3.2a.1.1,0,0,1,.1.1.4.4,0,0,0,.7.1c.2-.3.6-.4.8-.7s.4-.6.8-.6.6-.4.8-.7l.2-.2c.2,0,.3-.1.3-.2l.3-.2c.1-.2.4-.3.5-.6h.1a.6.6,0,0,0,.5-.3c.1-.2.4-.2.4-.5s.4-.4.7-.5l.3-.3c.2-.3.5-.4.6-.7s.2-.2.3-.3.2-.1.3-.3a1,1,0,0,1,.4-.5l.5-.6c.2-.2.4-.6.7-.7s.2-.2.2-.4a.5.5,0,0,1,.3-.4c0-.3.4-.4.4-.9v-.2c.1,0,.1-.1.2-.2s.1-.4.3-.5.4-.2.3-.5.1-.4.2-.5.2-.2.2-.3h0c.1-.1.1-.3.3-.4s0-.2.1-.3a.4.4,0,0,0,.1-.3c0-.2.2-.1.2-.2v-.3h0c.2,0,.1-.2.2-.3a1.1,1.1,0,0,0,.1-.5h0c.2,0,.1-.2.1-.3s.2-.4.2-.8a.1.1,0,0,1,.1-.1c.1,0,.1-.1.1-.2v-.3a.7.7,0,0,0,.2-.6c.1-.1.1-.3.2-.4V31a1.7,1.7,0,0,0,.1-1v-.2c.2-.1.1-.2.1-.3v-.7c.2-.1,0-.4.2-.5V21.4Zm-6.6,5.9a1,1,0,0,0-.4.5c-.1.1-.1.2-.3.2a.5.5,0,0,0-.3.5,2.1,2.1,0,0,0,.3.7.9.9,0,0,1,.3.6c0,.1,0,.3.2.3h0c0,.4.2.7.2,1.2s.1.6.1.9a2.9,2.9,0,0,1-.1,1.3c.1.4-.1.7-.2,1.1s-.2.2-.2.3-.1.3-.1.4l-.4.6a1,1,0,0,1-.4.5h-.1c0,.1-.2.3-.3.4s-.2.4-.4.5l-.2.2-.3.3c-.2.2-.4.1-.5.2s-.2.3-.3.3l-.3.2-.5.2c-.1,0-.2,0-.2.1h0c-.3,0-.5.3-.8.3h-.4c-.1.1-.3,0-.5,0h-.3a2.8,2.8,0,0,1-1.3,0h-.8c-.1-.2-.3,0-.5,0s-.3,0-.3-.2h-.1A.4.4,0,0,1,31,39l-.6-.2h-.2l-.3-.2a.9.9,0,0,1-.6-.4l-.3-.3a1,1,0,0,1-.5-.6l-.6-.7s-.2,0-.2-.1-.1-.4-.3-.4h0c0-.1,0-.3-.2-.3A1.4,1.4,0,0,0,27,35c0-.1,0-.3-.2-.3h0c0-.4-.2-.7-.2-1.1v-.2a3.8,3.8,0,0,1,0-1.5v-.5a1.1,1.1,0,0,1,.1-.6v-.5c.3-.2.2-.6.3-.9s.2-.1.2-.3,0-.2.2-.2h.1c0-.2.4-.2.4-.4s.1-.3.3-.4.3-.3.4-.5.3-.4.4-.5l.4-.3c.1,0,.1-.2.2-.2H30c.2-.1.3-.3.5-.3h.3c.1,0,.2,0,.2-.1h.1l.9-.2c.2,0,.4.1.5-.2h2.6l1,.2h.1c0,.1.1.1.2.1l.6.2c.1,0,.1.2.2.2s.3,0,.4.3.3.1.4.2.4.1.5-.1l.3-.3c.1-.2.4-.3.5-.5s.1-.1.1,0l.5.5c.2.2.5.3.6.6s.1.2.1.2S40.9,27.4,40.8,27.5Z" transform="translate(0 -1.7)"/><path class="cls-1" d="M23.9,1.7H.5c-.4,0-.4,0-.4.3V8H24.2V2.1C24.3,1.6,24.3,1.7,23.9,1.7ZM4.4,6.1H2.8c-.2,0-.2-.1-.2-.2V4.1l.2-.2H4.5c.2,0,.2.1.2.2v1h0v.8Zm4.4,0H6.9c-.1-.1-.1-.1-.1-.2V4.1L7,3.9H8.9c.1,0,.3,0,.3.2V5.9Zm4.2,0H11.3c-.2-.1-.2-.2-.2-.3V4.5a.4.4,0,0,1,.2-.4c0-.1,0-.2.2-.2h1.6l.3.2V5.9Zm4.2,0H15.5a.3.3,0,0,1-.1-.2V4.2a.4.4,0,0,1,.1-.3h1.7c.3,0,.3,0,.3.2V5.8Q17.7,6.1,17.2,6.1ZM21.7,6H20a.4.4,0,0,1-.1-.3V4.1a.4.4,0,0,1,.1-.3h1.7c.2,0,.3,0,.3.2V5.7C21.9,6,21.8,6,21.7,6Z" transform="translate(0 -1.7)"/><path class="cls-1" d="M24.4,15.6a.6.6,0,0,0-.1-.4H.3c-.1,0-.1,0-.1.1v5.8c0,.4-.1.4.4.4H17.5c.5,0,.4.1.4-.4V18c0-.1,0-.2.1-.2s.2-.1.3.1a.1.1,0,0,0,.1.1c.3,0,.6.3.9.4h.4c.1.2.4.2.5.4s.2,0,.2.1.2.1.2.1.3,0,.3.2h.7c.2,0,.4,0,.5.2h2.2a.6.6,0,0,0,.1-.4Zm-20,4H2.8c-.2,0-.2-.1-.2-.2V17.6c0-.2.1-.2.2-.2H4.4c.2,0,.2,0,.2.2v.9h0v.9A.2.2,0,0,1,4.4,19.6Zm4.4,0H7.2c-.4,0-.5-.1-.5-.4V17.7c0-.3,0-.3.3-.3H8.7c.1,0,.2,0,.2.2v1.9C9,19.5,8.9,19.6,8.8,19.6Zm4.2,0H11.5c-.1,0-.2,0-.2-.1s-.2-.4-.2-.6-.1-.9.2-1.3,0-.2.2-.2h1.6c.3,0,.3.1.3.2v1.7C13.2,19.5,13.2,19.6,13,19.6Z" transform="translate(0 -1.7)"/><path class="cls-1" d="M28.9,31.9a5,5,0,0,1,.2-1.2c.3-.2.2-.6.5-.7a.4.4,0,0,0,.1-.3,1,1,0,0,0,.5-.4c.1-.3.2-.3.4-.4h.1l.6-.5.4-.2H32l.4-.2h2.7c.1,0,.2,0,.2.1a.1.1,0,0,0,.1.1h.4l.5.3a.1.1,0,0,0,.1.1c.2.1.2.1,0,.2s-.3.4-.5.6-.3.3-.5.5l-.2.2-.3.3-.3.3c-.1.1-.3.1-.3.3s-.5.5-.7.8l-.7.6c-.1.1-.2.1-.4,0s-.3-.4-.5-.5l-.7-.6c-.1-.2-.3-.2-.3,0a.8.8,0,0,1-.4.4l-.7.6c0,.1-.2.1-.3.1s-.1.1,0,.2l.6.4c.2.1.3.4.5.6l.5.5c.2.2.4.3.5.5s.5.2.6.5a.4.4,0,0,0,.4.3c.2,0,.2-.2.3-.3a.1.1,0,0,1,.1-.1l.4-.3c0-.2.2-.2.3-.3l.8-.7.5-.4a.5.5,0,0,1,.1-.3l.3-.3c.1-.1.1-.3.3-.3s.5-.3.6-.6a.1.1,0,0,1,.1-.1c.2-.1.3-.3.5-.6l.3-.3c0-.2.2-.2.3-.3s.1-.3.3-.3h.3a.2.2,0,0,1,.2.2c0,.1,0,.3.2.3h0c0,.3.2.7.2,1.1a3.8,3.8,0,0,1,0,1.5c.1.3-.2.6-.2,1a1.1,1.1,0,0,0-.3.8c-.3,0-.3.4-.5.5l-.4.5c-.2.2-.4.5-.7.6h-.1a.5.5,0,0,1-.4.2c-.1,0-.1,0-.1.1s0,.1-.2.1-.5.3-.8.3l-.4.2H33.1c-.1,0-.3.1-.3-.1s-.1-.1-.1,0H32c-.2,0-.2,0-.2-.2h-.1a2.4,2.4,0,0,1-.9-.6h-.1a.8.8,0,0,1-.5-.5.1.1,0,0,0-.1-.1c-.1-.1-.2-.2-.2-.3s-.4-.1-.3-.4,0-.4-.3-.5h0c0-.4-.2-.7-.2-1.1A2.3,2.3,0,0,1,28.9,31.9Z" transform="translate(0 -1.7)"/><path class="cls-1" d="M19.3,35c-.1-.3,0-.7-.3-.9s-.2-.5-.2-.8.1-.4-.2-.5h0c0-.4-.2-.7-.2-1.1s-.1-.3-.2-.5v-.6c-.3-.2-.1-.4-.2-.6a.9.9,0,0,0-.1-.5c-.1-.1-.1-.2-.1-.4s0-.4-.5-.4H.2a.2.2,0,0,0-.2.2v6c0,.6-.1.4.4.4H18.9C19.3,35.2,19.3,35.2,19.3,35ZM2.5,32.8V31a3.7,3.7,0,0,1,2.1,0v1.8A5,5,0,0,1,2.5,32.8Zm6.5,0H7.3c-.3,0-.4-.1-.4-.3V31.3c0-.3,0-.4.3-.4H8.8c.1,0,.1,0,.1.1A10.9,10.9,0,0,1,9,32.8Zm4.2,0a3.1,3.1,0,0,1-1.9,0h0c-.3-.2-.2-.4-.2-.6a1.8,1.8,0,0,1,.2-1.2H13c.1,0,.1,0,.1.1A10.9,10.9,0,0,1,13.2,32.8Z" transform="translate(0 -1.7)"/></svg>