<?xml version="1.0" encoding="utf-8"?>
<!-- Generator: Adobe Illustrator 24.0.0, SVG Export Plug-In . SVG Version: 6.00 Build 0)  -->
<svg version="1.1" id="Layer_1" xmlns="http://www.w3.org/2000/svg" xmlns:xlink="http://www.w3.org/1999/xlink" x="0px" y="0px"
	 viewBox="0 0 50 50" style="enable-background:new 0 0 50 50;" xml:space="preserve">
<style type="text/css">
	.st0{fill:#FFFFFF;}
</style>
<path class="st0" d="M25,1C11.7,1,1,11.7,1,25c0,13.3,10.7,24,24,24s24-10.7,24-24C49,11.7,38.3,1,25,1z M40.6,33.8
	c0,0-4.8,8.8-15.2,8.8c-11.2,0-16-9.6-16-9.6s-1.5-2.3,0.8-4c3.2-2.4,6.4,0.8,6.4,0.8s3.2,4.8,8.8,4.8S35,29,35,29s2.4-1.6,4.8,0
	C42.2,30.6,40.6,33.8,40.6,33.8z M39.8,21c-2.4,1.6-4.8,0-4.8,0s-4-5.6-9.6-5.6s-8.8,4.8-8.8,4.8s-3.2,3.2-6.4,0.8
	c-2.3-1.7-0.8-4-0.8-4s4.8-9.6,16-9.6c10.4,0,15.2,8.8,15.2,8.8S42.2,19.4,39.8,21z"/>
</svg>
