<svg id="signup-btn-bg" xmlns="http://www.w3.org/2000/svg" xmlns:xlink="http://www.w3.org/1999/xlink" viewBox="0 0 150.8 133.7"><defs><style>.cls-1{fill:none;}.cls-2{clip-path:url(#clip-path);}.cls-3{fill:url(#linear-gradient);}.cls-4{fill:url(#linear-gradient-2);}.cls-5{fill:url(#linear-gradient-3);}</style><clipPath id="clip-path" transform="translate(0 0)"><path class="cls-1" d="M33.3,33.6h85a32.7,32.7,0,0,1,32.5,32.5h0a32.7,32.7,0,0,1-32.5,32.5h-85A32.6,32.6,0,0,1,.8,66.1h0A32.6,32.6,0,0,1,33.3,33.6Z"/></clipPath><linearGradient id="linear-gradient" x1="-593.51" y1="50.98" x2="-593.51" y2="49.98" gradientTransform="matrix(150, 0, 0, -65, 89102.8, 3347.6)" gradientUnits="userSpaceOnUse"><stop offset="0" stop-color="#c8c7c7"/><stop offset="1" stop-color="#f9f9f9"/></linearGradient><linearGradient id="linear-gradient-2" x1="-589.3" y1="52.5" x2="-589.27" y2="51.93" gradientTransform="matrix(81.71, 21.91, 13.53, -50.47, 47484.84, 15640.65)" xlink:href="#linear-gradient"/><linearGradient id="linear-gradient-3" x1="-589.27" y1="52.2" x2="-589.28" y2="51.71" gradientTransform="matrix(81.71, 21.91, 13.53, -50.47, 47555.81, 15567.65)" xlink:href="#linear-gradient"/></defs><title>signup-btn-bg</title><g class="cls-2"><g id="Mask_Group_1" data-name="Mask Group 1"><path id="Rectangle_4" data-name="Rectangle 4" class="cls-3" d="M33.3,33.6h85a32.7,32.7,0,0,1,32.5,32.5h0a32.7,32.7,0,0,1-32.5,32.5h-85A32.6,32.6,0,0,1,.8,66.1h0A32.6,32.6,0,0,1,33.3,33.6Z" transform="translate(0 0)"/><path id="Path_34037" data-name="Path 34037" class="cls-4" d="M43.5,78.3c21.6,9.4,37.3,28.3,35,42.2s-21.7,17.4-43.3,8S-2.1,100.2.2,86.3,21.9,68.8,43.5,78.3Z" transform="translate(0 0)"/><path id="Path_34038" data-name="Path 34038" class="cls-5" d="M114.5,5.3c21.6,9.4,37.3,28.3,35,42.2s-21.7,17.4-43.3,8-37.3-28.4-35-42.2S92.8-4.2,114.5,5.3Z" transform="translate(0 0)"/></g></g></svg>