<svg xmlns="http://www.w3.org/2000/svg" width="67.615" height="68.622" viewBox="0 0 67.615 68.622">
  <g id="solutions-orange-icon" transform="translate(13217.864 9720.622)">
    <path id="Path_40955" data-name="Path 40955" d="M81.377,298.893l5.275-20.515a21.224,21.224,0,0,1,13.773,19.489c.146,0-4.248-.733-5.128,4.1C95.444,302.116,81.377,298.893,81.377,298.893Z" transform="translate(-13275 -9999)" fill="#e67225"/>
    <circle id="Ellipse_9234" data-name="Ellipse 9234" cx="3.5" cy="3.5" r="3.5" transform="translate(-13188 -9705)" fill="#fff"/>
    <circle id="Ellipse_9235" data-name="Ellipse 9235" cx="3.5" cy="3.5" r="3.5" transform="translate(-13198 -9714)" fill="#e67225"/>
    <path id="Path_40956" data-name="Path 40956" d="M-12941.039-3108.434s12.9,1.172,16.705,6.155a102.753,102.753,0,0,1,1.025,22.859c-.146.293-12.016,4.1-12.016,4.1a52.628,52.628,0,0,1-9.378-22.859c.146.146-.439-5.422,6.3-4.1,0,.146,5.129,11.576,5.129,11.576" transform="translate(-235 -6599)" fill="none" stroke="#e67225" stroke-width="1"/>
    <path id="Path_40957" data-name="Path 40957" d="M-12940.6-3073.559l23.152-7.62,2.2,9.085-23.152,6.3Z" transform="translate(-235 -6599)" fill="#e67225"/>
    <rect id="Rectangle_868" data-name="Rectangle 868" width="17" height="9" transform="translate(-13208 -9664)" fill="#e67225"/>
    <path id="Path_40958" data-name="Path 40958" d="M-12973-3065v-6.8s-9.51-7.18-9.362-14.946,4.25-17.145,18.024-18.024v8.353s-4.543-3.663-5.275,1.465,5.275,3.077,5.275,1.612v17s3.957-2.637,5.129,1.172-4.249,3.81-5.129,1.9c.146,0,0,8.266,0,8.266h8.06v-6.8s9.231-6.008,9.817-14.946h-8.206s3.37-3.664-.879-4.689c-4.4-.146-3.371,4.836-1.905,4.689h-13.481s3.225,4.542-2.067,5.568c-4.233.733-4.233-5.715-1.742-5.568-.439-.147-6.887,0-6.887,0" transform="translate(-235 -6599)" fill="none" stroke="#e67225" stroke-width="1"/>
    <ellipse id="Ellipse_9236" data-name="Ellipse 9236" cx="4" cy="3" rx="4" ry="3" transform="translate(-13203 -9658)" fill="#e67225"/>
  </g>
</svg>
