<svg id="Layer_1" data-name="Layer 1" xmlns="http://www.w3.org/2000/svg" viewBox="0 0 44.1 44.1"><defs><style>.cls-1{fill:#fff;}</style></defs><title>transformation-white</title><path class="cls-1" d="M47,27.3a10,10,0,0,1-.2,1.6,6.5,6.5,0,0,1-.4,1.9c0,.3-.1.5-.1.7a13.4,13.4,0,0,1-.7,1.8,10,10,0,0,1-1,2.1,7.6,7.6,0,0,1-1.2,1.9,10,10,0,0,1-1.9,2.2c-.6.6-1.1,1.2-1.8,1.8l-1.3,1a5.7,5.7,0,0,0-1.3.8l-.7.4a8.9,8.9,0,0,0-1.7.8l-1.1.3-1.5.4-.7.2a8.3,8.3,0,0,1-2.7.3c-.3,0-.5.1-.5.5s0,.8.1,1.2a.9.9,0,0,1-.4.8h-.5l-.9-.8L24.9,46l-1.3-1-1-.7c-.3-.1-.5-.4-.8-.6a.9.9,0,0,1,.1-1l1.3-1,1.2-.9,1-.7a23.1,23.1,0,0,1,1.9-1.4c.5-.3,1-.1,1,.5a9.1,9.1,0,0,1-.1,1.7.3.3,0,0,0,.3.3,10.1,10.1,0,0,0,2.5-.3l2-.6,1.7-.7,1-.7,1.4-1a6.9,6.9,0,0,0,1.3-1.1l.7-.8.8-1c.2-.3.2-.6.5-.8s.1-.3.2-.4a6,6,0,0,0,.8-1.6,5.9,5.9,0,0,0,.6-1.4,4.7,4.7,0,0,0,.4-1.6c.1-.5.1-1.1.2-1.5s.1-1.2.2-1.8a.6.6,0,0,1,.6-.5.6.6,0,0,1,.6.6,6.6,6.6,0,0,1-.1,1.4h0a10.7,10.7,0,0,1-.6,3.1,5.2,5.2,0,0,1-.6,1.6c-.2.3-.3.8-.5,1.1a7.5,7.5,0,0,1-.7,1.2,3.3,3.3,0,0,0-.3.6l-.6.9c-.4.4-.6.9-1.1,1.2a5.2,5.2,0,0,0-1,1.1l-1.3,1-1.2.8-1.6.9-2,.7a13.1,13.1,0,0,1-2.7.6H28.6c-.3,0-.4.1-.4.3a6.6,6.6,0,0,1,0,1.4c0,.2.1.2.3.2a5.5,5.5,0,0,0,1.8-.1,17.4,17.4,0,0,0,2.9-.7l1.5-.5,1.4-.7,1.6-1a9.4,9.4,0,0,0,1.2-.9,21.8,21.8,0,0,0,2.2-2.1,18.3,18.3,0,0,0,1.3-1.6c.3-.4.4-.9.8-1.1a.6.6,0,0,0,.1-.4l.9-1.5.6-1.8c.3-.7.4-1.4.6-2a17.2,17.2,0,0,0,.4-3.9c0-.4.3-.5.5-.6s.5.1.6.4,0,.3.1.4v.2a.5.5,0,0,0,0,.5Z" transform="translate(-3 -3.9)"/><path class="cls-1" d="M3,24.6v-.2a5.9,5.9,0,0,1,.2-1.3,25.6,25.6,0,0,1,.5-2.7A23.4,23.4,0,0,1,4.6,18l.7-1.5a14,14,0,0,1,1-1.6,10.9,10.9,0,0,1,1.3-1.7l.8-.9a2,2,0,0,1,.8-.8c.3-.1.5-.4.8-.7l1.5-1.2,1.3-.8.8-.4,1.3-.6a8.8,8.8,0,0,1,1.5-.5,18,18,0,0,1,2.2-.6,11.5,11.5,0,0,1,2.6-.3c.5,0,.5,0,.5-.6V4.7a.9.9,0,0,1,.4-.8h.4l2,1.5,1.3,1,1.3,1c.3.2.5.6.9.7a.7.7,0,0,1,.3.6c0,.2,0,.5-.3.5h-.2A12.4,12.4,0,0,1,26,10.7a9.1,9.1,0,0,1-1.6,1.1,1,1,0,0,0-.4.5l-1.4,1H22a.5.5,0,0,1-.3-.5V11c0-.2,0-.3-.2-.3a10.3,10.3,0,0,0-3,.4l-2.1.7-1.3.6-1.5,1a10.6,10.6,0,0,0-2,1.7l-.6.6-.3.5c-.2.3-.6.6-.7.9a21.2,21.2,0,0,0-1.2,2c-.3.5-.3,1-.7,1.4s-.1.5-.2.7a10.5,10.5,0,0,1-.4,1.7,10.2,10.2,0,0,0-.3,3c0,.4-.3.5-.6.6a.6.6,0,0,1-.6-.4,9.2,9.2,0,0,1,.1-1.6,5.2,5.2,0,0,1,.2-1.7c.3-.7.2-1.5.6-2.2a4.1,4.1,0,0,0,.3-.8A9.8,9.8,0,0,1,8,18l.7-1,.8-1.2a10.7,10.7,0,0,1,1.4-1.6,2.7,2.7,0,0,0,.8-.7c.1-.2.2-.4.5-.4s.2-.3.3-.4a5.7,5.7,0,0,0,1.3-.8c.5-.4,1.1-.4,1.5-.9h.4l2-.8,2.4-.5h1.2c.4-.1.5-.2.5-.5a2.4,2.4,0,0,1,0-1.2c0-.1-.1-.2-.3-.2a10.6,10.6,0,0,0-2.5.2,15.5,15.5,0,0,0-2.3.6l-2.1.8-1.4.8-1.2.8c-.4.2-.7.7-1.2.8s-.4.4-.5.5L8.8,13.6a16.7,16.7,0,0,0-1.2,1.6c-.3.3-.4.8-.8,1.1s-.1.3-.2.4l-.8,1.5-.9,2.4a15.9,15.9,0,0,0-.7,3.8c0,.5-.1,1.1-.1,1.6a.5.5,0,0,1-.8.4H3V24.6Z" transform="translate(-3 -3.9)"/><path class="cls-1" d="M47,23.2l-.5.2c-.4,0-.6-.1-.6-.5s-.1-.8.3-1,.6.2.8.5Z" transform="translate(-3 -3.9)"/><path class="cls-1" d="M27.9,3.9c.5.4.5.6.2,1a.7.7,0,0,1-.7.2.4.4,0,0,1-.4-.4.7.7,0,0,1,.3-.8Z" transform="translate(-3 -3.9)"/><path class="cls-1" d="M19.2,42.3c.5-.1.7.3.9.5s0,.5-.2.6-.8,0-1.2-.1a.5.5,0,0,1-.1-.6C18.8,42.5,18.9,42.2,19.2,42.3Z" transform="translate(-3 -3.9)"/><path class="cls-1" d="M9.3,35.7c-.3,0-.8-.6-.8-.9a.9.9,0,0,1,.7-.6,1,1,0,0,1,.7,1C9.9,35.4,9.5,35.7,9.3,35.7Z" transform="translate(-3 -3.9)"/><path class="cls-1" d="M33.5,5.4c.4,0,.9.4.9.7s-.4.7-.6.6a1.9,1.9,0,0,1-.8-.3c-.2-.1-.2-.3-.1-.5S33.1,5.4,33.5,5.4Z" transform="translate(-3 -3.9)"/><path class="cls-1" d="M4.4,31.4a.7.7,0,0,1,.7.8.7.7,0,0,1-.6.7.8.8,0,0,1-.7-.9A.5.5,0,0,1,4.4,31.4Z" transform="translate(-3 -3.9)"/><path class="cls-1" d="M5.6,35.8a.9.9,0,0,1-.7-.8c0-.5.2-.7.6-.7s.7.5.7.9A.5.5,0,0,1,5.6,35.8Z" transform="translate(-3 -3.9)"/><path class="cls-1" d="M38.3,14a.7.7,0,0,1,.4-.6c.2-.1.4,0,.6.2a.8.8,0,0,1,.3.9c-.1.4-.4.3-.6.4S38.3,14.2,38.3,14Z" transform="translate(-3 -3.9)"/><path class="cls-1" d="M42.6,22.8c0-.4.2-.7.6-.7a.8.8,0,0,1,.7.8.7.7,0,0,1-.6.7A.7.7,0,0,1,42.6,22.8Z" transform="translate(-3 -3.9)"/><path class="cls-1" d="M7.6,28.9a.7.7,0,0,1-.9.7q-.2,0-.3-.3c0-.1.1-.3-.1-.4s.2-.7.3-.7.5-.2.7.1S7.6,28.6,7.6,28.9Z" transform="translate(-3 -3.9)"/><path class="cls-1" d="M46.4,19.8a.9.9,0,0,1-.6.6c-.3,0-.7-.5-.7-.9s.4-.6.6-.7S46.4,19.3,46.4,19.8Z" transform="translate(-3 -3.9)"/><path class="cls-1" d="M44.5,16c.4,0,.6.2.7.7a.6.6,0,0,1-.3.8c-.4.1-.5-.2-.7-.4a1.1,1.1,0,0,1-.2-.6C44,16.1,44.1,16,44.5,16Z" transform="translate(-3 -3.9)"/><path class="cls-1" d="M17,41.8c0,.4-.2.5-.6.6a.9.9,0,0,1-.8-.8.6.6,0,0,1,.6-.6C16.6,41,17.1,41.3,17,41.8Z" transform="translate(-3 -3.9)"/><path class="cls-1" d="M7.9,32.7c-.5,0-.7-.3-.7-.9s.2-.5.6-.5.6.3.6.9S8.3,32.7,7.9,32.7Z" transform="translate(-3 -3.9)"/><path class="cls-1" d="M43.7,14.1c.1.3-.2.5-.4.6s-.3,0-.5-.2-.4-.6-.3-.9.3-.4.5-.3.5,0,.5.3S43.8,13.9,43.7,14.1Z" transform="translate(-3 -3.9)"/><path class="cls-1" d="M30.1,8.8a.6.6,0,0,1,.3-.6,1.4,1.4,0,0,1,.9.1.8.8,0,0,1,.2.9.4.4,0,0,1-.4.2A.8.8,0,0,1,30.1,8.8Z" transform="translate(-3 -3.9)"/><path class="cls-1" d="M41,10.8a.7.7,0,0,1,.8.8c.1.4-.1.6-.5.6a.8.8,0,0,1-.8-.8C40.5,11,40.7,10.8,41,10.8Z" transform="translate(-3 -3.9)"/><path class="cls-1" d="M34.6,10.2c0,.3-.2.4-.4.5a.3.3,0,0,1-.5-.1h-.1c-.3,0-.4-.1-.5-.4a1,1,0,0,1,.4-.7c.1-.1.3,0,.6.2S34.6,9.8,34.6,10.2Z" transform="translate(-3 -3.9)"/><path class="cls-1" d="M40.4,16.6c0-.2-.1-.5.2-.5s.6-.1.7.2.1.3.3.4-.1.7-.3.8-.5.1-.7-.2A1.1,1.1,0,0,1,40.4,16.6Z" transform="translate(-3 -3.9)"/><path class="cls-1" d="M9.6,40.3c0,.4-.2.7-.5.7a1,1,0,0,1-.8-.9c0-.3.2-.5.6-.5A.8.8,0,0,1,9.6,40.3Z" transform="translate(-3 -3.9)"/><path class="cls-1" d="M29.8,5c0-.3.2-.4.5-.5a1.2,1.2,0,0,1,1.1.5c.1.3-.2.4-.3.5s-.7,0-1-.1S29.8,5.2,29.8,5Z" transform="translate(-3 -3.9)"/><path class="cls-1" d="M11.3,38.3a.9.9,0,0,1-.8-.8A.5.5,0,0,1,11,37a.9.9,0,0,1,.8.8C11.8,38.2,11.7,38.3,11.3,38.3Z" transform="translate(-3 -3.9)"/><path class="cls-1" d="M37.1,7.6c0,.2-.3.5-.5.6a1.1,1.1,0,0,1-.9-.6.5.5,0,0,1,.1-.6.7.7,0,0,1,.9,0Z" transform="translate(-3 -3.9)"/><path class="cls-1" d="M3.2,29c0-.4.1-.6.5-.6s.7.2.7.8a.6.6,0,0,1-.6.6C3.4,29.8,3.2,29.5,3.2,29Z" transform="translate(-3 -3.9)"/><path class="cls-1" d="M16.4,45.1c.5-.1.7.3,1,.5a.4.4,0,0,1-.2.5c-.1.1-.3.3-.5.2a1.1,1.1,0,0,1-.9-.6v-.2C16,45.4,16.1,45,16.4,45.1Z" transform="translate(-3 -3.9)"/><path class="cls-1" d="M11.1,41.8a1,1,0,0,1,.9.7.7.7,0,0,1-.4.6c-.2.1-.4.1-.6-.2h-.1a.5.5,0,0,1-.3-.7C10.7,41.8,10.9,41.8,11.1,41.8Z" transform="translate(-3 -3.9)"/><path class="cls-1" d="M14.5,44.3c.1.4-.2.5-.4.6a.7.7,0,0,1-.7-.2c0-.1,0-.1-.1-.1s-.4-.3-.2-.6.6-.5.9-.3S14.6,44,14.5,44.3Z" transform="translate(-3 -3.9)"/><path class="cls-1" d="M19.7,47.3c-.6,0-.8-.2-.8-.7s.2-.5.5-.5.9.2.9.6A.5.5,0,0,1,19.7,47.3Z" transform="translate(-3 -3.9)"/><path class="cls-1" d="M36.8,12.5a1,1,0,0,1-.9-.8.6.6,0,0,1,.6-.5,1.1,1.1,0,0,1,.8.7C37.3,12.3,37.1,12.5,36.8,12.5Z" transform="translate(-3 -3.9)"/><path class="cls-1" d="M43,19.8c0,.3-.3.7-.6.7s-.6-.4-.7-.9a.6.6,0,0,1,.6-.6A.9.9,0,0,1,43,19.8Z" transform="translate(-3 -3.9)"/><path class="cls-1" d="M7,37.1a.9.9,0,0,1,.8.8c0,.4-.2.5-.6.5s-.7-.3-.7-.8S6.6,37.1,7,37.1Z" transform="translate(-3 -3.9)"/><path class="cls-1" d="M39.6,9.4a.5.5,0,0,1-.6.6.7.7,0,0,1-.7-.8c0-.4.1-.6.5-.6A1.1,1.1,0,0,1,39.6,9.4Z" transform="translate(-3 -3.9)"/><path class="cls-1" d="M14.2,40.1c.1.3-.1.4-.5.4s-.8-.3-.8-.6a.4.4,0,0,1,.2-.5.8.8,0,0,1,.8-.1A1.1,1.1,0,0,1,14.2,40.1Z" transform="translate(-3 -3.9)"/><path class="cls-1" d="M22.5,46.7c.5,0,.7.2.7.6s-.3.5-.7.5a.5.5,0,0,1-.6-.6C21.9,46.8,22.1,46.7,22.5,46.7Z" transform="translate(-3 -3.9)"/><path class="cls-1" d="M35.9,24.8c-.1-.3-.3-.6-.6-.6s-1-.3-1-.9a.3.3,0,0,0-.1-.2c0-.3,0-.5.3-.6s.7-.6.4-1.2a6.1,6.1,0,0,0-.7-1.4,1.1,1.1,0,0,0-1.4-.5.9.9,0,0,1-1.2-.3c-.1-.3-.3-.6-.1-.9a.8.8,0,0,0-.1-1.1l-1.5-1a.9.9,0,0,0-1.3.2c-.3.4-.6.4-1.1.4s-.8-.4-.8-1-.3-.6-.7-.7H24.1a1.1,1.1,0,0,0-.9.7c0,.3,0,.6-.1.7s-.4.1-.6.2h-.4c-.3.1-.4,0-.6-.2a.9.9,0,0,0-1.4-.4l-1.1.6a1.1,1.1,0,0,0-.5,1.5.8.8,0,0,1-.1.8c-.4.5-.6.6-1.2.4a.9.9,0,0,0-1.2.3,6.7,6.7,0,0,0-.9,1.4.8.8,0,0,0,.4,1.3.8.8,0,0,1,.3.8c0,.1-.1.2-.1.3s-.2.6-.8.6-.8.4-.8.8a8.1,8.1,0,0,0,0,2.2.9.9,0,0,0,.7.6c.6-.1.9.2,1,.8s0,.7-.4,1a.8.8,0,0,0-.4,1l1,1.7a.9.9,0,0,0,1.1.3l.5-.2a1.7,1.7,0,0,1,.8.6.6.6,0,0,1,.1.7,1,1,0,0,0,.3,1.4l1.4.9c.6.2,1.1.1,1.3-.5s.4-.3.6-.2h1a1.5,1.5,0,0,1,.1.7,1.6,1.6,0,0,0,.8.8,12,12,0,0,0,1.9,0,.6.6,0,0,0,.5-.2,1.3,1.3,0,0,0,.3-1c.1-.1,0-.3.2-.3l1.1-.3c.2,0,.3,0,.4.3a.9.9,0,0,0,1.2.5,4.8,4.8,0,0,0,1.7-1,1.1,1.1,0,0,0,.3-1.2c-.2-.5-.2-.8.2-1.1a.8.8,0,0,1,.8-.2c.9.3,1.2.2,1.7-.6a6,6,0,0,1,.6-1.1.7.7,0,0,0-.2-1.1.9.9,0,0,1-.4-1.2c.1,0,.1-.1.1-.2s.1-.5.5-.5A1,1,0,0,0,36,26.6v-.7A2.2,2.2,0,0,0,35.9,24.8Zm-11,6.1a4.9,4.9,0,0,1-4.8-5A4.8,4.8,0,0,1,25,21a4.9,4.9,0,0,1,4.9,5A5,5,0,0,1,24.9,30.9Z" transform="translate(-3 -3.9)"/><path class="cls-1" d="M25,22.6a3.4,3.4,0,0,1,0,6.7,3.4,3.4,0,0,1,0-6.7Z" transform="translate(-3 -3.9)"/></svg>