<svg id="Layer_1" data-name="Layer 1" xmlns="http://www.w3.org/2000/svg" xmlns:xlink="http://www.w3.org/1999/xlink" viewBox="0 0 251.9 133.1"><defs><style>.cls-1{fill:none;}.cls-2{clip-path:url(#clip-path);}.cls-3{fill:url(#linear-gradient);}.cls-4{fill:url(#linear-gradient-2);}.cls-5{fill:url(#linear-gradient-3);}</style><clipPath id="clip-path" transform="translate(11.8 33.4)"><path class="cls-1" d="M27.9,0H202.1C217.5,0,230,14.6,230,32.5S217.5,65,202.1,65H27.9C12.5,65,0,50.4,0,32.5S12.5,0,27.9,0Z"/></clipPath><linearGradient id="linear-gradient" x1="-282.27" y1="328.89" x2="-282.27" y2="327.89" gradientTransform="matrix(230, 0, 0, -65, 65036, 21378)" gradientUnits="userSpaceOnUse"><stop offset="0" stop-color="#ffab6e"/><stop offset="1" stop-color="#ffd8bc"/></linearGradient><linearGradient id="linear-gradient-2" x1="-280.77" y1="329.57" x2="-280.76" y2="328.87" gradientTransform="matrix(120.97, 32.43, 13.36, -49.84, 29615.25, 25570.07)" xlink:href="#linear-gradient"/><linearGradient id="linear-gradient-3" x1="-280.76" y1="329" x2="-280.74" y2="328.53" gradientTransform="matrix(120.97, 32.43, 13.36, -49.84, 29745.9, 25497.43)" xlink:href="#linear-gradient"/></defs><title>try-it-out-btn</title><g class="cls-2"><g id="try-it-out-btn"><path id="Rectangle_4" data-name="Rectangle 4" class="cls-3" d="M32.5,0h165A32.6,32.6,0,0,1,230,32.5h0A32.6,32.6,0,0,1,197.5,65H32.5A32.6,32.6,0,0,1,0,32.5H0A32.6,32.6,0,0,1,32.5,0Z" transform="translate(11.8 33.4)"/><path id="Path_53" data-name="Path 53" class="cls-4" d="M55.2,44.5c33.3,9.3,57.4,28.2,53.9,42s-33.4,17.3-66.6,7.9S-15,66.2-11.4,52.4,21.9,35.1,55.2,44.5Z" transform="translate(11.8 33.4)"/><path id="Path_54" data-name="Path 54" class="cls-5" d="M185.8-28.2c33.3,9.4,57.5,28.2,53.9,42s-33.3,17.4-66.6,8-57.4-28.2-53.9-42S152.5-37.6,185.8-28.2Z" transform="translate(11.8 33.4)"/></g></g></svg>