<?xml version="1.0" encoding="UTF-8"?>
<svg version="1.1" xmlns="http://www.w3.org/2000/svg" width="512" height="512">
<path d="M0 0 C0.6595166 0.34643555 1.3190332 0.69287109 1.99853516 1.04980469 C21.36892436 11.28021561 38.10475926 25.02007509 54 40 C54.7321875 40.68964844 55.464375 41.37929687 56.21875 42.08984375 C61.62926139 47.33932802 66.33109438 53.09018923 71 59 C71.81726563 60.02351563 72.63453125 61.04703125 73.4765625 62.1015625 C95.79439317 90.32374162 110.66822574 123.65360592 118.25 158.75 C118.40114258 159.44488525 118.55228516 160.13977051 118.70800781 160.85571289 C121.71527546 175.65275953 122.40699074 190.26037419 122.375 205.3125 C122.37418427 206.76091278 122.37418427 206.76091278 122.37335205 208.23858643 C122.31205696 231.98136305 119.24851991 254.32652985 112 277 C111.71672852 277.88961426 111.43345703 278.77922852 111.14160156 279.69580078 C97.20376917 322.50265729 70.2374915 360.99425512 35 389 C34.04480469 389.78375 33.08960938 390.5675 32.10546875 391.375 C-13.58478398 427.97412414 -76.07789269 444.94100147 -134 439 C-165.15584596 435.51715189 -194.38260819 426.80497317 -222 412 C-222.58942383 411.68595215 -223.17884766 411.3719043 -223.78613281 411.04833984 C-238.75610398 402.99624672 -252.29881957 393.25824579 -265 382 C-265.88300781 381.22785156 -266.76601563 380.45570313 -267.67578125 379.66015625 C-304.46227362 347.10725709 -329.12916053 303.11617406 -339.75 255.3125 C-339.94875732 254.42336914 -340.14751465 253.53423828 -340.35229492 252.61816406 C-343.59209469 237.30375694 -344.40965677 222.2895752 -344.375 206.6875 C-344.37412384 205.72089447 -344.37324768 204.75428894 -344.37234497 203.75839233 C-344.17508468 137.58063708 -316.07232847 79.74790532 -269.63867188 33.57836914 C-265.67418157 29.75977114 -261.30488523 26.42139898 -257 23 C-256.04480469 22.21625 -255.08960938 21.4325 -254.10546875 20.625 C-182.78307773 -36.50615789 -79.60131987 -42.4353374 0 0 Z " fill="#2BB673" transform="translate(367,50)"/>
<path d="M0 0 C3.42482707 1.61776117 5.65690522 3.42343244 8.328125 6.1328125 C9.52695312 7.34130859 9.52695312 7.34130859 10.75 8.57421875 C11.575 9.41597656 12.4 10.25773438 13.25 11.125 C14.09046875 11.97449219 14.9309375 12.82398438 15.796875 13.69921875 C17.86915683 15.79504923 19.93662393 17.89540713 22 20 C20.34411373 24.26566569 17.15478517 27.13244527 13.97793579 30.29621887 C13.35426569 30.92512565 12.7305956 31.55403242 12.0880264 32.20199698 C9.99395026 34.31109237 7.89276842 36.41296054 5.79150391 38.51489258 C4.28993408 40.0240823 2.78876889 41.53367469 1.28797913 43.04364014 C-2.79174352 47.14532463 -6.87803653 51.24040139 -10.96621275 55.33365846 C-13.5177735 57.88885917 -16.06803029 60.44535398 -18.61784744 63.00229454 C-27.50643611 71.91537843 -36.40073158 80.82272635 -45.29980469 89.7253418 C-53.60730575 98.03648362 -61.90156808 106.36068012 -70.18994653 114.69088823 C-77.29877841 121.834342 -84.41713034 128.96821445 -91.54294455 136.09472769 C-95.80234822 140.35492659 -100.05762934 144.61906039 -104.3032341 148.89301491 C-108.2928239 152.90864808 -112.2940532 156.9122966 -116.30473518 160.90686035 C-117.77809514 162.37839517 -119.24715402 163.8542503 -120.71165657 165.33460045 C-122.70447453 167.34766943 -124.71191224 169.34488687 -126.72396851 171.33869934 C-127.30626799 171.93419879 -127.88856747 172.52969824 -128.4885124 173.14324313 C-130.12393761 174.74476337 -130.12393761 174.74476337 -133 177 C-136.39862651 176.54736191 -138.00998467 175.36251541 -140.40423584 172.95652771 C-141.05762436 172.30726318 -141.71101288 171.65799866 -142.38420105 170.98905945 C-143.08982681 170.27264786 -143.79545258 169.55623627 -144.52246094 168.81811523 C-145.6498745 167.6913588 -145.6498745 167.6913588 -146.80006409 166.5418396 C-149.28534345 164.05446839 -151.75982519 161.5566357 -154.234375 159.05859375 C-155.95436275 157.33301148 -157.67501357 155.60808989 -159.39630127 153.88380432 C-163.92716732 149.34147827 -168.44895266 144.79021534 -172.96893311 140.23706055 C-177.58193211 135.59338583 -182.2034244 130.95818117 -186.82421875 126.32226562 C-195.89116497 117.22313482 -204.9488362 108.11482877 -214 99 C-213.04162906 97.87609641 -212.08243549 96.75289426 -211.12289429 95.62998962 C-210.58883154 95.00443145 -210.05476879 94.37887327 -209.50452232 93.73435879 C-207.85464832 91.83244386 -206.14023287 90.02570237 -204.3515625 88.25390625 C-203.43310547 87.3402832 -203.43310547 87.3402832 -202.49609375 86.40820312 C-201.87863281 85.79912109 -201.26117188 85.19003906 -200.625 84.5625 C-199.98433594 83.92634766 -199.34367188 83.29019531 -198.68359375 82.63476562 C-197.12469121 81.08749668 -195.56348584 79.54263508 -194 78 C-190.10604884 79.58399589 -187.48847765 82.24196943 -184.58886719 85.18408203 C-184.06159027 85.71106689 -183.53431335 86.23805176 -182.99105835 86.78100586 C-181.25487928 88.51857476 -179.525886 90.26311314 -177.796875 92.0078125 C-176.59233563 93.21608322 -175.38735303 94.42391222 -174.1819458 95.63131714 C-171.01451894 98.80637077 -167.85314487 101.98738522 -164.69299316 105.16967773 C-161.46562911 108.41752076 -158.23257772 111.65969133 -155 114.90234375 C-148.66108697 121.26268982 -142.32855376 127.62934753 -136 134 C-132.07429348 132.40821971 -129.43359082 129.70805719 -126.50775146 126.7482605 C-125.69408155 125.93715386 -125.69408155 125.93715386 -124.86397386 125.10966122 C-123.0474326 123.29641438 -121.23813228 121.47611144 -119.42871094 119.65576172 C-118.12807444 118.3545611 -116.82699743 117.05380068 -115.5255127 115.75344849 C-111.99244401 112.22095427 -108.46558124 108.68232188 -104.93978405 105.14257193 C-101.25446442 101.44476067 -97.56349072 97.75260198 -93.87310791 94.05984497 C-86.88519806 87.06571575 -79.90240266 80.06650331 -72.92142129 73.06545937 C-64.97379013 65.09548347 -57.02048791 57.13117714 -49.0666995 49.16734672 C-32.70480599 32.78454084 -16.3500626 16.39461256 0 0 Z " fill="#FCFEFD" transform="translate(358,178)"/>
</svg>
