<svg xmlns="http://www.w3.org/2000/svg" width="20" height="20" viewBox="0 0 20 20">
  <path id="twitter" d="M170.243,154.8H157.157a3.461,3.461,0,0,0-3.457,3.457v13.086a3.461,3.461,0,0,0,3.457,3.457h13.086a3.461,3.461,0,0,0,3.457-3.457V158.257A3.461,3.461,0,0,0,170.243,154.8Zm-1.086,7.269a8.354,8.354,0,0,1-1.926,5.886c-4.178,4.514-10.39,1.333-10.39,1.333a6.711,6.711,0,0,0,4.138-1.057,3.464,3.464,0,0,1-2.528-2.064,2.057,2.057,0,0,0,1.2,0,3.451,3.451,0,0,1-2.2-2.854,1.713,1.713,0,0,0,1.333.365c-1.926-1.284-1.2-4.049-1.2-4.049s2.617,3.131,6.064,3.081a3.123,3.123,0,0,1,1.422-3.081,2.437,2.437,0,0,1,3.457.7,4.61,4.61,0,0,0,1.807-.879c.01.859-.988,1.551-.988,1.551a3.878,3.878,0,0,0,1.422-.464A3.6,3.6,0,0,1,169.157,162.069Z" transform="translate(-153.7 -154.8)" fill="#888"/>
</svg>
