<svg id="btn-hover" xmlns="http://www.w3.org/2000/svg" xmlns:xlink="http://www.w3.org/1999/xlink" viewBox="0 0 200.48 171.7"><defs><style>.cls-1{fill:none;}.cls-2{clip-path:url(#clip-path);}.cls-3{fill:url(#linear-gradient);}.cls-4{fill:url(#linear-gradient-2);}.cls-5{fill:url(#linear-gradient-3);}</style><clipPath id="clip-path" transform="translate(0.48 53.33)"><path class="cls-1" d="M32.5,0h135A32.5,32.5,0,0,1,200,32.5h0A32.5,32.5,0,0,1,167.5,65H32.5A32.5,32.5,0,0,1,0,32.5H0A32.5,32.5,0,0,1,32.5,0Z"/></clipPath><linearGradient id="linear-gradient" x1="75.13" y1="58.12" x2="75.13" y2="57.12" gradientTransform="matrix(200, 0, 0, -65, -14925, 3778)" gradientUnits="userSpaceOnUse"><stop offset="0" stop-color="#ffab6e"/><stop offset="1" stop-color="#ffd8bc"/></linearGradient><linearGradient id="linear-gradient-2" x1="75.03" y1="57.73" x2="75.06" y2="57.16" gradientTransform="matrix(161.58, 43.32, 13.53, -50.47, -12824.03, -280.42)" xlink:href="#linear-gradient"/><linearGradient id="linear-gradient-3" x1="75.08" y1="57.44" x2="75.07" y2="56.95" gradientTransform="matrix(168.05, 45.06, 13.53, -50.47, -13274.23, -506.54)" xlink:href="#linear-gradient"/></defs><title>btn-hover</title><g class="cls-2"><g id="Mask_Group_1" data-name="Mask Group 1"><path id="Rectangle_4" data-name="Rectangle 4" class="cls-3" d="M32.5,0h135A32.5,32.5,0,0,1,200,32.5h0A32.5,32.5,0,0,1,167.5,65H32.5A32.5,32.5,0,0,1,0,32.5H0A32.5,32.5,0,0,1,32.5,0Z" transform="translate(0.48 53.33)"/><path id="Path_34037" data-name="Path 34037" class="cls-4" d="M80.3,54.74c43.63,15.34,78.21,39.31,77.24,53.53s-37.14,13.32-80.76-2S-1.43,66.94-.46,52.71,36.68,39.4,80.3,54.74Z" transform="translate(0.48 53.33)"/><path id="Path_34038" data-name="Path 34038" class="cls-5" d="M118-40.58c45.41,15.82,81.52,40.2,80.65,54.45s-38.39,13-83.8-2.84S33.32-29.16,34.19-43.42,72.58-56.39,118-40.58Z" transform="translate(0.48 53.33)"/></g></g></svg>