<svg id="Layer_1" data-name="Layer 1" xmlns="http://www.w3.org/2000/svg" viewBox="0 0 68.15 63.7"><defs><style>.cls-1{fill:#fefefe;}.cls-2{fill:#efefef;}.cls-3{fill:#e7e7e7;}.cls-4{fill:#fff;}</style></defs><title>ram-icon</title><path class="cls-1" d="M174.79,49c-4.39,0-8.78,0-13.17,0-.51,0-.62-.1-.61-.61,0-4.27,0-8.54,0-12.81a.23.23,0,0,1,.24,0c3.56,4.15,7.7,7.71,11.6,11.52.63.62,1.35,1.11,2,1.68A.28.28,0,0,1,174.79,49Z" transform="translate(-140.3 -0.81)"/><path class="cls-2" d="M207.29,1.61c.94-.21,1.31.16,1.1,1.1a.24.24,0,0,1-.23.06,2.9,2.9,0,0,1-1-.94A.32.32,0,0,1,207.29,1.61Z" transform="translate(-140.3 -0.81)"/><path class="cls-3" d="M207.29,1.61v.21a1.16,1.16,0,0,1-1.46,0V1.61Z" transform="translate(-140.3 -0.81)"/><path class="cls-3" d="M161.2,35.58H161V34.11h.19A1.15,1.15,0,0,1,161.2,35.58Z" transform="translate(-140.3 -0.81)"/><path class="cls-3" d="M174.79,49v-.19a1.16,1.16,0,0,1,1.47,0V49Z" transform="translate(-140.3 -0.81)"/><path class="cls-3" d="M208.21,2.71h.18v1.1h-.17A.77.77,0,0,1,208.21,2.71Z" transform="translate(-140.3 -0.81)"/><g id="Layer_2" data-name="Layer 2"><path class="cls-4" d="M184,1.74a3.19,3.19,0,0,0-4.49,0L141.22,40a3.19,3.19,0,0,0,0,4.49l19.12,19.12a3.19,3.19,0,0,0,4.5,0l38.23-38.24a3.17,3.17,0,0,0,0-4.49Zm7.3,26.45-4.11-4.14-4.49,4.49,4.11,4.14-5.07,5.07-4.11-4.11-4.49,4.49,4.11,4.11-5.07,5.07L168,43.2l-4.52,4.49,4.14,4.11-5.07,5.07L148,42.24,181.69,8.5l14.63,14.62Z" transform="translate(-140.3 -0.81)"/><rect class="cls-4" x="158.09" y="35.84" width="9.02" height="6.37" transform="translate(-120.27 125.59) rotate(-45)"/><rect class="cls-4" x="174.02" y="19.94" width="9.02" height="6.37" transform="translate(-104.36 132.2) rotate(-45)"/></g></svg>