<?xml version="1.0" encoding="utf-8"?>
<!-- Generator: Adobe Illustrator 24.0.0, SVG Export Plug-In . SVG Version: 6.00 Build 0)  -->
<svg version="1.1" id="Layer_1" xmlns="http://www.w3.org/2000/svg" xmlns:xlink="http://www.w3.org/1999/xlink" x="0px" y="0px"
	 viewBox="0 0 50 50" style="enable-background:new 0 0 50 50;" xml:space="preserve">
<g>
	<path d="M24.6,11.4c-7.4,0-13.4,6-13.4,13.4c0,7.4,6,13.4,13.4,13.4S38,32.2,38,24.8C38,17.4,32,11.4,24.6,11.4z M24.6,14.5
		c2.2,0,4,1.8,4,4c0,2.2-1.8,5.3-4,5.3c-2.2,0-4-3.1-4-5.3C20.6,16.3,22.4,14.5,24.6,14.5z M31.9,32.7c0,0-2.6,2.3-7.2,2.3
		s-7.4-2.6-7.4-2.6v-4.6c0,0,0.4-3.2,5.5-2.4l1.9,4l2.1-4c0,0,4.3-0.9,5.2,2.7V32.7z"/>
	<path d="M48,29.4v-7.3l-5.6-1.6L41,16.3l3-4.9l-4.7-5.1l-4.8,2.9l-4.4-2.3l-1-5.3H22l-1.7,5.4l-4.2,1.7l-4.4-3.4L6,10l3,5.1
		l-1.7,4.2l-5.9,1.3v6.9L7,29.1l1.6,4.5l-3.4,4.2l5.1,5.5l4.8-3l4.2,2.2L20,48h7.5l1.3-5.2l4.4-1.7l4.8,3.2l5.1-5.1l-2.9-4.8l2-4.1
		L48,29.4z M38.7,34.5l2.7,4.5l-3.5,3.5l-4.5-3l-5.8,2.2l-1.2,4.8h-5.2l-0.8-5l-5.5-2.9l-4.5,2.8l-3.5-3.7l3.1-3.9l-2-6l-5.3-1.5
		v-4.7l5.5-1.2l2.3-5.5l-2.8-4.7l4-3.3l4.1,3.2L21.5,8L23,2.9h5l0.9,4.8l5.7,3L39,8l3.2,3.5l-2.8,4.6l1.9,5.5l5.2,1.5v5.1l-5.2,0.9
		L38.7,34.5z"/>
</g>
</svg>
