<svg id="Layer_1" data-name="Layer 1" xmlns="http://www.w3.org/2000/svg" viewBox="0 0 45.1 38.7"><defs><style>.cls-1{fill:#fff;}</style></defs><title>bandwidth-white</title><path class="cls-1" d="M22.6,0H38.2a6.5,6.5,0,0,1,6.9,6.1V31.8a6.5,6.5,0,0,1-6.2,6.8H6.9C2.7,38.6,0,35.9,0,31.7V6.8A6.5,6.5,0,0,1,6.1,0H22.6ZM3.2,9.7V31.8A3.2,3.2,0,0,0,6,35.4H38.2c2.4,0,3.7-1.3,3.7-3.6V9.7Zm30.6-5a1.7,1.7,0,0,0,1.6,1.7,1.6,1.6,0,0,0,1.7-1.5,1.7,1.7,0,0,0-1.6-1.7,1.6,1.6,0,0,0-1.6,1.6Zm8,.1a1.6,1.6,0,0,0-1.7-1.5,1.7,1.7,0,0,0-1.5,1.5A1.6,1.6,0,0,0,40,6.5h.2a1.6,1.6,0,0,0,1.7-1.4V4.8Z" transform="translate(0 0)"/><path class="cls-1" d="M22.4,14.5A14.5,14.5,0,0,1,37.1,28.6c0,1.3-.6,2-1.7,2s-1.5-.6-1.5-1.9a11.3,11.3,0,0,0-22.3-2.3,10.1,10.1,0,0,0-.3,2.5,1.7,1.7,0,0,1-1.6,1.6A1.7,1.7,0,0,1,8,28.9c-.2-6.7,5.5-13.4,12.2-14.2A8.2,8.2,0,0,1,22.4,14.5Z" transform="translate(0 0)"/><path class="cls-1" d="M22.6,32.2A3.2,3.2,0,0,1,19.3,29a3.2,3.2,0,0,1,.3-1.4,1.4,1.4,0,0,0,.1-1.4c-.5-1.7-1-3.3-1.6-5s-.3-.8.2-1,.8.1,1,.5,1.7,2.5,2.4,3.8A3.2,3.2,0,0,0,23.6,26a3,3,0,0,1,2.1,3.5A3.3,3.3,0,0,1,22.6,32.2Z" transform="translate(0 0)"/></svg>