<svg xmlns="http://www.w3.org/2000/svg" width="77.269" height="65.58" viewBox="0 0 77.269 65.58">
  <path id="domain-transfer" d="M13.171,36.093H9.808a5.941,5.941,0,0,0-4.943,9.235L17.139,63.739a5.943,5.943,0,0,0,9.886,0L39.3,45.328a5.941,5.941,0,0,0-4.943-9.235H30.994V12.329a5.939,5.939,0,0,0-5.941-5.941H19.112a5.939,5.939,0,0,0-5.941,5.941Zm35.646,0V59.857A5.939,5.939,0,0,0,54.758,65.8H60.7a5.939,5.939,0,0,0,5.941-5.941V36.093H70a5.941,5.941,0,0,0,4.943-9.235L62.671,8.447a5.943,5.943,0,0,0-9.886,0L40.511,26.858a5.941,5.941,0,0,0,4.943,9.235Z" transform="translate(-1.271 -3.303)" fill="#fff" stroke="#e67225" stroke-width="5" fill-rule="evenodd"/>
</svg>
