<svg id="Layer_1" data-name="Layer 1" xmlns="http://www.w3.org/2000/svg" viewBox="0 0 165 60.8"><defs><style>.cls-1{fill:#005a8f;}.cls-2{fill:#fff;}.cls-3{fill:#0e78be;}.cls-4{fill:#044a75;}.cls-5{fill:#8acbf0;}.cls-6{fill:none;}.cls-7{fill:#2aaae1;}</style></defs><title>Drupal-logo</title><path class="cls-1" d="M40.8,55.4c-3.1-1.9-6-2.7-8.9-4.6s-4.3-4.1-6.4-6.6c-.4,4-1.6,5.7-3.1,6.8A40.7,40.7,0,0,1,15,55.4C12.8,56.5,1,63.5,1,78.6s12.7,26.2,26.8,26.2S54.1,94.5,54.1,79.1A27.4,27.4,0,0,0,40.8,55.4Z" transform="translate(-1 -44)"/><path class="cls-2" d="M36,91.7a5.5,5.5,0,0,1,2.6.5,4.3,4.3,0,0,1,1.3,2.1.9.9,0,0,1-.5,1.2c-.4.2-.5.1-.9-.7s-.8-1.5-2.8-1.5A4.9,4.9,0,0,0,32,94.8c-1,.8-1.3,1.1-1.7.7s-.2-1,.4-1.5a10.9,10.9,0,0,1,2.7-1.9,5.2,5.2,0,0,1,2.6-.4Z" transform="translate(-1 -44)"/><path class="cls-2" d="M26.3,98.4c1.2,1,2.9,1.7,6.7,1.7a14.4,14.4,0,0,0,7.6-1.9c.5-.4.8-.1.8.2a.8.8,0,0,1-.2,1,12.7,12.7,0,0,1-6.1,2.5c-3.1.3-7.4.5-10-1.9a.8.8,0,0,1,0-1.2,1.5,1.5,0,0,1,.9-.4c.4,0,.2-.2.3,0Z" transform="translate(-1 -44)"/><path class="cls-3" d="M12,93.9c4.4-.1,5.3-.8,9.2-2.6,21.2-9.5,25.1-18.1,25.9-20.1a12.5,12.5,0,0,0,.7-8.8c-.2-.7-.4-1.2-.5-1.7a27.8,27.8,0,0,0-6.4-5.4c-3.1-1.9-6-2.7-8.9-4.6s-4.3-4.1-6.4-6.7c-.4,4-1.6,5.7-3.1,6.8a40.7,40.7,0,0,1-7.4,4.4C12.8,56.5,1,63.5,1,78.6a25.8,25.8,0,0,0,3.5,13h.6A9.1,9.1,0,0,0,12,93.9Z" transform="translate(-1 -44)"/><path class="cls-4" d="M40.8,55.4c-3.1-1.9-6-2.7-8.9-4.6s-4.3-4.1-6.4-6.7c-.4,4-1.6,5.7-3.1,6.8A40.7,40.7,0,0,1,15,55.3C12.8,56.5,1,63.5,1,78.5a25.8,25.8,0,0,0,3.5,13,27.3,27.3,0,0,0,23.3,13.2c14.1,0,26.3-10.3,26.3-25.7a26.4,26.4,0,0,0-6.9-18.3A29.2,29.2,0,0,0,40.8,55.4Zm7.1,6.8a26.6,26.6,0,0,1,5.8,16.9,25.8,25.8,0,0,1-2.1,10.4,23.5,23.5,0,0,1-5.7,8,26.2,26.2,0,0,1-18.1,6.9,28.6,28.6,0,0,1-10-1.9,26.3,26.3,0,0,1-8.4-5.4,25.4,25.4,0,0,1-8-18.4,25.1,25.1,0,0,1,6-16.6,28.3,28.3,0,0,1,7.7-6.3l1.8-.9a35.3,35.3,0,0,0,5.7-3.5c1.2-.9,2.5-2.4,3.1-6.1,1.9,2.3,4.2,4.9,5.9,6a33.8,33.8,0,0,0,4.6,2.4c1.4.7,2.9,1.3,4.4,2.2h.1A27.3,27.3,0,0,1,47.9,62.2Z" transform="translate(-1 -44)"/><path class="cls-5" d="M25.7,45.2a10.8,10.8,0,0,1,.7,4.1,3.8,3.8,0,0,1-1.2,2.6c-.4.3-.5.5-.5.6s.5.4.5.9-.3,1.9-3.4,5a48.2,48.2,0,0,1-11,7.6c-3.4,1.8-5.1,1.6-5.6.8s.2-2.6,2.3-5,9-5.8,9-5.8L25,50l.5-2.3" transform="translate(-1 -44)"/><path class="cls-2" d="M25.7,45.2c-.5,3.9-1.7,5-3.3,6.3A33.3,33.3,0,0,1,16.6,55c-1.5.8-7,3.8-9.9,8.2-.9,1.3,0,1.9.2,2s2.2.4,6.4-2.2a35.3,35.3,0,0,0,8.5-6.6c1.3-1.3,1.5-2.1,1.5-2.5s-.3-.6-.8-.7-.3-.2,0-.4l1.8-1A3.6,3.6,0,0,0,26,49.1a8.4,8.4,0,0,0-.3-3.9Z" transform="translate(-1 -44)"/><path class="cls-2" d="M12.5,87.7c.1-4.6,4.3-8.8,9.7-8.9s11.6,6.8,15,6.7,8.5-5.8,11.3-5.8,3.7,3.1,3.7,4.9a14.2,14.2,0,0,1-2,7.1c-1.4,2-2.3,2.8-3.9,2.7s-6.3-6.7-9-6.8-10.8,7.1-16.6,7.1c-3.5,0-4.6-.5-5.7-1.3a6.8,6.8,0,0,1-2.5-5.7Z" transform="translate(-1 -44)"/><path class="cls-6" d="M47.8,62.4a12.5,12.5,0,0,1-.7,8.8c-.8,2-4.7,10.6-25.9,20.1-3.9,1.7-4.7,2.5-9.2,2.6a9.1,9.1,0,0,1-6.9-2.3H4.5a27.3,27.3,0,0,0,23.3,13.2c14.1,0,26.3-10.3,26.3-25.7a26.4,26.4,0,0,0-6.9-18.3C47.4,61.2,47.5,61.8,47.8,62.4Z" transform="translate(-1 -44)"/><path class="cls-7" d="M112.3,70.9H108v8c0,2.3-1,4.2-3.3,4.2s-3.3-1.9-3.3-4.2V71H97.2v8c0,4.6,3,8.3,7.6,8.3s7.6-3.7,7.6-8.3Z" transform="translate(-1 -44)"/><rect class="cls-7" x="149.6" y="22" width="4.2" height="20.7"/><path class="cls-7" d="M158,66.8v-.7h3.3v.8h-1.2v3.3h-.9V66.9H158Z" transform="translate(-1 -44)"/><path class="cls-7" d="M163,66.1l.9,2.8h0l.9-2.8H166v4h-.8V67.2h0l-1,2.9h-.7l-1-2.8h0v2.8h-.8v-4Z" transform="translate(-1 -44)"/><path class="cls-7" d="M93.7,70.7c-3.7-.8-5.9,2.8-6.1,3h-.3l-.4-2.8H83V86.7h4.2V78.1a4.6,4.6,0,0,1,5.5-3.2,5.5,5.5,0,0,1,2.6,1.2V71.3Z" transform="translate(-1 -44)"/><path class="cls-7" d="M118,92V86.3h0V84.2a.2.2,0,0,1,.2-.2.2.2,0,0,1,.2.2,5,5,0,0,0,6,2.9A8.4,8.4,0,1,0,113.7,79V92Zm4.1-17.3a4.2,4.2,0,1,1-4.2,4.2A4.2,4.2,0,0,1,122.1,74.7Z" transform="translate(-1 -44)"/><path class="cls-7" d="M144.6,86.8h4.3V79a8.4,8.4,0,1,0-10.7,8.1,5,5,0,0,0,6-2.9.2.2,0,0,1,.2-.2.2.2,0,0,1,.2.2m.2-5.2a4.2,4.2,0,1,1-4.2-4.2A4.1,4.1,0,0,1,144.8,79Z" transform="translate(-1 -44)"/><path class="cls-7" d="M69.7,86.7H64.9V66H70c6.3,0,11,1.2,11,10.3S76,86.7,69.7,86.7Zm1.1-17.1H69.1V83.1h1.8c3.6,0,5.9-.3,5.9-6.8S74.8,69.6,70.8,69.6Z" transform="translate(-1 -44)"/></svg>