<svg xmlns="http://www.w3.org/2000/svg" width="59.438" height="70.682" viewBox="0 0 59.438 70.682">
  <g id="media-storage" transform="translate(-68.7 -33.27)">
    <path id="Path_67510" data-name="Path 67510" d="M101.951,39.531c0-2.551-6.477-6.261-16.624-6.261S68.7,36.98,68.7,39.531c0,2.248,5.028,5.395,13.157,6.107,4.321-3.367,11.494-5.636,20.091-6.093C101.948,39.541,101.951,39.536,101.951,39.531Z" fill="#fff"/>
    <path id="Path_67511" data-name="Path 67511" d="M68.7,247.644c0,1.806,3.251,4.183,8.738,5.423v-6.087A24.364,24.364,0,0,1,68.7,243.69Z" transform="translate(0 -177.032)" fill="#fff"/>
    <path id="Path_67512" data-name="Path 67512" d="M68.7,122.344c1.244,1.763,4.424,3.432,8.738,4.4V124.2a8.03,8.03,0,0,1,.793-3.384,26.414,26.414,0,0,1-9.53-3.348Z" transform="translate(0 -70.84)" fill="#fff"/>
    <path id="Path_67513" data-name="Path 67513" d="M68.7,183.966c1.244,1.763,4.424,3.432,8.738,4.4v-6.672A24.453,24.453,0,0,1,68.7,178.4Z" transform="translate(0 -122.102)" fill="#fff"/>
    <path id="Path_67514" data-name="Path 67514" d="M153.85,292.18v8.63c2.272,3.979,11.061,7.753,22.965,7.753s20.694-3.773,22.963-7.753v-8.63c-4.76,3.719-13.17,6.15-22.963,6.15S158.615,295.9,153.85,292.18Z" transform="translate(-71.639 -217.828)" fill="#fff"/>
    <path id="Path_67515" data-name="Path 67515" d="M153.85,379.24v6.644c0,4.316,9.822,9.143,22.965,9.143s22.963-4.827,22.963-9.143V379.24c-4.76,3.718-13.17,6.149-22.963,6.149S158.615,382.958,153.85,379.24Z" transform="translate(-71.639 -291.074)" fill="#fff"/>
    <path id="Path_67516" data-name="Path 67516" d="M154.812,109.076h0a3.935,3.935,0,0,0-.952,2.38c0,4.316,9.822,9.143,22.965,9.143s22.961-4.82,22.961-9.136-9.82-9.143-22.963-9.143C166.084,102.32,157.57,105.543,154.812,109.076Z" transform="translate(-71.647 -58.094)" fill="#fff"/>
    <path id="Path_67517" data-name="Path 67517" d="M153.85,210.37v7.8c2.272,3.979,11.061,7.753,22.965,7.753s20.694-3.773,22.963-7.753v-7.8c-4.9,3.622-13.186,5.914-22.963,5.914S158.755,213.992,153.85,210.37Z" transform="translate(-71.639 -148.999)" fill="#fff"/>
  </g>
</svg>
