<svg id="Layer_2" data-name="Layer 2" xmlns="http://www.w3.org/2000/svg" viewBox="0 0 541.9 179.4"><defs><style>.cls-1{fill:#00d8ff;}</style></defs><title>react-logo</title><circle class="cls-1" cx="101" cy="89.5" r="18"/><path class="cls-1" d="M208.2,284c-6.2-5.2-15-9.8-25.5-13.4-2.1-.7-4.2-1.4-6.5-2,.4-1.5.7-3,1-4.5,5-24.3,1.5-43.2-9.3-49.4-5.2-3-12.4-3-20.7,0s-16.1,8.1-24.4,15.4c-1.7,1.5-3.4,3-5,4.6l-3.4-3.1C96,215.1,77.7,208.7,67,214.9c-5.3,3.1-8.8,9.3-10.3,18s-1,18,1.1,28.8c.4,2.2.9,4.4,1.5,6.7q-3.9,1.1-7.5,2.4c-21.9,7.6-35,19.3-35,31.2,0,6.2,3.7,12.6,10.6,18.5S43,330.9,53.8,334.6l5.5,1.7c-.6,2.4-1.1,4.8-1.6,7.2-4.3,22.8-.8,40,9.6,45.9a18.7,18.7,0,0,0,9.6,2.4,35.6,35.6,0,0,0,11.7-2.3c8-2.8,16.8-8.3,25.4-15.8q2.1-1.8,4.2-3.9c1.8,1.8,3.6,3.4,5.5,5,12.9,11.1,25.3,17,35.1,17a17.8,17.8,0,0,0,9.4-2.4c5.4-3.1,9.1-9.5,10.8-18.4s1.2-18.7-1-29.9c-.3-1.8-.8-3.6-1.2-5.4l3.8-1.2c23.6-7.8,38.2-20.3,38.2-32.7C218.6,295.9,215,289.7,208.2,284Zm-58-61.2c5.7-2.1,10.5-2.3,13.5-.6,5.8,3.3,9.8,17.3,5.1,40.2l-.9,4a214.8,214.8,0,0,0-27-4.3,192,192,0,0,0-17-21.2c1.5-1.5,3.1-2.9,4.6-4.2C136.1,230,143.6,225.3,150.2,222.8Zm-4.3,95.6c-3.2,5.5-6.4,10.7-9.7,15.6-6,.4-12.2.6-18.5.6s-12.4-.2-18.3-.6c-3.4-5-6.8-10.3-9.9-15.6s-6-10.8-8.6-16.3c2.6-5.4,5.5-10.9,8.6-16.2h0c3.1-5.4,6.4-10.6,9.8-15.6,6-.5,12.2-.7,18.3-.7s12.4.2,18.4.7c3.3,4.9,6.6,10.1,9.7,15.5s6.1,10.9,8.7,16.2A150.5,150.5,0,0,1,145.9,318.4Zm13.3-6.4a182.7,182.7,0,0,1,6.8,17.8c-5.8,1.3-12.2,2.4-18.8,3.2,2.1-3.3,4.2-6.7,6.2-10.3S157.4,315.6,159.2,312Zm-41.1,45.6A178.5,178.5,0,0,1,106,343.1l11.8.2c4.1,0,8.2-.1,12.2-.3C126,348.4,122,353.2,118.1,357.6ZM88.5,333.1a164.4,164.4,0,0,1-18.6-3c1.8-5.8,4-11.7,6.5-17.8,1.8,3.5,3.7,7,5.7,10.4S86.3,329.8,88.5,333.1Zm-6.3-51.5q-3,5.3-5.7,10.5a169.6,169.6,0,0,1-6.4-17.5c5.8-1.3,11.9-2.3,18.3-3.1C86.2,274.8,84.2,278.2,82.2,281.6ZM117.9,247a176.3,176.3,0,0,1,11.8,14.3q-6-.3-12-.3c-4,0-7.9.1-11.8.3C109.8,256.2,113.8,251.4,117.9,247Zm35.4,34.5c-2-3.4-4-6.8-6.1-10.1,6.4.8,12.6,1.9,18.4,3.2a163.6,163.6,0,0,1-6.5,17.4C157.3,288.6,155.4,285.1,153.3,281.5Zm-87-21.4c-1.9-9.8-2.3-18.7-1.1-25.7s3.2-10.3,6.2-12c5.8-3.3,19.9.1,37.4,15.7l3,2.8a207.9,207.9,0,0,0-17.1,21.2,215.1,215.1,0,0,0-27,4.2C67.2,264.2,66.7,262.1,66.3,260.1Zm-9.7,66.4c-21.3-7.3-31.1-17.8-31.1-24.5s9-16.1,29.2-23.1l6.9-2.2a203.8,203.8,0,0,0,9.8,25.5A208.5,208.5,0,0,0,61.5,328Zm20.2,56.7a10.8,10.8,0,0,1-5.4-1.2c-5.5-3.2-9.4-15.8-5.4-36.8.4-2.2.9-4.4,1.5-6.7a204.3,204.3,0,0,0,27.2,3.9A203.8,203.8,0,0,0,112,363.8l-3.8,3.5C95.2,378.7,84,383.2,76.8,383.2Zm92.7-40.3c4.4,22.1.1,35.8-5.6,39.1s-18.4.2-34.6-13.7c-1.7-1.4-3.4-3-5.1-4.6a198.9,198.9,0,0,0,16.9-21.5,209,209,0,0,0,27.3-4.2C168.8,339.7,169.1,341.3,169.5,342.9Zm8.2-16.4-3.4,1.1a202,202,0,0,0-10.2-25.5,212.9,212.9,0,0,0,9.8-25.2l6,1.9c9.4,3.3,17.3,7.4,22.8,11.9s7.3,7.9,7.3,11.3C210,308.6,199.9,319.1,177.7,326.5Z" transform="translate(-16.8 -212.5)"/><path class="cls-1" d="M265.9,258.4a118.2,118.2,0,0,1,22.1-1.9c12.3,0,20.2,2.2,25.8,7.3s7,10,7,16.9c0,11.8-7.4,19.6-16.8,22.7v.4c6.9,2.4,11,8.7,13.1,18,2.9,12.4,5,21,6.9,24.5H312c-1.5-2.5-3.4-10.2-5.9-21.3s-7.4-16.9-17.8-17.3H277.5v38.6H266V258.4ZM277.4,299h11.8c12.3,0,20.1-6.7,20.1-16.9s-8.3-16.5-20.5-16.7c-5.6,0-9.5.5-11.4,1.1Z" transform="translate(-16.8 -212.5)"/><path class="cls-1" d="M343.6,316.4c.3,15.7,10.3,22.2,21.9,22.2a43.1,43.1,0,0,0,17.7-3.3l2,8.3c-4.1,1.9-11.1,4-21.3,4-19.7,0-31.5-13-31.5-32.3s11.4-34.5,30-34.5c20.9,0,26.4,18.4,26.4,30.1a50.5,50.5,0,0,1-.4,5.4H343.6Zm34.1-8.3c.1-7.4-3-18.9-16.1-18.9s-16.9,10.8-17.8,18.9Z" transform="translate(-16.8 -212.5)"/><path class="cls-1" d="M438.8,346.3l-.9-8.1h-.4a23.9,23.9,0,0,1-19.6,9.5c-13,0-19.6-9.1-19.6-18.4,0-15.5,13.7-23.9,38.5-23.8v-1.3c0-5.3-1.5-14.8-14.5-14.8a31.4,31.4,0,0,0-16.7,4.8l-2.6-7.7c5.3-3.4,13-5.7,21-5.7,19.6,0,24.3,13.4,24.3,26.2v24a87.9,87.9,0,0,0,1.1,15.3Zm-1.7-32.6c-12.7-.3-27.1,2-27.1,14.4,0,7.5,5,11.1,11,11.1a16.1,16.1,0,0,0,15.5-10.7,12.1,12.1,0,0,0,.7-3.7V313.7Z" transform="translate(-16.8 -212.5)"/><path class="cls-1" d="M512.7,343.9c-3,1.6-9.8,3.7-18.4,3.7-19.3,0-31.9-13.1-31.9-32.6s13.5-34,34.4-34c6.9,0,13,1.7,16.1,3.3l-2.6,9c-2.8-1.6-7.1-3-13.5-3-14.7,0-22.6,10.8-22.6,24.2s9.5,23.9,22.2,23.9a32.5,32.5,0,0,0,14.3-3.2Z" transform="translate(-16.8 -212.5)"/><path class="cls-1" d="M542,264v18.4h16.7v8.9H542v34.5c0,7.9,2.2,12.4,8.7,12.4a25.2,25.2,0,0,0,6.7-.8l.5,8.7a28.7,28.7,0,0,1-10.3,1.6c-5.4,0-9.8-1.7-12.6-4.9s-4.5-9.1-4.5-16.7V291.2h-9.9v-8.9h9.9V267Z" transform="translate(-16.8 -212.5)"/></svg>