<svg id="Layer_1" data-name="Layer 1" xmlns="http://www.w3.org/2000/svg" viewBox="0 0 47.3 46"><defs><style>.cls-1{fill:#fff;}</style></defs><title>scalable-white</title><path class="cls-1" d="M24.1,0a2.8,2.8,0,0,1,1.1,1.3c.9,1.3,1.7,2.6,2.5,4L25.9,6.5,24.7,4.8V18.1H22.5V5c-.6.4-.7,1-1.2,1.4L19.5,5.3A48.6,48.6,0,0,1,23,0Z" transform="translate(0)"/><path class="cls-1" d="M9.7,38.3l8.9-5.1-2.7-4.7-8.7,5c-.4-.2-.3-.5-.3-.7V19a2.5,2.5,0,0,1,1-2.1L20.4,9.7l.5-.2V19.7h5.3V9.4l3.5,2,9.2,5.3a2.4,2.4,0,0,1,1.4,2.1V33.6l-9-5.1-2.7,4.7,8.9,5.1-2.6,1.5-9.6,5.6a3,3,0,0,1-3.4,0L10.9,39Zm12.7-2.9V42c0,1,.6,1.8,1.2,1.7a1.4,1.4,0,0,0,1.2-1.6c-.1-4.4,0-8.7-.1-13a2,2,0,0,1,1.1-2l11.3-6.5c.8-.4,1.2-.9.9-1.7s-1.2-.7-2-.3L24.4,25.4a1.4,1.4,0,0,1-1.5,0L11.1,18.5a1.3,1.3,0,0,0-1.8.3h0c-.4.4,0,1.3.7,1.7,3.8,2.3,7.7,4.5,11.6,6.7a1.6,1.6,0,0,1,.9,1.5c-.1,2.3-.1,4.5-.1,6.7Z" transform="translate(0)"/><path class="cls-1" d="M30.8,32.6,32,30.7l11.2,6.4c.1-.6-.4-1-.5-1.6a11.8,11.8,0,0,1,1.9-1.1l2.7,5.2a1.5,1.5,0,0,1-1.2,1.7l-5.6.3a7.4,7.4,0,0,1-.1-2.1l1.6-.2v-.2Z" transform="translate(0)"/><path class="cls-1" d="M4.6,35.5l-.9,1.8,11.6-6.6,1.1,1.9L5.1,39.1c.6.4,1.2.2,1.8.4a7.5,7.5,0,0,1-.2,2.1c-1.9-.1-3.7-.1-5.5-.3A1.5,1.5,0,0,1,.1,39.5v-.2l2.6-4.9Z" transform="translate(0)"/></svg>