<svg id="Layer_1" data-name="Layer 1" xmlns="http://www.w3.org/2000/svg" viewBox="0 0 46.6 46.4"><defs><style>.cls-1{fill:#fff;}</style></defs><title>self-managed</title><path class="cls-1" d="M24.6,11.4A13.4,13.4,0,1,0,38,24.8,13.4,13.4,0,0,0,24.6,11.4Zm0,3.1a4,4,0,0,1,4,4c0,2.2-1.8,5.3-4,5.3s-4-3.1-4-5.3A4,4,0,0,1,24.6,14.5Zm7.3,18.2A11.4,11.4,0,0,1,24.7,35a11.5,11.5,0,0,1-7.4-2.6V27.8s.4-3.2,5.5-2.4l1.9,4,2.1-4s4.3-.9,5.2,2.7v4.6Z" transform="translate(-1.4 -1.6)"/><path class="cls-1" d="M48,29.4V22.1l-5.6-1.6L41,16.3l3-4.9L39.3,6.3,34.5,9.2,30.1,6.9l-1-5.3H22L20.3,7,16.1,8.7,11.7,5.3,6,10l3,5.1L7.3,19.3,1.4,20.6v6.9L7,29.1l1.6,4.5L5.2,37.8l5.1,5.5,4.8-3,4.2,2.2L20,48h7.5l1.3-5.2,4.4-1.7L38,44.3l5.1-5.1-2.9-4.8,2-4.1Zm-9.3,5.1L41.4,39l-3.5,3.5-4.5-3-5.8,2.2-1.2,4.8H21.2l-.8-5-5.5-2.9-4.5,2.8L6.9,37.7,10,33.8l-2-6L2.7,26.3V21.6l5.5-1.2,2.3-5.5L7.7,10.2l4-3.3,4.1,3.2L21.5,8,23,2.9h5l.9,4.8,5.7,3L39,8l3.2,3.5-2.8,4.6,1.9,5.5,5.2,1.5v5.1l-5.2.9Z" transform="translate(-1.4 -1.6)"/></svg>