<svg id="Layer_1" data-name="Layer 1" xmlns="http://www.w3.org/2000/svg" viewBox="0 0 1010.1 74.8"><defs><style>.cls-1,.cls-3{fill:#035189;}.cls-2{fill:#d06d28;}.cls-3{fill-rule:evenodd;}</style></defs><title>sm-logo</title><path class="cls-1" d="M126.9,328.1l10-17.8c7.5,4.8,17,8.6,25.4,8.6,3.1,0,5.9-.9,5.9-3.4s-3.4-3.9-10.6-5.3c-16.6-3.5-29.2-9.2-29.2-24.2s14-23.4,32.6-23.4c12.2,0,22.3,2.7,30.2,8.1l-10.1,17.8c-6.8-4-14-7.4-21.4-7.4-3.4,0-5.7.6-5.7,3.1s2.7,3.7,10.4,5.3c18.9,3.9,29.3,9.5,29.3,23.3,0,15.8-14.1,24.6-33.1,24.6C147.1,337.4,134,333.6,126.9,328.1Z" transform="translate(-126.9 -262.6)"/><path class="cls-1" d="M302.4,296.3v40.4H276.7V297.1c0-5.8-2.8-8.5-6.5-8.5s-6.5,2.7-6.5,8.5v39.6H238V297.2c0-5.8-2.7-8.6-6.4-8.6s-6.5,2.7-6.5,8.5v39.6H199.4V296.3c0-20.7,12.6-33,28.1-33A27.6,27.6,0,0,1,249.9,274c5.8-6.6,13.6-10.7,24.2-10.7C289.4,263.3,302.4,275.6,302.4,296.3Z" transform="translate(-126.9 -262.6)"/><path class="cls-1" d="M381.9,296.2v40.5H356.6V323.9H335.8v12.8H310.1V296.2c0-19.6,14.7-32.9,35.9-32.9S381.9,276.6,381.9,296.2Zm-46.1,6.7h20.8v-6.7c0-6.9-4.5-11.6-10.6-11.6s-10.2,4.7-10.2,11.6Z" transform="translate(-126.9 -262.6)"/><path class="cls-1" d="M432.7,336.7l-12.5-18.1h-4.8v18.1H389.7V297.3c0-22.9,11.2-34,33-34s33.1,13.5,33.1,28.1c0,10.5-4.2,18.1-11.8,22.5l16.1,22.8Zm-17.3-37.2h7.4c5.4,0,9-2.4,9-7a7.9,7.9,0,0,0-8.3-8.2c-5.2,0-8.1,4.1-8.1,11.1Z" transform="translate(-126.9 -262.6)"/><path class="cls-1" d="M527.1,264v21.1H506.3V336H480.6V285.1H460.1V264Z" transform="translate(-126.9 -262.6)"/><path class="cls-2" d="M563,300c0-21.7,16.9-37.4,39.3-37.4,12.3,0,23.5,4,31.6,13.2l-16.4,14.7a17.7,17.7,0,0,0-13.7-6.8c-8.1,0-15,6-15,16.3s6.7,16,14.7,16c4.9,0,10.1-2.2,14.3-6.9l16.3,14.7c-7.6,9.6-18.6,13.6-30.8,13.6C580.4,337.4,563,321.7,563,300Z" transform="translate(-126.9 -262.6)"/><path class="cls-2" d="M637.5,336V264h25.4v51.1h27.9V336Z" transform="translate(-126.9 -262.6)"/><path class="cls-2" d="M809.5,304.5V264h25.7v40.2c0,7.7,3.5,11.9,10,11.9s10.3-4.2,10.3-11.9V264h25.3v40.5c0,20.3-13.6,32.9-35.6,32.9S809.5,324.8,809.5,304.5Z" transform="translate(-126.9 -262.6)"/><path class="cls-2" d="M885.5,336V264h34.8c25,0,41,14,41,35.8s-16,36.2-41,36.2Zm25.7-21h8c9.8,0,16-5.9,16-15.1S929,285,919.2,285h-8Z" transform="translate(-126.9 -262.6)"/><path class="cls-2" d="M984.9,336l-29.2-72h27l15,43.1h.1l15-43.1h26.9l-29.2,72Z" transform="translate(-126.9 -262.6)"/><path class="cls-2" d="M1137,295.6V336h-25.7V296.4c0-5.9-2.8-8.5-6.5-8.5s-6.4,2.6-6.4,8.5v7.3h-25.7v-7.2c0-5.9-2.7-8.6-6.4-8.6s-6.6,2.6-6.6,8.5V336H1034V295.6c0-20.7,12.7-33,28.2-33a27.6,27.6,0,0,1,22.4,10.7c5.8-6.6,13.6-10.7,24.2-10.7C1124.1,262.6,1137,274.9,1137,295.6Z" transform="translate(-126.9 -262.6)"/><path class="cls-3" d="M793,293.8l-1.1-.5V290a13.9,13.9,0,0,0-21.7-11.5c2.4,2.3,4.5,8.3,5,12.8h10.9l-18.8,19-19-18.8,7.7-.2h10.4c-1.6-13.4-7.1-20.1-11.3-23.1a28.6,28.6,0,0,0-9.1-3.6h-1.1l-3.1-.2c-15,0-27.5,11.5-29.3,26.5a14.9,14.9,0,0,0,.4,5.1,18.7,18.7,0,0,0-2.4.2,20.6,20.6,0,0,0-16.3,19.9A20.2,20.2,0,0,0,714.3,336H760c-13.4-.4-28-11.2-29.2-20.1l-10.9.2,18.8-19,19,18.8h-11c1.6,18.4,22.2,20.1,22.2,20.1h15.2a21.7,21.7,0,0,0,21.7-21.7A23.7,23.7,0,0,0,793,293.8Z" transform="translate(-126.9 -262.6)"/><path class="cls-2" d="M1096.2,305.5H1075a4.1,4.1,0,0,0-4.2,4.1v.7a4.2,4.2,0,0,0,4.2,4.1h21.2a4.2,4.2,0,0,0,4.2-4.1v-.7A4.1,4.1,0,0,0,1096.2,305.5Zm.3,5.8a1.4,1.4,0,0,1-1.4-1.4,1.4,1.4,0,1,1,2.8,0A1.4,1.4,0,0,1,1096.5,311.3Z" transform="translate(-126.9 -262.6)"/><path class="cls-2" d="M1096.2,316.1H1075a4.2,4.2,0,0,0-4.2,4.2v.6a4.2,4.2,0,0,0,4.2,4.2h21.2a4.2,4.2,0,0,0,4.2-4.2v-.6A4.2,4.2,0,0,0,1096.2,316.1Zm.3,5.8a1.4,1.4,0,1,1,1.4-1.4A1.4,1.4,0,0,1,1096.5,321.9Z" transform="translate(-126.9 -262.6)"/><path class="cls-2" d="M1096.2,326.9H1075a4.2,4.2,0,0,0-4.2,4.2v.6a4.1,4.1,0,0,0,4.2,4.1h21.2a4.1,4.1,0,0,0,4.2-4.1v-.6A4.2,4.2,0,0,0,1096.2,326.9Zm.3,5.8a1.4,1.4,0,1,1,1.4-1.4A1.4,1.4,0,0,1,1096.5,332.7Z" transform="translate(-126.9 -262.6)"/></svg>