<svg id="signup-btn-bg" xmlns="http://www.w3.org/2000/svg" xmlns:xlink="http://www.w3.org/1999/xlink" viewBox="0 0 150.75 133.77"><defs><style>.cls-1{fill:none;}.cls-2{clip-path:url(#clip-path);}.cls-3{fill:url(#linear-gradient);}.cls-4{fill:url(#linear-gradient-2);}.cls-5{fill:url(#linear-gradient-3);}</style><clipPath id="clip-path" transform="translate(0.75 33.6)"><path class="cls-1" d="M32.5,0h85A32.5,32.5,0,0,1,150,32.5h0A32.5,32.5,0,0,1,117.5,65h-85A32.5,32.5,0,0,1,0,32.5H0A32.5,32.5,0,0,1,32.5,0Z"/></clipPath><linearGradient id="linear-gradient" x1="50.17" y1="58.12" x2="50.17" y2="57.12" gradientTransform="matrix(150, 0, 0, -65, -7450, 3778)" gradientUnits="userSpaceOnUse"><stop offset="0" stop-color="#c8c7c7"/><stop offset="1" stop-color="#f9f9f9"/></linearGradient><linearGradient id="linear-gradient-2" x1="49.88" y1="57.86" x2="49.91" y2="57.29" gradientTransform="matrix(81.71, 21.91, 13.53, -50.47, -4815.99, 1873.37)" xlink:href="#linear-gradient"/><linearGradient id="linear-gradient-3" x1="49.91" y1="57.56" x2="49.9" y2="57.07" gradientTransform="matrix(81.71, 21.91, 13.53, -50.47, -4745.02, 1800.37)" xlink:href="#linear-gradient"/></defs><title>signup-btn-bg</title><g class="cls-2"><g id="Mask_Group_1" data-name="Mask Group 1"><path id="Rectangle_4" data-name="Rectangle 4" class="cls-3" d="M32.5,0h85A32.5,32.5,0,0,1,150,32.5h0A32.5,32.5,0,0,1,117.5,65h-85A32.5,32.5,0,0,1,0,32.5H0A32.5,32.5,0,0,1,32.5,0Z" transform="translate(0.75 33.6)"/><path id="Path_34037" data-name="Path 34037" class="cls-4" d="M42.74,44.67C64.35,54.11,80,73,77.74,86.88s-21.66,17.46-43.27,8S-2.81,66.57-.53,52.69,21.13,35.23,42.74,44.67Z" transform="translate(0.75 33.6)"/><path id="Path_34038" data-name="Path 34038" class="cls-5" d="M113.71-28.33C135.32-18.89,151,0,148.71,13.88s-21.66,17.46-43.27,8-37.28-28.33-35-42.21S92.1-37.77,113.71-28.33Z" transform="translate(0.75 33.6)"/></g></g></svg>