<svg id="full-name" xmlns="http://www.w3.org/2000/svg" width="25" height="25" viewBox="0 0 25 25">
  <path id="user2" d="M12.5,0A12.5,12.5,0,1,0,25,12.5,12.537,12.537,0,0,0,12.5,0Zm0,4.167c2.292,0,4.167,2.292,4.167,5.208s-1.875,5.208-4.167,5.208S8.333,12.292,8.333,9.375,10.208,4.167,12.5,4.167Zm6.875,16.146a10.582,10.582,0,0,1-6.875,2.6,10.582,10.582,0,0,1-6.875-2.6,1.013,1.013,0,0,1-.1-1.458A9.361,9.361,0,0,1,9.9,16.042a5.738,5.738,0,0,0,5.208,0,8.873,8.873,0,0,1,4.375,2.813A.937.937,0,0,1,19.375,20.313Z" fill="#fff"/>
</svg>
