<svg xmlns="http://www.w3.org/2000/svg" xmlns:xlink="http://www.w3.org/1999/xlink" width="230" height="65" viewBox="0 0 230 65">
  <defs>
    <linearGradient id="linear-gradient" x1="0.5" x2="0.5" y2="1" gradientUnits="objectBoundingBox">
      <stop offset="0" stop-color="#4a92f8"/>
      <stop offset="1" stop-color="#bdd3fe"/>
    </linearGradient>
    <clipPath id="clip-path">
      <path id="Path_40955" data-name="Path 40955" d="M87.913,0H262.087C277.5,0,290,14.551,290,32.5S277.5,65,262.087,65H87.913C72.5,65,60,50.449,60,32.5S72.5,0,87.913,0Z" transform="translate(-60 0)" fill="url(#linear-gradient)"/>
    </clipPath>
    <linearGradient id="linear-gradient-2" x1="0.5" x2="0.5" y2="1" gradientUnits="objectBoundingBox">
      <stop offset="0" stop-color="#ec8b05"/>
      <stop offset="1" stop-color="#ffc300"/>
    </linearGradient>
    <linearGradient id="linear-gradient-3" x1="0.402" y1="-0.137" x2="0.417" y2="0.557" xlink:href="#linear-gradient-2"/>
    <linearGradient id="linear-gradient-4" x1="0.493" y1="0.432" x2="0.51" y2="0.897" xlink:href="#linear-gradient-2"/>
  </defs>
  <g id="tryitout-btn-bg" transform="translate(0 0)" clip-path="url(#clip-path)">
    <rect id="Rectangle_4" data-name="Rectangle 4" width="230" height="65" rx="32.5" fill="url(#linear-gradient-2)"/>
    <path id="Path_53" data-name="Path 53" d="M62.288.013c34.579.453,62.756,12.365,62.934,26.606S97.514,52.037,62.935,51.584.179,39.218,0,24.978,27.709-.44,62.288.013Z" transform="matrix(0.966, 0.259, -0.259, 0.966, -4.98, 28.308)" fill="url(#linear-gradient-3)"/>
    <path id="Path_54" data-name="Path 54" d="M62.288.013c34.579.453,62.756,12.365,62.934,26.606S97.514,52.037,62.935,51.584.179,39.218,0,24.978,27.709-.44,62.288.013Z" transform="matrix(0.966, 0.259, -0.259, 0.966, 125.668, -44.332)" fill="url(#linear-gradient-4)"/>
  </g>
</svg>
