<svg id="blue-btn" xmlns="http://www.w3.org/2000/svg" xmlns:xlink="http://www.w3.org/1999/xlink" viewBox="0 0 108 30"><defs><style>.cls-1{fill:url(#linear-gradient);}.cls-2{fill:url(#radial-gradient);}.cls-3{fill:url(#radial-gradient-2);}</style><linearGradient id="linear-gradient" x1="54" y1="30" x2="54" gradientUnits="userSpaceOnUse"><stop offset="0" stop-color="#4a92f8"/><stop offset="1" stop-color="#bdd3fe"/></linearGradient><radialGradient id="radial-gradient" cx="53.85" cy="0.66" r="42.46" gradientTransform="translate(0 0.55) scale(1 0.16)" gradientUnits="userSpaceOnUse"><stop offset="0" stop-color="#65a7ff"/><stop offset="0.42" stop-color="#86b9ff"/><stop offset="1" stop-color="#c9e0ff"/></radialGradient><radialGradient id="radial-gradient-2" cx="53.7" cy="29.64" r="32" gradientTransform="translate(0 25.79) scale(1 0.13)" gradientUnits="userSpaceOnUse"><stop offset="0" stop-color="#c9e0ff"/><stop offset="0.23" stop-color="#bdd9ff"/><stop offset="1" stop-color="#6dabff"/></radialGradient></defs><title>blue-btn</title><path class="cls-1" d="M108,15a14.92,14.92,0,0,1-4.4,10.6,15.19,15.19,0,0,1-3,2.36h0A14.86,14.86,0,0,1,93,30H15a14.86,14.86,0,0,1-7.55-2h0A15,15,0,0,1,4.4,4.4,15.26,15.26,0,0,1,7.45,2,14.86,14.86,0,0,1,15,0H93a15,15,0,0,1,15,15Z"/><g id="Mask_Group_89" data-name="Mask Group 89"><path class="cls-2" d="M100.55,2C91.29,5.15,73.92,7.24,54,7.24S16.71,5.15,7.45,2A14.86,14.86,0,0,1,15,0H93A14.86,14.86,0,0,1,100.55,2Z"/><path class="cls-3" d="M100.55,28A14.86,14.86,0,0,1,93,30H15a14.86,14.86,0,0,1-7.55-2c9.26-3.11,26.63-5.2,46.55-5.2S91.29,24.85,100.55,28Z"/></g></svg>