<svg id="Layer_1" data-name="Layer 1" xmlns="http://www.w3.org/2000/svg" xmlns:xlink="http://www.w3.org/1999/xlink" viewBox="0 0 149.96 41.03"><defs><style>.cls-1{fill:url(#linear-gradient);}.cls-2{fill:url(#radial-gradient);}.cls-3{fill:url(#radial-gradient-2);}</style><linearGradient id="linear-gradient" x1="-4240.02" y1="5026.34" x2="-4240.02" y2="4988.74" gradientTransform="matrix(1, 0, 0, -1, 4316, 5029)" gradientUnits="userSpaceOnUse"><stop offset="0" stop-color="#4a92f8"/><stop offset="1" stop-color="#b4cdff"/></linearGradient><radialGradient id="radial-gradient" cx="85.17" cy="53.57" r="67.56" gradientTransform="matrix(0.89, 0, 0, -0.15, -0.16, 8.35)" gradientUnits="userSpaceOnUse"><stop offset="0" stop-color="#65a7ff"/><stop offset="0.42" stop-color="#86b9ff"/><stop offset="1" stop-color="#c9e0ff"/></radialGradient><radialGradient id="radial-gradient-2" cx="85.4" cy="13.53" r="50.85" gradientTransform="matrix(0.89, 0, 0, -0.19, -0.16, 42.98)" gradientUnits="userSpaceOnUse"><stop offset="0" stop-color="#c9e0ff"/><stop offset="0.23" stop-color="#bdd9ff"/><stop offset="1" stop-color="#6dabff"/></radialGradient></defs><title>buy-now-btn-bg</title><g id="blue-btn"><path class="cls-1" d="M151,20.45a21.76,21.76,0,0,1-5.32,14.49,15.15,15.15,0,0,1-3.93,3.31h0a16.21,16.21,0,0,1-9,2.68H19.22A16.65,16.65,0,0,1,10,38.09c-5.4-3.54-9-10.16-9-17.64A21.72,21.72,0,0,1,6.33,6,19.1,19.1,0,0,1,9.76,2.89a16.51,16.51,0,0,1,9.46-3H132.74a16.72,16.72,0,0,1,9.18,2.76A21.43,21.43,0,0,1,151,20.45Z" transform="translate(-1 0.1)"/><g id="Mask_Group_89" data-name="Mask Group 89"><path class="cls-2" d="M141.92,2.73c-12.75,4.41-37.63,7.49-66.29,7.49-28.31,0-53-2.92-65.87-7.33A17.41,17.41,0,0,1,19.22,0H132.74A16.79,16.79,0,0,1,141.92,2.73Z" transform="translate(-1 0.1)"/><path class="cls-3" d="M141.71,38.25a16.39,16.39,0,0,1-9,2.68H19.22A16.65,16.65,0,0,1,10,38.09c12.89-4.41,37.49-7.4,65.66-7.4C104.15,30.69,128.89,33.76,141.71,38.25Z" transform="translate(-1 0.1)"/></g></g></svg>