<svg id="blog-orange-icon" xmlns="http://www.w3.org/2000/svg" width="49.361" height="49.945" viewBox="0 0 49.361 49.945">
  <path id="Path_67497" data-name="Path 67497" d="M51.6,25.179a1.256,1.256,0,0,0-.424,1c.011,5.3.006,10.592.01,15.888,0,1.963-.707,2.678-2.687,2.678q-8.554,0-17.107-.011a1.38,1.38,0,0,0-1.071.437c-2.057,2.076-4.131,4.139-6.2,6.205-.22.22-.414.546-.8.382-.35-.151-.262-.5-.264-.789,0-1.858-.023-3.717.013-5.575.01-.554-.172-.67-.689-.661-1.707.031-3.417-.027-5.124.021a2.134,2.134,0,0,1-2.175-2.162q.023-10.571.01-21.143a2.039,2.039,0,0,1,.846-1.709,2.693,2.693,0,0,1,1.7-.424q9.643.006,19.284,0c.292,0,.613.069.852-.168q1.043-1.037,2.068-2.089a.386.386,0,0,0,.118-.277c-.027-.172-.195-.122-.313-.124-.491-.006-.982,0-1.473,0-7.154,0-14.309.011-21.463-.008a4.411,4.411,0,0,0-4.565,4.526q.014,10.927,0,21.849A4.267,4.267,0,0,0,16.443,47.4c.9.015,1.793.019,2.691,0,.369-.01.476.122.472.477-.017,1.175-.032,2.351,0,3.524a3.7,3.7,0,0,0,2.328,3.575,3.676,3.676,0,0,0,4.248-.753c2.147-2.1,4.267-4.23,6.379-6.364a1.442,1.442,0,0,1,1.121-.462q7.881.02,15.762.01a5.281,5.281,0,0,0,1.585-.16A4.2,4.2,0,0,0,54.047,43q.011-9.769,0-19.54v-.491l-.172-.1C53.122,23.641,52.381,24.428,51.6,25.179Z" transform="translate(-12.153 -5.387)" fill="#e67225"/>
  <path id="Path_67498" data-name="Path 67498" d="M43.678,17.517q-3.2-3.2-6.41-6.4A.9.9,0,0,0,35.84,11.1c-1.429,1.438-2.848,2.882-4.292,4.3-.323.315-.321.525-.008.835q3.521,3.489,7.017,7c.285.286.489.321.787.017,1.434-1.455,2.888-2.89,4.324-4.343C44.228,18.351,44.221,18.059,43.678,17.517Z" transform="translate(5.274 -10.752)" fill="#e67225"/>
  <path id="Path_67499" data-name="Path 67499" d="M23.935,28.125a15.708,15.708,0,0,1,1.358,1.358c.355.4.605.464,1.01.019.791-.865,1.648-1.669,2.479-2.5q5.34-5.346,10.676-10.692c.132-.132.3-.244.3-.426a.752.752,0,0,0-.3-.445c-.481-.487-.98-.953-1.442-1.457-.3-.33-.521-.321-.835,0-1.19,1.222-2.4,2.424-3.608,3.633q-4.81,4.822-9.63,9.637C23.624,27.577,23.561,27.795,23.935,28.125Z" transform="translate(-1.666 -8.036)" fill="#e67225"/>
  <path id="Path_67500" data-name="Path 67500" d="M40.953,16.934a.7.7,0,0,0-.632-.281c-.113.006-.241.223-.4.384-1.115,1.117-2.223,2.244-3.339,3.361q-4.865,4.87-9.737,9.733c-.348.344-.327.577.017.89a13.928,13.928,0,0,1,1.312,1.31c.374.443.636.409,1.024.01,1.411-1.452,2.853-2.874,4.284-4.307q4.38-4.389,8.772-8.765c.426-.422.424-.7-.021-1.079S41.379,17.354,40.953,16.934Z" transform="translate(0.985 -5.384)" fill="#e67225"/>
  <path id="Path_67501" data-name="Path 67501" d="M17.043,29.562q6.5.009,12.995,0v0q6.466,0,12.932,0a7.943,7.943,0,0,0,.827-.052.736.736,0,0,0,.691-.772c.031-.426-.038-.781-.537-.953a2.782,2.782,0,0,0-.936-.143q-12.963,0-25.929,0a2.833,2.833,0,0,0-.51.01,1.212,1.212,0,0,0-1.026.842.843.843,0,0,0,.338.84C16.2,29.636,16.645,29.562,17.043,29.562Z" transform="translate(-9.086 4.608)" fill="#e67225"/>
  <path id="Path_67502" data-name="Path 67502" d="M29.558,26.545C27.933,24.92,26.3,23.3,24.69,21.664c-.4-.407-.562-.323-.651.187-.027.145-.063.29-.092.435-.241,1.207-.483,2.412-.72,3.621-.252,1.289-.512,2.576-.741,3.871-.111.632.189.964.743.951.85-.164,1.662-.317,2.471-.481,1.87-.378,3.738-.764,5.606-1.142.159-.032.363.036.42-.193.05-.2-.111-.309-.227-.428Q30.53,27.515,29.558,26.545Z" transform="translate(-2.772 -1.059)" fill="#e67225"/>
  <path id="Path_67503" data-name="Path 67503" d="M28.946,21.751c.059-.447-.044-.6-.516-.6-1.965.023-3.931.01-5.894.01h-5.51c-1.008,0-1.524.334-1.511.976s.518.968,1.526.97q5.188.009,10.378,0C28.781,23.111,28.766,23.109,28.946,21.751Z" transform="translate(-9.094 -1.287)" fill="#e67225"/>
  <path id="Path_67504" data-name="Path 67504" d="M21.974,24.415c-1.791,0-3.583-.017-5.374.01a.95.95,0,0,0-.949,1.383,1.089,1.089,0,0,0,1.125.56q4.7-.011,9.4,0c1.354,0,1.325,0,1.5-1.381.063-.493-.084-.579-.523-.575C25.429,24.426,23.7,24.415,21.974,24.415Z" transform="translate(-9.07 1.672)" fill="#e67225"/>
</svg>
