<svg id="Layer_1" data-name="Layer 1" xmlns="http://www.w3.org/2000/svg" viewBox="0 0 69.3 49.33"><defs><style>.cls-1{fill:#fefefe;}.cls-2{fill:#efefef;}.cls-3{fill:#e7e7e7;}.cls-4{fill:#fff;}</style></defs><title>disk-space-icon</title><path class="cls-1" d="M174.79,49c-4.39,0-8.78,0-13.17,0-.51,0-.62-.1-.61-.61,0-4.27,0-8.54,0-12.81a.23.23,0,0,1,.24,0c3.56,4.15,7.7,7.71,11.6,11.52.63.62,1.35,1.11,2,1.68A.28.28,0,0,1,174.79,49Z" transform="translate(-139.15 0.33)"/><path class="cls-2" d="M207.29,1.61c.94-.21,1.31.16,1.1,1.1a.24.24,0,0,1-.23.06,2.9,2.9,0,0,1-1-.94A.32.32,0,0,1,207.29,1.61Z" transform="translate(-139.15 0.33)"/><path class="cls-3" d="M207.29,1.61v.21a1.16,1.16,0,0,1-1.46,0V1.61Z" transform="translate(-139.15 0.33)"/><path class="cls-3" d="M161.2,35.58H161V34.11h.19A1.15,1.15,0,0,1,161.2,35.58Z" transform="translate(-139.15 0.33)"/><path class="cls-3" d="M174.79,49v-.19a1.16,1.16,0,0,1,1.47,0V49Z" transform="translate(-139.15 0.33)"/><path class="cls-3" d="M208.21,2.71h.18v1.1h-.17A.77.77,0,0,1,208.21,2.71Z" transform="translate(-139.15 0.33)"/><circle class="cls-4" cx="36.11" cy="10.74" r="3.9"/><path class="cls-4" d="M139.15,32.85V45.54a1,1,0,0,0,1,1H185a1,1,0,0,0,1-1V32.85Zm8.78,9.76H144v-2h3.9Zm33.19-4.88H144V35.78h37.09Z" transform="translate(-139.15 0.33)"/><path class="cls-4" d="M185,30.9h.72l-3.2-10.12a12.56,12.56,0,0,1-7.28,2.31A12.7,12.7,0,0,1,162.57,10.4,12.57,12.57,0,0,1,164,4.55H147.93a1,1,0,0,0-.93.7L139.39,30.9H185Z" transform="translate(-139.15 0.33)"/><path class="cls-4" d="M175.26,21.14A10.74,10.74,0,1,0,164.53,10.4,10.75,10.75,0,0,0,175.26,21.14Zm0-19.52a8.79,8.79,0,1,1-8.78,8.78A8.79,8.79,0,0,1,175.26,1.62Z" transform="translate(-139.15 0.33)"/></svg>