<svg xmlns="http://www.w3.org/2000/svg" xmlns:xlink="http://www.w3.org/1999/xlink" width="299.69" height="102" viewBox="0 0 299.69 102">
  <defs>
    <linearGradient id="linear-gradient" x1="1" y1="1" x2="0" y2="1" gradientUnits="objectBoundingBox">
      <stop offset="0" stop-color="#d6d6d6"/>
      <stop offset="0.498" stop-color="#fbfbfb"/>
      <stop offset="1" stop-color="#d6d6d6"/>
    </linearGradient>
  </defs>
  <g id="server-middle-img" transform="translate(9799 5970)">
    <g id="Group_1831" data-name="Group 1831" transform="translate(-10318 -6374)">
      <rect id="Rectangle_835" data-name="Rectangle 835" width="299" height="102" transform="translate(519 404)" fill="url(#linear-gradient)"/>
      <g id="Group_2261" data-name="Group 2261" transform="translate(519.295 404)" opacity="0.7">
        <g id="Group_1719" data-name="Group 1719">
          <path id="Path_34175" data-name="Path 34175" d="M252.514,338.87a.16.16,0,1,1,.158-.16A.16.16,0,0,1,252.514,338.87Z" transform="translate(-177.379 -337.312)" fill="#fff"/>
          <path id="Path_34176" data-name="Path 34176" d="M293.886,338.615a.439.439,0,1,1,.436-.44A.438.438,0,0,1,293.886,338.615Z" transform="translate(-233.056 -336.778)" fill="#fff"/>
          <path id="Path_34177" data-name="Path 34177" d="M335.334,338.4a.679.679,0,1,1,.674-.679A.677.677,0,0,1,335.334,338.4Z" transform="translate(-288.809 -336.319)" fill="#fff"/>
          <path id="Path_34178" data-name="Path 34178" d="M376.706,338.142a.958.958,0,1,1,.952-.958A.955.955,0,0,1,376.706,338.142Z" transform="translate(-344.486 -335.786)" fill="#fff"/>
          <path id="Path_34179" data-name="Path 34179" d="M418.154,337.924a1.2,1.2,0,1,1,1.19-1.2A1.194,1.194,0,0,1,418.154,337.924Z" transform="translate(-400.239 -335.328)" fill="#fff"/>
          <path id="Path_34180" data-name="Path 34180" d="M459.679,337.742a1.4,1.4,0,1,1,1.389-1.4A1.393,1.393,0,0,1,459.679,337.742Z" transform="translate(-456.07 -334.947)" fill="#fff"/>
          <path id="Path_34181" data-name="Path 34181" d="M210.683,380.814a.12.12,0,1,1,.118-.12A.12.12,0,0,1,210.683,380.814Z" transform="translate(-121.243 -364.895)" fill="#fff"/>
          <path id="Path_34182" data-name="Path 34182" d="M251.978,380.523a.439.439,0,1,1,.436-.44A.438.438,0,0,1,251.978,380.523Z" transform="translate(-176.842 -364.285)" fill="#fff"/>
          <path id="Path_34183" data-name="Path 34183" d="M293.35,380.268a.719.719,0,1,1,.714-.719A.717.717,0,0,1,293.35,380.268Z" transform="translate(-232.52 -363.751)" fill="#fff"/>
          <path id="Path_34184" data-name="Path 34184" d="M334.722,380.014a1,1,0,1,1,.992-1A1,1,0,0,1,334.722,380.014Z" transform="translate(-288.197 -363.217)" fill="#fff"/>
          <path id="Path_34185" data-name="Path 34185" d="M376.093,379.76a1.278,1.278,0,1,1,1.27-1.278A1.274,1.274,0,0,1,376.093,379.76Z" transform="translate(-343.874 -362.683)" fill="#fff"/>
          <path id="Path_34186" data-name="Path 34186" d="M417.466,379.5a1.557,1.557,0,1,1,1.547-1.557A1.552,1.552,0,0,1,417.466,379.5Z" transform="translate(-399.551 -362.149)" fill="#fff"/>
          <path id="Path_34187" data-name="Path 34187" d="M458.99,379.323a1.757,1.757,0,1,1,1.746-1.757A1.751,1.751,0,0,1,458.99,379.323Z" transform="translate(-455.381 -361.768)" fill="#fff"/>
          <path id="Path_34188" data-name="Path 34188" d="M168.851,422.757a.08.08,0,1,1,.08-.08A.08.08,0,0,1,168.851,422.757Z" transform="translate(-65.105 -394.267)" fill="#fff"/>
          <path id="Path_34189" data-name="Path 34189" d="M210.223,422.5a.359.359,0,1,1,.357-.36A.358.358,0,0,1,210.223,422.5Z" transform="translate(-120.783 -393.727)" fill="#fff"/>
          <path id="Path_34190" data-name="Path 34190" d="M251.52,422.212a.679.679,0,1,1,.674-.679A.677.677,0,0,1,251.52,422.212Z" transform="translate(-176.384 -393.108)" fill="#fff"/>
          <path id="Path_34191" data-name="Path 34191" d="M292.814,421.922a1,1,0,1,1,.992-1A1,1,0,0,1,292.814,421.922Z" transform="translate(-231.984 -392.49)" fill="#fff"/>
          <path id="Path_34192" data-name="Path 34192" d="M334.109,421.63a1.318,1.318,0,1,1,1.309-1.318A1.313,1.313,0,0,1,334.109,421.63Z" transform="translate(-287.585 -391.871)" fill="#fff"/>
          <path id="Path_34193" data-name="Path 34193" d="M375.481,421.376a1.6,1.6,0,1,1,1.587-1.6A1.592,1.592,0,0,1,375.481,421.376Z" transform="translate(-343.261 -391.329)" fill="#fff"/>
          <path id="Path_34194" data-name="Path 34194" d="M416.853,421.122a1.877,1.877,0,1,1,1.864-1.877A1.871,1.871,0,0,1,416.853,421.122Z" transform="translate(-398.939 -390.788)" fill="#fff"/>
          <path id="Path_34195" data-name="Path 34195" d="M458.3,420.9a2.116,2.116,0,1,1,2.1-2.117A2.109,2.109,0,0,1,458.3,420.9Z" transform="translate(-454.693 -390.324)" fill="#fff"/>
          <path id="Path_34196" data-name="Path 34196" d="M168.545,464.52a.24.24,0,1,1,.238-.24A.239.239,0,0,1,168.545,464.52Z" transform="translate(-64.8 -422.324)" fill="#fff"/>
          <path id="Path_34197" data-name="Path 34197" d="M209.764,464.193a.6.6,0,1,1,.595-.6A.6.6,0,0,1,209.764,464.193Z" transform="translate(-120.324 -421.634)" fill="#fff"/>
          <path id="Path_34198" data-name="Path 34198" d="M250.983,463.865a.958.958,0,1,1,.952-.958A.955.955,0,0,1,250.983,463.865Z" transform="translate(-175.848 -420.944)" fill="#fff"/>
          <path id="Path_34199" data-name="Path 34199" d="M292.279,463.575a1.278,1.278,0,1,1,1.269-1.278A1.274,1.274,0,0,1,292.279,463.575Z" transform="translate(-231.448 -420.331)" fill="#fff"/>
          <path id="Path_34200" data-name="Path 34200" d="M333.574,463.284a1.6,1.6,0,1,1,1.587-1.6A1.592,1.592,0,0,1,333.574,463.284Z" transform="translate(-287.049 -419.717)" fill="#fff"/>
          <path id="Path_34201" data-name="Path 34201" d="M374.869,462.993a1.917,1.917,0,1,1,1.9-1.917A1.91,1.91,0,0,1,374.869,462.993Z" transform="translate(-342.649 -419.104)" fill="#fff"/>
          <path id="Path_34202" data-name="Path 34202" d="M416.242,462.739a2.2,2.2,0,1,1,2.181-2.2A2.189,2.189,0,0,1,416.242,462.739Z" transform="translate(-398.327 -418.567)" fill="#fff"/>
          <path id="Path_34203" data-name="Path 34203" d="M457.613,462.484a2.476,2.476,0,1,1,2.459-2.476A2.468,2.468,0,0,1,457.613,462.484Z" transform="translate(-454.004 -418.03)" fill="#fff"/>
          <path id="Path_34204" data-name="Path 34204" d="M126.867,506.536a.12.12,0,1,1,.119-.12A.119.119,0,0,1,126.867,506.536Z" transform="translate(-8.817 -450.917)" fill="#fff"/>
          <path id="Path_34205" data-name="Path 34205" d="M168.085,506.209a.479.479,0,1,1,.476-.479A.477.477,0,0,1,168.085,506.209Z" transform="translate(-64.34 -450.233)" fill="#fff"/>
          <path id="Path_34206" data-name="Path 34206" d="M209.3,505.882a.839.839,0,1,1,.833-.839A.836.836,0,0,1,209.3,505.882Z" transform="translate(-119.864 -449.549)" fill="#fff"/>
          <path id="Path_34207" data-name="Path 34207" d="M250.523,505.555a1.2,1.2,0,1,1,1.19-1.2A1.194,1.194,0,0,1,250.523,505.555Z" transform="translate(-175.388 -448.865)" fill="#fff"/>
          <path id="Path_34208" data-name="Path 34208" d="M291.742,505.229a1.557,1.557,0,1,1,1.547-1.558A1.553,1.553,0,0,1,291.742,505.229Z" transform="translate(-230.912 -448.182)" fill="#fff"/>
          <path id="Path_34209" data-name="Path 34209" d="M333.037,504.938a1.877,1.877,0,1,1,1.865-1.877A1.871,1.871,0,0,1,333.037,504.938Z" transform="translate(-286.513 -447.574)" fill="#fff"/>
          <path id="Path_34210" data-name="Path 34210" d="M374.333,504.646a2.2,2.2,0,1,1,2.182-2.2A2.189,2.189,0,0,1,374.333,504.646Z" transform="translate(-342.114 -446.965)" fill="#fff"/>
          <path id="Path_34211" data-name="Path 34211" d="M415.629,504.356a2.516,2.516,0,1,1,2.5-2.516A2.508,2.508,0,0,1,415.629,504.356Z" transform="translate(-397.714 -446.357)" fill="#fff"/>
          <path id="Path_34212" data-name="Path 34212" d="M457,504.1a2.8,2.8,0,1,1,2.777-2.8A2.786,2.786,0,0,1,457,504.1Z" transform="translate(-453.391 -445.826)" fill="#fff"/>
          <path id="Path_34213" data-name="Path 34213" d="M126.559,548.3a.28.28,0,1,1,.278-.279A.278.278,0,0,1,126.559,548.3Z" transform="translate(-8.509 -478.978)" fill="#fff"/>
          <path id="Path_34214" data-name="Path 34214" d="M167.78,547.972a.639.639,0,1,1,.635-.639A.637.637,0,0,1,167.78,547.972Z" transform="translate(-64.035 -478.301)" fill="#fff"/>
          <path id="Path_34215" data-name="Path 34215" d="M208.922,547.608a1.038,1.038,0,1,1,1.031-1.038A1.035,1.035,0,0,1,208.922,547.608Z" transform="translate(-119.481 -477.548)" fill="#fff"/>
          <path id="Path_34216" data-name="Path 34216" d="M250.141,547.281a1.4,1.4,0,1,1,1.388-1.4A1.393,1.393,0,0,1,250.141,547.281Z" transform="translate(-175.005 -476.87)" fill="#fff"/>
          <path id="Path_34217" data-name="Path 34217" d="M291.36,546.954A1.757,1.757,0,1,1,293.1,545.2,1.751,1.751,0,0,1,291.36,546.954Z" transform="translate(-230.53 -476.192)" fill="#fff"/>
          <path id="Path_34218" data-name="Path 34218" d="M332.578,546.628a2.116,2.116,0,1,1,2.1-2.116A2.109,2.109,0,0,1,332.578,546.628Z" transform="translate(-286.053 -475.515)" fill="#fff"/>
          <path id="Path_34219" data-name="Path 34219" d="M373.8,546.3a2.476,2.476,0,1,1,2.459-2.476A2.467,2.467,0,0,1,373.8,546.3Z" transform="translate(-341.579 -474.837)" fill="#fff"/>
          <path id="Path_34220" data-name="Path 34220" d="M415.092,546.009a2.8,2.8,0,1,1,2.777-2.8A2.786,2.786,0,0,1,415.092,546.009Z" transform="translate(-397.178 -474.235)" fill="#fff"/>
          <path id="Path_34221" data-name="Path 34221" d="M456.388,545.719a3.115,3.115,0,1,1,3.094-3.115A3.1,3.1,0,0,1,456.388,545.719Z" transform="translate(-452.779 -473.633)" fill="#fff"/>
          <path id="Path_34222" data-name="Path 34222" d="M126.255,590.061a.439.439,0,1,1,.436-.439A.438.438,0,0,1,126.255,590.061Z" transform="translate(-8.204 -508.099)" fill="#fff"/>
          <path id="Path_34223" data-name="Path 34223" d="M167.473,589.734a.8.8,0,1,1,.793-.8A.8.8,0,0,1,167.473,589.734Z" transform="translate(-63.728 -507.412)" fill="#fff"/>
          <path id="Path_34224" data-name="Path 34224" d="M208.616,589.371a1.2,1.2,0,1,1,1.19-1.2A1.194,1.194,0,0,1,208.616,589.371Z" transform="translate(-119.176 -506.65)" fill="#fff"/>
          <path id="Path_34225" data-name="Path 34225" d="M249.758,589.007a1.6,1.6,0,1,1,1.587-1.6A1.592,1.592,0,0,1,249.758,589.007Z" transform="translate(-174.623 -505.886)" fill="#fff"/>
          <path id="Path_34226" data-name="Path 34226" d="M290.977,588.68a1.957,1.957,0,1,1,1.944-1.957A1.951,1.951,0,0,1,290.977,588.68Z" transform="translate(-230.147 -505.2)" fill="#fff"/>
          <path id="Path_34227" data-name="Path 34227" d="M332.119,588.317a2.356,2.356,0,1,1,2.341-2.356A2.348,2.348,0,0,1,332.119,588.317Z" transform="translate(-285.595 -504.274)" fill="#fff"/>
          <path id="Path_34228" data-name="Path 34228" d="M373.338,587.99a2.715,2.715,0,1,1,2.7-2.715A2.706,2.706,0,0,1,373.338,587.99Z" transform="translate(-341.119 -503.59)" fill="#fff"/>
          <path id="Path_43003" data-name="Path 43003" d="M3.015,0A3.049,3.049,0,0,1,6.05,3.035,3,3,0,0,1,3.035,6.05,3.049,3.049,0,0,1,0,3.015,3,3,0,0,1,3.015,0Z" transform="translate(17.914 85.801) rotate(-135)" fill="#fff"/>
          <path id="Path_34229" data-name="Path 34229" d="M455.853,587.372a3.394,3.394,0,1,1,3.372-3.394A3.383,3.383,0,0,1,455.853,587.372Z" transform="translate(-452.243 -502.454)" fill="#fff"/>
          <path id="Path_34230" data-name="Path 34230" d="M126.024,631.86a.559.559,0,1,1,.555-.559A.557.557,0,0,1,126.024,631.86Z" transform="translate(-7.974 -535.377)" fill="#fff"/>
          <path id="Path_34231" data-name="Path 34231" d="M167.167,631.5a.958.958,0,1,1,.952-.959A.955.955,0,0,1,167.167,631.5Z" transform="translate(-63.422 -534.614)" fill="#fff"/>
          <path id="Path_34232" data-name="Path 34232" d="M208.31,631.133a1.358,1.358,0,1,1,1.348-1.358A1.353,1.353,0,0,1,208.31,631.133Z" transform="translate(-118.87 -533.852)" fill="#fff"/>
          <path id="Path_34233" data-name="Path 34233" d="M249.453,630.77a1.757,1.757,0,1,1,1.745-1.757A1.751,1.751,0,0,1,249.453,630.77Z" transform="translate(-174.317 -533.089)" fill="#fff"/>
          <path id="Path_34234" data-name="Path 34234" d="M290.594,630.406a2.156,2.156,0,1,1,2.142-2.157A2.15,2.15,0,0,1,290.594,630.406Z" transform="translate(-229.764 -532.325)" fill="#fff"/>
          <path id="Path_34235" data-name="Path 34235" d="M331.813,630.079a2.516,2.516,0,1,1,2.5-2.516A2.507,2.507,0,0,1,331.813,630.079Z" transform="translate(-285.288 -531.639)" fill="#fff"/>
          <path id="Path_34236" data-name="Path 34236" d="M372.955,629.715a2.915,2.915,0,1,1,2.9-2.915A2.905,2.905,0,0,1,372.955,629.715Z" transform="translate(-340.736 -530.876)" fill="#fff"/>
          <path id="Path_34237" data-name="Path 34237" d="M414.175,629.389a3.274,3.274,0,1,1,3.253-3.275A3.264,3.264,0,0,1,414.175,629.389Z" transform="translate(-396.26 -530.19)" fill="#fff"/>
          <path id="Path_34238" data-name="Path 34238" d="M455.393,629.062a3.634,3.634,0,1,1,3.61-3.634A3.622,3.622,0,0,1,455.393,629.062Z" transform="translate(-451.784 -529.504)" fill="#fff"/>
        </g>
        <g id="Group_1838" data-name="Group 1838" transform="translate(180.791)">
          <path id="Path_34175-2" data-name="Path 34175" d="M252.513,338.87a.16.16,0,1,0-.158-.16A.16.16,0,0,0,252.513,338.87Z" transform="translate(-209.043 -337.312)" fill="#fff"/>
          <path id="Path_34176-2" data-name="Path 34176" d="M293.885,338.615a.439.439,0,1,0-.436-.44A.438.438,0,0,0,293.885,338.615Z" transform="translate(-236.11 -336.778)" fill="#fff"/>
          <path id="Path_34177-2" data-name="Path 34177" d="M335.335,338.4a.679.679,0,1,0-.674-.679A.676.676,0,0,0,335.335,338.4Z" transform="translate(-263.254 -336.319)" fill="#fff"/>
          <path id="Path_34178-2" data-name="Path 34178" d="M376.706,338.142a.958.958,0,1,0-.952-.958A.955.955,0,0,0,376.706,338.142Z" transform="translate(-290.32 -335.786)" fill="#fff"/>
          <path id="Path_34179-2" data-name="Path 34179" d="M418.154,337.924a1.2,1.2,0,1,0-1.19-1.2A1.194,1.194,0,0,0,418.154,337.924Z" transform="translate(-317.464 -335.328)" fill="#fff"/>
          <path id="Path_34180-2" data-name="Path 34180" d="M459.68,337.742a1.4,1.4,0,1,0-1.389-1.4A1.393,1.393,0,0,0,459.68,337.742Z" transform="translate(-344.684 -334.947)" fill="#fff"/>
          <path id="Path_34181-2" data-name="Path 34181" d="M210.682,380.814a.12.12,0,1,0-.118-.12A.12.12,0,0,0,210.682,380.814Z" transform="translate(-181.517 -364.895)" fill="#fff"/>
          <path id="Path_34182-2" data-name="Path 34182" d="M251.977,380.523a.439.439,0,1,0-.436-.44A.438.438,0,0,0,251.977,380.523Z" transform="translate(-208.507 -364.285)" fill="#fff"/>
          <path id="Path_34183-2" data-name="Path 34183" d="M293.35,380.268a.719.719,0,1,0-.714-.719A.717.717,0,0,0,293.35,380.268Z" transform="translate(-235.574 -363.751)" fill="#fff"/>
          <path id="Path_34184-2" data-name="Path 34184" d="M334.722,380.014a1,1,0,1,0-.992-1A1,1,0,0,0,334.722,380.014Z" transform="translate(-262.641 -363.217)" fill="#fff"/>
          <path id="Path_34185-2" data-name="Path 34185" d="M376.094,379.76a1.278,1.278,0,1,0-1.27-1.278A1.274,1.274,0,0,0,376.094,379.76Z" transform="translate(-289.708 -362.683)" fill="#fff"/>
          <path id="Path_34186-2" data-name="Path 34186" d="M417.466,379.5a1.557,1.557,0,1,0-1.547-1.557A1.552,1.552,0,0,0,417.466,379.5Z" transform="translate(-316.775 -362.149)" fill="#fff"/>
          <path id="Path_34187-2" data-name="Path 34187" d="M458.991,379.323a1.757,1.757,0,1,0-1.746-1.757A1.751,1.751,0,0,0,458.991,379.323Z" transform="translate(-343.995 -361.768)" fill="#fff"/>
          <path id="Path_34188-2" data-name="Path 34188" d="M168.851,422.757a.08.08,0,1,0-.08-.08A.08.08,0,0,0,168.851,422.757Z" transform="translate(-153.99 -394.267)" fill="#fff"/>
          <path id="Path_34189-2" data-name="Path 34189" d="M210.223,422.5a.359.359,0,1,0-.357-.36A.358.358,0,0,0,210.223,422.5Z" transform="translate(-181.057 -393.727)" fill="#fff"/>
          <path id="Path_34190-2" data-name="Path 34190" d="M251.519,422.212a.679.679,0,1,0-.674-.679A.677.677,0,0,0,251.519,422.212Z" transform="translate(-208.049 -393.108)" fill="#fff"/>
          <path id="Path_34191-2" data-name="Path 34191" d="M292.814,421.922a1,1,0,1,0-.992-1A1,1,0,0,0,292.814,421.922Z" transform="translate(-235.038 -392.49)" fill="#fff"/>
          <path id="Path_34192-2" data-name="Path 34192" d="M334.109,421.63a1.318,1.318,0,1,0-1.309-1.318A1.313,1.313,0,0,0,334.109,421.63Z" transform="translate(-262.029 -391.871)" fill="#fff"/>
          <path id="Path_34193-2" data-name="Path 34193" d="M375.481,421.376a1.6,1.6,0,1,0-1.587-1.6A1.592,1.592,0,0,0,375.481,421.376Z" transform="translate(-289.095 -391.329)" fill="#fff"/>
          <path id="Path_34194-2" data-name="Path 34194" d="M416.853,421.122a1.877,1.877,0,1,0-1.864-1.877A1.871,1.871,0,0,0,416.853,421.122Z" transform="translate(-316.163 -390.788)" fill="#fff"/>
          <path id="Path_34195-2" data-name="Path 34195" d="M458.3,420.9a2.116,2.116,0,1,0-2.1-2.117A2.109,2.109,0,0,0,458.3,420.9Z" transform="translate(-343.307 -390.324)" fill="#fff"/>
          <path id="Path_34196-2" data-name="Path 34196" d="M168.545,464.52a.24.24,0,1,0-.238-.24A.239.239,0,0,0,168.545,464.52Z" transform="translate(-153.684 -422.324)" fill="#fff"/>
          <path id="Path_34197-2" data-name="Path 34197" d="M209.764,464.193a.6.6,0,1,0-.595-.6A.6.6,0,0,0,209.764,464.193Z" transform="translate(-180.598 -421.634)" fill="#fff"/>
          <path id="Path_34198-2" data-name="Path 34198" d="M250.983,463.865a.958.958,0,1,0-.952-.958A.955.955,0,0,0,250.983,463.865Z" transform="translate(-207.512 -420.944)" fill="#fff"/>
          <path id="Path_34199-2" data-name="Path 34199" d="M292.278,463.575a1.278,1.278,0,1,0-1.269-1.278A1.274,1.274,0,0,0,292.278,463.575Z" transform="translate(-234.503 -420.331)" fill="#fff"/>
          <path id="Path_34200-2" data-name="Path 34200" d="M333.574,463.284a1.6,1.6,0,1,0-1.587-1.6A1.592,1.592,0,0,0,333.574,463.284Z" transform="translate(-261.493 -419.717)" fill="#fff"/>
          <path id="Path_34201-2" data-name="Path 34201" d="M374.869,462.993a1.917,1.917,0,1,0-1.9-1.917A1.91,1.91,0,0,0,374.869,462.993Z" transform="translate(-288.483 -419.104)" fill="#fff"/>
          <path id="Path_34202-2" data-name="Path 34202" d="M416.241,462.739a2.2,2.2,0,1,0-2.181-2.2A2.189,2.189,0,0,0,416.241,462.739Z" transform="translate(-315.551 -418.567)" fill="#fff"/>
          <path id="Path_34203-2" data-name="Path 34203" d="M457.613,462.484a2.476,2.476,0,1,0-2.459-2.476A2.468,2.468,0,0,0,457.613,462.484Z" transform="translate(-342.618 -418.03)" fill="#fff"/>
          <path id="Path_34204-2" data-name="Path 34204" d="M126.867,506.536a.12.12,0,1,0-.119-.12A.119.119,0,0,0,126.867,506.536Z" transform="translate(-126.311 -450.917)" fill="#fff"/>
          <path id="Path_34205-2" data-name="Path 34205" d="M168.085,506.209a.479.479,0,1,0-.476-.479A.477.477,0,0,0,168.085,506.209Z" transform="translate(-153.225 -450.233)" fill="#fff"/>
          <path id="Path_34206-2" data-name="Path 34206" d="M209.3,505.882a.839.839,0,1,0-.833-.839A.836.836,0,0,0,209.3,505.882Z" transform="translate(-180.139 -449.549)" fill="#fff"/>
          <path id="Path_34207-2" data-name="Path 34207" d="M250.523,505.555a1.2,1.2,0,1,0-1.19-1.2A1.194,1.194,0,0,0,250.523,505.555Z" transform="translate(-207.053 -448.865)" fill="#fff"/>
          <path id="Path_34208-2" data-name="Path 34208" d="M291.742,505.229a1.557,1.557,0,1,0-1.547-1.558A1.553,1.553,0,0,0,291.742,505.229Z" transform="translate(-233.967 -448.182)" fill="#fff"/>
          <path id="Path_34209-2" data-name="Path 34209" d="M333.038,504.938a1.877,1.877,0,1,0-1.865-1.877A1.871,1.871,0,0,0,333.038,504.938Z" transform="translate(-260.957 -447.574)" fill="#fff"/>
          <path id="Path_34210-2" data-name="Path 34210" d="M374.334,504.646a2.2,2.2,0,1,0-2.182-2.2A2.189,2.189,0,0,0,374.334,504.646Z" transform="translate(-287.948 -446.965)" fill="#fff"/>
          <path id="Path_34211-2" data-name="Path 34211" d="M415.629,504.356a2.516,2.516,0,1,0-2.5-2.516A2.507,2.507,0,0,0,415.629,504.356Z" transform="translate(-314.938 -446.357)" fill="#fff"/>
          <path id="Path_34212-2" data-name="Path 34212" d="M457,504.1a2.8,2.8,0,1,0-2.777-2.8A2.786,2.786,0,0,0,457,504.1Z" transform="translate(-342.005 -445.826)" fill="#fff"/>
          <path id="Path_34213-2" data-name="Path 34213" d="M126.56,548.3a.28.28,0,1,0-.278-.279A.278.278,0,0,0,126.56,548.3Z" transform="translate(-126.004 -478.978)" fill="#fff"/>
          <path id="Path_34214-2" data-name="Path 34214" d="M167.78,547.972a.639.639,0,1,0-.635-.639A.637.637,0,0,0,167.78,547.972Z" transform="translate(-152.919 -478.301)" fill="#fff"/>
          <path id="Path_34215-2" data-name="Path 34215" d="M208.921,547.608a1.038,1.038,0,1,0-1.031-1.038A1.035,1.035,0,0,0,208.921,547.608Z" transform="translate(-179.756 -477.548)" fill="#fff"/>
          <path id="Path_34216-2" data-name="Path 34216" d="M250.14,547.281a1.4,1.4,0,1,0-1.388-1.4A1.393,1.393,0,0,0,250.14,547.281Z" transform="translate(-206.67 -476.87)" fill="#fff"/>
          <path id="Path_34217-2" data-name="Path 34217" d="M291.359,546.954a1.757,1.757,0,1,0-1.745-1.757A1.751,1.751,0,0,0,291.359,546.954Z" transform="translate(-233.584 -476.192)" fill="#fff"/>
          <path id="Path_34218-2" data-name="Path 34218" d="M332.579,546.628a2.116,2.116,0,1,0-2.1-2.116A2.109,2.109,0,0,0,332.579,546.628Z" transform="translate(-260.498 -475.515)" fill="#fff"/>
          <path id="Path_34219-2" data-name="Path 34219" d="M373.8,546.3a2.476,2.476,0,1,0-2.459-2.476A2.467,2.467,0,0,0,373.8,546.3Z" transform="translate(-287.413 -474.837)" fill="#fff"/>
          <path id="Path_34220-2" data-name="Path 34220" d="M415.093,546.009a2.8,2.8,0,1,0-2.777-2.8A2.786,2.786,0,0,0,415.093,546.009Z" transform="translate(-314.402 -474.235)" fill="#fff"/>
          <path id="Path_34221-2" data-name="Path 34221" d="M456.388,545.719a3.115,3.115,0,1,0-3.094-3.115A3.1,3.1,0,0,0,456.388,545.719Z" transform="translate(-341.393 -473.633)" fill="#fff"/>
          <path id="Path_34222-2" data-name="Path 34222" d="M126.254,590.061a.439.439,0,1,0-.436-.439A.438.438,0,0,0,126.254,590.061Z" transform="translate(-125.699 -508.099)" fill="#fff"/>
          <path id="Path_34223-2" data-name="Path 34223" d="M167.473,589.734a.8.8,0,1,0-.793-.8A.8.8,0,0,0,167.473,589.734Z" transform="translate(-152.613 -507.412)" fill="#fff"/>
          <path id="Path_34224-2" data-name="Path 34224" d="M208.616,589.371a1.2,1.2,0,1,0-1.19-1.2A1.194,1.194,0,0,0,208.616,589.371Z" transform="translate(-179.45 -506.65)" fill="#fff"/>
          <path id="Path_34225-2" data-name="Path 34225" d="M249.758,589.007a1.6,1.6,0,1,0-1.587-1.6A1.592,1.592,0,0,0,249.758,589.007Z" transform="translate(-206.287 -505.886)" fill="#fff"/>
          <path id="Path_34226-2" data-name="Path 34226" d="M290.977,588.68a1.957,1.957,0,1,0-1.944-1.957A1.951,1.951,0,0,0,290.977,588.68Z" transform="translate(-233.201 -505.2)" fill="#fff"/>
          <path id="Path_34227-2" data-name="Path 34227" d="M332.12,588.317a2.356,2.356,0,1,0-2.341-2.356A2.348,2.348,0,0,0,332.12,588.317Z" transform="translate(-260.039 -504.274)" fill="#fff"/>
          <path id="Path_34228-2" data-name="Path 34228" d="M373.339,587.99a2.715,2.715,0,1,0-2.7-2.715A2.706,2.706,0,0,0,373.339,587.99Z" transform="translate(-286.953 -503.59)" fill="#fff"/>
          <path id="Path_43005" data-name="Path 43005" d="M3.035,0A3,3,0,0,1,6.05,3.015,3.049,3.049,0,0,1,3.015,6.05,3,3,0,0,1,0,3.035,3.049,3.049,0,0,1,3.035,0Z" transform="translate(96.413 81.523) rotate(-45)" fill="#fff"/>
          <path id="Path_34229-2" data-name="Path 34229" d="M455.853,587.372a3.394,3.394,0,1,0-3.372-3.394A3.383,3.383,0,0,0,455.853,587.372Z" transform="translate(-340.857 -502.454)" fill="#fff"/>
          <path id="Path_34230-2" data-name="Path 34230" d="M126.024,631.86a.559.559,0,1,0-.555-.559A.557.557,0,0,0,126.024,631.86Z" transform="translate(-125.469 -535.377)" fill="#fff"/>
          <path id="Path_34231-2" data-name="Path 34231" d="M167.167,631.5a.958.958,0,1,0-.952-.959A.955.955,0,0,0,167.167,631.5Z" transform="translate(-152.307 -534.614)" fill="#fff"/>
          <path id="Path_34232-2" data-name="Path 34232" d="M208.309,631.133a1.358,1.358,0,1,0-1.348-1.358A1.353,1.353,0,0,0,208.309,631.133Z" transform="translate(-179.144 -533.852)" fill="#fff"/>
          <path id="Path_34233-2" data-name="Path 34233" d="M249.452,630.77a1.757,1.757,0,1,0-1.745-1.757A1.751,1.751,0,0,0,249.452,630.77Z" transform="translate(-205.982 -533.089)" fill="#fff"/>
          <path id="Path_34234-2" data-name="Path 34234" d="M290.594,630.406a2.156,2.156,0,1,0-2.142-2.157A2.15,2.15,0,0,0,290.594,630.406Z" transform="translate(-232.819 -532.325)" fill="#fff"/>
          <path id="Path_34235-2" data-name="Path 34235" d="M331.813,630.079a2.516,2.516,0,1,0-2.5-2.516A2.507,2.507,0,0,0,331.813,630.079Z" transform="translate(-259.733 -531.639)" fill="#fff"/>
          <path id="Path_34236-2" data-name="Path 34236" d="M372.956,629.715a2.915,2.915,0,1,0-2.9-2.915A2.905,2.905,0,0,0,372.956,629.715Z" transform="translate(-286.57 -530.876)" fill="#fff"/>
          <path id="Path_34237-2" data-name="Path 34237" d="M414.175,629.389a3.274,3.274,0,1,0-3.253-3.275A3.264,3.264,0,0,0,414.175,629.389Z" transform="translate(-313.484 -530.19)" fill="#fff"/>
          <path id="Path_34238-2" data-name="Path 34238" d="M455.394,629.062a3.634,3.634,0,1,0-3.61-3.634A3.622,3.622,0,0,0,455.394,629.062Z" transform="translate(-340.398 -529.504)" fill="#fff"/>
        </g>
      </g>
    </g>
  </g>
</svg>
