<svg xmlns="http://www.w3.org/2000/svg" width="71.351" height="68.934" viewBox="0 0 71.351 68.934">
  <g id="Ready-to-Serve" transform="translate(-3.297 -2.146)">
    <g id="Group_6215" data-name="Group 6215" transform="translate(3.297 2.146)">
      <path id="Path_67505" data-name="Path 67505" d="M15.22,12.482c-.071.393-.046.646.475.446a10.105,10.105,0,0,1,1.156-.3c-.5.5-1.212.41-1.9.692C15.019,12.977,14.9,12.678,15.22,12.482Z" transform="translate(3.017 3.453)" fill="#fff"/>
      <path id="Path_67506" data-name="Path 67506" d="M37.2,18.846a2.048,2.048,0,0,1,1.014,1.5A5.539,5.539,0,0,1,37.2,18.846Z" transform="translate(15.069 6.9)" fill="#fff"/>
      <path id="Path_67507" data-name="Path 67507" d="M38.877,31.22a1.308,1.308,0,0,1-.473,1.03A1.567,1.567,0,0,1,38.877,31.22Z" transform="translate(15.72 13.602)" fill="#fff"/>
      <path id="Path_67508" data-name="Path 67508" d="M56.806,30.647a21.085,21.085,0,0,0-8.472-11.815,29.062,29.062,0,0,0-14.651-5.387c-8.325-.769-15.918,1.1-22.51,6.379a19.986,19.986,0,0,0-7.58,12.381A18.762,18.762,0,0,0,8.1,48.013a24.575,24.575,0,0,0,5.966,5.1c.29.18.654.3.535.8-.211.914-.342,1.847-.54,2.764a30.127,30.127,0,0,1-2.989,8.37,16.039,16.039,0,0,0,4.443-.845,29.174,29.174,0,0,0,9.457-5.348,5.049,5.049,0,0,1,4.073-1.306,27.738,27.738,0,0,0,9.848-1.062A26.133,26.133,0,0,0,53.47,47.014,18.34,18.34,0,0,0,56.806,30.647Zm-41.944,8.51a3.734,3.734,0,1,1,.06-7.462,3.9,3.9,0,0,1,3.885,3.731A3.846,3.846,0,0,1,14.861,39.157Zm15.526,0a3.734,3.734,0,1,1,0-7.462,3.86,3.86,0,0,1,3.9,3.783A3.817,3.817,0,0,1,30.388,39.157Zm15.452,0a3.735,3.735,0,1,1,3.933-3.637A3.823,3.823,0,0,1,45.84,39.157Z" transform="translate(-3.297 3.885)" fill="#fff"/>
      <path id="Path_67509" data-name="Path 67509" d="M67.259,18.4a21.789,21.789,0,0,0-9.05-11.307A30.406,30.406,0,0,0,47.724,2.786a51.523,51.523,0,0,0-5.655-.626,40.8,40.8,0,0,0-7.479.621A40.866,40.866,0,0,0,30.31,4.013c-6.971,2.619-12.35,6.953-15.147,14.068-.241.452-.046.648.392.527a4.271,4.271,0,0,0,1.24-.384,28.923,28.923,0,0,1,5.274-1.016,32.036,32.036,0,0,1,17.874,3.068A3,3,0,0,0,41.2,20.6a3.9,3.9,0,0,1,3.635,2.44,2,2,0,0,0,.483.759A27.244,27.244,0,0,1,49.2,27.892a5.785,5.785,0,0,1,1.014,1.5c.167.316.33.634.5.948a19.077,19.077,0,0,1,2.356,9,20.181,20.181,0,0,1-1.543,7.627c-.159.344-.325.683-.473,1.03a18.13,18.13,0,0,1-.928,1.559c-.33.45-.153.648.242.88a28.886,28.886,0,0,0,5.826,2.724,13.919,13.919,0,0,0,4.275.766,34.85,34.85,0,0,1-3.446-10.775,1.012,1.012,0,0,1,.6-1.235,23.039,23.039,0,0,0,7.141-6.706A18.355,18.355,0,0,0,67.259,18.4ZM56.632,28.058a3.846,3.846,0,0,1-3.879-3.714A3.9,3.9,0,0,1,56.7,20.6a3.734,3.734,0,1,1-.072,7.462Z" transform="translate(3.075 -2.146)" fill="#fff"/>
    </g>
  </g>
</svg>
