<?xml version="1.0" encoding="utf-8"?>
<!-- Generator: Adobe Illustrator 24.0.0, SVG Export Plug-In . SVG Version: 6.00 Build 0)  -->
<svg version="1.1" id="Layer_1" xmlns="http://www.w3.org/2000/svg" xmlns:xlink="http://www.w3.org/1999/xlink" x="0px" y="0px"
	 viewBox="0 0 50 50" style="enable-background:new 0 0 50 50;" xml:space="preserve">
<style type="text/css">
	.st0{fill:#FFFFFF;}
</style>
<g>
	<path class="st0" d="M41.9,32.2c-0.5-10.1-6.8-13.7-8.3-14c-1.5-0.4-2.5,1.4-2.5,1.4s-2.1-2.1-3.8-1.8c-1.7,0.2-1.8,2.6-1.8,2.6
		s-0.9-1.5-2.9-1.2s-2,3.2-2,3.2S19,19.8,18.3,15c-0.7-4.7-3.4-7.3-5.2-6.5s-0.4,5.2-0.1,7.3s4.2,14.4,4.2,14.4s3,6.1-4.7,4.5
		c-6.7-1.3-7.6,1.7-7.4,3.4s3.6,1.1,6.7,1.5s3.7,1.1,6.6,3.1s4.5,2.7,6.6,3.4c2,0.7,3.2,2.8,3.2,2.8l13.2-5.3
		C41.3,43.7,42.4,42.3,41.9,32.2z"/>
	<path class="st0" d="M12,17.8l-0.7-3.6c-1.5-0.9-2.5-2.5-2.5-4.4c0-2.8,2.2-5,5-5s5,2.2,5,5c0,0.6-0.1,1.1-0.3,1.6l1.7,3.4
		c1.1-1.4,1.7-3.1,1.7-5c0-4.5-3.7-8.2-8.2-8.2S5.5,5.3,5.5,9.8C5.6,13.8,8.4,17,12,17.8z"/>
</g>
</svg>
