<svg id="mobile" xmlns="http://www.w3.org/2000/svg" width="16.667" height="25" viewBox="0 0 16.667 25">
  <path id="mobile-2" data-name="mobile" d="M20.667,4.167A4.179,4.179,0,0,0,16.5,0H8.167A4.179,4.179,0,0,0,4,4.167V20.833A4.179,4.179,0,0,0,8.167,25H16.5a4.179,4.179,0,0,0,4.167-4.167Zm-7.292,18.75H11.292a1.042,1.042,0,1,1,0-2.083h2.083a1.042,1.042,0,1,1,0,2.083Zm5.208-5.208a.984.984,0,0,1-1.042,1.042H7.125a.984.984,0,0,1-1.042-1.042V5.208A.984.984,0,0,1,7.125,4.167H17.542a.984.984,0,0,1,1.042,1.042Z" transform="translate(-4)" fill="#fff"/>
</svg>
