<svg id="submit-btn" xmlns="http://www.w3.org/2000/svg" xmlns:xlink="http://www.w3.org/1999/xlink" viewBox="0 0 133.82 102.91"><defs><style>.cls-1{fill:none;}.cls-2{clip-path:url(#clip-path);}.cls-3{fill:url(#linear-gradient);}.cls-4{fill:url(#linear-gradient-2);}.cls-5{fill:url(#linear-gradient-3);}</style><clipPath id="clip-path" transform="translate(4.78 25.84)"><path class="cls-1" d="M25,0H92a25,25,0,0,1,25,25h0A25,25,0,0,1,92,50H25A25,25,0,0,1,0,25H0A25,25,0,0,1,25,0Z"/></clipPath><linearGradient id="linear-gradient" x1="-337.59" y1="320.52" x2="-337.59" y2="319.52" gradientTransform="matrix(117, 0, 0, -50, 39556, 16026)" gradientUnits="userSpaceOnUse"><stop offset="0" stop-color="#4a92f8"/><stop offset="1" stop-color="#bdd3fe"/></linearGradient><linearGradient id="linear-gradient-2" x1="-336.55" y1="321.45" x2="-336.6" y2="320.18" gradientTransform="matrix(0, 101.61, 40.01, 0, -12801.28, 34252.27)" xlink:href="#linear-gradient"/><linearGradient id="linear-gradient-3" x1="-336.59" y1="321.54" x2="-336.51" y2="320.26" gradientTransform="matrix(0, 101.61, 40.01, 0, -12766.17, 34196.12)" xlink:href="#linear-gradient"/></defs><title>submit-btn</title><g class="cls-2"><g id="Mask_Group_1" data-name="Mask Group 1"><path id="Rectangle_4" data-name="Rectangle 4" class="cls-3" d="M25,0H92a25,25,0,0,1,25,25h0A25,25,0,0,1,92,50H25A25,25,0,0,1,0,25H0A25,25,0,0,1,25,0Z" transform="translate(4.78 25.84)"/><ellipse id="Ellipse_1" data-name="Ellipse 1" class="cls-4" cx="44.57" cy="53.69" rx="20" ry="50.81" transform="translate(-14.05 108.67) rotate(-74.99)"/><ellipse id="Ellipse_2" data-name="Ellipse 2" class="cls-5" cx="79.68" cy="-2.46" rx="20" ry="50.81" transform="translate(66.21 100.98) rotate(-74.99)"/></g></g></svg>