<svg xmlns="http://www.w3.org/2000/svg" width="69.954" height="88.556" viewBox="0 0 69.954 88.556">
  <path id="user-blue" d="M54.108,66.991a86.842,86.842,0,0,1-.192-8.918c1.559-.811,4.352-5.984,4.824-10.354,1.226-.1,3.159-1.286,3.725-5.969a4.356,4.356,0,0,0-1.647-4.374c1.995-5.95,6.138-24.357-7.663-26.26-1.42-2.474-5.057-3.726-9.784-3.726-18.909.345-21.19,14.162-17.045,29.986a4.364,4.364,0,0,0-1.647,4.374c.568,4.683,2.5,5.87,3.725,5.969.47,4.368,3.374,9.543,4.938,10.354a86.868,86.868,0,0,1-.194,8.918c-2.693,7.181-16.524,7.742-24.5,14.667,8.342,8.331,21.861,14.29,36.127,14.29S75.809,84.776,78.6,81.728C70.67,74.74,56.807,74.2,54.108,66.991Z" transform="translate(-8.646 -7.391)" fill="#035189"/>
</svg>
