<svg id="Layer_1" data-name="Layer 1" xmlns="http://www.w3.org/2000/svg" viewBox="0 0 363.42 436.1"><defs><style>.cls-1{fill:#fff;fill-rule:evenodd;}</style></defs><title>lock</title><path class="cls-1" d="M131.89,150.06v63.6H104.63A36.33,36.33,0,0,0,68.29,250V431.71a36.33,36.33,0,0,0,36.34,36.34H395.37a36.33,36.33,0,0,0,36.34-36.34V250a36.33,36.33,0,0,0-36.34-36.34H368.11v-63.6a118.11,118.11,0,0,0-236.22,0Zm45.43,63.6v-63.6a72.68,72.68,0,0,1,145.36,0v63.6Zm36.34,99.94a36.34,36.34,0,1,1,56.06,30.53s3.55,21.44,7.54,46.7a13.61,13.61,0,0,1-13.63,13.62H236.37a13.61,13.61,0,0,1-13.63-13.62l7.55-46.7A36.28,36.28,0,0,1,213.66,313.6Z" transform="translate(-68.29 -31.95)"/></svg>