<svg xmlns="http://www.w3.org/2000/svg" width="73.021" height="64.305" viewBox="0 0 73.021 64.305">
  <path id="domain" d="M18.038,57.724A31.484,31.484,0,0,1,6.466,42.992a.951.951,0,0,1,.246-1.1h0l.01-.008A.952.952,0,0,1,7,41.722a.941.941,0,0,1,.373-.062H64.525a.948.948,0,0,1,.964.756v0a.945.945,0,0,1-.043.528A31.546,31.546,0,0,1,18.038,57.724ZM33.543,61.3A41.239,41.239,0,0,1,23.492,43.561H8.748A29.882,29.882,0,0,0,33.543,61.3Zm4.812,0A29.886,29.886,0,0,0,63.148,43.561H48.4A41.226,41.226,0,0,1,38.355,61.3Zm-2.406-.275A39.331,39.331,0,0,0,46.434,43.561H25.462A39.346,39.346,0,0,0,35.949,61.029ZM65.725,36.46,62.2,29.393,58.672,36.46a.947.947,0,0,1-1.7,0L52.6,27.695a.949.949,0,1,1,1.7-.85l3.526,7.067,3.528-7.067a.948.948,0,0,1,1.7,0l3.526,7.067L70.1,26.844a.949.949,0,1,1,1.7.85L67.422,36.46a.948.948,0,0,1-1.7,0Zm-26.25,0-3.528-7.067L32.421,36.46a.948.948,0,0,1-1.7,0l-4.374-8.766a.949.949,0,1,1,1.7-.85l3.526,7.067L35.1,26.844a.947.947,0,0,1,1.7,0l3.528,7.067,3.526-7.067a.949.949,0,1,1,1.7.85L41.172,36.46a.948.948,0,0,1-1.7,0Zm-26.249,0L9.7,29.393,6.173,36.46a.948.948,0,0,1-1.7,0L.1,27.695a.948.948,0,1,1,1.7-.85l3.528,7.067L8.85,26.844a.948.948,0,0,1,1.7,0l3.526,7.067L17.6,26.844a.949.949,0,1,1,1.7.85L14.922,36.46a.947.947,0,0,1-1.7,0ZM64.507,21.644H7.387a.952.952,0,0,1-.873-.473l0,0,0-.008a.953.953,0,0,1-.041-.846,31.557,31.557,0,0,1,58.981.043.953.953,0,0,1-.04.767v0l-.007.014,0,.007,0,.008a.951.951,0,0,1-.83.492Zm-1.359-1.9A29.891,29.891,0,0,0,38.353,2,41.228,41.228,0,0,1,48.4,19.743Zm-16.714,0A39.32,39.32,0,0,0,35.947,2.275,39.207,39.207,0,0,0,25.471,19.743Zm-22.932,0A41.107,41.107,0,0,1,33.541,2,29.889,29.889,0,0,0,8.748,19.743Z" transform="translate(0.563 0.5)" fill="#fff" stroke="#fff" stroke-linecap="round" stroke-width="1"/>
</svg>
