<svg xmlns="http://www.w3.org/2000/svg" width="72" height="53.879" viewBox="0 0 72 53.879">
  <g id="ssl-certificate" transform="translate(-196.144 -34.061)">
    <path id="Path_67518" data-name="Path 67518" d="M19.735,29.879h6.939a1.734,1.734,0,0,0,1.735-1.735v-5.2A1.734,1.734,0,0,0,26.674,21.2V19.47a3.47,3.47,0,0,0-6.939,0V21.2A1.734,1.734,0,0,0,18,22.939v5.2A1.734,1.734,0,0,0,19.735,29.879ZM21.123,19.47a2.082,2.082,0,1,1,4.164,0V21.2H21.123V19.47Z" transform="translate(225.644 42.561)" fill="#fff"/>
    <path id="Path_67519" data-name="Path 67519" d="M5,3A2,2,0,0,0,3,5V40a2,2,0,0,0,2,2H67a2,2,0,0,0,2-2V5a2,2,0,0,0-2-2H5M5,0H67a5,5,0,0,1,5,5V40a5,5,0,0,1-5,5H5a5,5,0,0,1-5-5V5A5,5,0,0,1,5,0Z" transform="translate(196.144 34.061)" fill="#fff"/>
    <path id="_4301320_authorization_award_badge_certificate_diploma_icon" data-name="4301320_authorization_award_badge_certificate_diploma_icon" d="M25.047,19.393h0l-.074-.276a10.807,10.807,0,1,0-13.888-.092l-.292,1.09h0L8.939,27.025l-.564,2.108,2.524-1.07.012-.04,1.687-.741,1.108,1.5L15.345,31l.564-2.109,1.955-7.3c.07,0,.139.011.211.011.031,0,.061,0,.092,0L20.12,28.89,20.685,31l1.641-2.222,1.108-1.5,1.687.741.012.04,2.524,1.07-.564-2.108ZM14.265,26.68l-1.1-1.484-1.7.735,1.5-5.608A10.709,10.709,0,0,0,15.7,21.334ZM10.153,10.8a7.922,7.922,0,1,1,7.922,7.922A7.923,7.923,0,0,1,10.153,10.8ZM22.866,25.2l-1.1,1.484L20.34,21.365a10.709,10.709,0,0,0,2.733-.989l1.49,5.556Z" transform="translate(196.796 56.939)" fill="#fff"/>
    <text id="SSL" transform="translate(233.288 55)" fill="#fff" font-size="21" font-family="Roboto-Bold, Roboto" font-weight="700"><tspan x="-18.595" y="0">SSL</tspan></text>
  </g>
</svg>
