<svg id="Layer_1" data-name="Layer 1" xmlns="http://www.w3.org/2000/svg" viewBox="0 0 384 224"><defs><style>.cls-1{fill:#fff;}</style></defs><title>eye</title><path class="cls-1" d="M64.9,256.2C110.2,204,172.8,144,256,144c33.6,0,64.4,9.5,96.9,29.8C380.3,191,408.4,215.2,447,255l1,1-6.7,6.9C386.2,319.3,338.6,368,256,368c-36.5,0-71.9-11.9-108.2-36.4-30.9-20.9-57.2-47.4-78.3-68.8L64,257.3ZM256,336a80,80,0,1,0-80-80A80.11,80.11,0,0,0,256,336Z" transform="translate(-64 -144)"/><path class="cls-1" d="M261.6,226.8a34.53,34.53,0,0,0-5.5-18.8,48.15,48.15,0,1,1-48,48.2h0a34.53,34.53,0,0,0,18.8,5.5A35,35,0,0,0,261.6,226.8Z" transform="translate(-64 -144)"/></svg>