<svg id="Layer_1" data-name="Layer 1" xmlns="http://www.w3.org/2000/svg" viewBox="0 0 47.44 47.44"><defs><style>.cls-1{fill:#fefefe;}.cls-2{fill:#efefef;}.cls-3{fill:#e7e7e7;}.cls-4{fill:#fff;}</style></defs><title>price-tag</title><path class="cls-1" d="M174.79,49c-4.39,0-8.78,0-13.17,0-.51,0-.62-.1-.61-.61,0-4.27,0-8.54,0-12.81a.23.23,0,0,1,.24,0c3.56,4.15,7.7,7.71,11.6,11.52.63.62,1.35,1.11,2,1.68A.28.28,0,0,1,174.79,49Z" transform="translate(-161.01 -1.56)"/><path class="cls-2" d="M207.29,1.61c.94-.21,1.31.16,1.1,1.1a.24.24,0,0,1-.23.06,2.9,2.9,0,0,1-1-.94A.32.32,0,0,1,207.29,1.61Z" transform="translate(-161.01 -1.56)"/><path class="cls-3" d="M207.29,1.61v.21a1.16,1.16,0,0,1-1.46,0V1.61Z" transform="translate(-161.01 -1.56)"/><path class="cls-3" d="M161.2,35.58H161V34.11h.19A1.15,1.15,0,0,1,161.2,35.58Z" transform="translate(-161.01 -1.56)"/><path class="cls-3" d="M174.79,49v-.19a1.16,1.16,0,0,1,1.47,0V49Z" transform="translate(-161.01 -1.56)"/><path class="cls-3" d="M208.21,2.71h.18v1.1h-.17A.77.77,0,0,1,208.21,2.71Z" transform="translate(-161.01 -1.56)"/><path class="cls-4" d="M208.21,2.71a2.16,2.16,0,0,0-.93-.89l-1.46,0a13.57,13.57,0,0,0-6,3.71c1,1.08,1.81.46,2.67-.27a7.78,7.78,0,0,1,4.21-2,3.14,3.14,0,0,1-.13.4,10.73,10.73,0,0,1-4.78,5c-.39.23-.51,0-.7-.25a3.16,3.16,0,0,0-3-1.38c-3.23.17-6.47.31-9.7.45a5.21,5.21,0,0,0-3.83,1.62q-10.92,11.57-21.93,23.05a6.07,6.07,0,0,0-1.44,2v1.47a4.83,4.83,0,0,0,1.23,1.77q5.31,5.1,10.59,10.22a5.5,5.5,0,0,0,1.77,1.22h1.47a5.14,5.14,0,0,0,1.83-1.31q11.25-11.83,22.54-23.66a3.2,3.2,0,0,0,.94-2.21c0-3.46,0-6.92,0-10.37a1.08,1.08,0,0,1,.68-1.11,12.06,12.06,0,0,0,5.95-6.31C208.21,3.45,208.21,3.08,208.21,2.71Zm-32.54,37-1,1-5.53-5.27,2.15-2.25a3.24,3.24,0,0,1,2-1.11,2.17,2.17,0,0,1,1.83.64,2.09,2.09,0,0,1,.73,1.77,3.53,3.53,0,0,1-1.06,2l-1.16,1.21Zm7.25-7.61-3.25-.85-1.09,1.14,2.13,2-1,1-5.53-5.27,2-2.07a3.5,3.5,0,0,1,1.92-1.17,2.08,2.08,0,0,1,1.78.64,2,2,0,0,1,.65,1.17,2.46,2.46,0,0,1-.18,1.34l3.57.87,0,.05Zm1.8-1.89-5.53-5.27,1-1,5.53,5.27ZM189,25.79a3.37,3.37,0,0,1-1.49.94,2.92,2.92,0,0,1-1.68,0,4.15,4.15,0,0,1-1.63-1l-.52-.49a4.34,4.34,0,0,1-1.1-1.61,3.1,3.1,0,0,1-.11-1.73,3.47,3.47,0,0,1,.9-1.58,3.22,3.22,0,0,1,2-1.09,2.77,2.77,0,0,1,2.06.64l-1,1a1.85,1.85,0,0,0-1.21-.45,1.76,1.76,0,0,0-1.1.62,1.69,1.69,0,0,0-.52,1.46,3,3,0,0,0,1,1.65l.49.47a3.18,3.18,0,0,0,1.69,1,1.61,1.61,0,0,0,1.43-.55,2,2,0,0,0,.61-1.15,1.82,1.82,0,0,0-.48-1.19l1-1a2.68,2.68,0,0,1,.71,2A3.41,3.41,0,0,1,189,25.79Zm3-3.3-5.53-5.27,3.64-3.82.77.74-2.66,2.8,1.52,1.45L192.09,16l.76.73-2.31,2.42,1.7,1.62,2.7-2.83.76.73Zm6-10.35A1.42,1.42,0,0,1,196.69,11a1.49,1.49,0,0,1,.73-1.79,1.47,1.47,0,0,1,2,.4l-1.43.51c-.18.07-.44.06-.43.37s.2.4.43.52c.5.25,1,.06,1.57.18A1.32,1.32,0,0,1,198.08,12.14Z" transform="translate(-161.01 -1.56)"/><path class="cls-4" d="M173.15,33.34a1.56,1.56,0,0,0-1,.54l-1.2,1.26L172.84,37,174,35.75a1.81,1.81,0,0,0,.56-1.07,1.25,1.25,0,0,0-.43-1A1.31,1.31,0,0,0,173.15,33.34Z" transform="translate(-161.01 -1.56)"/><path class="cls-4" d="M178,28.2a1.7,1.7,0,0,0-1,.56l-1,1.08,1.86,1.77,1-1.05a1.74,1.74,0,0,0,.53-1,1.14,1.14,0,0,0-.4-.93A1.2,1.2,0,0,0,178,28.2Z" transform="translate(-161.01 -1.56)"/></svg>