<svg id="Layer_1" data-name="Layer 1" xmlns="http://www.w3.org/2000/svg" viewBox="0 0 45.08 38.64"><defs><style>.cls-1{fill:#179fdc;}.cls-2{fill:#73829e;}</style></defs><title>bandwidth-white</title><path class="cls-1" d="M25.51,4.54H41.1A6.5,6.5,0,0,1,48,11.38V36.33a6.5,6.5,0,0,1-6.9,6.84H9.82c-4.17,0-6.89-2.74-6.89-6.94q0-12.42,0-24.85A6.5,6.5,0,0,1,9.82,4.54ZM6.15,14.24v1q0,10.55,0,21.11A3.22,3.22,0,0,0,9.69,40H41.15c2.35,0,3.63-1.26,3.63-3.57V14.24Zm30.58-5A1.61,1.61,0,1,0,40,9.4a1.61,1.61,0,0,0-3.22-.11Zm8,.08a1.61,1.61,0,0,0-3.21,0A1.54,1.54,0,0,0,43.14,11,1.52,1.52,0,0,0,44.77,9.37Z" transform="translate(-2.92 -4.54)"/><path class="cls-2" d="M25.34,19A14.5,14.5,0,0,1,40,33.16c0,1.29-.57,2-1.63,2s-1.56-.66-1.6-1.89A11.26,11.26,0,0,0,14.5,30.91a11.47,11.47,0,0,0-.31,2.49,1.61,1.61,0,1,1-3.22,0c-.22-6.71,5.45-13.34,12.13-14.18A11.41,11.41,0,0,1,25.34,19Z" transform="translate(-2.92 -4.54)"/><path class="cls-2" d="M25.5,36.73a3.23,3.23,0,0,1-2.95-4.59,1.81,1.81,0,0,0,.09-1.42c-.54-1.64-1.06-3.3-1.59-4.95-.12-.39-.29-.82.2-1.05s.74.14,1,.49c.81,1.27,1.63,2.53,2.41,3.81a2.81,2.81,0,0,0,1.83,1.5A3.07,3.07,0,0,1,28.65,34,3.29,3.29,0,0,1,25.5,36.73Z" transform="translate(-2.92 -4.54)"/></svg>