<?xml version="1.0" encoding="utf-8"?>
<!-- Generator: Adobe Illustrator 24.0.0, SVG Export Plug-In . SVG Version: 6.00 Build 0)  -->
<svg version="1.1" id="Layer_1" xmlns="http://www.w3.org/2000/svg" xmlns:xlink="http://www.w3.org/1999/xlink" x="0px" y="0px"
	 viewBox="0 0 215 52" style="enable-background:new 0 0 215 52;" xml:space="preserve">
<style type="text/css">
	.st0{fill:url(#SVGID_1_);}
	.st1{fill:url(#SVGID_2_);}
	.st2{fill:url(#SVGID_3_);}
</style>
<g id="blue-btn" transform="translate(4316 4975)">
	
		<linearGradient id="SVGID_1_" gradientUnits="userSpaceOnUse" x1="-8524" y1="50.5926" x2="-8524" y2="2.8519" gradientTransform="matrix(1 0 0 -1 4316 -4921)">
		<stop  offset="0" style="stop-color:#4A92F8"/>
		<stop  offset="1" style="stop-color:#B4CDFF"/>
	</linearGradient>
	<path class="st0" d="M-4101-4949c0,7.2-2.9,13.7-7.6,18.4c-1.6,1.7-3.5,3.1-5.6,4.2l0,0c-3.8,2.2-8.1,3.4-12.8,3.4h-162
		c-4.8,0-9.3-1.3-13.2-3.6c-7.7-4.5-12.8-12.9-12.8-22.4c0-7.2,2.9-13.7,7.6-18.4c1.5-1.5,3.1-2.8,4.9-3.9c3.9-2.4,8.5-3.8,13.5-3.8
		h162c4.8,0,9.3,1.3,13.1,3.5C-4106.2-4966.9-4101-4958.6-4101-4949z"/>
	<g id="Mask_Group_89" transform="translate(-4316.3 -4975)">
		
			<radialGradient id="SVGID_2_" cx="108.1035" cy="53.4259" r="85.7941" gradientTransform="matrix(1 0 0 -0.1479 -0.2998 8.4734)" gradientUnits="userSpaceOnUse">
			<stop  offset="0" style="stop-color:#65A7FF"/>
			<stop  offset="0.416" style="stop-color:#86B9FF"/>
			<stop  offset="1" style="stop-color:#C9E0FF"/>
		</radialGradient>
		<path class="st1" d="M202.4,3.5c-18.2,5.6-53.7,9.5-94.6,9.5c-40.4,0-75.6-3.7-94-9.3c4-2.3,8.6-3.7,13.5-3.7h162
			C194.1,0,198.6,1.3,202.4,3.5z"/>
		
			<radialGradient id="SVGID_3_" cx="108.3998" cy="2.5741" r="64.5761" gradientTransform="matrix(1 0 0 -0.1855 -0.2998 51.9035)" gradientUnits="userSpaceOnUse">
			<stop  offset="0" style="stop-color:#C9E0FF"/>
			<stop  offset="0.226" style="stop-color:#BDD9FF"/>
			<stop  offset="1" style="stop-color:#6DABFF"/>
		</radialGradient>
		<path class="st2" d="M202.1,48.6c-3.8,2.2-8.2,3.4-12.8,3.4h-162c-4.8,0-9.3-1.3-13.2-3.6c18.4-5.6,53.5-9.4,93.7-9.4
			C148.5,39,183.8,42.9,202.1,48.6z"/>
	</g>
</g>
</svg>
