<?xml version="1.0" encoding="UTF-8"?>
<svg version="1.1" viewBox="0 0 1508 1508" width="1280" height="1280" xmlns="http://www.w3.org/2000/svg">
<path transform="translate(945,241)" d="m0 0h41l14 3 31 1 16 8 9 6 12 12 8 13 3 4v44l-14 24-7 7-10 7-17 5-10 2h-11l-3-1-14-1-10-3h-31l-11 3-9 1-9 3h-7l-19 9-5 3-7 1-7 7-11 7-12 10-6 4-3 6-6 5-1 2h-2l-2 5-7 9-8 13-4 6-6 15-6 16-1 18-3 6v150l3 6 1 9 7 9 4 7 27 10 96 1 9 4 15 10 9 10 7 9 6 22 1 6v10l-3 16-2 5-2 8-6 8-7 8-8 7-8 5-13 2h-148l-32 1-4 4-1 174-1 15-2 10-1 25-5 17-6 16-1 12-10 16-1 1-2 10-6 11-4 6-5 10-16 24-13 16-10 11-7 8-14 12-11 9-6 4-8 7-6 3-16 10-21 12-6 1-10 5-21 7-7 3-9 3-7 1h-10l-8 2-6 2h-7l-15 3-12 1h-35l-11-3-13-1-4-3-20-1-7-4-1-2-11-6-7-6-7-12-6-17-2-5v-21l6-15 3-11 7-11 7-6 14-7 16-4 13-2 30 6h30l11-3 11-2 12-4 4-2 13-1 7-6 17-8 9-8 10-7 14-12 7-8 10-13 6-9 5-6 4-11 4-8 3-13 6-18 4-19v-139l-5-12-8-14-5-6-16-8-7-3-105-1-12-5-8-7-8-8-11-19-3-6v-37l5-10 10-15 8-9 10-7 11-7 183-1 4-4 1-7 1-182 3-14 2-13 4-15 2-6 1-15 4-10 7-16 2-9 10-15 2-9 6-8 2-6 7-8 6-11 9-11 6-8 14-15 8-7 14-14 19-13 11-8 6-3 8-8 9-1 7-6 7-2 6-1 5-4 10-6 5-1h8l9-4 18-6 2-1 26-1z" fill="#FEFEFE"/>
</svg>
