<?xml version="1.0" encoding="UTF-8"?>
<svg version="1.1" viewBox="0 0 1440 1440" width="1280" height="1280" xmlns="http://www.w3.org/2000/svg">
<path transform="translate(681)" d="m0 0h7v5l5-2 1-3h50l1 3 4 1 1-4h7v5h9l-5-1-2-2v-2h12l1 5h2v2l16 1 12 1 3 1 29 3 48 10 32 8 21 6 29 10 33 13 23 10 38 19 24 14 14 8 22 14 17 12 11 8 17 13 11 9 13 11 11 10 11 9 9 9 8 7 4 4v2h2l7 8 11 12 7 8 9 10 11 14 13 16 12 17 16 23 12 19 16 28 12 23 8 16 13 29 14 36 9 27 11 40 9 40 4 23 3 25 4 40 2 4v5h-1v10l4 1 2 3v54l-2 3h-2l-1 6 1 7-3 4-6 55-2 9-3 21-6 28-6 24-7 24-5 17h-3l-2-4-3-1-7-8-441-441-6-3-6 5h-2l-2 4h-2l-2 4-7 6-1 2h-2l-2 4h-2l-2 4h-2l-2 4h-2l-2 4h-2l-2 4-687 687-5-4-9-11-12-13-9-11-12-14-12-16-13-18-10-15-12-19-9-15-15-26-9-17-13-28-10-24-13-35-7-21-12-44-9-44-4-25-4-38-1-14v-19l-4-2-3-1v-54l3-1v-2l3-2 2-30 5-44 3-17 6-30 9-36 12-40 7-20 12-29 11-25 9-19 10-19 13-23 7-11 10-16 8-12 11-16 16-21 10-12 7-9 9-10 11-12 9-10 7-8 18-18 11-9 7-7 8-7 6-5h2v-2l8-6 15-12 12-9 20-14 20-13 20-12 19-11 33-17 26-12 30-12 20-7 33-11 30-8 28-6 26-5 3-1 29-3 3-1 28-2 4-4 4-1-1 2h-2l1 2h6l1-1-4-1 4-2 2 2z" fill="#fff"/>
<path transform="translate(935,862)" d="m0 0 5 1 321 321 1 3-2 3h-2l-2 4-3 4h-2v2h-2l-2 4-12 13-2 3h-2l-2 4h-2l-2 4-8 7-9 9-11 9-7 7-8 7-13 10-12 10-11 8-18 13-11 7-14 9-13 8-20 12-35 18-25 12-25 10-29 11-34 11-39 10-33 7-23 4-51 6-16 2-3 5h-4v-3l-4-2 1 5h-53l-2-3-2 3h-8l-1-3-2-1v-2h-10l-62-7-49-10-48-12-41-14-28-11-17-7 2-5 13-12 335-335 5-6 8-7 39-39 5-6 7-6 5-6h2v-2h2v-2h2v-2h2v-2l7-6 5-6 8-7 15-15 5-6 8-7 7-7 5-6 7-6 5-6h2l2-4z" fill="#fff"/>
<path transform="translate(1439,756)" d="m0 0h1v5l-3-1z" fill="#fff"/>
<path transform="translate(675)" d="m0 0 3 1-3 1z" fill="#fff"/>
<path transform="translate(675,1438)" d="m0 0 2 2h-2z" fill="#fff"/>
<path transform="translate(681,1436)" d="m0 0 1 2-2-1z" fill="#fff"/>
<path transform="translate(695,1439)" d="m0 0" fill="#fff"/>
<path transform="translate(679,1439)" d="m0 0" fill="#fff"/>
<path transform="translate(759,1437)" d="m0 0" fill="#fff"/>
<path transform="translate(5,755)" d="m0 0" fill="#fff"/>
<path transform="translate(1439,753)" d="m0 0" fill="#fff"/>
<path transform="translate(5,675)" d="m0 0" fill="#fff"/>
<path transform="translate(679,2)" d="m0 0" fill="#fff"/>
<path transform="translate(671)" d="m0 0" fill="#fff"/>
</svg>
