<svg id="Layer_1" data-name="Layer 1" xmlns="http://www.w3.org/2000/svg" xmlns:xlink="http://www.w3.org/1999/xlink" viewBox="0 0 268 55.74"><defs><style>.cls-1{fill:url(#linear-gradient);}.cls-2{fill:url(#linear-gradient-2);}.cls-3{fill:url(#linear-gradient-3);}</style><linearGradient id="linear-gradient" x1="134" y1="59.87" x2="134" y2="4.13" gradientUnits="userSpaceOnUse"><stop offset="0" stop-color="#ffab6e"/><stop offset="1" stop-color="#ffd8bc"/></linearGradient><linearGradient id="linear-gradient-2" x1="133.82" y1="18.06" x2="133.82" y2="4.13" xlink:href="#linear-gradient"/><linearGradient id="linear-gradient-3" x1="133.81" y1="59.87" x2="133.81" y2="45.94" xlink:href="#linear-gradient"/></defs><title>orange-big-hover-btn</title><g id="orange-big-hover-btn"><path class="cls-1" d="M268,32a27.73,27.73,0,0,1-8.17,19.7,27.18,27.18,0,0,1-6.76,5,27.66,27.66,0,0,1-12.94,3.19H27.87A27.88,27.88,0,0,1,14.21,7.71,27.71,27.71,0,0,1,27.87,4.13H240.13A27.85,27.85,0,0,1,268,32Z" transform="translate(0 -4.13)"/><g id="Mask_Group_89" data-name="Mask Group 89"><path class="cls-2" d="M253.43,7.5c-22.23,6.28-67.6,10.56-120,10.56-51.8,0-96.77-4.2-119.25-10.35A27.71,27.71,0,0,1,27.87,4.13H240.13A27.73,27.73,0,0,1,253.43,7.5Z" transform="translate(0 -4.13)"/><path class="cls-3" d="M253.07,56.68a27.66,27.66,0,0,1-12.94,3.19H27.87a27.71,27.71,0,0,1-13.32-3.39c22.58-6.27,67.36-10.54,118.91-10.54C185.54,45.94,230.71,50.3,253.07,56.68Z" transform="translate(0 -4.13)"/></g></g></svg>