<svg id="Layer_1" data-name="Layer 1" xmlns="http://www.w3.org/2000/svg" xmlns:xlink="http://www.w3.org/1999/xlink" viewBox="0 0 178 93"><defs><style>.cls-1{fill:none;}.cls-2{fill:url(#linear-gradient);}.cls-3{clip-path:url(#clip-path);}.cls-4{fill:url(#linear-gradient-2);}.cls-5{fill:url(#linear-gradient-3);}</style><linearGradient id="linear-gradient" x1="-308.74" y1="309.94" x2="-308.74" y2="308.94" gradientTransform="matrix(177, 0, 0, -35, 54736, 10848)" gradientUnits="userSpaceOnUse"><stop offset="0" stop-color="#d6d6d6"/><stop offset="0.5" stop-color="#fbfbfb"/><stop offset="1" stop-color="#d6d6d6"/></linearGradient><clipPath id="clip-path" transform="translate(0 29)"><path class="cls-1" d="M17.5,0h142A17.5,17.5,0,0,1,177,17.5h0A17.5,17.5,0,0,1,159.5,35H17.5A17.51,17.51,0,0,1,0,17.5H0A17.51,17.51,0,0,1,17.5,0Z"/></clipPath><linearGradient id="linear-gradient-2" x1="-308.75" y1="310.38" x2="-308.75" y2="310.09" gradientTransform="matrix(178, 0, 0, -37, 55047, 11540)" xlink:href="#linear-gradient"/><linearGradient id="linear-gradient-3" x1="-308.75" y1="309.38" x2="-308.75" y2="309.66" gradientTransform="matrix(178, 0, 0, -37, 55047, 11484)" xlink:href="#linear-gradient"/></defs><title>white-btn</title><g id="white-btn"><g id="Group_2261" data-name="Group 2261"><path id="Rectangle_16" data-name="Rectangle 16" class="cls-2" d="M17.5,0h142A17.5,17.5,0,0,1,177,17.5h0A17.5,17.5,0,0,1,159.5,35H17.5A17.51,17.51,0,0,1,0,17.5H0A17.51,17.51,0,0,1,17.5,0Z" transform="translate(0 29)"/></g><g class="cls-3"><g id="Mask_Group_126" data-name="Mask Group 126"><ellipse id="Ellipse_8603" data-name="Ellipse 8603" class="cls-4" cx="89" cy="74.5" rx="89" ry="18.5"/><ellipse id="Ellipse_8604" data-name="Ellipse 8604" class="cls-5" cx="89" cy="18.5" rx="89" ry="18.5"/></g></g></g></svg>