<svg id="Layer_1" data-name="Layer 1" xmlns="http://www.w3.org/2000/svg" viewBox="0 0 44 44"><defs><style>.cls-1{fill:#fff;}</style></defs><title>cpu-white</title><path class="cls-1" d="M12.45,7.71l-5,5V37.45l5,5H37.29l5-5V12.71l-5-5ZM41,36.93l-4.25,4.25H13L8.72,36.93V13.23L13,9H36.76L41,13.23Z" transform="translate(-3 -3.07)"/><polygon class="cls-1" points="11 7.32 7.19 11.14 7.19 32.88 11 36.7 32.73 36.7 36.55 32.88 36.55 11.14 32.73 7.32 11 7.32"/><path class="cls-1" d="M15.77,4.29a1.22,1.22,0,0,0-1.22-1.22h-.2a1.22,1.22,0,0,0-1.22,1.22V5.86h2.64Z" transform="translate(-3 -3.07)"/><path class="cls-1" d="M21,4.29a1.22,1.22,0,0,0-1.21-1.22h-.2a1.22,1.22,0,0,0-1.22,1.22V5.86H21Z" transform="translate(-3 -3.07)"/><path class="cls-1" d="M26.32,4.29A1.22,1.22,0,0,0,25.1,3.07h-.2a1.22,1.22,0,0,0-1.22,1.22V5.86h2.64Z" transform="translate(-3 -3.07)"/><path class="cls-1" d="M31.59,4.29a1.22,1.22,0,0,0-1.22-1.22h-.2A1.22,1.22,0,0,0,29,4.29V5.86h2.63Z" transform="translate(-3 -3.07)"/><path class="cls-1" d="M36.87,4.29a1.22,1.22,0,0,0-1.22-1.22h-.2a1.22,1.22,0,0,0-1.22,1.22V5.86h2.64Z" transform="translate(-3 -3.07)"/><path class="cls-1" d="M13.13,45.85a1.22,1.22,0,0,0,1.22,1.22h.2a1.22,1.22,0,0,0,1.22-1.22V44.28H13.13Z" transform="translate(-3 -3.07)"/><path class="cls-1" d="M18.41,45.85a1.22,1.22,0,0,0,1.22,1.22h.2A1.22,1.22,0,0,0,21,45.85V44.28H18.41Z" transform="translate(-3 -3.07)"/><path class="cls-1" d="M23.68,45.85a1.22,1.22,0,0,0,1.22,1.22h.2a1.22,1.22,0,0,0,1.22-1.22V44.28H23.68Z" transform="translate(-3 -3.07)"/><path class="cls-1" d="M29,45.85a1.22,1.22,0,0,0,1.21,1.22h.2a1.22,1.22,0,0,0,1.22-1.22V44.28H29Z" transform="translate(-3 -3.07)"/><path class="cls-1" d="M34.23,45.85a1.22,1.22,0,0,0,1.22,1.22h.2a1.22,1.22,0,0,0,1.22-1.22V44.28H34.23Z" transform="translate(-3 -3.07)"/><path class="cls-1" d="M45.78,13.2H44.21v2.64h1.57A1.22,1.22,0,0,0,47,14.62v-.2A1.22,1.22,0,0,0,45.78,13.2Z" transform="translate(-3 -3.07)"/><path class="cls-1" d="M45.78,18.48H44.21v2.63h1.57A1.22,1.22,0,0,0,47,19.9v-.2A1.22,1.22,0,0,0,45.78,18.48Z" transform="translate(-3 -3.07)"/><path class="cls-1" d="M45.78,23.75H44.21v2.64h1.57A1.22,1.22,0,0,0,47,25.17V25A1.22,1.22,0,0,0,45.78,23.75Z" transform="translate(-3 -3.07)"/><path class="cls-1" d="M45.78,29H44.21v2.64h1.57A1.22,1.22,0,0,0,47,30.44v-.2A1.22,1.22,0,0,0,45.78,29Z" transform="translate(-3 -3.07)"/><path class="cls-1" d="M45.78,34.3H44.21v2.64h1.57A1.22,1.22,0,0,0,47,35.72v-.2A1.22,1.22,0,0,0,45.78,34.3Z" transform="translate(-3 -3.07)"/><path class="cls-1" d="M3,14.42v.2a1.22,1.22,0,0,0,1.22,1.22H5.79V13.2H4.22A1.22,1.22,0,0,0,3,14.42Z" transform="translate(-3 -3.07)"/><path class="cls-1" d="M3,19.7v.2a1.22,1.22,0,0,0,1.22,1.21H5.79V18.48H4.22A1.22,1.22,0,0,0,3,19.7Z" transform="translate(-3 -3.07)"/><path class="cls-1" d="M3,25v.2a1.22,1.22,0,0,0,1.22,1.22H5.79V23.75H4.22A1.22,1.22,0,0,0,3,25Z" transform="translate(-3 -3.07)"/><path class="cls-1" d="M3,30.24v.2a1.22,1.22,0,0,0,1.22,1.22H5.79V29H4.22A1.22,1.22,0,0,0,3,30.24Z" transform="translate(-3 -3.07)"/><path class="cls-1" d="M3,35.52v.2a1.22,1.22,0,0,0,1.22,1.22H5.79V34.3H4.22A1.22,1.22,0,0,0,3,35.52Z" transform="translate(-3 -3.07)"/></svg>