<svg id="Layer_1" data-name="Layer 1" xmlns="http://www.w3.org/2000/svg" viewBox="0 0 24 23.98"><defs><style>.cls-1{fill:#fff;}</style></defs><title>phone</title><path class="cls-1" d="M17.17,16.16a2.5,2.5,0,0,0-3.54,0l-.38.38a45.9,45.9,0,0,1-5.79-5.79l.38-.39a2.49,2.49,0,0,0,0-3.53h0L5.72,4.71a2.49,2.49,0,0,0-3.53,0L1,5.87a3.51,3.51,0,0,0-.44,4.4A46.88,46.88,0,0,0,13.72,23.42a3.55,3.55,0,0,0,4.4-.44l1.17-1.17a2.5,2.5,0,0,0,0-3.53Z" transform="translate(0)"/><path class="cls-1" d="M11.5,0a1,1,0,0,0,0,2A10.51,10.51,0,0,1,22,12.5a1,1,0,0,0,2,0A12.52,12.52,0,0,0,11.5,0Z" transform="translate(0)"/><path class="cls-1" d="M11.5,6A6.5,6.5,0,0,1,18,12.5a1,1,0,0,0,2,0A8.52,8.52,0,0,0,11.5,4a1,1,0,0,0,0,2Z" transform="translate(0)"/></svg>