<svg id="notification" xmlns="http://www.w3.org/2000/svg" width="33.318" height="35.897" viewBox="0 0 33.318 35.897">
  <path id="Path_42944" data-name="Path 42944" d="M16.846,9.692a3.846,3.846,0,1,1,3.846-3.846A3.846,3.846,0,0,1,16.846,9.692Zm0-5.128a1.282,1.282,0,1,0,1.282,1.282A1.282,1.282,0,0,0,16.846,4.564Z" transform="translate(-0.187 -2)" fill="#0e6ae0"/>
  <path id="Path_42945" data-name="Path 42945" d="M20.974,24H13.282A1.282,1.282,0,0,0,12,25.282v1.282a5.128,5.128,0,1,0,10.256,0V25.282A1.282,1.282,0,0,0,20.974,24Z" transform="translate(-0.469 4.205)" fill="#0e6ae0"/>
  <path id="Path_42946" data-name="Path 42946" d="M35.627,29.218A7.962,7.962,0,0,1,31.2,22.064V17.538a11.538,11.538,0,1,0-23.077,0v4.526A7.962,7.962,0,0,1,3.7,29.218a1.282,1.282,0,0,0,.577,2.423H35.05a1.282,1.282,0,0,0,.577-2.423Z" transform="translate(-3.006 -0.872)" fill="#0593ff"/>
</svg>
