<svg id="check-mark" xmlns="http://www.w3.org/2000/svg" width="45.15" height="45.15" viewBox="0 0 45.15 45.15">
  <path id="Path_43293" data-name="Path 43293" d="M22.575,0A22.575,22.575,0,1,0,45.15,22.575,22.575,22.575,0,0,0,22.575,0Zm0,41.388A18.813,18.813,0,1,1,41.388,22.575,18.813,18.813,0,0,1,22.575,41.388Z" fill="#fff"/>
  <path id="Path_43294" data-name="Path 43294" d="M25.364,8.551,13.525,20.39,9.211,16.076a1.881,1.881,0,1,0-2.66,2.66L12.2,24.38a1.881,1.881,0,0,0,2.66,0L28.024,11.211a1.881,1.881,0,1,0-2.66-2.66Z" transform="translate(5.288 7.05)" fill="#fff"/>
</svg>
