<svg id="Layer_1" data-name="Layer 1" xmlns="http://www.w3.org/2000/svg" xmlns:xlink="http://www.w3.org/1999/xlink" viewBox="0 0 249.07 109.3"><defs><style>.cls-1{fill:none;}.cls-2{fill:url(#linear-gradient);}.cls-3{fill:url(#linear-gradient-2);}.cls-4{clip-path:url(#clip-path);}.cls-5{opacity:0.7;}.cls-6{fill:#fff;}.cls-7{fill:url(#radial-gradient);}.cls-8{fill:url(#radial-gradient-2);}.cls-9{clip-path:url(#clip-path-2);}</style><linearGradient id="linear-gradient" x1="249" y1="69.98" x2="0" y2="69.98" gradientUnits="userSpaceOnUse"><stop offset="0" stop-color="#d6d6d6"/><stop offset="0.5" stop-color="#fbfbfb"/><stop offset="1" stop-color="#d6d6d6"/></linearGradient><linearGradient id="linear-gradient-2" y1="25" x2="0" y2="25" xlink:href="#linear-gradient"/><clipPath id="clip-path" transform="translate(0.05 19.3)"><path class="cls-1" d="M25,0H224a25,25,0,0,1,25,25V50H0V25A25,25,0,0,1,25,0Z"/></clipPath><radialGradient id="radial-gradient" cx="124.5" cy="45.75" r="88.09" gradientUnits="userSpaceOnUse"><stop offset="0" stop-color="#fff" stop-opacity="0.99"/><stop offset="0.6" stop-color="#d2d2d2"/><stop offset="1" stop-color="#b5b5b5"/></radialGradient><radialGradient id="radial-gradient-2" cx="125.09" cy="0.29" r="71.37" gradientTransform="translate(0 0.26) scale(1 0.09)" xlink:href="#radial-gradient"/><clipPath id="clip-path-2" transform="translate(0.05 19.3)"><rect class="cls-1" y="50" width="249" height="40"/></clipPath></defs><title>small-server</title><g id="small-server"><g id="Group_1831" data-name="Group 1831"><path class="cls-2" d="M249,50V90H0V50.25" transform="translate(0.05 19.3)"/></g><g id="Group_1840" data-name="Group 1840"><path class="cls-3" d="M249,25V50H0V25A25,25,0,0,1,23.62,0c.46,0,.92,0,1.38,0H224c.46,0,.92,0,1.38,0A25,25,0,0,1,249,25Z" transform="translate(0.05 19.3)"/><g class="cls-4"><g id="Mask_Group_103" data-name="Mask Group 103" class="cls-5"><g id="Group_1706" data-name="Group 1706"><g id="Group_1704" data-name="Group 1704"><path id="Path_34046" data-name="Path 34046" class="cls-6" d="M179-17.85a.15.15,0,0,0,.14-.15.15.15,0,0,0-.14-.15.15.15,0,0,0-.15.15h0A.15.15,0,0,0,179-17.85Z" transform="translate(0.05 19.3)"/><path id="Path_34047" data-name="Path 34047" class="cls-6" d="M192.36-17.59a.41.41,0,0,0,.41-.41.41.41,0,0,0-.41-.41A.41.41,0,0,0,192-18h0A.41.41,0,0,0,192.36-17.59Z" transform="translate(0.05 19.3)"/><path id="Path_34048" data-name="Path 34048" class="cls-6" d="M205.68-17.37a.63.63,0,0,0,.63-.63.63.63,0,0,0-.63-.63.63.63,0,0,0-.63.63h0A.63.63,0,0,0,205.68-17.37Z" transform="translate(0.05 19.3)"/><path id="Path_34049" data-name="Path 34049" class="cls-6" d="M219-17.11a.89.89,0,0,0,.89-.89.89.89,0,0,0-.89-.89.88.88,0,0,0-.89.88h0a.9.9,0,0,0,.89.89Z" transform="translate(0.05 19.3)"/><path id="Path_34050" data-name="Path 34050" class="cls-6" d="M232.32-16.89A1.11,1.11,0,0,0,233.43-18a1.1,1.1,0,0,0-1.1-1.11A1.1,1.1,0,0,0,231.21-18h0a1.11,1.11,0,0,0,1.11,1.11Z" transform="translate(0.05 19.3)"/><path id="Path_34051" data-name="Path 34051" class="cls-6" d="M245.64-16.7A1.31,1.31,0,0,0,247-18a1.3,1.3,0,0,0-1.3-1.3,1.29,1.29,0,0,0-1.3,1.29h0a1.3,1.3,0,0,0,1.29,1.3Z" transform="translate(0.05 19.3)"/><path id="Path_34052" data-name="Path 34052" class="cls-6" d="M165.72-4.52a.11.11,0,0,0,.11-.11.11.11,0,0,0-.11-.11.11.11,0,0,0-.11.11h0A.11.11,0,0,0,165.72-4.52Z" transform="translate(0.05 19.3)"/><path id="Path_34053" data-name="Path 34053" class="cls-6" d="M179-4.23a.41.41,0,0,0,.41-.4A.41.41,0,0,0,179-5a.4.4,0,0,0-.41.4h0A.41.41,0,0,0,179-4.23Z" transform="translate(0.05 19.3)"/><path id="Path_34054" data-name="Path 34054" class="cls-6" d="M192.36-4a.67.67,0,0,0,.67-.66.67.67,0,0,0-.67-.67.66.66,0,0,0-.67.66h0a.67.67,0,0,0,.67.67Z" transform="translate(0.05 19.3)"/><path id="Path_34055" data-name="Path 34055" class="cls-6" d="M205.68-3.71a.93.93,0,0,0,.93-.92.92.92,0,0,0-.93-.93.93.93,0,0,0-.93.92h0a.93.93,0,0,0,.93.93Z" transform="translate(0.05 19.3)"/><path id="Path_34056" data-name="Path 34056" class="cls-6" d="M219-3.45a1.19,1.19,0,0,0,1.19-1.18A1.18,1.18,0,0,0,219-5.82a1.18,1.18,0,0,0-1.19,1.18h0A1.17,1.17,0,0,0,219-3.45Z" transform="translate(0.05 19.3)"/><path id="Path_34057" data-name="Path 34057" class="cls-6" d="M232.32-3.19a1.44,1.44,0,0,0,1.45-1.44,1.44,1.44,0,0,0-1.44-1.45,1.44,1.44,0,0,0-1.45,1.44h0A1.44,1.44,0,0,0,232.32-3.19Z" transform="translate(0.05 19.3)"/><path id="Path_34058" data-name="Path 34058" class="cls-6" d="M245.64-3a1.62,1.62,0,0,0,1.63-1.62,1.63,1.63,0,0,0-1.62-1.64A1.65,1.65,0,0,0,244-4.64h0A1.63,1.63,0,0,0,245.64-3Z" transform="translate(0.05 19.3)"/><path id="Path_34059" data-name="Path 34059" class="cls-6" d="M152.4,8.8a.07.07,0,0,0,.07-.07.08.08,0,0,0-.07-.08.09.09,0,0,0-.08.08.08.08,0,0,0,.08.07Z" transform="translate(0.05 19.3)"/><path id="Path_34060" data-name="Path 34060" class="cls-6" d="M165.72,9.06a.34.34,0,1,0-.33-.33h0a.33.33,0,0,0,.33.33Z" transform="translate(0.05 19.3)"/><path id="Path_34061" data-name="Path 34061" class="cls-6" d="M179,9.36a.63.63,0,0,0,.63-.63A.63.63,0,0,0,179,8.1a.63.63,0,0,0-.63.63h0A.63.63,0,0,0,179,9.36Z" transform="translate(0.05 19.3)"/><path id="Path_34062" data-name="Path 34062" class="cls-6" d="M192.36,9.66a.93.93,0,1,0-.93-.93h0a.94.94,0,0,0,.93.93Z" transform="translate(0.05 19.3)"/><path id="Path_34063" data-name="Path 34063" class="cls-6" d="M205.68,10a1.22,1.22,0,1,0-1.22-1.22h0A1.22,1.22,0,0,0,205.68,10Z" transform="translate(0.05 19.3)"/><path id="Path_34064" data-name="Path 34064" class="cls-6" d="M219,10.21a1.48,1.48,0,0,0,1.48-1.48A1.46,1.46,0,0,0,219,7.25a1.48,1.48,0,0,0-1.49,1.48h0A1.48,1.48,0,0,0,219,10.21Z" transform="translate(0.05 19.3)"/><path id="Path_34065" data-name="Path 34065" class="cls-6" d="M232.32,10.47a1.74,1.74,0,1,0-1.74-1.75h0a1.74,1.74,0,0,0,1.74,1.74Z" transform="translate(0.05 19.3)"/><path id="Path_34066" data-name="Path 34066" class="cls-6" d="M245.64,10.69a2,2,0,1,0-2-2h0a2,2,0,0,0,2,2Z" transform="translate(0.05 19.3)"/><path id="Path_34067" data-name="Path 34067" class="cls-6" d="M152.4,22.32a.22.22,0,0,0,.22-.23.22.22,0,1,0-.44,0,.22.22,0,0,0,.22.23Z" transform="translate(0.05 19.3)"/><path id="Path_34068" data-name="Path 34068" class="cls-6" d="M165.72,22.65a.56.56,0,1,0,0-1.11.56.56,0,0,0-.56.55h0a.56.56,0,0,0,.56.56Z" transform="translate(0.05 19.3)"/><path id="Path_34069" data-name="Path 34069" class="cls-6" d="M179,23a.88.88,0,0,0,.89-.88.91.91,0,0,0-.89-.9.89.89,0,0,0-.89.89h0A.89.89,0,0,0,179,23Z" transform="translate(0.05 19.3)"/><path id="Path_34070" data-name="Path 34070" class="cls-6" d="M192.36,23.28a1.19,1.19,0,0,0,0-2.37,1.17,1.17,0,0,0-1.19,1.18h0a1.17,1.17,0,0,0,1.18,1.19Z" transform="translate(0.05 19.3)"/><path id="Path_34071" data-name="Path 34071" class="cls-6" d="M205.68,23.58a1.49,1.49,0,1,0-1.48-1.49h0a1.49,1.49,0,0,0,1.48,1.49Z" transform="translate(0.05 19.3)"/><path id="Path_34072" data-name="Path 34072" class="cls-6" d="M219,23.87a1.78,1.78,0,1,0-1.77-1.78h0A1.77,1.77,0,0,0,219,23.87Z" transform="translate(0.05 19.3)"/><path id="Path_34073" data-name="Path 34073" class="cls-6" d="M232.32,24.13a2,2,0,1,0-2-2h0A2,2,0,0,0,232.32,24.13Z" transform="translate(0.05 19.3)"/><path id="Path_34074" data-name="Path 34074" class="cls-6" d="M245.64,24.39a2.3,2.3,0,1,0-2.29-2.31h0a2.29,2.29,0,0,0,2.29,2.3Z" transform="translate(0.05 19.3)"/><path id="Path_34075" data-name="Path 34075" class="cls-6" d="M139.08,35.57a.11.11,0,1,0-.11-.11h0A.11.11,0,0,0,139.08,35.57Z" transform="translate(0.05 19.3)"/><path id="Path_34076" data-name="Path 34076" class="cls-6" d="M152.4,35.9a.44.44,0,0,0,.44-.44.43.43,0,0,0-.44-.45.46.46,0,0,0-.45.45h0a.45.45,0,0,0,.45.44Z" transform="translate(0.05 19.3)"/><path id="Path_34077" data-name="Path 34077" class="cls-6" d="M165.72,36.24a.78.78,0,1,0-.78-.78h0a.78.78,0,0,0,.78.78Z" transform="translate(0.05 19.3)"/><path id="Path_34078" data-name="Path 34078" class="cls-6" d="M179,36.57a1.11,1.11,0,1,0-1.11-1.12h0A1.11,1.11,0,0,0,179,36.57Z" transform="translate(0.05 19.3)"/><path id="Path_34079" data-name="Path 34079" class="cls-6" d="M192.36,36.9a1.45,1.45,0,1,0-1.44-1.45h0a1.44,1.44,0,0,0,1.44,1.45Z" transform="translate(0.05 19.3)"/><path id="Path_34080" data-name="Path 34080" class="cls-6" d="M205.68,37.2a1.74,1.74,0,1,0-1.74-1.75h0a1.74,1.74,0,0,0,1.74,1.74Z" transform="translate(0.05 19.3)"/><path id="Path_34081" data-name="Path 34081" class="cls-6" d="M219,37.5a2,2,0,1,0-2-2h0a2,2,0,0,0,2,2Z" transform="translate(0.05 19.3)"/><path id="Path_34082" data-name="Path 34082" class="cls-6" d="M232.32,37.79a2.32,2.32,0,0,0,2.34-2.32,2.34,2.34,0,1,0-4.67,0h0A2.33,2.33,0,0,0,232.32,37.79Z" transform="translate(0.05 19.3)"/><path id="Path_34083" data-name="Path 34083" class="cls-6" d="M245.64,38.05a2.59,2.59,0,1,0-2.59-2.6h0A2.59,2.59,0,0,0,245.64,38.05Z" transform="translate(0.05 19.3)"/><path id="Path_34084" data-name="Path 34084" class="cls-6" d="M139.08,49.08a.26.26,0,0,0,.26-.26.26.26,0,0,0-.26-.26.26.26,0,0,0-.26.26h0a.25.25,0,0,0,.26.26Z" transform="translate(0.05 19.3)"/><path id="Path_34085" data-name="Path 34085" class="cls-6" d="M152.4,49.42a.6.6,0,0,0,0-1.19.58.58,0,0,0-.59.59h0a.59.59,0,0,0,.59.6Z" transform="translate(0.05 19.3)"/><path id="Path_34086" data-name="Path 34086" class="cls-6" d="M165.72,49.79a1,1,0,1,0-1-1h0A1,1,0,0,0,165.72,49.79Z" transform="translate(0.05 19.3)"/><path id="Path_34087" data-name="Path 34087" class="cls-6" d="M179,50.12a1.3,1.3,0,1,0-1.29-1.31h0A1.3,1.3,0,0,0,179,50.12Z" transform="translate(0.05 19.3)"/><path id="Path_34088" data-name="Path 34088" class="cls-6" d="M192.36,50.45a1.63,1.63,0,1,0-1.63-1.63h0A1.63,1.63,0,0,0,192.36,50.45Z" transform="translate(0.05 19.3)"/><path id="Path_34089" data-name="Path 34089" class="cls-6" d="M205.68,50.79a2,2,0,1,0-2-2h0a2,2,0,0,0,2,2Z" transform="translate(0.05 19.3)"/><path id="Path_34090" data-name="Path 34090" class="cls-6" d="M219,51.12a2.3,2.3,0,1,0-2.29-2.31h0a2.29,2.29,0,0,0,2.29,2.3Z" transform="translate(0.05 19.3)"/><path id="Path_34091" data-name="Path 34091" class="cls-6" d="M232.32,51.42a2.6,2.6,0,1,0-2.59-2.6h0A2.61,2.61,0,0,0,232.32,51.42Z" transform="translate(0.05 19.3)"/><path id="Path_34092" data-name="Path 34092" class="cls-6" d="M245.64,51.71a2.89,2.89,0,1,0-2.88-2.9h0a2.87,2.87,0,0,0,2.88,2.89Z" transform="translate(0.05 19.3)"/><path id="Path_34093" data-name="Path 34093" class="cls-6" d="M139.08,62.6a.41.41,0,1,0-.41-.41h0a.41.41,0,0,0,.41.41Z" transform="translate(0.05 19.3)"/><path id="Path_34094" data-name="Path 34094" class="cls-6" d="M152.4,62.93a.74.74,0,1,0-.74-.74h0a.74.74,0,0,0,.74.74Z" transform="translate(0.05 19.3)"/><path id="Path_34095" data-name="Path 34095" class="cls-6" d="M165.72,63.3a1.11,1.11,0,1,0-1.11-1.11h0a1.11,1.11,0,0,0,1.11,1.11Z" transform="translate(0.05 19.3)"/><path id="Path_34096" data-name="Path 34096" class="cls-6" d="M179,63.67a1.49,1.49,0,1,0-1.48-1.49h0A1.48,1.48,0,0,0,179,63.67Z" transform="translate(0.05 19.3)"/><path id="Path_34097" data-name="Path 34097" class="cls-6" d="M192.36,64a1.81,1.81,0,0,0,1.82-1.81,1.82,1.82,0,0,0-3.63,0h0A1.81,1.81,0,0,0,192.36,64Z" transform="translate(0.05 19.3)"/><path id="Path_34098" data-name="Path 34098" class="cls-6" d="M205.68,64.37a2.19,2.19,0,1,0-2.18-2.19h0a2.18,2.18,0,0,0,2.18,2.18Z" transform="translate(0.05 19.3)"/><path id="Path_34099" data-name="Path 34099" class="cls-6" d="M219,64.71a2.52,2.52,0,1,0-2.51-2.53h0A2.51,2.51,0,0,0,219,64.71Z" transform="translate(0.05 19.3)"/><path id="Path_40911" data-name="Path 40911" class="cls-6" d="M230.33,60.2a2.81,2.81,0,1,1,0,4,2.81,2.81,0,0,1,0-4Z" transform="translate(0.05 19.3)"/><path id="Path_34100" data-name="Path 34100" class="cls-6" d="M245.64,65.34a3.15,3.15,0,1,0-3.14-3.16h0a3.15,3.15,0,0,0,3.14,3.15Z" transform="translate(0.05 19.3)"/><path id="Path_34101" data-name="Path 34101" class="cls-6" d="M139.08,76.07a.52.52,0,1,0,0-1,.52.52,0,0,0-.52.52h0A.52.52,0,0,0,139.08,76.07Z" transform="translate(0.05 19.3)"/><path id="Path_34102" data-name="Path 34102" class="cls-6" d="M152.4,76.44a.88.88,0,0,0,.89-.88.91.91,0,0,0-.89-.9.89.89,0,0,0-.89.89h0a.89.89,0,0,0,.89.89Z" transform="translate(0.05 19.3)"/><path id="Path_34103" data-name="Path 34103" class="cls-6" d="M165.72,76.81a1.26,1.26,0,1,0-1.26-1.26h0A1.25,1.25,0,0,0,165.72,76.81Z" transform="translate(0.05 19.3)"/><path id="Path_34104" data-name="Path 34104" class="cls-6" d="M179,77.18a1.63,1.63,0,0,0,0-3.26,1.65,1.65,0,0,0-1.64,1.63h0A1.63,1.63,0,0,0,179,77.18Z" transform="translate(0.05 19.3)"/><path id="Path_34105" data-name="Path 34105" class="cls-6" d="M192.36,77.56a2,2,0,1,0-2-2h0A2,2,0,0,0,192.36,77.56Z" transform="translate(0.05 19.3)"/><path id="Path_34106" data-name="Path 34106" class="cls-6" d="M205.68,77.89a2.34,2.34,0,1,0-2.33-2.35h0a2.34,2.34,0,0,0,2.33,2.34Z" transform="translate(0.05 19.3)"/><path id="Path_34107" data-name="Path 34107" class="cls-6" d="M219,78.26a2.71,2.71,0,1,0-2.7-2.71h0a2.69,2.69,0,0,0,2.69,2.7Z" transform="translate(0.05 19.3)"/><path id="Path_34108" data-name="Path 34108" class="cls-6" d="M232.32,78.59a3,3,0,1,0-3-3h0a3,3,0,0,0,3,3Z" transform="translate(0.05 19.3)"/><path id="Path_34109" data-name="Path 34109" class="cls-6" d="M245.64,78.93a3.38,3.38,0,1,0-3.36-3.39h0A3.37,3.37,0,0,0,245.64,78.93Z" transform="translate(0.05 19.3)"/></g><g id="Group_1705" data-name="Group 1705"><path id="Path_34046-2" data-name="Path 34046-2" class="cls-6" d="M70-17.85a.15.15,0,0,1-.15-.15.15.15,0,0,1,.15-.15.15.15,0,0,1,.15.15.15.15,0,0,1-.15.15Z" transform="translate(0.05 19.3)"/><path id="Path_34047-2" data-name="Path 34047-2" class="cls-6" d="M56.64-17.59a.41.41,0,0,1-.41-.41.41.41,0,0,1,.41-.41.41.41,0,0,1,.41.41h0A.41.41,0,0,1,56.64-17.59Z" transform="translate(0.05 19.3)"/><path id="Path_34048-2" data-name="Path 34048-2" class="cls-6" d="M43.32-17.37a.63.63,0,0,1-.63-.63.63.63,0,0,1,.63-.63A.63.63,0,0,1,44-18h0A.63.63,0,0,1,43.32-17.37Z" transform="translate(0.05 19.3)"/><path id="Path_34049-2" data-name="Path 34049-2" class="cls-6" d="M30-17.11a.89.89,0,0,1-.89-.89.89.89,0,0,1,.89-.89.88.88,0,0,1,.89.88h0a.9.9,0,0,1-.89.89Z" transform="translate(0.05 19.3)"/><path id="Path_34050-2" data-name="Path 34050-2" class="cls-6" d="M16.68-16.89A1.11,1.11,0,0,1,15.57-18a1.1,1.1,0,0,1,1.1-1.11A1.1,1.1,0,0,1,17.79-18h0a1.11,1.11,0,0,1-1.11,1.11Z" transform="translate(0.05 19.3)"/><path id="Path_34051-2" data-name="Path 34051-2" class="cls-6" d="M3.36-16.7A1.31,1.31,0,0,1,2.05-18a1.3,1.3,0,0,1,1.3-1.3A1.29,1.29,0,0,1,4.65-18h0a1.3,1.3,0,0,1-1.29,1.3Z" transform="translate(0.05 19.3)"/><path id="Path_34052-2" data-name="Path 34052-2" class="cls-6" d="M83.28-4.52a.11.11,0,0,1-.11-.11.11.11,0,0,1,.11-.11.11.11,0,0,1,.11.11h0A.11.11,0,0,1,83.28-4.52Z" transform="translate(0.05 19.3)"/><path id="Path_34053-2" data-name="Path 34053-2" class="cls-6" d="M70-4.23a.41.41,0,0,1-.41-.4A.41.41,0,0,1,70-5a.4.4,0,0,1,.41.4h0A.41.41,0,0,1,70-4.23Z" transform="translate(0.05 19.3)"/><path id="Path_34054-2" data-name="Path 34054-2" class="cls-6" d="M56.64-4A.67.67,0,0,1,56-4.63a.67.67,0,0,1,.67-.67.67.67,0,0,1,.67.66h0a.67.67,0,0,1-.67.67Z" transform="translate(0.05 19.3)"/><path id="Path_34055-2" data-name="Path 34055-2" class="cls-6" d="M43.32-3.71a.93.93,0,0,1-.93-.92.92.92,0,0,1,.93-.93.93.93,0,0,1,.93.92h0a.93.93,0,0,1-.93.93Z" transform="translate(0.05 19.3)"/><path id="Path_34056-2" data-name="Path 34056-2" class="cls-6" d="M30-3.45a1.19,1.19,0,0,1-1.19-1.18A1.18,1.18,0,0,1,30-5.82a1.18,1.18,0,0,1,1.19,1.18h0A1.18,1.18,0,0,1,30-3.45Z" transform="translate(0.05 19.3)"/><path id="Path_34057-2" data-name="Path 34057-2" class="cls-6" d="M16.68-3.19a1.44,1.44,0,0,1-1.45-1.44,1.44,1.44,0,0,1,1.44-1.45,1.44,1.44,0,0,1,1.45,1.44h0A1.44,1.44,0,0,1,16.68-3.19Z" transform="translate(0.05 19.3)"/><path id="Path_34058-2" data-name="Path 34058-2" class="cls-6" d="M3.36-3A1.63,1.63,0,0,1,1.72-4.63,1.65,1.65,0,0,1,3.35-6.27,1.65,1.65,0,0,1,5-4.64H5A1.63,1.63,0,0,1,3.36-3Z" transform="translate(0.05 19.3)"/><path id="Path_34059-2" data-name="Path 34059-2" class="cls-6" d="M96.6,8.8a.07.07,0,0,1-.07-.07.08.08,0,0,1,.07-.08.09.09,0,0,1,.08.08.08.08,0,0,1-.08.07Z" transform="translate(0.05 19.3)"/><path id="Path_34060-2" data-name="Path 34060-2" class="cls-6" d="M83.28,9.06A.33.33,0,0,1,83,8.73a.34.34,0,1,1,.67,0h0a.34.34,0,0,1-.34.33Z" transform="translate(0.05 19.3)"/><path id="Path_34061-2" data-name="Path 34061-2" class="cls-6" d="M70,9.36A.63.63,0,1,1,70,8.1a.63.63,0,0,1,.63.63h0A.63.63,0,0,1,70,9.36Z" transform="translate(0.05 19.3)"/><path id="Path_34062-2" data-name="Path 34062-2" class="cls-6" d="M56.64,9.66a.93.93,0,1,1,.93-.93h0a.94.94,0,0,1-.93.93Z" transform="translate(0.05 19.3)"/><path id="Path_34063-2" data-name="Path 34063-2" class="cls-6" d="M43.32,10a1.22,1.22,0,1,1,1.22-1.22h0A1.22,1.22,0,0,1,43.32,10Z" transform="translate(0.05 19.3)"/><path id="Path_34064-2" data-name="Path 34064-2" class="cls-6" d="M30,10.21a1.48,1.48,0,0,1-1.48-1.48A1.46,1.46,0,0,1,30,7.25a1.48,1.48,0,0,1,1.49,1.48h0A1.48,1.48,0,0,1,30,10.21Z" transform="translate(0.05 19.3)"/><path id="Path_34065-2" data-name="Path 34065-2" class="cls-6" d="M16.68,10.47a1.74,1.74,0,1,1,1.74-1.75h0a1.74,1.74,0,0,1-1.74,1.74Z" transform="translate(0.05 19.3)"/><path id="Path_34066-2" data-name="Path 34066-2" class="cls-6" d="M3.36,10.69a2,2,0,1,1,2-2h0a2,2,0,0,1-2,2Z" transform="translate(0.05 19.3)"/><path id="Path_34067-2" data-name="Path 34067-2" class="cls-6" d="M96.6,22.32a.22.22,0,0,1-.22-.23.22.22,0,0,1,.22-.22.23.23,0,0,1,.23.22.23.23,0,0,1-.23.23Z" transform="translate(0.05 19.3)"/><path id="Path_34068-2" data-name="Path 34068-2" class="cls-6" d="M83.28,22.65a.56.56,0,1,1,0-1.11.56.56,0,0,1,.56.55h0a.56.56,0,0,1-.56.56Z" transform="translate(0.05 19.3)"/><path id="Path_34069-2" data-name="Path 34069-2" class="cls-6" d="M70,23a.88.88,0,0,1-.89-.88.91.91,0,0,1,.89-.9.89.89,0,0,1,.89.89h0A.89.89,0,0,1,70,23Z" transform="translate(0.05 19.3)"/><path id="Path_34070-2" data-name="Path 34070-2" class="cls-6" d="M56.64,23.28a1.19,1.19,0,0,1,0-2.37,1.17,1.17,0,0,1,1.19,1.18h0a1.17,1.17,0,0,1-1.18,1.19Z" transform="translate(0.05 19.3)"/><path id="Path_34071-2" data-name="Path 34071-2" class="cls-6" d="M43.32,23.58a1.49,1.49,0,1,1,1.48-1.49h0a1.49,1.49,0,0,1-1.48,1.49Z" transform="translate(0.05 19.3)"/><path id="Path_34072-2" data-name="Path 34072-2" class="cls-6" d="M30,23.87a1.78,1.78,0,1,1,1.77-1.78h0A1.77,1.77,0,0,1,30,23.87Z" transform="translate(0.05 19.3)"/><path id="Path_34073-2" data-name="Path 34073-2" class="cls-6" d="M16.68,24.13a2,2,0,1,1,2-2h0A2,2,0,0,1,16.68,24.13Z" transform="translate(0.05 19.3)"/><path id="Path_34074-2" data-name="Path 34074-2" class="cls-6" d="M3.36,24.39a2.3,2.3,0,1,1,2.29-2.31h0a2.29,2.29,0,0,1-2.29,2.3Z" transform="translate(0.05 19.3)"/><path id="Path_34075-2" data-name="Path 34075-2" class="cls-6" d="M109.92,35.57a.11.11,0,1,1,.11-.11h0A.11.11,0,0,1,109.92,35.57Z" transform="translate(0.05 19.3)"/><path id="Path_34076-2" data-name="Path 34076-2" class="cls-6" d="M96.6,35.9a.46.46,0,0,1-.45-.44.45.45,0,1,1,.89,0h0a.43.43,0,0,1-.44.44Z" transform="translate(0.05 19.3)"/><path id="Path_34077-2" data-name="Path 34077-2" class="cls-6" d="M83.28,36.24a.78.78,0,1,1,.78-.78h0a.78.78,0,0,1-.78.78Z" transform="translate(0.05 19.3)"/><path id="Path_34078-2" data-name="Path 34078-2" class="cls-6" d="M70,36.57a1.11,1.11,0,1,1,1.11-1.12h0A1.11,1.11,0,0,1,70,36.57Z" transform="translate(0.05 19.3)"/><path id="Path_34079-2" data-name="Path 34079-2" class="cls-6" d="M56.64,36.9a1.45,1.45,0,1,1,1.44-1.45h0a1.44,1.44,0,0,1-1.44,1.45Z" transform="translate(0.05 19.3)"/><path id="Path_34080-2" data-name="Path 34080-2" class="cls-6" d="M43.32,37.2a1.74,1.74,0,1,1,1.74-1.75h0a1.74,1.74,0,0,1-1.74,1.74Z" transform="translate(0.05 19.3)"/><path id="Path_34081-2" data-name="Path 34081-2" class="cls-6" d="M30,37.5a2,2,0,1,1,2-2h0a2,2,0,0,1-2,2Z" transform="translate(0.05 19.3)"/><path id="Path_34082-2" data-name="Path 34082-2" class="cls-6" d="M16.68,37.79a2.34,2.34,0,0,1,0-4.67A2.35,2.35,0,0,1,19,35.45h0A2.33,2.33,0,0,1,16.68,37.79Z" transform="translate(0.05 19.3)"/><path id="Path_34083-2" data-name="Path 34083-2" class="cls-6" d="M3.36,38.05A2.59,2.59,0,1,1,6,35.45H6A2.59,2.59,0,0,1,3.36,38.05Z" transform="translate(0.05 19.3)"/><path id="Path_34084-2" data-name="Path 34084-2" class="cls-6" d="M109.92,49.08a.26.26,0,0,1-.26-.26.26.26,0,0,1,.26-.26.26.26,0,0,1,.26.26.25.25,0,0,1-.26.26Z" transform="translate(0.05 19.3)"/><path id="Path_34085-2" data-name="Path 34085-2" class="cls-6" d="M96.6,49.42a.6.6,0,0,1,0-1.19.58.58,0,0,1,.59.59h0a.59.59,0,0,1-.59.6Z" transform="translate(0.05 19.3)"/><path id="Path_34086-2" data-name="Path 34086-2" class="cls-6" d="M83.28,49.79a1,1,0,1,1,1-1h0A1,1,0,0,1,83.28,49.79Z" transform="translate(0.05 19.3)"/><path id="Path_34087-2" data-name="Path 34087-2" class="cls-6" d="M70,50.12a1.3,1.3,0,1,1,1.29-1.31h0A1.3,1.3,0,0,1,70,50.12Z" transform="translate(0.05 19.3)"/><path id="Path_34088-2" data-name="Path 34088-2" class="cls-6" d="M56.64,50.45a1.63,1.63,0,0,1,0-3.26,1.64,1.64,0,0,1,1.64,1.63h0A1.63,1.63,0,0,1,56.64,50.45Z" transform="translate(0.05 19.3)"/><path id="Path_34089-2" data-name="Path 34089-2" class="cls-6" d="M43.32,50.79a2,2,0,1,1,2-2h0a2,2,0,0,1-2,2Z" transform="translate(0.05 19.3)"/><path id="Path_34090-2" data-name="Path 34090-2" class="cls-6" d="M30,51.12a2.3,2.3,0,1,1,2.29-2.31h0A2.29,2.29,0,0,1,30,51.12Z" transform="translate(0.05 19.3)"/><path id="Path_34091-2" data-name="Path 34091-2" class="cls-6" d="M16.68,51.42a2.6,2.6,0,1,1,2.59-2.6h0A2.61,2.61,0,0,1,16.68,51.42Z" transform="translate(0.05 19.3)"/><path id="Path_34092-2" data-name="Path 34092-2" class="cls-6" d="M3.36,51.71a2.89,2.89,0,1,1,2.88-2.9h0a2.88,2.88,0,0,1-2.88,2.89Z" transform="translate(0.05 19.3)"/><path id="Path_34093-2" data-name="Path 34093-2" class="cls-6" d="M109.92,62.6a.41.41,0,1,1,.41-.41h0a.41.41,0,0,1-.41.41Z" transform="translate(0.05 19.3)"/><path id="Path_34094-2" data-name="Path 34094-2" class="cls-6" d="M96.6,62.93a.74.74,0,1,1,.74-.74h0a.74.74,0,0,1-.74.74Z" transform="translate(0.05 19.3)"/><path id="Path_34095-2" data-name="Path 34095-2" class="cls-6" d="M83.28,63.3a1.11,1.11,0,1,1,1.11-1.12h0a1.11,1.11,0,0,1-1.11,1.11Z" transform="translate(0.05 19.3)"/><path id="Path_34096-2" data-name="Path 34096-2" class="cls-6" d="M70,63.67a1.49,1.49,0,1,1,1.48-1.49h0A1.48,1.48,0,0,1,70,63.67Z" transform="translate(0.05 19.3)"/><path id="Path_34097-2" data-name="Path 34097-2" class="cls-6" d="M56.64,64a1.81,1.81,0,0,1-1.82-1.81,1.82,1.82,0,1,1,3.63,0h0A1.81,1.81,0,0,1,56.64,64Z" transform="translate(0.05 19.3)"/><path id="Path_34098-2" data-name="Path 34098-2" class="cls-6" d="M43.32,64.37a2.19,2.19,0,1,1,2.18-2.19h0a2.18,2.18,0,0,1-2.18,2.18Z" transform="translate(0.05 19.3)"/><path id="Path_34099-2" data-name="Path 34099-2" class="cls-6" d="M30,64.71a2.52,2.52,0,1,1,2.51-2.53h0A2.51,2.51,0,0,1,30,64.71Z" transform="translate(0.05 19.3)"/><path id="Path_40912" data-name="Path 40912" class="cls-6" d="M14.7,64.18a2.81,2.81,0,1,1,4,0h0A2.82,2.82,0,0,1,14.7,64.18Z" transform="translate(0.05 19.3)"/><path id="Path_34100-2" data-name="Path 34100-2" class="cls-6" d="M3.36,65.34A3.15,3.15,0,1,1,6.5,62.18h0a3.15,3.15,0,0,1-3.14,3.15Z" transform="translate(0.05 19.3)"/><path id="Path_34101-2" data-name="Path 34101-2" class="cls-6" d="M109.92,76.07a.52.52,0,0,1,0-1,.52.52,0,0,1,.52.52h0A.52.52,0,0,1,109.92,76.07Z" transform="translate(0.05 19.3)"/><path id="Path_34102-2" data-name="Path 34102-2" class="cls-6" d="M96.6,76.44a.88.88,0,0,1-.89-.88.89.89,0,1,1,1.78,0h0a.89.89,0,0,1-.89.89Z" transform="translate(0.05 19.3)"/><path id="Path_34103-2" data-name="Path 34103-2" class="cls-6" d="M83.28,76.81a1.26,1.26,0,1,1,1.26-1.26h0A1.25,1.25,0,0,1,83.28,76.81Z" transform="translate(0.05 19.3)"/><path id="Path_34104-2" data-name="Path 34104-2" class="cls-6" d="M70,77.18a1.63,1.63,0,0,1,0-3.26,1.65,1.65,0,0,1,1.64,1.63h0A1.63,1.63,0,0,1,70,77.18Z" transform="translate(0.05 19.3)"/><path id="Path_34105-2" data-name="Path 34105-2" class="cls-6" d="M56.64,77.56a2,2,0,1,1,2-2h0A2,2,0,0,1,56.64,77.56Z" transform="translate(0.05 19.3)"/><path id="Path_34106-2" data-name="Path 34106-2" class="cls-6" d="M43.32,77.89a2.34,2.34,0,1,1,2.33-2.35h0a2.34,2.34,0,0,1-2.33,2.34Z" transform="translate(0.05 19.3)"/><path id="Path_34107-2" data-name="Path 34107-2" class="cls-6" d="M30,78.26a2.71,2.71,0,1,1,2.7-2.71h0A2.69,2.69,0,0,1,30,78.26Z" transform="translate(0.05 19.3)"/><path id="Path_34108-2" data-name="Path 34108-2" class="cls-6" d="M16.68,78.59a3,3,0,1,1,3-3h0a3,3,0,0,1-3,3Z" transform="translate(0.05 19.3)"/><path id="Path_34109-2" data-name="Path 34109-2" class="cls-6" d="M3.36,78.93a3.38,3.38,0,1,1,3.36-3.39h0A3.37,3.37,0,0,1,3.36,78.93Z" transform="translate(0.05 19.3)"/></g></g></g></g><g id="Mask_Group_89" data-name="Mask Group 89"><path class="cls-7" d="M249,49v1H0v-.24C20.74,44.9,69.42,41.5,126.16,41.5,180.06,41.5,226.69,44.57,249,49Z" transform="translate(0.05 19.3)"/><path class="cls-8" d="M225.38,0C204.62,3.92,167.2,6.5,124.5,6.5S44.38,3.92,23.62,0c.46,0,.92,0,1.38,0H224C224.46,0,224.92,0,225.38,0Z" transform="translate(0.05 19.3)"/></g></g><g class="cls-9"><g id="Mask_Group_120" data-name="Mask Group 120"><g id="Group_2150" data-name="Group 2150"><g id="Group_2148" data-name="Group 2148"><path id="Path_43047" data-name="Path 43047" class="cls-6" d="M75.14-16.36a.17.17,0,0,1-.17-.16.16.16,0,0,1,.16-.16.16.16,0,0,1,.16.16h0A.16.16,0,0,1,75.14-16.36Z" transform="translate(0.05 19.3)"/><path id="Path_43048" data-name="Path 43048" class="cls-6" d="M60.83-16.08a.44.44,0,0,1-.44-.44.44.44,0,0,1,.43-.44.45.45,0,0,1,.45.44h0a.44.44,0,0,1-.44.44Z" transform="translate(0.05 19.3)"/><path id="Path_43049" data-name="Path 43049" class="cls-6" d="M46.53-15.84a.67.67,0,0,1-.69-.67.67.67,0,0,1,.68-.68.67.67,0,0,1,.68.67h0A.67.67,0,0,1,46.53-15.84Z" transform="translate(0.05 19.3)"/><path id="Path_43050" data-name="Path 43050" class="cls-6" d="M32.22-15.56a1,1,0,0,1-1-1,1,1,0,0,1,.95-1,1,1,0,0,1,1,.95h0a1,1,0,0,1-1,1Z" transform="translate(0.05 19.3)"/><path id="Path_43051" data-name="Path 43051" class="cls-6" d="M17.91-15.32a1.19,1.19,0,0,1-1.2-1.19,1.19,1.19,0,0,1,1.18-1.21,1.19,1.19,0,0,1,1.21,1.19h0a1.19,1.19,0,0,1-1.18,1.2Z" transform="translate(0.05 19.3)"/><path id="Path_43052" data-name="Path 43052" class="cls-6" d="M3.61-15.12A1.4,1.4,0,0,1,2.2-16.51a1.39,1.39,0,0,1,1.39-1.41A1.4,1.4,0,0,1,5-16.53H5a1.4,1.4,0,0,1-1.39,1.4Z" transform="translate(0.05 19.3)"/><path id="Path_43053" data-name="Path 43053" class="cls-6" d="M89.44-2a.12.12,0,0,1-.12-.12.12.12,0,0,1,.12-.12.12.12,0,0,1,.12.12h0A.12.12,0,0,1,89.44-2Z" transform="translate(0.05 19.3)"/><path id="Path_43054" data-name="Path 43054" class="cls-6" d="M75.14-1.68a.45.45,0,0,1-.45-.44.44.44,0,0,1,.44-.44.44.44,0,0,1,.44.44h0a.44.44,0,0,1-.43.44Z" transform="translate(0.05 19.3)"/><path id="Path_43055" data-name="Path 43055" class="cls-6" d="M60.83-1.4a.71.71,0,0,1-.72-.71.71.71,0,0,1,.71-.73.71.71,0,0,1,.72.71h0A.7.7,0,0,1,60.83-1.4Z" transform="translate(0.05 19.3)"/><path id="Path_43056" data-name="Path 43056" class="cls-6" d="M46.52-1.12a1,1,0,0,1-1-1,1,1,0,0,1,1-1,1,1,0,0,1,1,1h0A1,1,0,0,1,46.52-1.12Z" transform="translate(0.05 19.3)"/><path id="Path_43057" data-name="Path 43057" class="cls-6" d="M32.22-.84a1.29,1.29,0,0,1-1.29-1.27A1.29,1.29,0,0,1,32.2-3.4a1.29,1.29,0,0,1,1.29,1.27h0A1.28,1.28,0,0,1,32.22-.84Z" transform="translate(0.05 19.3)"/><path id="Path_43058" data-name="Path 43058" class="cls-6" d="M17.92-.57a1.55,1.55,0,0,1-1.57-1.54,1.55,1.55,0,0,1,1.54-1.57,1.56,1.56,0,0,1,1.57,1.55h0A1.55,1.55,0,0,1,17.92-.57Z" transform="translate(0.05 19.3)"/><path id="Path_43059" data-name="Path 43059" class="cls-6" d="M3.61-.36A1.77,1.77,0,0,1,1.84-2.11,1.76,1.76,0,0,1,3.59-3.88,1.75,1.75,0,0,1,5.35-2.13h0A1.75,1.75,0,0,1,3.61-.36Z" transform="translate(0.05 19.3)"/><path id="Path_43060" data-name="Path 43060" class="cls-6" d="M103.75,12.36a.07.07,0,0,1-.08-.08.08.08,0,0,1,.08-.08.09.09,0,0,1,.08.08h0A.08.08,0,0,1,103.75,12.36Z" transform="translate(0.05 19.3)"/><path id="Path_43061" data-name="Path 43061" class="cls-6" d="M89.44,12.64a.36.36,0,1,1,0-.72.36.36,0,0,1,.36.36h0a.36.36,0,0,1-.36.36Z" transform="translate(0.05 19.3)"/><path id="Path_43062" data-name="Path 43062" class="cls-6" d="M75.14,13a.68.68,0,1,1,.67-.68h0A.68.68,0,0,1,75.14,13Z" transform="translate(0.05 19.3)"/><path id="Path_43063" data-name="Path 43063" class="cls-6" d="M60.83,13.28a1,1,0,1,1,0-2,1,1,0,0,1,1,1h0A1,1,0,0,1,60.83,13.28Z" transform="translate(0.05 19.3)"/><path id="Path_43064" data-name="Path 43064" class="cls-6" d="M46.52,13.6a1.32,1.32,0,1,1,1.31-1.33h0a1.3,1.3,0,0,1-1.3,1.32Z" transform="translate(0.05 19.3)"/><path id="Path_43065" data-name="Path 43065" class="cls-6" d="M32.22,13.88a1.6,1.6,0,1,1,1.59-1.61h0a1.6,1.6,0,0,1-1.59,1.6Z" transform="translate(0.05 19.3)"/><path id="Path_43066" data-name="Path 43066" class="cls-6" d="M17.91,14.16a1.88,1.88,0,1,1,1.87-1.89h0A1.88,1.88,0,0,1,17.91,14.16Z" transform="translate(0.05 19.3)"/><path id="Path_43067" data-name="Path 43067" class="cls-6" d="M3.61,14.39a2.12,2.12,0,1,1,2.1-2.13v0A2.11,2.11,0,0,1,3.61,14.39Z" transform="translate(0.05 19.3)"/><path id="Path_43068" data-name="Path 43068" class="cls-6" d="M103.74,26.92a.24.24,0,0,1-.24-.24.24.24,0,1,1,.48,0h0a.24.24,0,0,1-.24.24Z" transform="translate(0.05 19.3)"/><path id="Path_43069" data-name="Path 43069" class="cls-6" d="M89.44,27.28a.6.6,0,1,1,.59-.6h0A.6.6,0,0,1,89.44,27.28Z" transform="translate(0.05 19.3)"/><path id="Path_43070" data-name="Path 43070" class="cls-6" d="M75.13,27.64a1,1,0,0,1,0-1.92,1,1,0,0,1,1,1h0a1,1,0,0,1-1,1Z" transform="translate(0.05 19.3)"/><path id="Path_43071" data-name="Path 43071" class="cls-6" d="M60.83,28a1.28,1.28,0,1,1,1.27-1.29h0A1.27,1.27,0,0,1,60.83,28Z" transform="translate(0.05 19.3)"/><path id="Path_43072" data-name="Path 43072" class="cls-6" d="M46.52,28.28a1.6,1.6,0,1,1,1.59-1.61h0a1.59,1.59,0,0,1-1.58,1.6Z" transform="translate(0.05 19.3)"/><path id="Path_43073" data-name="Path 43073" class="cls-6" d="M32.22,28.6a1.92,1.92,0,1,1,1.9-1.94v0A1.92,1.92,0,0,1,32.22,28.6Z" transform="translate(0.05 19.3)"/><path id="Path_43074" data-name="Path 43074" class="cls-6" d="M17.92,28.88a2.2,2.2,0,1,1,2.18-2.22v0a2.2,2.2,0,0,1-2.18,2.2Z" transform="translate(0.05 19.3)"/><path id="Path_43075" data-name="Path 43075" class="cls-6" d="M3.61,29.16a2.48,2.48,0,1,1,2.46-2.49h0A2.48,2.48,0,0,1,3.61,29.16Z" transform="translate(0.05 19.3)"/><path id="Path_43076" data-name="Path 43076" class="cls-6" d="M118.05,41.2a.12.12,0,0,1-.12-.12.12.12,0,0,1,.24,0h0a.12.12,0,0,1-.12.12Z" transform="translate(0.05 19.3)"/><path id="Path_43077" data-name="Path 43077" class="cls-6" d="M103.75,41.56a.48.48,0,1,1,.47-.48h0a.47.47,0,0,1-.47.48Z" transform="translate(0.05 19.3)"/><path id="Path_43078" data-name="Path 43078" class="cls-6" d="M89.44,41.92a.84.84,0,1,1,.83-.84h0A.84.84,0,0,1,89.44,41.92Z" transform="translate(0.05 19.3)"/><path id="Path_43079" data-name="Path 43079" class="cls-6" d="M75.13,42.28a1.2,1.2,0,1,1,1.19-1.21h0a1.18,1.18,0,0,1-1.18,1.2Z" transform="translate(0.05 19.3)"/><path id="Path_43080" data-name="Path 43080" class="cls-6" d="M60.83,42.64a1.56,1.56,0,1,1,1.55-1.57h0A1.55,1.55,0,0,1,60.83,42.64Z" transform="translate(0.05 19.3)"/><path id="Path_43081" data-name="Path 43081" class="cls-6" d="M46.52,43a1.88,1.88,0,1,1,1.87-1.89h0A1.87,1.87,0,0,1,46.52,43Z" transform="translate(0.05 19.3)"/><path id="Path_43082" data-name="Path 43082" class="cls-6" d="M32.22,43.28a2.2,2.2,0,1,1,2.18-2.22v0a2.19,2.19,0,0,1-2.18,2.2Z" transform="translate(0.05 19.3)"/><path id="Path_43083" data-name="Path 43083" class="cls-6" d="M17.92,43.6a2.52,2.52,0,1,1,2.49-2.53h0a2.52,2.52,0,0,1-2.5,2.52Z" transform="translate(0.05 19.3)"/><path id="Path_43084" data-name="Path 43084" class="cls-6" d="M3.61,43.88a2.8,2.8,0,1,1,2.78-2.83v0a2.8,2.8,0,0,1-2.78,2.8Z" transform="translate(0.05 19.3)"/><path id="Path_43085" data-name="Path 43085" class="cls-6" d="M118.05,55.76a.27.27,0,0,1-.28-.27.28.28,0,1,1,.56,0h0a.28.28,0,0,1-.28.28Z" transform="translate(0.05 19.3)"/><path id="Path_43086" data-name="Path 43086" class="cls-6" d="M103.74,56.12a.64.64,0,0,1-.64-.63.64.64,0,1,1,1.28,0h0A.64.64,0,0,1,103.74,56.12Z" transform="translate(0.05 19.3)"/><path id="Path_43087" data-name="Path 43087" class="cls-6" d="M89.44,56.52a1,1,0,0,1-1-1,1,1,0,1,1,2.07,0h0A1,1,0,0,1,89.44,56.52Z" transform="translate(0.05 19.3)"/><path id="Path_43088" data-name="Path 43088" class="cls-6" d="M75.14,56.88a1.4,1.4,0,1,1,1.38-1.41h0a1.38,1.38,0,0,1-1.38,1.4Z" transform="translate(0.05 19.3)"/><path id="Path_43089" data-name="Path 43089" class="cls-6" d="M60.83,57.24a1.76,1.76,0,1,1,1.74-1.77v0A1.76,1.76,0,0,1,60.83,57.24Z" transform="translate(0.05 19.3)"/><path id="Path_43090" data-name="Path 43090" class="cls-6" d="M46.52,57.6a2.12,2.12,0,1,1,2.1-2.13h0A2.11,2.11,0,0,1,46.52,57.6Z" transform="translate(0.05 19.3)"/><path id="Path_43091" data-name="Path 43091" class="cls-6" d="M32.22,58a2.48,2.48,0,1,1,2.46-2.49h0A2.48,2.48,0,0,1,32.22,58Z" transform="translate(0.05 19.3)"/><path id="Path_43092" data-name="Path 43092" class="cls-6" d="M17.91,58.28a2.8,2.8,0,1,1,2.78-2.82v0a2.78,2.78,0,0,1-2.77,2.8Z" transform="translate(0.05 19.3)"/><path id="Path_43093" data-name="Path 43093" class="cls-6" d="M3.61,58.6A3.12,3.12,0,1,1,6.7,55.46v0A3.1,3.1,0,0,1,3.62,58.6Z" transform="translate(0.05 19.3)"/><path id="Path_43094" data-name="Path 43094" class="cls-6" d="M118.05,70.32a.44.44,0,0,1-.44-.43.44.44,0,1,1,.88,0h0A.44.44,0,0,1,118.05,70.32Z" transform="translate(0.05 19.3)"/><path id="Path_43095" data-name="Path 43095" class="cls-6" d="M103.75,70.68a.79.79,0,0,1-.81-.79.8.8,0,0,1,.79-.81.81.81,0,0,1,.81.8h0A.8.8,0,0,1,103.75,70.68Z" transform="translate(0.05 19.3)"/><path id="Path_43096" data-name="Path 43096" class="cls-6" d="M89.44,71.08a1.2,1.2,0,1,1,1.19-1.21h0a1.19,1.19,0,0,1-1.19,1.2Z" transform="translate(0.05 19.3)"/><path id="Path_43097" data-name="Path 43097" class="cls-6" d="M75.13,71.48a1.6,1.6,0,1,1,1.59-1.61h0a1.58,1.58,0,0,1-1.58,1.6Z" transform="translate(0.05 19.3)"/><path id="Path_43098" data-name="Path 43098" class="cls-6" d="M60.83,71.84a2,2,0,1,1,1.94-2h0A1.94,1.94,0,0,1,60.83,71.84Z" transform="translate(0.05 19.3)"/><path id="Path_43099" data-name="Path 43099" class="cls-6" d="M46.52,72.24a2.36,2.36,0,1,1,2.34-2.37h0a2.34,2.34,0,0,1-2.33,2.36Z" transform="translate(0.05 19.3)"/><path id="Path_43100" data-name="Path 43100" class="cls-6" d="M32.22,72.6a2.72,2.72,0,1,1,2.7-2.73h0a2.71,2.71,0,0,1-2.7,2.72Z" transform="translate(0.05 19.3)"/><path id="Path_43101" data-name="Path 43101" class="cls-6" d="M15.78,72a3,3,0,0,1,0-4.29,3,3,0,0,1,4.24,0l0,0a3.06,3.06,0,0,1,0,4.29,3,3,0,0,1-4.25,0Z" transform="translate(0.05 19.3)"/><path id="Path_43102" data-name="Path 43102" class="cls-6" d="M3.61,73.28A3.4,3.4,0,1,1,7,69.86v0a3.38,3.38,0,0,1-3.37,3.4Z" transform="translate(0.05 19.3)"/><path id="Path_43103" data-name="Path 43103" class="cls-6" d="M118.05,84.84a.56.56,0,1,1,.55-.56h0a.56.56,0,0,1-.56.56Z" transform="translate(0.05 19.3)"/><path id="Path_43104" data-name="Path 43104" class="cls-6" d="M103.75,85.25a1,1,0,0,1-1-1,1,1,0,0,1,1-1,1,1,0,0,1,1,1h0a1,1,0,0,1-1,1Z" transform="translate(0.05 19.3)"/><path id="Path_43105" data-name="Path 43105" class="cls-6" d="M89.44,85.64a1.36,1.36,0,1,1,1.35-1.37h0A1.35,1.35,0,0,1,89.44,85.64Z" transform="translate(0.05 19.3)"/><path id="Path_43106" data-name="Path 43106" class="cls-6" d="M75.14,86a1.76,1.76,0,1,1,1.74-1.77v0A1.75,1.75,0,0,1,75.14,86Z" transform="translate(0.05 19.3)"/><path id="Path_43107" data-name="Path 43107" class="cls-6" d="M60.83,86.44A2.16,2.16,0,1,1,63,84.27h0A2.14,2.14,0,0,1,60.83,86.44Z" transform="translate(0.05 19.3)"/><path id="Path_43108" data-name="Path 43108" class="cls-6" d="M46.52,86.8A2.52,2.52,0,1,1,49,84.27h0a2.5,2.5,0,0,1-2.49,2.52Z" transform="translate(0.05 19.3)"/><path id="Path_43109" data-name="Path 43109" class="cls-6" d="M32.22,87.2a2.92,2.92,0,1,1,2.9-2.93h0a2.91,2.91,0,0,1-2.9,2.92Z" transform="translate(0.05 19.3)"/><path id="Path_43110" data-name="Path 43110" class="cls-6" d="M17.91,87.56a3.28,3.28,0,1,1,3.26-3.3v0a3.27,3.27,0,0,1-3.25,3.28Z" transform="translate(0.05 19.3)"/><path id="Path_43111" data-name="Path 43111" class="cls-6" d="M3.61,87.92a3.64,3.64,0,1,1,3.61-3.66v0A3.62,3.62,0,0,1,3.61,87.92Z" transform="translate(0.05 19.3)"/></g><g id="Group_2149" data-name="Group 2149"><path id="Path_43112" data-name="Path 43112" class="cls-6" d="M173.38-16.36a.16.16,0,0,0,.16-.16.15.15,0,0,0-.15-.16.17.17,0,0,0-.17.16h0A.16.16,0,0,0,173.38-16.36Z" transform="translate(0.05 19.3)"/><path id="Path_43113" data-name="Path 43113" class="cls-6" d="M187.69-16.08a.44.44,0,0,0,.44-.44.44.44,0,0,0-.44-.44.44.44,0,0,0-.44.44h0a.44.44,0,0,0,.44.44Z" transform="translate(0.05 19.3)"/><path id="Path_43114" data-name="Path 43114" class="cls-6" d="M202-15.84a.68.68,0,0,0,.69-.67.67.67,0,0,0-.68-.68.67.67,0,0,0-.68.67h0a.67.67,0,0,0,.67.68Z" transform="translate(0.05 19.3)"/><path id="Path_43115" data-name="Path 43115" class="cls-6" d="M216.3-15.56a1,1,0,0,0,1-1,1,1,0,0,0-.95-1,1,1,0,0,0-1,.95h0a1,1,0,0,0,1,1Z" transform="translate(0.05 19.3)"/><path id="Path_43116" data-name="Path 43116" class="cls-6" d="M230.6-15.32a1.2,1.2,0,0,0,1.21-1.19,1.2,1.2,0,0,0-1.19-1.21,1.2,1.2,0,0,0-1.21,1.19h0a1.2,1.2,0,0,0,1.19,1.2Z" transform="translate(0.05 19.3)"/><path id="Path_43117" data-name="Path 43117" class="cls-6" d="M244.91-15.12a1.41,1.41,0,0,0,1.41-1.39,1.39,1.39,0,0,0-1.39-1.41,1.4,1.4,0,0,0-1.41,1.39h0a1.4,1.4,0,0,0,1.38,1.4Z" transform="translate(0.05 19.3)"/><path id="Path_43118" data-name="Path 43118" class="cls-6" d="M159.08-2a.12.12,0,0,0,.12-.12.12.12,0,0,0-.12-.12.12.12,0,0,0-.12.12h0A.12.12,0,0,0,159.08-2Z" transform="translate(0.05 19.3)"/><path id="Path_43119" data-name="Path 43119" class="cls-6" d="M173.38-1.68a.44.44,0,0,0,.44-.44.43.43,0,0,0-.43-.44.44.44,0,0,0-.44.44h0a.43.43,0,0,0,.43.44Z" transform="translate(0.05 19.3)"/><path id="Path_43120" data-name="Path 43120" class="cls-6" d="M187.69-1.4a.71.71,0,0,0,.72-.71.72.72,0,0,0-.71-.73.73.73,0,0,0-.73.71h0A.72.72,0,0,0,187.69-1.4Z" transform="translate(0.05 19.3)"/><path id="Path_43121" data-name="Path 43121" class="cls-6" d="M202-1.12a1,1,0,0,0,1-1,1,1,0,0,0-1-1,1,1,0,0,0-1,1h0A1,1,0,0,0,202-1.12Z" transform="translate(0.05 19.3)"/><path id="Path_43122" data-name="Path 43122" class="cls-6" d="M216.3-.84a1.28,1.28,0,0,0,1.28-1.27,1.28,1.28,0,0,0-1.27-1.29A1.28,1.28,0,0,0,215-2.13h0A1.27,1.27,0,0,0,216.3-.84Z" transform="translate(0.05 19.3)"/><path id="Path_43123" data-name="Path 43123" class="cls-6" d="M230.6-.57a1.55,1.55,0,0,0,1.57-1.54,1.56,1.56,0,0,0-1.55-1.57,1.55,1.55,0,0,0-1.56,1.55h0A1.54,1.54,0,0,0,230.6-.57Z" transform="translate(0.05 19.3)"/><path id="Path_43124" data-name="Path 43124" class="cls-6" d="M244.91-.36a1.77,1.77,0,0,0,1.77-1.75,1.77,1.77,0,0,0-1.75-1.77,1.77,1.77,0,0,0-1.77,1.75h0a1.76,1.76,0,0,0,1.75,1.76Z" transform="translate(0.05 19.3)"/><path id="Path_43125" data-name="Path 43125" class="cls-6" d="M144.77,12.36a.07.07,0,0,0,.08-.08.08.08,0,0,0-.08-.08.09.09,0,0,0-.08.08h0A.08.08,0,0,0,144.77,12.36Z" transform="translate(0.05 19.3)"/><path id="Path_43126" data-name="Path 43126" class="cls-6" d="M159.08,12.64a.36.36,0,1,0-.36-.36h0a.36.36,0,0,0,.36.36Z" transform="translate(0.05 19.3)"/><path id="Path_43127" data-name="Path 43127" class="cls-6" d="M173.38,13a.68.68,0,1,0-.67-.68h0A.68.68,0,0,0,173.38,13Z" transform="translate(0.05 19.3)"/><path id="Path_43128" data-name="Path 43128" class="cls-6" d="M187.69,13.28a1,1,0,1,0,0-2,1,1,0,0,0-1,1h0A1,1,0,0,0,187.69,13.28Z" transform="translate(0.05 19.3)"/><path id="Path_43129" data-name="Path 43129" class="cls-6" d="M202,13.6a1.32,1.32,0,1,0-1.31-1.33h0A1.32,1.32,0,0,0,202,13.6Z" transform="translate(0.05 19.3)"/><path id="Path_43130" data-name="Path 43130" class="cls-6" d="M216.3,13.88a1.6,1.6,0,1,0-1.59-1.61h0a1.6,1.6,0,0,0,1.58,1.6Z" transform="translate(0.05 19.3)"/><path id="Path_43131" data-name="Path 43131" class="cls-6" d="M230.6,14.16a1.88,1.88,0,1,0-1.86-1.89h0A1.87,1.87,0,0,0,230.6,14.16Z" transform="translate(0.05 19.3)"/><path id="Path_43132" data-name="Path 43132" class="cls-6" d="M244.9,14.39a2.12,2.12,0,1,0-2.09-2.13v0A2.11,2.11,0,0,0,244.9,14.39Z" transform="translate(0.05 19.3)"/><path id="Path_43133" data-name="Path 43133" class="cls-6" d="M144.77,26.92a.23.23,0,0,0,.24-.24.23.23,0,0,0-.23-.24.25.25,0,0,0-.25.24h0a.24.24,0,0,0,.24.24Z" transform="translate(0.05 19.3)"/><path id="Path_43134" data-name="Path 43134" class="cls-6" d="M159.08,27.28a.6.6,0,0,0,0-1.2.61.61,0,0,0-.61.6h0A.6.6,0,0,0,159.08,27.28Z" transform="translate(0.05 19.3)"/><path id="Path_43135" data-name="Path 43135" class="cls-6" d="M173.38,27.64a1,1,0,1,0-.95-1h0a1,1,0,0,0,.95,1Z" transform="translate(0.05 19.3)"/><path id="Path_43136" data-name="Path 43136" class="cls-6" d="M187.69,28a1.28,1.28,0,1,0-1.27-1.29h0A1.27,1.27,0,0,0,187.69,28Z" transform="translate(0.05 19.3)"/><path id="Path_43137" data-name="Path 43137" class="cls-6" d="M202,28.28a1.6,1.6,0,1,0-1.58-1.61h0a1.59,1.59,0,0,0,1.58,1.6Z" transform="translate(0.05 19.3)"/><path id="Path_43138" data-name="Path 43138" class="cls-6" d="M216.3,28.6a1.92,1.92,0,1,0-1.9-1.94v0A1.91,1.91,0,0,0,216.3,28.6Z" transform="translate(0.05 19.3)"/><path id="Path_43139" data-name="Path 43139" class="cls-6" d="M230.6,28.88a2.2,2.2,0,1,0-2.18-2.22v0a2.19,2.19,0,0,0,2.18,2.2Z" transform="translate(0.05 19.3)"/><path id="Path_43140" data-name="Path 43140" class="cls-6" d="M244.91,29.16a2.48,2.48,0,1,0-2.46-2.49h0A2.47,2.47,0,0,0,244.91,29.16Z" transform="translate(0.05 19.3)"/><path id="Path_43141" data-name="Path 43141" class="cls-6" d="M130.47,41.2a.12.12,0,1,0,0-.24.12.12,0,0,0-.12.12h0a.12.12,0,0,0,.12.12Z" transform="translate(0.05 19.3)"/><path id="Path_43142" data-name="Path 43142" class="cls-6" d="M144.77,41.56a.48.48,0,1,0-.47-.48h0a.47.47,0,0,0,.47.48Z" transform="translate(0.05 19.3)"/><path id="Path_43143" data-name="Path 43143" class="cls-6" d="M159.07,41.92a.84.84,0,1,0-.83-.84h0A.84.84,0,0,0,159.07,41.92Z" transform="translate(0.05 19.3)"/><path id="Path_43144" data-name="Path 43144" class="cls-6" d="M173.38,42.28a1.2,1.2,0,1,0-1.19-1.21h0a1.19,1.19,0,0,0,1.19,1.2Z" transform="translate(0.05 19.3)"/><path id="Path_43145" data-name="Path 43145" class="cls-6" d="M187.69,42.64a1.56,1.56,0,1,0-1.55-1.57h0A1.55,1.55,0,0,0,187.69,42.64Z" transform="translate(0.05 19.3)"/><path id="Path_43146" data-name="Path 43146" class="cls-6" d="M202,43a1.88,1.88,0,1,0-1.86-1.89h0A1.86,1.86,0,0,0,202,43Z" transform="translate(0.05 19.3)"/><path id="Path_43147" data-name="Path 43147" class="cls-6" d="M216.3,43.28a2.2,2.2,0,1,0-2.18-2.22v0a2.19,2.19,0,0,0,2.17,2.2Z" transform="translate(0.05 19.3)"/><path id="Path_43148" data-name="Path 43148" class="cls-6" d="M230.6,43.6a2.52,2.52,0,1,0-2.5-2.53h0a2.52,2.52,0,0,0,2.5,2.52Z" transform="translate(0.05 19.3)"/><path id="Path_43149" data-name="Path 43149" class="cls-6" d="M244.91,43.88a2.8,2.8,0,1,0-2.78-2.83v0a2.79,2.79,0,0,0,2.77,2.8Z" transform="translate(0.05 19.3)"/><path id="Path_43150" data-name="Path 43150" class="cls-6" d="M130.47,55.76a.27.27,0,0,0,.28-.27.28.28,0,1,0-.56,0h0a.27.27,0,0,0,.28.28Z" transform="translate(0.05 19.3)"/><path id="Path_43151" data-name="Path 43151" class="cls-6" d="M144.77,56.12a.64.64,0,0,0,.65-.63.65.65,0,0,0-.64-.65.64.64,0,0,0-.64.64h0A.64.64,0,0,0,144.77,56.12Z" transform="translate(0.05 19.3)"/><path id="Path_43152" data-name="Path 43152" class="cls-6" d="M159.08,56.52a1,1,0,0,0,0-2.07,1,1,0,0,0-1,1h0A1,1,0,0,0,159.08,56.52Z" transform="translate(0.05 19.3)"/><path id="Path_43153" data-name="Path 43153" class="cls-6" d="M173.38,56.88a1.4,1.4,0,0,0,0-2.8A1.41,1.41,0,0,0,172,55.47h0a1.4,1.4,0,0,0,1.39,1.4Z" transform="translate(0.05 19.3)"/><path id="Path_43154" data-name="Path 43154" class="cls-6" d="M187.69,57.24a1.76,1.76,0,1,0-1.75-1.77h0a1.75,1.75,0,0,0,1.75,1.76Z" transform="translate(0.05 19.3)"/><path id="Path_43155" data-name="Path 43155" class="cls-6" d="M202,57.6a2.12,2.12,0,1,0-2.1-2.13h0A2.11,2.11,0,0,0,202,57.6Z" transform="translate(0.05 19.3)"/><path id="Path_43156" data-name="Path 43156" class="cls-6" d="M216.3,58a2.48,2.48,0,1,0-2.46-2.49h0A2.47,2.47,0,0,0,216.3,58Z" transform="translate(0.05 19.3)"/><path id="Path_43157" data-name="Path 43157" class="cls-6" d="M230.6,58.28a2.8,2.8,0,1,0-2.77-2.82v0a2.78,2.78,0,0,0,2.77,2.8Z" transform="translate(0.05 19.3)"/><path id="Path_43158" data-name="Path 43158" class="cls-6" d="M244.91,58.6a3.12,3.12,0,1,0-3.1-3.14v0a3.1,3.1,0,0,0,3.09,3.12Z" transform="translate(0.05 19.3)"/><path id="Path_43159" data-name="Path 43159" class="cls-6" d="M130.47,70.32a.44.44,0,0,0,.44-.43.44.44,0,1,0-.88,0h0A.44.44,0,0,0,130.47,70.32Z" transform="translate(0.05 19.3)"/><path id="Path_43160" data-name="Path 43160" class="cls-6" d="M144.77,70.68a.8.8,0,0,0,.81-.79.81.81,0,0,0-.79-.81.8.8,0,0,0-.81.8h0A.79.79,0,0,0,144.77,70.68Z" transform="translate(0.05 19.3)"/><path id="Path_43161" data-name="Path 43161" class="cls-6" d="M159.08,71.08a1.2,1.2,0,1,0-1.19-1.21h0a1.19,1.19,0,0,0,1.19,1.2Z" transform="translate(0.05 19.3)"/><path id="Path_43162" data-name="Path 43162" class="cls-6" d="M173.38,71.48a1.6,1.6,0,1,0-1.58-1.61h0a1.58,1.58,0,0,0,1.58,1.6Z" transform="translate(0.05 19.3)"/><path id="Path_43163" data-name="Path 43163" class="cls-6" d="M187.69,71.84a2,2,0,1,0-1.95-2h0A2,2,0,0,0,187.69,71.84Z" transform="translate(0.05 19.3)"/><path id="Path_43164" data-name="Path 43164" class="cls-6" d="M202,72.24a2.36,2.36,0,1,0-2.34-2.37h0A2.35,2.35,0,0,0,202,72.24Z" transform="translate(0.05 19.3)"/><path id="Path_43165" data-name="Path 43165" class="cls-6" d="M216.3,72.6a2.72,2.72,0,1,0-2.7-2.73h0a2.7,2.7,0,0,0,2.69,2.72Z" transform="translate(0.05 19.3)"/><path id="Path_43166" data-name="Path 43166" class="cls-6" d="M228.47,67.74a3,3,0,0,1,4.24,0l0,0a3,3,0,0,1,0,4.29,3,3,0,0,1-4.24,0l0,0A3,3,0,0,1,228.47,67.74Z" transform="translate(0.05 19.3)"/><path id="Path_43167" data-name="Path 43167" class="cls-6" d="M244.91,73.28a3.4,3.4,0,1,0-3.37-3.42v0a3.38,3.38,0,0,0,3.37,3.4Z" transform="translate(0.05 19.3)"/><path id="Path_43168" data-name="Path 43168" class="cls-6" d="M130.47,84.84a.54.54,0,0,0,.56-.55.56.56,0,0,0-.56-.56.55.55,0,0,0-.56.55h0a.56.56,0,0,0,.56.56Z" transform="translate(0.05 19.3)"/><path id="Path_43169" data-name="Path 43169" class="cls-6" d="M144.77,85.25a1,1,0,0,0,1-1,1,1,0,0,0-1.92,0h0a1,1,0,0,0,1,1Z" transform="translate(0.05 19.3)"/><path id="Path_43170" data-name="Path 43170" class="cls-6" d="M159.08,85.64a1.36,1.36,0,1,0-1.35-1.37h0A1.35,1.35,0,0,0,159.08,85.64Z" transform="translate(0.05 19.3)"/><path id="Path_43171" data-name="Path 43171" class="cls-6" d="M173.38,86a1.76,1.76,0,1,0-1.74-1.77v0A1.74,1.74,0,0,0,173.38,86Z" transform="translate(0.05 19.3)"/><path id="Path_43172" data-name="Path 43172" class="cls-6" d="M187.69,86.44a2.16,2.16,0,1,0-2.14-2.17h0A2.16,2.16,0,0,0,187.69,86.44Z" transform="translate(0.05 19.3)"/><path id="Path_43173" data-name="Path 43173" class="cls-6" d="M202,86.8a2.52,2.52,0,1,0-2.5-2.53h0A2.52,2.52,0,0,0,202,86.8Z" transform="translate(0.05 19.3)"/><path id="Path_43174" data-name="Path 43174" class="cls-6" d="M216.3,87.2a2.92,2.92,0,1,0-2.9-2.93h0a2.9,2.9,0,0,0,2.89,2.92Z" transform="translate(0.05 19.3)"/><path id="Path_43175" data-name="Path 43175" class="cls-6" d="M230.6,87.56a3.28,3.28,0,1,0-3.25-3.3v0a3.26,3.26,0,0,0,3.25,3.28Z" transform="translate(0.05 19.3)"/><path id="Path_43176" data-name="Path 43176" class="cls-6" d="M244.91,87.92a3.64,3.64,0,1,0-3.61-3.66v0A3.62,3.62,0,0,0,244.91,87.92Z" transform="translate(0.05 19.3)"/></g></g></g></g></g></svg>