<svg id="Layer_1" data-name="Layer 1" xmlns="http://www.w3.org/2000/svg" xmlns:xlink="http://www.w3.org/1999/xlink" viewBox="0 0 134.5 108.6"><defs><style>.cls-1{fill:none;}.cls-2{clip-path:url(#clip-path);}.cls-3{fill:url(#linear-gradient);}.cls-4{fill:url(#linear-gradient-2);}.cls-5{fill:url(#linear-gradient-3);}</style><clipPath id="clip-path" transform="translate(8.7 32.2)"><path class="cls-1" d="M25,0H95a25,25,0,0,1,25,25h0A25,25,0,0,1,95,50H25A25,25,0,0,1,0,25H0A25,25,0,0,1,25,0Z"/></clipPath><linearGradient id="linear-gradient" x1="-891.01" y1="56.88" x2="-891.01" y2="55.88" gradientTransform="matrix(120, 0, 0, -50, 106981, 2844)" gradientUnits="userSpaceOnUse"><stop offset="0" stop-color="#d6d6d6"/><stop offset="1" stop-color="#f9f9f9"/></linearGradient><linearGradient id="linear-gradient-2" x1="-889.01" y1="57.49" x2="-888.98" y2="57.94" gradientTransform="matrix(94.14, 6.58, 3.13, -44.74, 83584.71, 8427.93)" gradientUnits="userSpaceOnUse"><stop offset="0" stop-color="#c8c8c8"/><stop offset="1" stop-color="#f9f9f9"/></linearGradient><linearGradient id="linear-gradient-3" x1="-908.04" y1="56.36" x2="-908.02" y2="56.81" gradientTransform="matrix(-94.37, 0, 0, 44.84, -85648.03, -2485.83)" xlink:href="#linear-gradient-2"/></defs><title>gray-btn</title><g id="gray-btn"><g class="cls-2"><g id="Mask_Group_1" data-name="Mask Group 1"><path id="Rectangle_4" data-name="Rectangle 4" class="cls-3" d="M25,0H95a25,25,0,0,1,25,25h0A25,25,0,0,1,95,50H25A25,25,0,0,1,0,25H0A25,25,0,0,1,25,0Z" transform="translate(8.7 32.2)"/><path id="Path_32040" data-name="Path 32040" class="cls-4" d="M74.7-29.3c25.5,6.3,48.2,21,50.9,32.7s-15.9,16.1-41.4,9.7S36-7.9,33.4-19.6,49.3-35.7,74.7-29.3Z" transform="translate(8.7 32.2)"/><path id="Path_43011" data-name="Path 43011" class="cls-5" d="M44.7,74.7c-25.8-4.5-49.5-17.5-53-29S6.4,28.5,32.2,33.1s49.6,17.5,53,29S70.5,79.3,44.7,74.7Z" transform="translate(8.7 32.2)"/></g></g></g></svg>