<svg id="Layer_1" data-name="Layer 1" xmlns="http://www.w3.org/2000/svg" viewBox="0 0 49.02 49"><defs><style>.cls-1{fill:#fff;}</style></defs><title>phone</title><path class="cls-1" d="M35.22,34A5.11,5.11,0,0,0,28,34l-.79.79A95.8,95.8,0,0,1,15.38,23l.79-.78a5.12,5.12,0,0,0,0-7.23h0l-4.34-4.33a5.09,5.09,0,0,0-7.22,0L2.23,13a7.18,7.18,0,0,0-.9,9A95.88,95.88,0,0,0,28.18,48.84a7.24,7.24,0,0,0,9-.9l2.38-2.38a5.11,5.11,0,0,0,0-7.22Z" transform="translate(-0.15 -1)"/><path class="cls-1" d="M23.64,1a2,2,0,0,0,0,4.09A21.47,21.47,0,0,1,45.09,26.54a2,2,0,0,0,4.09,0A25.57,25.57,0,0,0,23.64,1Z" transform="translate(-0.15 -1)"/><path class="cls-1" d="M23.64,13.26A13.3,13.3,0,0,1,36.92,26.54a2,2,0,0,0,4.09,0A17.39,17.39,0,0,0,23.64,9.17a2,2,0,0,0,0,4.09Z" transform="translate(-0.15 -1)"/><path class="cls-1" d="M23.64,21.43a5.11,5.11,0,0,1,5.11,5.11,2,2,0,0,0,4.08,0,9.21,9.21,0,0,0-9.19-9.2,2,2,0,0,0,0,4.09Z" transform="translate(-0.15 -1)"/></svg>