<svg xmlns="http://www.w3.org/2000/svg" width="45.15" height="45.15" viewBox="0 0 45.15 45.15">
  <g id="close-icon" transform="translate(-15 -15)">
    <path id="Path_43295" data-name="Path 43295" d="M37.575,15a22.557,22.557,0,1,0,15.969,6.607A22.575,22.575,0,0,0,37.575,15Zm0,39.839a17.229,17.229,0,1,1,12.217-5.046A17.263,17.263,0,0,1,37.575,54.839Z" transform="translate(0 0)" fill="#fff"/>
    <path id="Path_43296" data-name="Path 43296" d="M84.876,71.8a2.568,2.568,0,0,0-3.718,0l-3.851,3.851-3.718-3.718a2.629,2.629,0,1,0-3.718,3.718l3.718,3.718L69.87,83.085A2.629,2.629,0,1,0,73.589,86.8l3.718-3.718L81.025,86.8a2.629,2.629,0,1,0,3.718-3.718l-3.718-3.718,3.718-3.718A2.86,2.86,0,0,0,84.876,71.8Z" transform="translate(-39.732 -41.128)" fill="#fff"/>
  </g>
</svg>
