<svg id="Layer_1" data-name="Layer 1" xmlns="http://www.w3.org/2000/svg" viewBox="0 0 47.48 31.83"><defs><style>.cls-1{fill:#fff;}.cls-2{fill:#fdfdfd;}</style></defs><title>performance-white</title><path class="cls-1" d="M1.25,33.71l0-3.75a23.84,23.84,0,0,1,22-21.73H27a24.72,24.72,0,0,1,9.69,3c.72.39,1.06.66.18,1.32q-3.8,2.88-7.49,5.89a1.42,1.42,0,0,1-1.78.08A17.65,17.65,0,0,0,2.92,30.42a17.32,17.32,0,0,0,0,8.16c.11.48.47,1,.13,1.48-1.17-.81-1-2.17-1.35-3.31A22,22,0,0,1,1.25,33.71Z" transform="translate(-1.25 -8.23)"/><path class="cls-1" d="M48.72,30c0,1.25,0,2.5,0,3.75a28.08,28.08,0,0,1-.56,3.64c-.13.68-.46.75-1,.61l-8.63-2.29a.88.88,0,0,1-.77-1,15,15,0,0,0-.55-4.36,1.62,1.62,0,0,1,.37-1.55C39.91,25.85,42.2,23,44.43,20c.63-.83.85-.52,1.23.15A24,24,0,0,1,48.72,30Z" transform="translate(-1.25 -8.23)"/><path class="cls-2" d="M42.75,14.26a1.4,1.4,0,0,0-1.8-.39,10.34,10.34,0,0,0-1.42,1q-6.31,5-12.63,10a3.76,3.76,0,0,1-2.27.95,6.26,6.26,0,0,0-5.91,6.44A6.34,6.34,0,0,0,25,38.25a6.25,6.25,0,0,0,6.14-5.63A4.92,4.92,0,0,1,32.3,30q5-6.39,10-12.82A9.27,9.27,0,0,0,43,16,1.35,1.35,0,0,0,42.75,14.26ZM24.91,34.83a2.85,2.85,0,0,1,.08-5.7,2.85,2.85,0,1,1-.08,5.7Z" transform="translate(-1.25 -8.23)"/></svg>