<svg id="archive" xmlns="http://www.w3.org/2000/svg" width="20.752" height="14.822" viewBox="0 0 20.752 14.822">
  <path id="Path_43045" data-name="Path 43045" d="M133.929,105.805l5.929-5.359h-3.705V96h-4.465v4.447H128Z" transform="translate(-123.553 -96)" fill="#a7a7a7"/>
  <path id="Path_43046" data-name="Path 43046" d="M52.058,244.747,48.751,242.2H46.806l2.872,2.862H47.334a.3.3,0,0,0-.25.134l-.852,2.107H38.473l-.852-2.107a.282.282,0,0,0-.25-.134H35.032l2.881-2.862H35.958l-3.307,2.547A1.456,1.456,0,0,0,32,246.211l.4,3.1c.107.607.449.94,1.3.94H51.016c.885,0,1.195-.352,1.3-.94l.4-3.1A1.45,1.45,0,0,0,52.058,244.747Z" transform="translate(-31.983 -235.428)" fill="#a7a7a7"/>
</svg>
