<svg xmlns="http://www.w3.org/2000/svg" width="49.412" height="55.857" viewBox="0 0 49.412 55.857">
  <g id="online_support-orange" transform="translate(-4 -2)">
    <path id="Path_43177" data-name="Path 43177" d="M15,26v4.3A18.855,18.855,0,0,0,27.08,26Z" transform="translate(12.632 27.56)" fill="#e67225"/>
    <path id="Path_43178" data-name="Path 43178" d="M5,16v4.3c0,5.371,4.3,6.445,4.3,6.445s4.3,12.89,17.187,12.89" transform="translate(1.148 16.077)" fill="none" stroke="#e67225" stroke-linecap="round" stroke-miterlimit="10" stroke-width="2"/>
    <path id="Path_43179" data-name="Path 43179" d="M51.264,34.225H44.819c0-13.406-6.445-19.335-6.445-19.335-6.445,15.038-27.929,4.3-27.929,19.335H4V25.632C4,10.593,16.89,2,27.632,2c8.593,0,10.742,4.3,10.742,4.3,8.593,0,12.89,10.742,12.89,19.335Z" transform="translate(0 0)" fill="#e67225"/>
    <path id="Path_43180" data-name="Path 43180" d="M18.371,21H16.223a3.223,3.223,0,1,0,0,6.445h2.148a3.223,3.223,0,1,0,0-6.445Z" transform="translate(10.335 21.819)" fill="#e67225"/>
    <path id="Path_43181" data-name="Path 43181" d="M16,31.038H26.742a8.594,8.594,0,0,0,8.593-8.593V16" transform="translate(13.78 16.077)" fill="none" stroke="#e67225" stroke-linecap="round" stroke-miterlimit="10" stroke-width="2"/>
    <path id="Path_43182" data-name="Path 43182" d="M27.3,25.742H23V15h4.3a4.3,4.3,0,0,1,4.3,4.3v2.148A4.3,4.3,0,0,1,27.3,25.742Z" transform="translate(21.819 14.929)" fill="#e67225"/>
  </g>
</svg>
