<svg id="Layer_1" data-name="Layer 1" xmlns="http://www.w3.org/2000/svg" viewBox="0 0 50.17 49.75"><defs><style>.cls-1{fill:#fff;}</style></defs><title>vm-white</title><path class="cls-1" d="M50.17,20v1.79a10.32,10.32,0,0,1-2.28,5.81,10.53,10.53,0,0,1-3,2.51A1.11,1.11,0,0,1,43.41,30c-.8-.63-1.9-.46-2.87-.62a2.11,2.11,0,0,1-1.71-1.16,2,2,0,0,1,.22-2.62c.46-.51.83-1.11,1.25-1.67a.87.87,0,0,0-.09-1.31c-1.38-1.39-2.77-2.76-4.15-4.16a.8.8,0,0,0-1.21-.08c-.72.54-1.44,1.07-2.17,1.58a2.23,2.23,0,0,1-3.29-1.44c-.14-.81-.25-1.63-.36-2.46a.8.8,0,0,0-.91-.81H22.05a.8.8,0,0,0-.91.81c-.11.85-.23,1.71-.37,2.56A2.27,2.27,0,0,1,17.58,20c-.74-.49-1.46-1-2.17-1.58a.88.88,0,0,0-1.37.08c-1.31,1.36-2.66,2.69-4,4A1,1,0,0,0,9.92,24c.49.62,1,1.26,1.41,1.93a2.24,2.24,0,0,1-1.4,3.38c-.71.13-1.44.22-2.16.33-.29.05-.67,0-.85.23-.76.82-1.44.34-2.1-.1A9.78,9.78,0,0,1,.1,22.22c0-.16,0-.34-.1-.47v-2a10.47,10.47,0,0,1,10-9.39,1.4,1.4,0,0,0,1.45-1A13.91,13.91,0,0,1,20.87.62c.8-.24,1.63-.13,2.42-.37h.6c.45.22.93,0,1.39.1h.94c3.84-.08,6.61,2,9.1,4.58a12.52,12.52,0,0,1,2.47,4.16c.49,1.25.5,1.28,1.89,1.24a9.86,9.86,0,0,1,8.65,4.37A10.14,10.14,0,0,1,50.17,20Z" transform="translate(0 -0.25)"/><path class="cls-1" d="M25.15,24.63h0a8.93,8.93,0,0,0-8.93,8.87,9,9,0,0,0,8.9,9A9,9,0,0,0,34,33.61a8.95,8.95,0,0,0-8.84-9Z" transform="translate(0 -0.25)"/><path class="cls-1" d="M41.63,31.91c0-.46-.12-.63-.57-.69-1-.14-1.89-.36-2.84-.48a.64.64,0,0,1-.64-.57,12.19,12.19,0,0,0-1.39-3.26.77.77,0,0,1,.08-1c.57-.74,1.09-1.51,1.66-2.23.26-.33.24-.51-.06-.8-.8-.75-1.57-1.53-2.32-2.32-.27-.28-.45-.35-.79-.07-.66.55-1.41,1-2.07,1.55a1,1,0,0,1-1.37.11,6.57,6.57,0,0,0-2.53-1.06c-.81-.14-1.05-.53-1.14-1.31-.31-2.88-.34-2.87-3.2-2.87h-.2c-1.36,0-1.36,0-1.58,1.4-.08.46-.18.91-.22,1.37a1.39,1.39,0,0,1-1.24,1.46A6.39,6.39,0,0,0,19,22a1.36,1.36,0,0,1-1.89-.17c-.71-.58-1.54-1.53-2.25-1.47s-1.35,1.15-2,1.8c-1.07,1.05-1.06,1.06-.19,2.24l1.39,1.91c.06.26-.12.39-.22.55a7.59,7.59,0,0,0-1.12,2.62c-.19,1-.79,1.34-1.75,1.44-2.6.26-2.59.29-2.59,2.83V34c0,1.73,0,1.78,1.76,1.93,1.41.13,2.57.42,2.75,2.12a2.43,2.43,0,0,0,.48,1.17c.77.94.5,1.69-.22,2.5-.53.58-1.33,1.3-1.28,1.9s1,1.17,1.53,1.73c1.36,1.37,1.42,1.44,3,.15,1-.85,1.93-1.2,3.08-.31a2,2,0,0,0,1,.41c1.5.11,2,1,2,2.36a1.36,1.36,0,0,0,0,.2C22.74,50,22.74,50,24.62,50c2.54,0,2.56,0,2.85-2.57.11-.92.34-1.61,1.42-1.74a2.68,2.68,0,0,0,1.28-.49c1.3-1,2.31-.58,3.44.37,1.41,1.18,1.47,1.1,2.81-.23,1.73-1.74,1.79-1.78.26-3.67-.7-.86-.93-1.56-.22-2.46s.37-2.37,1.36-2.89a9.8,9.8,0,0,1,3.29-.6c.47,0,.52-.24.52-.62C41.61,34,41.59,33,41.63,31.91ZM25.09,43.66h0A10.17,10.17,0,0,1,15,33.49a10.13,10.13,0,0,1,10.13-10h0a10.12,10.12,0,0,1,10,10.19A10.18,10.18,0,0,1,25.09,43.66Z" transform="translate(0 -0.25)"/></svg>