<svg id="export-btn" xmlns="http://www.w3.org/2000/svg" xmlns:xlink="http://www.w3.org/1999/xlink" viewBox="0 0 134.51 108.57"><defs><style>.cls-1{fill:none;}.cls-2{clip-path:url(#clip-path);}.cls-3{fill:url(#linear-gradient);}.cls-4{fill:url(#linear-gradient-2);}.cls-5{fill:url(#linear-gradient-3);}</style><clipPath id="clip-path" transform="translate(8.7 32.25)"><path class="cls-1" d="M25,0H95a25,25,0,0,1,25,25h0A25,25,0,0,1,95,50H25A25,25,0,0,1,0,25H0A25,25,0,0,1,25,0Z"/></clipPath><linearGradient id="linear-gradient" x1="-335.68" y1="320.52" x2="-335.68" y2="319.52" gradientTransform="matrix(120, 0, 0, -50, 40341, 16026)" gradientUnits="userSpaceOnUse"><stop offset="0" stop-color="#d6d6d6"/><stop offset="1" stop-color="#f9f9f9"/></linearGradient><linearGradient id="linear-gradient-2" x1="-334.73" y1="319.66" x2="-334.7" y2="320.11" gradientTransform="matrix(94.14, 6.58, 3.13, -44.74, 30587.2, 16507.5)" gradientUnits="userSpaceOnUse"><stop offset="0" stop-color="#c8c8c8"/><stop offset="1" stop-color="#f9f9f9"/></linearGradient><linearGradient id="linear-gradient-3" x1="-342.11" y1="331.33" x2="-342.08" y2="331.79" gradientTransform="matrix(-94.37, 0, 0, 44.84, -32243.28, -14817.05)" xlink:href="#linear-gradient-2"/></defs><title>export-btn</title><g class="cls-2"><g id="Mask_Group_1" data-name="Mask Group 1"><path id="Rectangle_4" data-name="Rectangle 4" class="cls-3" d="M25,0H95a25,25,0,0,1,25,25h0A25,25,0,0,1,95,50H25A25,25,0,0,1,0,25H0A25,25,0,0,1,25,0Z" transform="translate(8.7 32.25)"/><path id="Path_32040" data-name="Path 32040" class="cls-4" d="M74.71-29.33c25.45,6.34,48.21,21,50.84,32.71s-15.86,16.09-41.3,9.74S36-7.87,33.4-19.59,49.26-35.68,74.71-29.33Z" transform="translate(8.7 32.25)"/><path id="Path_43011" data-name="Path 43011" class="cls-5" d="M44.72,74.74c-25.83-4.55-49.56-17.58-53-29.09S6.42,28.5,32.24,33.05s49.56,17.58,53,29.09S70.54,79.3,44.72,74.74Z" transform="translate(8.7 32.25)"/></g></g></svg>