<?xml version="1.0" encoding="utf-8"?>
<!-- Generator: Adobe Illustrator 24.0.0, SVG Export Plug-In . SVG Version: 6.00 Build 0)  -->
<svg version="1.1" id="Layer_1" xmlns="http://www.w3.org/2000/svg" xmlns:xlink="http://www.w3.org/1999/xlink" x="0px" y="0px"
	 viewBox="0 0 215 52" style="enable-background:new 0 0 215 52;" xml:space="preserve">
<style type="text/css">
	.st0{fill:url(#SVGID_1_);}
	.st1{fill:url(#SVGID_2_);}
	.st2{fill:url(#SVGID_3_);}
</style>
<g id="orange-big-hover-btn" transform="translate(4048 5054)">
	<linearGradient id="SVGID_1_" gradientUnits="userSpaceOnUse" x1="-3940" y1="-5002" x2="-3940" y2="-5054">
		<stop  offset="0" style="stop-color:#FFAB6E"/>
		<stop  offset="1" style="stop-color:#FFD8BC"/>
	</linearGradient>
	<path class="st0" d="M-3833-5028c0,7.2-2.9,13.7-7.6,18.4c-1.6,1.7-3.5,3.1-5.6,4.2h0c-3.8,2.2-8.2,3.4-12.8,3.4h-162
		c-4.8,0-9.3-1.3-13.2-3.6c-7.7-4.5-12.8-12.9-12.8-22.4c0-7.2,2.9-13.7,7.6-18.4c1.5-1.5,3.1-2.8,4.9-3.9c3.9-2.4,8.5-3.8,13.4-3.8
		h162c4.8,0,9.3,1.3,13.1,3.5C-3838.2-5045.9-3833-5037.6-3833-5028z"/>
	<g id="Mask_Group_89" transform="translate(-4048 -5054)">
		<linearGradient id="SVGID_2_" gradientUnits="userSpaceOnUse" x1="107.83" y1="13" x2="107.83" y2="0">
			<stop  offset="0" style="stop-color:#FFAB6E"/>
			<stop  offset="1" style="stop-color:#FFD8BC"/>
		</linearGradient>
		<path class="st1" d="M202.1,3.5c-18.2,5.6-53.7,9.5-94.6,9.5c-40.4,0-75.6-3.7-94-9.3C17.5,1.4,22.1,0,27,0h162
			C193.8,0,198.3,1.3,202.1,3.5z"/>
		<linearGradient id="SVGID_3_" gradientUnits="userSpaceOnUse" x1="107.825" y1="52" x2="107.825" y2="39">
			<stop  offset="0" style="stop-color:#FFAB6E"/>
			<stop  offset="1" style="stop-color:#FFD8BC"/>
		</linearGradient>
		<path class="st2" d="M201.8,48.6C198,50.8,193.7,52,189,52H27c-4.8,0-9.3-1.3-13.2-3.6c18.4-5.6,53.5-9.4,93.7-9.4
			C148.2,39,183.5,42.9,201.8,48.6z"/>
	</g>
</g>
</svg>
