<svg xmlns="http://www.w3.org/2000/svg" xmlns:xlink="http://www.w3.org/1999/xlink" width="68.012" height="78.011" viewBox="0 0 68.012 78.011">
  <defs>
    <radialGradient id="radial-gradient" cx="0.5" cy="0.425" r="0.715" gradientTransform="translate(0 -0.103) scale(1 1.242)" gradientUnits="objectBoundingBox">
      <stop offset="0" stop-color="#d34933"/>
      <stop offset="1" stop-color="#fff" stop-opacity="0.02"/>
    </radialGradient>
  </defs>
  <g id="click-icon" transform="translate(4708.988 6629.257)">
    <path id="Shape-8-copy" d="M78.118,108.1a2.452,2.452,0,0,0,1.875.978l.559,0a4.675,4.675,0,0,0,1.85.379h.155a30.309,30.309,0,0,0,9.1,53.2,13.166,13.166,0,0,0-2.1,3.156A34.022,34.022,0,0,1,78.118,108.1Zm15.62,48.493a23.969,23.969,0,1,1,21.011-3.657c-.465-.906-2.2-1.941-3.993-2.217a20.02,20.02,0,1,0-17.018,1.676v4.2Zm30.671-47.22a33.986,33.986,0,0,1,1.964,46.405,9.331,9.331,0,0,0-3.905-1.031,30.274,30.274,0,0,0-3.668-45.288h4.719A4.512,4.512,0,0,0,124.409,109.368ZM93.738,146.394a14.487,14.487,0,1,1,14.246-.32c0-1.372-.009-2.9-.023-4.423a10.767,10.767,0,1,0-14.224.3v4.446Z" transform="translate(-4775.562 -6737.352)" fill-rule="evenodd" fill="url(#radial-gradient)"/>
    <path id="Rounded-Rectangle-3-copy-2" d="M204.207,270.05h-18.4c-1.43,0-6.636-8.756-7.175-10.726a5.786,5.786,0,0,1-.8-1.659c-.808-2.516-.277-7.312-.277-7.312-.067-1.778,1.683-3.358,4-3.706V221.361a3.54,3.54,0,0,1,3.538-3.541h.885a3.54,3.54,0,0,1,3.538,3.541v16.054c.095.414.367,1.092,1.09.954a3.105,3.105,0,0,1,2.191-1.2l.221-.019a3.366,3.366,0,0,1,3.474,2.512,1.885,1.885,0,0,0,1.347.174,3.081,3.081,0,0,1,2-.972l.221-.019a3.329,3.329,0,0,1,3.387,2.275,1.772,1.772,0,0,0,1.058.285,2.981,2.981,0,0,1,1.56-.6l.221-.019a3.435,3.435,0,0,1,3.616,3.238l.291,3.326.028.037s-.175,7.326-1.415,11.331C208.159,260.813,205.73,269.083,204.207,270.05Z" transform="translate(-4860.34 -6821.296)" fill="#d34933" fill-rule="evenodd"/>
  </g>
</svg>
