<svg id="Layer_1" data-name="Layer 1" xmlns="http://www.w3.org/2000/svg" xmlns:xlink="http://www.w3.org/1999/xlink" viewBox="0 0 226.27 93"><defs><style>.cls-1{fill:none;}.cls-2{fill:url(#linear-gradient);}.cls-3{clip-path:url(#clip-path);}.cls-4{fill:url(#linear-gradient-2);}.cls-5{fill:url(#linear-gradient-3);}</style><linearGradient id="linear-gradient" x1="-285.22" y1="310.97" x2="-285.22" y2="309.97" gradientTransform="matrix(225, 0, 0, -35, 64288, 10884)" gradientUnits="userSpaceOnUse"><stop offset="0" stop-color="#d6d6d6"/><stop offset="0.5" stop-color="#fbfbfb"/><stop offset="1" stop-color="#d6d6d6"/></linearGradient><clipPath id="clip-path" transform="translate(0 28.5)"><path class="cls-1" d="M17.5.5h190A17.51,17.51,0,0,1,225,18h0a17.51,17.51,0,0,1-17.5,17.5H17.5A17.51,17.51,0,0,1,0,18H0A17.51,17.51,0,0,1,17.5.5Z"/></clipPath><linearGradient id="linear-gradient-2" x1="-285.23" y1="311.41" x2="-285.23" y2="311.12" gradientTransform="matrix(226.27, 0, 0, -37, 64653.06, 11578)" xlink:href="#linear-gradient"/><linearGradient id="linear-gradient-3" x1="-285.23" y1="310.41" x2="-285.23" y2="310.69" gradientTransform="matrix(226.27, 0, 0, -37, 64653.06, 11522)" xlink:href="#linear-gradient"/></defs><title>title-bg-white</title><g id="title-bg-white"><path id="Rectangle_16" data-name="Rectangle 16" class="cls-2" d="M17.5,0h190A17.51,17.51,0,0,1,225,17.5h0A17.51,17.51,0,0,1,207.5,35H17.5A17.51,17.51,0,0,1,0,17.5H0A17.51,17.51,0,0,1,17.5,0Z" transform="translate(0 28.5)"/><g class="cls-3"><g id="Mask_Group_124" data-name="Mask Group 124"><ellipse id="Ellipse_9884" data-name="Ellipse 9884" class="cls-4" cx="113.14" cy="74.5" rx="113.14" ry="18.5"/><ellipse id="Ellipse_9885" data-name="Ellipse 9885" class="cls-5" cx="113.14" cy="18.5" rx="113.14" ry="18.5"/></g></g></g></svg>