<?xml version="1.0" encoding="utf-8"?>
<!-- Generator: Adobe Illustrator 24.0.0, SVG Export Plug-In . SVG Version: 6.00 Build 0)  -->
<svg version="1.1" id="Layer_1" xmlns="http://www.w3.org/2000/svg" xmlns:xlink="http://www.w3.org/1999/xlink" x="0px" y="0px"
	 viewBox="0 0 50 50" style="enable-background:new 0 0 50 50;" xml:space="preserve">
<style type="text/css">
	.st0{fill:#438CE3;}
	.st1{fill:#2366B5;}
	.st2{fill:#BAB8B4;}
	.st3{fill:#D5D2CD;}
	.st4{fill:#A8A6A6;}
	.st5{fill:#B7B5B1;}
	.st6{fill:#D9D6D1;}
	.st7{fill:#FFA500;}
	.st8{opacity:0.36;}
	.st9{fill:#FFFFFF;}
</style>
<path class="st0" d="M35.7,9.1h-0.4c-2-3.6-5.7-6-10.1-6s-8.2,2.4-10.1,6h-0.4c-4.7,0-8.5,3.8-8.5,8.5c0,4.7,3.8,8.5,8.5,8.5h21
	c4.7,0,8.5-3.8,8.5-8.5C44.2,13,40.3,9.1,35.7,9.1z"/>
<g>
	<g>
		<path class="st1" d="M37.2,14.6h-1.5c0-2.8-0.9-4.6-0.9-4.7l1.3-0.7C36.1,9.4,37.2,11.5,37.2,14.6z"/>
	</g>
</g>
<g>
	<g>
		<path class="st1" d="M14.7,14.6h-1.5c0-3.1,1-5.2,1.1-5.3l1.3,0.7C15.6,10,14.7,11.9,14.7,14.6z"/>
	</g>
</g>
<g>
	<path class="st2" d="M3.2,40.1v2.1c0,0.5,0.8,0.9,1.7,0.9h10c1,0,1.7-0.4,1.7-0.9v-2.1H3.2z"/>
	<path class="st3" d="M3.2,40.3v-4.4c0-1,0.8-1.8,1.7-1.8h10c1,0,1.7,0.8,1.7,1.8v4.4H3.2z"/>
	<polygon class="st4" points="12.1,46.3 11.5,43.2 8.5,43.2 7.9,46.3 	"/>
	<rect x="5.5" y="46.3" class="st2" width="9.1" height="1.5"/>
</g>
<path class="st3" d="M21.4,44v-8.3c0-0.9,0.7-1.6,1.6-1.6h4.4c0.9,0,1.6,0.7,1.6,1.6V44H21.4z"/>
<path class="st5" d="M21.4,44v1.4c0,0.9,0.7,1.6,1.6,1.6h4.4c0.9,0,1.6-0.7,1.6-1.6V44H21.4z"/>
<path class="st4" d="M33.6,44v1.4c0,0.9,0.7,1.6,1.6,1.6h10.6c0.9,0,1.6-0.7,1.6-1.6V44H33.6z"/>
<polygon class="st5" points="47.3,44 33.6,44 34.3,41 46.4,41 "/>
<rect x="34.3" y="39.4" class="st4" width="12.1" height="1.5"/>
<path class="st6" d="M34.3,39.4v-3.8c0-0.8,0.7-1.5,1.5-1.5h9c0.8,0,1.5,0.7,1.5,1.5v3.8H34.3z"/>
<g>
	<g>
		<path class="st7" d="M40.9,34.1h-1v-2c0-0.3-0.1-0.4-0.1-0.4c-0.2-0.2-0.5-0.2-0.6-0.2l-8.9,0c-0.5,0-0.9-0.2-1.2-0.5
			c-0.5-0.5-0.5-1.3-0.5-1.4v-3.6h1v3.6c0,0.2,0.1,0.9,0.7,0.9h8.9c0,0,0.8-0.1,1.3,0.4c0.2,0.2,0.5,0.6,0.5,1.2V34.1z"/>
	</g>
</g>
<g>
	<g>
		<path class="st7" d="M10.5,34.1h-1v-2c0-0.6,0.3-1,0.5-1.2c0.5-0.5,1.3-0.4,1.3-0.4l8.8,0c0.3,0,0.4-0.1,0.5-0.2
			c0.2-0.2,0.3-0.6,0.3-0.7v-3.6h1v3.6c0,0.1,0,0.9-0.5,1.4c-0.3,0.3-0.7,0.5-1.2,0.5h-8.9c-0.1,0-0.5,0-0.6,0.2
			c0,0-0.1,0.1-0.1,0.4V34.1z"/>
	</g>
</g>
<g>
	<g>
		<rect x="24.7" y="26.1" class="st7" width="1" height="8"/>
	</g>
</g>
<g class="st8">
	<rect x="24.7" y="22.7" class="st9" width="1" height="3.4"/>
</g>
<g class="st8">
	<rect x="28.5" y="22.7" class="st9" width="1" height="3.4"/>
</g>
<g class="st8">
	<rect x="20.9" y="22.7" class="st9" width="1" height="3.4"/>
</g>
</svg>
