<?xml version="1.0" encoding="utf-8"?>
<!-- Generator: Adobe Illustrator 24.0.0, SVG Export Plug-In . SVG Version: 6.00 Build 0)  -->
<svg version="1.1" id="Layer_1" xmlns="http://www.w3.org/2000/svg" xmlns:xlink="http://www.w3.org/1999/xlink" x="0px" y="0px"
	 viewBox="0 0 150 65" style="enable-background:new 0 0 150 65;" xml:space="preserve">
<style type="text/css">
	.st0{clip-path:url(#SVGID_2_);}
	.st1{fill:url(#Rectangle_4_1_);}
	.st2{fill:url(#Path_34037_1_);}
	.st3{fill:url(#Path_34038_1_);}
</style>
<g id="send-otp-btn" transform="translate(0 -0.229)">
	<g>
		<defs>
			<path id="SVGID_1_" d="M32.5,0.2h85c17.9,0,32.5,14.6,32.5,32.5l0,0c0,17.9-14.6,32.5-32.5,32.5h-85C14.6,65.2,0,50.7,0,32.7l0,0
				C0,14.8,14.6,0.2,32.5,0.2z"/>
		</defs>
		<clipPath id="SVGID_2_">
			<use xlink:href="#SVGID_1_"  style="overflow:visible;"/>
		</clipPath>
		<g id="Mask_Group_1" class="st0">
			
				<linearGradient id="Rectangle_4_1_" gradientUnits="userSpaceOnUse" x1="-321.34" y1="329.1213" x2="-321.34" y2="328.1213" gradientTransform="matrix(150 0 0 -65 48276 21393.1133)">
				<stop  offset="0" style="stop-color:#C8C7C7"/>
				<stop  offset="1" style="stop-color:#F9F9F9"/>
			</linearGradient>
			<path id="Rectangle_4" class="st1" d="M32.5,0.2h85c17.9,0,32.5,14.6,32.5,32.5l0,0c0,17.9-14.6,32.5-32.5,32.5h-85
				C14.6,65.2,0,50.7,0,32.7l0,0C0,14.8,14.6,0.2,32.5,0.2z"/>
			
				<linearGradient id="Path_34037_1_" gradientUnits="userSpaceOnUse" x1="-319.0067" y1="329.8555" x2="-318.9777" y2="329.2845" gradientTransform="matrix(81.7137 21.9088 13.5311 -50.4674 21646.7988 23682.2461)">
				<stop  offset="0" style="stop-color:#C8C7C7"/>
				<stop  offset="1" style="stop-color:#F9F9F9"/>
			</linearGradient>
			<path id="Path_34037" class="st2" d="M42.7,44.7C64.4,54.1,80,73,77.7,86.9c-2.3,13.9-21.7,17.5-43.3,8s-37.3-28.3-35-42.2
				S21.1,35.2,42.7,44.7z"/>
			
				<linearGradient id="Path_34038_1_" gradientUnits="userSpaceOnUse" x1="-318.9803" y1="329.5603" x2="-318.9902" y2="329.0713" gradientTransform="matrix(81.7137 21.9088 13.5311 -50.4674 21717.7695 23609.2461)">
				<stop  offset="0" style="stop-color:#C8C7C7"/>
				<stop  offset="1" style="stop-color:#F9F9F9"/>
			</linearGradient>
			<path id="Path_34038" class="st3" d="M113.7-28.3c21.6,9.4,37.3,28.3,35,42.2s-21.7,17.5-43.3,8s-37.3-28.3-35-42.2
				C72.7-34.2,92.1-37.8,113.7-28.3z"/>
		</g>
	</g>
</g>
</svg>
