<?xml version="1.0" encoding="utf-8"?>
<!-- Generator: Adobe Illustrator 24.0.0, SVG Export Plug-In . SVG Version: 6.00 Build 0)  -->
<svg version="1.1" id="Layer_1" xmlns="http://www.w3.org/2000/svg" xmlns:xlink="http://www.w3.org/1999/xlink" x="0px" y="0px"
	 viewBox="0 0 30.3 39.8" style="enable-background:new 0 0 30.3 39.8;" xml:space="preserve">
<style type="text/css">
	.st0{fill:#FFFFFF;}
</style>
<title>solution-icon-02</title>
<path class="st0" d="M15.1,21.6c-3.7,0-6.7,3-6.7,6.7s3,6.7,6.7,6.7s6.7-3,6.7-6.7l0,0C21.7,24.6,18.8,21.6,15.1,21.6z M16.2,29.3
	c-0.6,0.6-1.6,0.6-2.2,0s-0.6-1.6,0-2.2l0,0c0.6-0.6,3.5-2.4,4.1-1.8C18.7,25.9,16.9,28.7,16.2,29.3z"/>
<path class="st0" d="M25.1,16.9H7.8v-6.5c0-4,3.3-7.3,7.3-7.3s7.3,3.3,7.3,7.3c0,0,0,0,0,0v2.5c0,0.8,0.7,1.5,1.5,1.5
	s1.5-0.7,1.5-1.5v-2.5C25.4,4.6,20.8,0,15.1,0C9.4,0,4.8,4.6,4.8,10.3c0,0,0,0,0,0v6.6C2.1,17.1,0,19.4,0,22.1v12.5
	c0,2.9,2.3,5.2,5.2,5.2h19.9c2.9,0,5.2-2.3,5.2-5.2V22.1C30.3,19.2,28,16.9,25.1,16.9z M15.1,35.9c-4.2,0-7.7-3.4-7.7-7.7
	s3.4-7.7,7.7-7.7s7.7,3.4,7.7,7.7C22.8,32.5,19.3,35.9,15.1,35.9C15.1,35.9,15.1,35.9,15.1,35.9L15.1,35.9z"/>
</svg>
