<svg xmlns="http://www.w3.org/2000/svg" width="42.168" height="49.746" viewBox="0 0 42.168 49.746">
  <g id="monitoring-orange" transform="translate(-61.04 -26.004)">
    <g id="Group_2199" data-name="Group 2199" transform="translate(61.04 26.004)">
      <path id="Path_43183" data-name="Path 43183" d="M88.956,44.116a9.632,9.632,0,1,0,.018.018Zm-6.832-3.577a10.382,10.382,0,0,1,7.362,3.047l.022.024a10.41,10.41,0,1,1-7.384-3.072Zm1.695,8.185a2.755,2.755,0,0,0-1.32-.545v.381a.375.375,0,1,1-.75,0v-.381a2.767,2.767,0,0,0-1.32.545l.271.271a.381.381,0,0,1,0,.53.375.375,0,0,1-.53,0l-.271-.271a2.816,2.816,0,0,0-.548,1.322h.384a.373.373,0,1,1,0,.747h-.384a2.773,2.773,0,0,0,.548,1.322l.271-.271a.375.375,0,0,1,.53,0,.381.381,0,0,1,0,.53l-.271.271a2.756,2.756,0,0,0,1.32.545v-.384a.375.375,0,0,1,.75,0v.384a2.756,2.756,0,0,0,1.32-.545L83.55,52.9a.375.375,0,0,1,0-.53.371.371,0,0,1,.527,0l.271.271a2.785,2.785,0,0,0,.548-1.322h-.384a.373.373,0,1,1,0-.747H84.9a2.817,2.817,0,0,0-.548-1.322l-.271.271a.372.372,0,0,1-.527,0,.376.376,0,0,1,0-.53Zm2.5,25.341a1.3,1.3,0,0,1-1.3-1.295,1.286,1.286,0,0,1,.381-.917,1.253,1.253,0,0,1,.542-.326V69.28a.363.363,0,0,1,.11-.265l1.774-1.773-3.5-3.5a.378.378,0,0,1-.11-.265v-.491c-.579.052-1.161.085-1.749.095V73.138a.375.375,0,1,1-.75,0V66.133l-1.289,1.222v3.961a.375.375,0,0,1-.75,0V67.2a.375.375,0,0,1,.131-.283l1.908-1.911V63.079q-.846-.014-1.682-.091v.491a.377.377,0,0,1-.11.265l-3.5,3.5L78.2,69.015a.363.363,0,0,1,.11.265v2.246a1.234,1.234,0,0,1,.542.326,1.3,1.3,0,1,1-1.831,0,1.312,1.312,0,0,1,.542-.326V69.436l-1.667-1.664-.8.8v.96a.373.373,0,1,1-.747,0V68.418a.363.363,0,0,1,.11-.265l4.827-4.83V62.9a21.288,21.288,0,0,1-2.112-.372v.241a.371.371,0,0,1-.11.265l-4.79,4.79v5.384a1.276,1.276,0,0,1,.542.326,1.3,1.3,0,0,1-1.807,1.856l-.024-.024a1.294,1.294,0,0,1,0-1.831,1.354,1.354,0,0,1,.542-.326v-5.54a.38.38,0,0,1,.11-.265l4.79-4.79v-.265a24.015,24.015,0,0,1-5.969-2.477,29.594,29.594,0,0,1-9.413-8.925,29.62,29.62,0,0,1,9.413-8.922,24.024,24.024,0,0,1,5.969-2.477v-.411l-4.79-4.79a.375.375,0,0,1-.11-.265v-5.54a1.3,1.3,0,0,1-.92-1.24,1.3,1.3,0,0,1,.381-.917A1.3,1.3,0,0,1,73.2,27.3a1.3,1.3,0,0,1-.381.917,1.257,1.257,0,0,1-.542.323v5.384l4.79,4.79a.376.376,0,0,1,.11.265v.387q1.047-.238,2.112-.372V38.43L74.457,33.6a.367.367,0,0,1-.11-.265V32.223a.373.373,0,1,1,.747,0v.96l.8.8,1.667-1.664V30.23a1.3,1.3,0,0,1-.923-1.243,1.3,1.3,0,0,1,.381-.917,1.3,1.3,0,0,1,1.831,0,1.3,1.3,0,0,1-.542,2.16v2.246a.368.368,0,0,1-.11.265l-1.774,1.773,3.5,3.5a.372.372,0,0,1,.11.265v.637c.558-.052,1.118-.085,1.682-.094V36.745l-1.908-1.908a.379.379,0,0,1-.131-.283V30.437a.375.375,0,1,1,.75,0V34.4l1.289,1.289V28.615a.375.375,0,1,1,.75,0V38.82c.588.006,1.17.04,1.749.094v-.637a.372.372,0,0,1,.11-.265l3.5-3.5-1.774-1.773a.368.368,0,0,1-.11-.265V30.23A1.316,1.316,0,0,1,85.4,29.9a1.3,1.3,0,0,1,.917-2.212,1.293,1.293,0,0,1,.914,2.209,1.3,1.3,0,0,1-.539.329v2.09l1.664,1.664.8-.8v-.96a.375.375,0,1,1,.75,0v1.115a.38.38,0,0,1-.11.265l-4.83,4.827V39a21.349,21.349,0,0,1,2.112.372v-.387a.378.378,0,0,1,.11-.265l4.79-4.79V28.542a1.276,1.276,0,0,1-.542-.323,1.3,1.3,0,1,1,1.834-1.834,1.3,1.3,0,0,1,0,1.834,1.293,1.293,0,0,1-.542.323v5.54a.375.375,0,0,1-.11.265l-4.79,4.79v.411a24.022,24.022,0,0,1,5.969,2.477,29.621,29.621,0,0,1,9.413,8.922,29.6,29.6,0,0,1-9.413,8.925,24.016,24.016,0,0,1-5.969,2.477v.265l4.79,4.79a.38.38,0,0,1,.11.265v5.54a1.322,1.322,0,0,1,.539.326,1.294,1.294,0,0,1,0,1.831,1.295,1.295,0,0,1-1.834,0,1.291,1.291,0,0,1,0-1.831,1.313,1.313,0,0,1,.542-.326V67.827l-4.79-4.79a.372.372,0,0,1-.11-.265v-.241a21.23,21.23,0,0,1-2.112.372v.42l4.83,4.83a.375.375,0,0,1,.11.265v1.115a.375.375,0,1,1-.75,0v-.96l-.8-.8-1.664,1.664v2.091a1.323,1.323,0,0,1,.539.326,1.3,1.3,0,0,1-.914,2.212ZM82.5,47.423a3.526,3.526,0,0,1,1.853.768l1.313-1.31a.374.374,0,0,1,.53.527l-1.313,1.313a3.514,3.514,0,0,1,.768,1.856h1.856a.373.373,0,1,1,0,.747H85.649a3.514,3.514,0,0,1-.768,1.856l1.313,1.31a.375.375,0,0,1-.53.53l-1.31-1.31a3.548,3.548,0,0,1-1.856.768v1.856a.375.375,0,1,1-.75,0V54.477a3.537,3.537,0,0,1-1.853-.768l-1.313,1.31a.375.375,0,0,1-.53-.53l1.313-1.31a3.524,3.524,0,0,1-.768-1.856H76.742a.373.373,0,1,1,0-.747H78.6a3.512,3.512,0,0,1,.768-1.856l-1.313-1.313a.371.371,0,0,1,0-.527.375.375,0,0,1,.53,0l1.313,1.31a3.537,3.537,0,0,1,1.853-.768V45.567a.375.375,0,0,1,.75,0v1.856Z" transform="translate(-61.04 -26.004)" fill="#e67225" fill-rule="evenodd"/>
    </g>
  </g>
</svg>
