<svg id="Layer_1" data-name="Layer 1" xmlns="http://www.w3.org/2000/svg" viewBox="0 0 68.22 69.79"><defs><style>.cls-1,.cls-2{fill:#fff;stroke:#fff;}.cls-1{stroke-miterlimit:10;}</style></defs><title>solutions</title><g id="solutions-orange-icon"><path id="Path_40955" data-name="Path 40955" class="cls-1" d="M24.24,20.52,29.52,0A21.23,21.23,0,0,1,43.29,19.49c.15,0-4.25-.73-5.13,4.1C38.31,23.74,24.24,20.52,24.24,20.52Z" transform="translate(0 0.66)"/><circle id="Ellipse_9234" data-name="Ellipse 9234" class="cls-1" cx="33.36" cy="19.79" r="3.5"/><circle id="Ellipse_9235" data-name="Ellipse 9235" class="cls-1" cx="23.36" cy="10.79" r="3.5"/><path id="Path_40956" data-name="Path 40956" class="cls-2" d="M41.83,13.19s12.9,1.17,16.7,6.15a102.91,102.91,0,0,1,1,22.86c-.15.29-12,4.1-12,4.1a52.6,52.6,0,0,1-9.38-22.86c.15.15-.44-5.42,6.3-4.1,0,.15,5.13,11.58,5.13,11.58" transform="translate(0 0.66)"/><path id="Path_40957" data-name="Path 40957" class="cls-1" d="M42.26,48.06l23.16-7.62,2.2,9.09-23.16,6.3Z" transform="translate(0 0.66)"/><rect id="Rectangle_868" data-name="Rectangle 868" class="cls-1" x="9.86" y="57.29" width="17" height="9"/><path id="Path_40958" data-name="Path 40958" class="cls-2" d="M9.86,56.62v-6.8S.35,42.64.5,34.88s4.25-17.15,18-18v8.36S14,21.54,13.25,26.67s5.28,3.08,5.28,1.61v17s3.95-2.63,5.13,1.17-4.25,3.81-5.13,1.9c.14,0,0,8.27,0,8.27h8.06v-6.8s9.23-6,9.81-15H28.2s3.37-3.66-.88-4.68C22.92,30,24,35,25.41,34.87H11.93s3.23,4.55-2.07,5.57c-4.23.74-4.23-5.71-1.74-5.57-.44-.14-6.88,0-6.88,0" transform="translate(0 0.66)"/><ellipse id="Ellipse_9236" data-name="Ellipse 9236" class="cls-1" cx="18.86" cy="66.29" rx="4" ry="3"/></g></svg>