<svg xmlns="http://www.w3.org/2000/svg" width="25" height="15.384" viewBox="0 0 25 15.384">
  <g id="email" transform="translate(-48 -128)">
    <path id="Path_56" data-name="Path 56" d="M54.4,129.244c.661.349,9.844,5.354,10.186,5.535a3,3,0,0,0,2.464,0c.343-.18,9.525-5.186,10.186-5.535.246-.126.661-.355.751-.613.156-.457-.012-.631-.679-.631H54.331c-.667,0-.835.18-.679.631C53.742,128.9,54.157,129.118,54.4,129.244Z" transform="translate(-5.262)" fill="#fff"/>
    <path id="Path_57" data-name="Path 57" d="M72.5,151.57c-.493.252-4.916,3.4-7.842,5.294l4.94,5.559c.12.12.174.264.108.337s-.228.03-.355-.084l-5.925-5c-.9.577-1.526.974-1.635,1.034a3,3,0,0,1-2.464,0c-.114-.06-.739-.457-1.635-1.034l-5.925,5c-.12.12-.282.156-.355.084s-.018-.216.1-.337l4.934-5.559c-2.927-1.893-7.4-5.042-7.89-5.294-.529-.27-.559.048-.559.294v12.319a1.623,1.623,0,0,0,1.412,1.256h22.3A1.492,1.492,0,0,0,73,164.184V151.864C73,151.612,73.036,151.3,72.5,151.57Z" transform="translate(0 -22.055)" fill="#fff"/>
  </g>
</svg>
