<svg xmlns="http://www.w3.org/2000/svg" width="50.007" height="50" viewBox="0 0 50.007 50">
  <g id="centos" transform="translate(93.046 46.081)">
    <path id="path21524" d="M-68.043-46.081l-5.85,5.85h4.124v14.58l1.726,1.726,1.783-1.783V-40.287h4.012l-5.795-5.795Zm2.653,6.665v12.838L-56.965-35l-4.413-4.413H-65.39Zm5.244,0,4.106,4.106.308.308-.308.308-9.35,9.35v1.6h1.632l9.334-9.331.308-.308.308.308,4.087,4.087V-39.417H-60.146Zm-26.133.055v10.284l3.984-3.984.308-.308.308.308,9.315,9.313h1.726v-1.54L-80.045-34.7-80.353-35l.308-.308,4.051-4.051H-86.278Zm11.516,0L-79.12-35l8.482,8.482v-12.84Zm20.645,7.2-8.409,8.409h12.8v-4.014l-4.395-4.395Zm-27.87.018-4.292,4.292v4.1H-73.6l-8.388-8.39Zm-5.161,5.161-5.9,5.9,5.9,5.9V-19.4H-72.57l1.662-1.662-1.82-1.82H-87.148v-4.1Zm38.3.085v4.014H-63.4l-1.8,1.8,1.682,1.682h14.66v4.131l5.813-5.813-5.813-5.813Zm-37.426,8.365v4.216l4.31,4.31,8.528-8.526Zm14.07,0L-81.659-9.08l-.31.308-.308-.308-4-4V-2.861h10.187l-3.952-3.952-.308-.308.308-.308,9.432-9.432v-1.668h-1.6Zm6.818,0V-16.7l9.274,9.274.308.308-.308.308-3.952,3.952h10.346V-13.167L-53.809-9.08l-.308.308-.308-.308-9.451-9.448H-65.39Zm2.747,0L-54.117-10l4.395-4.395v-4.131Zm-5.437.367L-69.741-16.5V-1.991h-4.25l5.912,5.909,5.91-5.909h-4.09v-14.35l-1.82-1.82Zm-2.531,2.531-8.51,8.51,4.259,4.259h4.25V-15.63Zm5.221.158V-2.861h4.09l4.259-4.259Z"/>
  </g>
</svg>
