<svg id="orange-hover" xmlns="http://www.w3.org/2000/svg" xmlns:xlink="http://www.w3.org/1999/xlink" viewBox="0 0 108 30"><defs><style>.cls-1{fill:url(#linear-gradient);}.cls-2{fill:url(#linear-gradient-2);}.cls-3{fill:url(#linear-gradient-3);}</style><linearGradient id="linear-gradient" x1="55" y1="30" x2="55" gradientUnits="userSpaceOnUse"><stop offset="0" stop-color="#ffab6e"/><stop offset="1" stop-color="#ffd8bc"/></linearGradient><linearGradient id="linear-gradient-2" x1="54.84" y1="8" x2="54.84" y2="0" xlink:href="#linear-gradient"/><linearGradient id="linear-gradient-3" x1="54.83" x2="54.83" y2="23" xlink:href="#linear-gradient"/></defs><title>orange-hover</title><g id="Group_2187" data-name="Group 2187"><path class="cls-1" d="M109,15a14.92,14.92,0,0,1-4.4,10.6,15.47,15.47,0,0,1-3.32,2.52A14.94,14.94,0,0,1,94,30H16a14.85,14.85,0,0,1-7.63-2.09A15,15,0,0,1,5.4,4.4,14.51,14.51,0,0,1,7.34,2.76,14.86,14.86,0,0,1,16,0H94a15,15,0,0,1,15,15Z" transform="translate(-1)"/><g id="Mask_Group_89" data-name="Mask Group 89"><path class="cls-2" d="M102.33,2.53C93.08,5.79,75.13,8,54.5,8,34.36,8,16.77,5.9,7.34,2.76A14.86,14.86,0,0,1,16,0H94A14.89,14.89,0,0,1,102.33,2.53Z" transform="translate(-1)"/><path class="cls-3" d="M101.28,28.12A14.94,14.94,0,0,1,94,30H16a14.85,14.85,0,0,1-7.63-2.09C18,25,35.07,23,54.5,23,74.37,23,91.76,25.05,101.28,28.12Z" transform="translate(-1)"/></g></g></svg>