<svg xmlns="http://www.w3.org/2000/svg" xmlns:xlink="http://www.w3.org/1999/xlink" width="299" height="20" viewBox="0 0 299 20">
  <defs>
    <linearGradient id="linear-gradient" x1="0.5" y1="1" x2="0.5" gradientUnits="objectBoundingBox">
      <stop offset="0" stop-color="#d6d6d6"/>
      <stop offset="1" stop-color="#f9f9f9"/>
    </linearGradient>
    <filter id="Rectangle_841" x="-9" y="-6" width="317" height="38" filterUnits="userSpaceOnUse">
      <feOffset dy="3" input="SourceAlpha"/>
      <feGaussianBlur stdDeviation="3" result="blur"/>
      <feFlood flood-opacity="0.161"/>
      <feComposite operator="in" in2="blur"/>
      <feComposite in="SourceGraphic"/>
    </filter>
    <linearGradient id="linear-gradient-2" x1="1" x2="0" gradientUnits="objectBoundingBox">
      <stop offset="0" stop-color="#d6d6d6"/>
      <stop offset="0.498" stop-color="#fbfbfb"/>
      <stop offset="1" stop-color="#d6d6d6"/>
    </linearGradient>
    <clipPath id="clip-path">
      <g transform="matrix(1, 0, 0, 1, 0, 0)" filter="url(#Rectangle_841)">
        <path id="Rectangle_841-2" data-name="Rectangle 841" d="M0,0H299a0,0,0,0,1,0,0V0a20,20,0,0,1-20,20H20A20,20,0,0,1,0,0V0A0,0,0,0,1,0,0Z" fill="url(#linear-gradient)"/>
      </g>
    </clipPath>
    <radialGradient id="radial-gradient" cx="0.5" cy="0.5" r="0.5" gradientTransform="matrix(1, 0, 0, -1, 0, 1)" gradientUnits="objectBoundingBox">
      <stop offset="0" stop-color="#fff" stop-opacity="0.988"/>
      <stop offset="0.601" stop-color="#d2d2d2" stop-opacity="0.996"/>
      <stop offset="1" stop-color="#b5b5b5"/>
    </radialGradient>
    <clipPath id="clip-path-2">
      <rect id="Rectangle_842" data-name="Rectangle 842" width="299" height="20" transform="translate(0 0)" fill="#e67225"/>
    </clipPath>
  </defs>
  <g id="server-bottom-bg" transform="translate(-519 -708.5)">
    <g id="Group_1777" data-name="Group 1777" transform="translate(519 708.5)">
      <path id="Rectangle_817" data-name="Rectangle 817" d="M0,0H299a0,0,0,0,1,0,0V0a20,20,0,0,1-20,20H20A20,20,0,0,1,0,0V0A0,0,0,0,1,0,0Z" fill="url(#linear-gradient-2)"/>
      <g id="Mask_Group_110" data-name="Mask Group 110" clip-path="url(#clip-path)">
        <ellipse id="Ellipse_8035" data-name="Ellipse 8035" cx="132.702" cy="9.621" rx="132.702" ry="9.621" transform="translate(16.798 14.38)" fill="url(#radial-gradient)"/>
      </g>
    </g>
    <g id="Mask_Group_111" data-name="Mask Group 111" transform="translate(519 708.5)" opacity="0.7" clip-path="url(#clip-path-2)">
      <g id="Group_1780" data-name="Group 1780" transform="translate(-6.728 -116.364)">
        <g id="Group_1778" data-name="Group 1778" transform="translate(68.128 0)">
          <path id="Path_35295" data-name="Path 35295" d="M252.476,338.77a.111.111,0,1,0-.121-.11A.117.117,0,0,0,252.476,338.77Z" transform="translate(-219.182 -337.697)" fill="#fff"/>
          <path id="Path_35296" data-name="Path 35296" d="M293.783,338.342a.3.3,0,1,0-.334-.3A.32.32,0,0,0,293.783,338.342Z" transform="translate(-249.533 -337.075)" fill="#fff"/>
          <path id="Path_35297" data-name="Path 35297" d="M335.177,337.974a.47.47,0,1,0-.517-.468A.494.494,0,0,0,335.177,337.974Z" transform="translate(-279.969 -336.543)" fill="#fff"/>
          <path id="Path_35298" data-name="Path 35298" d="M376.483,337.546a.664.664,0,1,0-.729-.661A.7.7,0,0,0,376.483,337.546Z" transform="translate(-310.32 -335.922)" fill="#fff"/>
          <path id="Path_35299" data-name="Path 35299" d="M417.876,337.18a.83.83,0,1,0-.912-.826A.872.872,0,0,0,417.876,337.18Z" transform="translate(-340.756 -335.39)" fill="#fff"/>
          <path id="Path_35300" data-name="Path 35300" d="M459.355,336.874a.968.968,0,1,0-1.064-.963A1.017,1.017,0,0,0,459.355,336.874Z" transform="translate(-371.279 -334.947)" fill="#fff"/>
          <path id="Path_35301" data-name="Path 35301" d="M210.655,380.739a.083.083,0,1,0-.091-.083A.087.087,0,0,0,210.655,380.739Z" transform="translate(-188.317 -369.766)" fill="#fff"/>
          <path id="Path_35302" data-name="Path 35302" d="M251.875,380.25a.3.3,0,1,0-.334-.3A.32.32,0,0,0,251.875,380.25Z" transform="translate(-218.581 -369.056)" fill="#fff"/>
          <path id="Path_35303" data-name="Path 35303" d="M293.183,379.821a.5.5,0,1,0-.547-.5A.523.523,0,0,0,293.183,379.821Z" transform="translate(-248.932 -368.435)" fill="#fff"/>
          <path id="Path_35304" data-name="Path 35304" d="M334.49,379.394a.692.692,0,1,0-.76-.688A.727.727,0,0,0,334.49,379.394Z" transform="translate(-279.283 -367.814)" fill="#fff"/>
          <path id="Path_35305" data-name="Path 35305" d="M375.8,378.966a.885.885,0,1,0-.973-.881A.93.93,0,0,0,375.8,378.966Z" transform="translate(-309.633 -367.194)" fill="#fff"/>
          <path id="Path_35306" data-name="Path 35306" d="M417.1,378.537a1.079,1.079,0,1,0-1.185-1.074A1.133,1.133,0,0,0,417.1,378.537Z" transform="translate(-339.984 -366.573)" fill="#fff"/>
          <path id="Path_35307" data-name="Path 35307" d="M458.582,378.231a1.217,1.217,0,1,0-1.337-1.211A1.279,1.279,0,0,0,458.582,378.231Z" transform="translate(-370.506 -366.129)" fill="#fff"/>
          <path id="Path_35308" data-name="Path 35308" d="M168.832,422.707a.055.055,0,1,0-.061-.055A.058.058,0,0,0,168.832,422.707Z" transform="translate(-157.45 -401.834)" fill="#fff"/>
          <path id="Path_35309" data-name="Path 35309" d="M210.139,422.28a.249.249,0,1,0-.273-.248A.262.262,0,0,0,210.139,422.28Z" transform="translate(-187.801 -401.213)" fill="#fff"/>
          <path id="Path_35310" data-name="Path 35310" d="M251.361,421.79a.47.47,0,1,0-.516-.468A.494.494,0,0,0,251.361,421.79Z" transform="translate(-218.067 -400.504)" fill="#fff"/>
          <path id="Path_35311" data-name="Path 35311" d="M292.581,421.3a.692.692,0,1,0-.759-.688A.727.727,0,0,0,292.581,421.3Z" transform="translate(-248.331 -399.795)" fill="#fff"/>
          <path id="Path_35312" data-name="Path 35312" d="M333.8,420.812a.913.913,0,1,0-1-.908A.959.959,0,0,0,333.8,420.812Z" transform="translate(-278.596 -399.085)" fill="#fff"/>
          <path id="Path_35313" data-name="Path 35313" d="M375.11,420.383a1.107,1.107,0,1,0-1.216-1.1A1.163,1.163,0,0,0,375.11,420.383Z" transform="translate(-308.946 -398.464)" fill="#fff"/>
          <path id="Path_35314" data-name="Path 35314" d="M416.417,419.956a1.3,1.3,0,1,0-1.428-1.294A1.366,1.366,0,0,0,416.417,419.956Z" transform="translate(-339.297 -397.844)" fill="#fff"/>
          <path id="Path_35315" data-name="Path 35315" d="M457.81,419.589a1.466,1.466,0,1,0-1.61-1.459A1.54,1.54,0,0,0,457.81,419.589Z" transform="translate(-369.734 -397.312)" fill="#fff"/>
          <path id="Path_35316" data-name="Path 35316" d="M168.489,464.371a.166.166,0,1,0-.182-.165A.174.174,0,0,0,168.489,464.371Z" transform="translate(-157.108 -433.46)" fill="#fff"/>
          <path id="Path_35317" data-name="Path 35317" d="M209.624,463.821a.415.415,0,1,0-.455-.413A.436.436,0,0,0,209.624,463.821Z" transform="translate(-187.287 -432.662)" fill="#fff"/>
          <path id="Path_35318" data-name="Path 35318" d="M250.76,463.269a.664.664,0,1,0-.729-.661A.7.7,0,0,0,250.76,463.269Z" transform="translate(-217.466 -431.863)" fill="#fff"/>
          <path id="Path_35319" data-name="Path 35319" d="M291.981,462.781a.885.885,0,1,0-.972-.881A.93.93,0,0,0,291.981,462.781Z" transform="translate(-247.73 -431.154)" fill="#fff"/>
          <path id="Path_35320" data-name="Path 35320" d="M333.2,462.291a1.107,1.107,0,1,0-1.215-1.1A1.163,1.163,0,0,0,333.2,462.291Z" transform="translate(-277.995 -430.444)" fill="#fff"/>
          <path id="Path_35321" data-name="Path 35321" d="M374.424,461.8a1.328,1.328,0,1,0-1.459-1.321A1.395,1.395,0,0,0,374.424,461.8Z" transform="translate(-308.26 -429.736)" fill="#fff"/>
          <path id="Path_35322" data-name="Path 35322" d="M415.731,461.374a1.521,1.521,0,1,0-1.671-1.514A1.6,1.6,0,0,0,415.731,461.374Z" transform="translate(-338.611 -429.114)" fill="#fff"/>
          <path id="Path_35323" data-name="Path 35323" d="M457.038,460.946a1.715,1.715,0,1,0-1.884-1.707A1.8,1.8,0,0,0,457.038,460.946Z" transform="translate(-368.962 -428.493)" fill="#fff"/>
          <path id="Path_35324" data-name="Path 35324" d="M126.839,506.462a.083.083,0,1,0-.091-.083A.087.087,0,0,0,126.839,506.462Z" transform="translate(-126.414 -465.706)" fill="#fff"/>
          <path id="Path_35325" data-name="Path 35325" d="M167.974,505.912a.332.332,0,1,0-.365-.33A.348.348,0,0,0,167.974,505.912Z" transform="translate(-156.592 -464.908)" fill="#fff"/>
          <path id="Path_35326" data-name="Path 35326" d="M209.109,505.361a.581.581,0,1,0-.638-.578A.611.611,0,0,0,209.109,505.361Z" transform="translate(-186.771 -464.11)" fill="#fff"/>
          <path id="Path_35327" data-name="Path 35327" d="M250.244,504.811a.83.83,0,1,0-.911-.826A.872.872,0,0,0,250.244,504.811Z" transform="translate(-216.95 -463.312)" fill="#fff"/>
          <path id="Path_35328" data-name="Path 35328" d="M291.38,504.261a1.079,1.079,0,1,0-1.185-1.074A1.134,1.134,0,0,0,291.38,504.261Z" transform="translate(-247.129 -462.514)" fill="#fff"/>
          <path id="Path_35329" data-name="Path 35329" d="M332.6,503.772a1.3,1.3,0,1,0-1.428-1.294A1.366,1.366,0,0,0,332.6,503.772Z" transform="translate(-277.394 -461.805)" fill="#fff"/>
          <path id="Path_35330" data-name="Path 35330" d="M373.823,503.281a1.522,1.522,0,1,0-1.671-1.514A1.6,1.6,0,0,0,373.823,503.281Z" transform="translate(-307.66 -461.094)" fill="#fff"/>
          <path id="Path_35331" data-name="Path 35331" d="M415.044,502.793a1.743,1.743,0,1,0-1.914-1.734A1.831,1.831,0,0,0,415.044,502.793Z" transform="translate(-337.924 -460.385)" fill="#fff"/>
          <path id="Path_35332" data-name="Path 35332" d="M456.351,502.365a1.936,1.936,0,1,0-2.127-1.927A2.034,2.034,0,0,0,456.351,502.365Z" transform="translate(-368.275 -459.765)" fill="#fff"/>
          <path id="Path_35333" data-name="Path 35333" d="M126.495,548.124a.194.194,0,1,0-.213-.193A.2.2,0,0,0,126.495,548.124Z" transform="translate(-126.069 -497.331)" fill="#fff"/>
          <path id="Path_35334" data-name="Path 35334" d="M167.631,547.575a.443.443,0,1,0-.486-.441A.465.465,0,0,0,167.631,547.575Z" transform="translate(-156.249 -496.534)" fill="#fff"/>
          <path id="Path_35335" data-name="Path 35335" d="M208.68,546.963a.719.719,0,1,0-.79-.716A.755.755,0,0,0,208.68,546.963Z" transform="translate(-186.342 -495.647)" fill="#fff"/>
          <path id="Path_35336" data-name="Path 35336" d="M249.815,546.413a.968.968,0,1,0-1.063-.964A1.017,1.017,0,0,0,249.815,546.413Z" transform="translate(-216.521 -494.849)" fill="#fff"/>
          <path id="Path_35337" data-name="Path 35337" d="M290.951,545.863a1.217,1.217,0,1,0-1.337-1.211A1.279,1.279,0,0,0,290.951,545.863Z" transform="translate(-246.7 -494.051)" fill="#fff"/>
          <path id="Path_35338" data-name="Path 35338" d="M332.086,545.313a1.466,1.466,0,1,0-1.61-1.459A1.54,1.54,0,0,0,332.086,545.313Z" transform="translate(-276.879 -493.253)" fill="#fff"/>
          <path id="Path_35339" data-name="Path 35339" d="M373.223,544.762a1.715,1.715,0,1,0-1.884-1.707A1.8,1.8,0,0,0,373.223,544.762Z" transform="translate(-307.059 -492.454)" fill="#fff"/>
          <path id="Path_35340" data-name="Path 35340" d="M414.443,544.273a1.936,1.936,0,1,0-2.127-1.927A2.034,2.034,0,0,0,414.443,544.273Z" transform="translate(-337.323 -491.745)" fill="#fff"/>
          <path id="Path_35341" data-name="Path 35341" d="M455.664,543.784a2.158,2.158,0,1,0-2.37-2.147A2.267,2.267,0,0,0,455.664,543.784Z" transform="translate(-367.588 -491.036)" fill="#fff"/>
          <path id="Path_35342" data-name="Path 35342" d="M126.152,589.788a.3.3,0,1,0-.334-.3A.32.32,0,0,0,126.152,589.788Z" transform="translate(-125.727 -528.958)" fill="#fff"/>
          <path id="Path_35343" data-name="Path 35343" d="M167.288,589.238a.553.553,0,1,0-.608-.551A.581.581,0,0,0,167.288,589.238Z" transform="translate(-155.906 -528.16)" fill="#fff"/>
          <path id="Path_35344" data-name="Path 35344" d="M208.337,588.627a.83.83,0,1,0-.911-.826A.872.872,0,0,0,208.337,588.627Z" transform="translate(-185.999 -527.273)" fill="#fff"/>
          <path id="Path_35345" data-name="Path 35345" d="M249.386,588.015a1.107,1.107,0,1,0-1.215-1.1A1.163,1.163,0,0,0,249.386,588.015Z" transform="translate(-216.092 -526.385)" fill="#fff"/>
          <path id="Path_35346" data-name="Path 35346" d="M290.522,587.465a1.355,1.355,0,1,0-1.489-1.349A1.424,1.424,0,0,0,290.522,587.465Z" transform="translate(-246.271 -525.588)" fill="#fff"/>
          <path id="Path_35347" data-name="Path 35347" d="M331.572,586.853a1.632,1.632,0,1,0-1.793-1.624A1.715,1.715,0,0,0,331.572,586.853Z" transform="translate(-276.365 -524.701)" fill="#fff"/>
          <path id="Path_35348" data-name="Path 35348" d="M372.707,586.3a1.881,1.881,0,1,0-2.066-1.872A1.976,1.976,0,0,0,372.707,586.3Z" transform="translate(-306.544 -523.903)" fill="#fff"/>
          <path id="Path_35349" data-name="Path 35349" d="M2.088,0A2.481,2.481,0,0,1,4.4,2.305,1.956,1.956,0,0,1,2.305,4.4,2.481,2.481,0,0,1,0,2.088,1.956,1.956,0,0,1,2.088,0Z" transform="translate(74.013 60.528) rotate(-45)" fill="#fff"/>
          <path id="Path_35350" data-name="Path 35350" d="M455.063,585.263a2.351,2.351,0,1,0-2.583-2.34A2.47,2.47,0,0,0,455.063,585.263Z" transform="translate(-366.987 -522.395)" fill="#fff"/>
          <path id="Path_35351" data-name="Path 35351" d="M125.894,631.513a.387.387,0,1,0-.425-.386A.407.407,0,0,0,125.894,631.513Z" transform="translate(-125.469 -560.672)" fill="#fff"/>
          <path id="Path_35352" data-name="Path 35352" d="M166.944,630.9a.664.664,0,1,0-.729-.661A.7.7,0,0,0,166.944,630.9Z" transform="translate(-155.562 -559.785)" fill="#fff"/>
          <path id="Path_35353" data-name="Path 35353" d="M207.994,630.29a.94.94,0,1,0-1.033-.936A.988.988,0,0,0,207.994,630.29Z" transform="translate(-185.656 -558.899)" fill="#fff"/>
          <path id="Path_35354" data-name="Path 35354" d="M249.043,629.678a1.217,1.217,0,1,0-1.336-1.211A1.279,1.279,0,0,0,249.043,629.678Z" transform="translate(-215.749 -558.012)" fill="#fff"/>
          <path id="Path_35355" data-name="Path 35355" d="M290.092,629.066a1.494,1.494,0,1,0-1.641-1.487A1.569,1.569,0,0,0,290.092,629.066Z" transform="translate(-245.842 -557.124)" fill="#fff"/>
          <path id="Path_35356" data-name="Path 35356" d="M331.228,628.517a1.743,1.743,0,1,0-1.914-1.734A1.83,1.83,0,0,0,331.228,628.517Z" transform="translate(-276.021 -556.327)" fill="#fff"/>
          <path id="Path_35357" data-name="Path 35357" d="M372.278,627.9a2.019,2.019,0,1,0-2.218-2.01A2.121,2.121,0,0,0,372.278,627.9Z" transform="translate(-306.115 -555.439)" fill="#fff"/>
          <path id="Path_35358" data-name="Path 35358" d="M413.413,627.355a2.268,2.268,0,1,0-2.491-2.258A2.383,2.383,0,0,0,413.413,627.355Z" transform="translate(-336.294 -554.642)" fill="#fff"/>
          <path id="Path_35359" data-name="Path 35359" d="M454.549,626.8a2.517,2.517,0,1,0-2.765-2.505A2.645,2.645,0,0,0,454.549,626.8Z" transform="translate(-366.473 -553.844)" fill="#fff"/>
        </g>
        <g id="Group_1779" data-name="Group 1779">
          <path id="Path_35360" data-name="Path 35360" d="M252.477,338.77a.111.111,0,1,1,.121-.11A.117.117,0,0,1,252.477,338.77Z" transform="translate(-194.93 -337.697)" fill="#fff"/>
          <path id="Path_35361" data-name="Path 35361" d="M293.783,338.342a.3.3,0,1,1,.334-.3A.32.32,0,0,1,293.783,338.342Z" transform="translate(-247.193 -337.075)" fill="#fff"/>
          <path id="Path_35362" data-name="Path 35362" d="M335.176,337.974a.47.47,0,1,1,.517-.468A.494.494,0,0,1,335.176,337.974Z" transform="translate(-299.543 -336.543)" fill="#fff"/>
          <path id="Path_35363" data-name="Path 35363" d="M376.483,337.546a.664.664,0,1,1,.729-.661A.7.7,0,0,1,376.483,337.546Z" transform="translate(-351.806 -335.922)" fill="#fff"/>
          <path id="Path_35364" data-name="Path 35364" d="M417.875,337.18a.83.83,0,1,1,.912-.826A.872.872,0,0,1,417.875,337.18Z" transform="translate(-404.155 -335.39)" fill="#fff"/>
          <path id="Path_35365" data-name="Path 35365" d="M459.354,336.874a.968.968,0,1,1,1.064-.963A1.017,1.017,0,0,1,459.354,336.874Z" transform="translate(-456.59 -334.947)" fill="#fff"/>
          <path id="Path_35366" data-name="Path 35366" d="M210.655,380.739a.083.083,0,1,1,.091-.083A.087.087,0,0,1,210.655,380.739Z" transform="translate(-142.152 -369.766)" fill="#fff"/>
          <path id="Path_35367" data-name="Path 35367" d="M251.875,380.25a.3.3,0,1,1,.334-.3A.32.32,0,0,1,251.875,380.25Z" transform="translate(-194.329 -369.056)" fill="#fff"/>
          <path id="Path_35368" data-name="Path 35368" d="M293.183,379.821a.5.5,0,1,1,.547-.5A.523.523,0,0,1,293.183,379.821Z" transform="translate(-246.593 -368.435)" fill="#fff"/>
          <path id="Path_35369" data-name="Path 35369" d="M334.489,379.394a.692.692,0,1,1,.76-.688A.727.727,0,0,1,334.489,379.394Z" transform="translate(-298.856 -367.814)" fill="#fff"/>
          <path id="Path_35370" data-name="Path 35370" d="M375.8,378.966a.885.885,0,1,1,.973-.881A.93.93,0,0,1,375.8,378.966Z" transform="translate(-351.119 -367.194)" fill="#fff"/>
          <path id="Path_35371" data-name="Path 35371" d="M417.1,378.537a1.079,1.079,0,1,1,1.185-1.074A1.133,1.133,0,0,1,417.1,378.537Z" transform="translate(-403.383 -366.573)" fill="#fff"/>
          <path id="Path_35372" data-name="Path 35372" d="M458.582,378.231a1.217,1.217,0,1,1,1.337-1.211A1.279,1.279,0,0,1,458.582,378.231Z" transform="translate(-455.817 -366.129)" fill="#fff"/>
          <path id="Path_35373" data-name="Path 35373" d="M168.832,422.707a.055.055,0,1,1,.061-.055A.058.058,0,0,1,168.832,422.707Z" transform="translate(-89.373 -401.834)" fill="#fff"/>
          <path id="Path_35374" data-name="Path 35374" d="M210.14,422.28a.249.249,0,1,1,.273-.248A.262.262,0,0,1,210.14,422.28Z" transform="translate(-141.637 -401.213)" fill="#fff"/>
          <path id="Path_35375" data-name="Path 35375" d="M251.362,421.79a.47.47,0,1,1,.516-.468A.494.494,0,0,1,251.362,421.79Z" transform="translate(-193.815 -400.504)" fill="#fff"/>
          <path id="Path_35376" data-name="Path 35376" d="M292.582,421.3a.692.692,0,1,1,.759-.688A.727.727,0,0,1,292.582,421.3Z" transform="translate(-245.992 -399.795)" fill="#fff"/>
          <path id="Path_35377" data-name="Path 35377" d="M333.8,420.812a.913.913,0,1,1,1-.908A.959.959,0,0,1,333.8,420.812Z" transform="translate(-298.169 -399.085)" fill="#fff"/>
          <path id="Path_35378" data-name="Path 35378" d="M375.109,420.383a1.107,1.107,0,1,1,1.216-1.1A1.163,1.163,0,0,1,375.109,420.383Z" transform="translate(-350.432 -398.464)" fill="#fff"/>
          <path id="Path_35379" data-name="Path 35379" d="M416.417,419.956a1.3,1.3,0,1,1,1.428-1.294A1.366,1.366,0,0,1,416.417,419.956Z" transform="translate(-402.696 -397.844)" fill="#fff"/>
          <path id="Path_35380" data-name="Path 35380" d="M457.81,419.589a1.466,1.466,0,1,1,1.61-1.459A1.54,1.54,0,0,1,457.81,419.589Z" transform="translate(-455.045 -397.312)" fill="#fff"/>
          <path id="Path_35381" data-name="Path 35381" d="M168.489,464.371a.166.166,0,1,1,.182-.165A.174.174,0,0,1,168.489,464.371Z" transform="translate(-89.03 -433.46)" fill="#fff"/>
          <path id="Path_35382" data-name="Path 35382" d="M209.625,463.821a.415.415,0,1,1,.455-.413A.436.436,0,0,1,209.625,463.821Z" transform="translate(-141.122 -432.662)" fill="#fff"/>
          <path id="Path_35383" data-name="Path 35383" d="M250.76,463.269a.664.664,0,1,1,.729-.661A.7.7,0,0,1,250.76,463.269Z" transform="translate(-193.214 -431.863)" fill="#fff"/>
          <path id="Path_35384" data-name="Path 35384" d="M291.981,462.781a.885.885,0,1,1,.972-.881A.93.93,0,0,1,291.981,462.781Z" transform="translate(-245.391 -431.154)" fill="#fff"/>
          <path id="Path_35385" data-name="Path 35385" d="M333.2,462.291a1.107,1.107,0,1,1,1.215-1.1A1.163,1.163,0,0,1,333.2,462.291Z" transform="translate(-297.569 -430.445)" fill="#fff"/>
          <path id="Path_35386" data-name="Path 35386" d="M374.423,461.8a1.328,1.328,0,1,1,1.459-1.321A1.395,1.395,0,0,1,374.423,461.8Z" transform="translate(-349.746 -429.736)" fill="#fff"/>
          <path id="Path_35387" data-name="Path 35387" d="M415.731,461.374a1.521,1.521,0,1,1,1.671-1.514A1.6,1.6,0,0,1,415.731,461.374Z" transform="translate(-402.01 -429.114)" fill="#fff"/>
          <path id="Path_35388" data-name="Path 35388" d="M457.038,460.946a1.715,1.715,0,1,1,1.884-1.707A1.8,1.8,0,0,1,457.038,460.946Z" transform="translate(-454.273 -428.493)" fill="#fff"/>
          <path id="Path_35389" data-name="Path 35389" d="M126.839,506.462a.083.083,0,1,1,.091-.083A.087.087,0,0,1,126.839,506.462Z" transform="translate(-36.424 -465.707)" fill="#fff"/>
          <path id="Path_35390" data-name="Path 35390" d="M167.973,505.912a.332.332,0,1,1,.365-.33A.348.348,0,0,1,167.973,505.912Z" transform="translate(-88.514 -464.908)" fill="#fff"/>
          <path id="Path_35391" data-name="Path 35391" d="M209.109,505.361a.581.581,0,1,1,.638-.578A.611.611,0,0,1,209.109,505.361Z" transform="translate(-140.607 -464.11)" fill="#fff"/>
          <path id="Path_35392" data-name="Path 35392" d="M250.245,504.811a.83.83,0,1,1,.911-.826A.872.872,0,0,1,250.245,504.811Z" transform="translate(-192.698 -463.312)" fill="#fff"/>
          <path id="Path_35393" data-name="Path 35393" d="M291.38,504.261a1.079,1.079,0,1,1,1.185-1.074A1.134,1.134,0,0,1,291.38,504.261Z" transform="translate(-244.79 -462.514)" fill="#fff"/>
          <path id="Path_35394" data-name="Path 35394" d="M332.6,503.772a1.3,1.3,0,1,1,1.428-1.294A1.366,1.366,0,0,1,332.6,503.772Z" transform="translate(-296.967 -461.805)" fill="#fff"/>
          <path id="Path_35395" data-name="Path 35395" d="M373.823,503.281a1.522,1.522,0,1,1,1.671-1.514A1.6,1.6,0,0,1,373.823,503.281Z" transform="translate(-349.146 -461.094)" fill="#fff"/>
          <path id="Path_35396" data-name="Path 35396" d="M415.044,502.793a1.743,1.743,0,1,1,1.914-1.734A1.831,1.831,0,0,1,415.044,502.793Z" transform="translate(-401.323 -460.385)" fill="#fff"/>
          <path id="Path_35397" data-name="Path 35397" d="M456.35,502.365a1.936,1.936,0,1,1,2.127-1.927A2.034,2.034,0,0,1,456.35,502.365Z" transform="translate(-453.586 -459.765)" fill="#fff"/>
          <path id="Path_35398" data-name="Path 35398" d="M126.495,548.124a.194.194,0,1,1,.213-.193A.2.2,0,0,1,126.495,548.124Z" transform="translate(-36.079 -497.331)" fill="#fff"/>
          <path id="Path_35399" data-name="Path 35399" d="M167.631,547.575a.443.443,0,1,1,.486-.441A.465.465,0,0,1,167.631,547.575Z" transform="translate(-88.172 -496.534)" fill="#fff"/>
          <path id="Path_35400" data-name="Path 35400" d="M208.68,546.963a.719.719,0,1,1,.79-.716A.755.755,0,0,1,208.68,546.963Z" transform="translate(-140.177 -495.647)" fill="#fff"/>
          <path id="Path_35401" data-name="Path 35401" d="M249.816,546.413a.968.968,0,1,1,1.063-.964A1.017,1.017,0,0,1,249.816,546.413Z" transform="translate(-192.269 -494.849)" fill="#fff"/>
          <path id="Path_35402" data-name="Path 35402" d="M290.951,545.863a1.217,1.217,0,1,1,1.337-1.211A1.279,1.279,0,0,1,290.951,545.863Z" transform="translate(-244.361 -494.051)" fill="#fff"/>
          <path id="Path_35403" data-name="Path 35403" d="M332.086,545.313a1.466,1.466,0,1,1,1.61-1.459A1.54,1.54,0,0,1,332.086,545.313Z" transform="translate(-296.453 -493.253)" fill="#fff"/>
          <path id="Path_35404" data-name="Path 35404" d="M373.222,544.762a1.715,1.715,0,1,1,1.884-1.707A1.8,1.8,0,0,1,373.222,544.762Z" transform="translate(-348.545 -492.454)" fill="#fff"/>
          <path id="Path_35405" data-name="Path 35405" d="M414.443,544.273a1.936,1.936,0,1,1,2.127-1.927A2.034,2.034,0,0,1,414.443,544.273Z" transform="translate(-400.722 -491.745)" fill="#fff"/>
          <path id="Path_35406" data-name="Path 35406" d="M455.664,543.784a2.158,2.158,0,1,1,2.37-2.147A2.267,2.267,0,0,1,455.664,543.784Z" transform="translate(-452.899 -491.036)" fill="#fff"/>
          <path id="Path_35407" data-name="Path 35407" d="M126.152,589.789a.3.3,0,1,1,.334-.3A.32.32,0,0,1,126.152,589.789Z" transform="translate(-35.737 -528.958)" fill="#fff"/>
          <path id="Path_35408" data-name="Path 35408" d="M167.288,589.238a.553.553,0,1,1,.608-.551A.581.581,0,0,1,167.288,589.238Z" transform="translate(-87.829 -528.16)" fill="#fff"/>
          <path id="Path_35409" data-name="Path 35409" d="M208.338,588.627a.83.83,0,1,1,.911-.826A.872.872,0,0,1,208.338,588.627Z" transform="translate(-139.835 -527.273)" fill="#fff"/>
          <path id="Path_35410" data-name="Path 35410" d="M249.386,588.015a1.107,1.107,0,1,1,1.215-1.1A1.163,1.163,0,0,1,249.386,588.015Z" transform="translate(-191.84 -526.386)" fill="#fff"/>
          <path id="Path_35411" data-name="Path 35411" d="M290.522,587.465a1.355,1.355,0,1,1,1.489-1.349A1.424,1.424,0,0,1,290.522,587.465Z" transform="translate(-243.932 -525.588)" fill="#fff"/>
          <path id="Path_35412" data-name="Path 35412" d="M331.571,586.854a1.632,1.632,0,1,1,1.793-1.624A1.715,1.715,0,0,1,331.571,586.854Z" transform="translate(-295.938 -524.701)" fill="#fff"/>
          <path id="Path_35413" data-name="Path 35413" d="M372.707,586.3a1.881,1.881,0,1,1,2.066-1.872A1.976,1.976,0,0,1,372.707,586.3Z" transform="translate(-348.03 -523.903)" fill="#fff"/>
          <path id="Path_35414" data-name="Path 35414" d="M2.32.011A1.956,1.956,0,0,1,4.412,2.1,2.481,2.481,0,0,1,2.1,4.412,1.956,1.956,0,0,1,.011,2.32,2.481,2.481,0,0,1,2.32.011Z" transform="translate(13.721 63.655) rotate(-135)" fill="#fff"/>
          <path id="Path_35415" data-name="Path 35415" d="M455.063,585.263a2.351,2.351,0,1,1,2.583-2.34A2.47,2.47,0,0,1,455.063,585.263Z" transform="translate(-452.299 -522.395)" fill="#fff"/>
          <path id="Path_35416" data-name="Path 35416" d="M125.894,631.513a.387.387,0,1,1,.425-.386A.407.407,0,0,1,125.894,631.513Z" transform="translate(-35.479 -560.672)" fill="#fff"/>
          <path id="Path_35417" data-name="Path 35417" d="M166.944,630.9a.664.664,0,1,1,.729-.661A.7.7,0,0,1,166.944,630.9Z" transform="translate(-87.485 -559.785)" fill="#fff"/>
          <path id="Path_35418" data-name="Path 35418" d="M207.994,630.29a.94.94,0,1,1,1.033-.936A.988.988,0,0,1,207.994,630.29Z" transform="translate(-139.491 -558.899)" fill="#fff"/>
          <path id="Path_35419" data-name="Path 35419" d="M249.044,629.678a1.217,1.217,0,1,1,1.336-1.211A1.279,1.279,0,0,1,249.044,629.678Z" transform="translate(-191.498 -558.012)" fill="#fff"/>
          <path id="Path_35420" data-name="Path 35420" d="M290.093,629.066a1.494,1.494,0,1,1,1.641-1.487A1.569,1.569,0,0,1,290.093,629.066Z" transform="translate(-243.503 -557.124)" fill="#fff"/>
          <path id="Path_35421" data-name="Path 35421" d="M331.228,628.517a1.743,1.743,0,1,1,1.914-1.734A1.83,1.83,0,0,1,331.228,628.517Z" transform="translate(-295.594 -556.327)" fill="#fff"/>
          <path id="Path_35422" data-name="Path 35422" d="M372.277,627.9a2.019,2.019,0,1,1,2.218-2.01A2.121,2.121,0,0,1,372.277,627.9Z" transform="translate(-347.6 -555.439)" fill="#fff"/>
          <path id="Path_35423" data-name="Path 35423" d="M413.413,627.355A2.268,2.268,0,1,1,415.9,625.1,2.383,2.383,0,0,1,413.413,627.355Z" transform="translate(-399.692 -554.642)" fill="#fff"/>
          <path id="Path_35424" data-name="Path 35424" d="M454.548,626.8a2.517,2.517,0,1,1,2.765-2.505A2.644,2.644,0,0,1,454.548,626.8Z" transform="translate(-451.784 -553.844)" fill="#fff"/>
        </g>
      </g>
      <g id="Group_1783" data-name="Group 1783" transform="translate(10.216 -48.633)">
        <g id="Group_1781" data-name="Group 1781" transform="translate(195.701 0)">
          <path id="Path_35425" data-name="Path 35425" d="M252.476,338.55a.111.111,0,1,1-.121.11A.117.117,0,0,1,252.476,338.55Z" transform="translate(-219.182 -266.663)" fill="#fff"/>
          <path id="Path_35426" data-name="Path 35426" d="M293.783,337.736a.3.3,0,1,1-.334.3A.32.32,0,0,1,293.783,337.736Z" transform="translate(-249.533 -266.042)" fill="#fff"/>
          <path id="Path_35427" data-name="Path 35427" d="M335.177,337.038a.47.47,0,1,1-.517.468A.494.494,0,0,1,335.177,337.038Z" transform="translate(-279.969 -265.509)" fill="#fff"/>
          <path id="Path_35428" data-name="Path 35428" d="M376.483,336.225a.664.664,0,1,1-.729.661A.7.7,0,0,1,376.483,336.225Z" transform="translate(-310.32 -264.888)" fill="#fff"/>
          <path id="Path_35429" data-name="Path 35429" d="M417.876,335.528a.83.83,0,1,1-.912.826A.872.872,0,0,1,417.876,335.528Z" transform="translate(-340.756 -264.357)" fill="#fff"/>
          <path id="Path_35430" data-name="Path 35430" d="M459.355,334.947a.968.968,0,1,1-1.064.963A1.017,1.017,0,0,1,459.355,334.947Z" transform="translate(-371.279 -263.913)" fill="#fff"/>
          <path id="Path_35431" data-name="Path 35431" d="M210.655,380.574a.083.083,0,1,1-.091.083A.087.087,0,0,1,210.655,380.574Z" transform="translate(-188.317 -318.587)" fill="#fff"/>
          <path id="Path_35432" data-name="Path 35432" d="M251.875,379.644a.3.3,0,1,1-.334.3A.32.32,0,0,1,251.875,379.644Z" transform="translate(-218.581 -317.877)" fill="#fff"/>
          <path id="Path_35433" data-name="Path 35433" d="M293.183,378.83a.5.5,0,1,1-.547.5A.523.523,0,0,1,293.183,378.83Z" transform="translate(-248.932 -317.256)" fill="#fff"/>
          <path id="Path_35434" data-name="Path 35434" d="M334.49,378.017a.692.692,0,1,1-.76.688A.727.727,0,0,1,334.49,378.017Z" transform="translate(-279.283 -316.636)" fill="#fff"/>
          <path id="Path_35435" data-name="Path 35435" d="M375.8,377.2a.885.885,0,1,1-.973.881A.93.93,0,0,1,375.8,377.2Z" transform="translate(-309.633 -316.015)" fill="#fff"/>
          <path id="Path_35436" data-name="Path 35436" d="M417.1,376.39a1.079,1.079,0,1,1-1.185,1.074A1.133,1.133,0,0,1,417.1,376.39Z" transform="translate(-339.984 -315.394)" fill="#fff"/>
          <path id="Path_35437" data-name="Path 35437" d="M458.582,375.809a1.217,1.217,0,1,1-1.337,1.211A1.279,1.279,0,0,1,458.582,375.809Z" transform="translate(-370.506 -314.95)" fill="#fff"/>
          <path id="Path_35438" data-name="Path 35438" d="M168.832,422.6a.055.055,0,1,1-.061.055A.058.058,0,0,1,168.832,422.6Z" transform="translate(-157.45 -370.51)" fill="#fff"/>
          <path id="Path_35439" data-name="Path 35439" d="M210.139,421.784a.249.249,0,1,1-.273.248A.262.262,0,0,1,210.139,421.784Z" transform="translate(-187.801 -369.889)" fill="#fff"/>
          <path id="Path_35440" data-name="Path 35440" d="M251.361,420.854a.47.47,0,1,1-.516.468A.494.494,0,0,1,251.361,420.854Z" transform="translate(-218.067 -369.179)" fill="#fff"/>
          <path id="Path_35441" data-name="Path 35441" d="M292.581,419.925a.692.692,0,1,1-.759.688A.727.727,0,0,1,292.581,419.925Z" transform="translate(-248.331 -368.471)" fill="#fff"/>
          <path id="Path_35442" data-name="Path 35442" d="M333.8,419a.913.913,0,1,1-1,.908A.959.959,0,0,1,333.8,419Z" transform="translate(-278.596 -367.761)" fill="#fff"/>
          <path id="Path_35443" data-name="Path 35443" d="M375.11,418.181a1.107,1.107,0,1,1-1.216,1.1A1.163,1.163,0,0,1,375.11,418.181Z" transform="translate(-308.946 -367.14)" fill="#fff"/>
          <path id="Path_35444" data-name="Path 35444" d="M416.417,417.368a1.3,1.3,0,1,1-1.428,1.294A1.366,1.366,0,0,1,416.417,417.368Z" transform="translate(-339.297 -366.52)" fill="#fff"/>
          <path id="Path_35445" data-name="Path 35445" d="M457.81,416.671a1.466,1.466,0,1,1-1.61,1.459A1.54,1.54,0,0,1,457.81,416.671Z" transform="translate(-369.734 -365.988)" fill="#fff"/>
          <path id="Path_35446" data-name="Path 35446" d="M168.489,464.041a.166.166,0,1,1-.182.165A.174.174,0,0,1,168.489,464.041Z" transform="translate(-157.108 -421.991)" fill="#fff"/>
          <path id="Path_35447" data-name="Path 35447" d="M209.624,462.995a.415.415,0,1,1-.455.413A.436.436,0,0,1,209.624,462.995Z" transform="translate(-187.287 -421.193)" fill="#fff"/>
          <path id="Path_35448" data-name="Path 35448" d="M250.76,461.948a.664.664,0,1,1-.729.661A.7.7,0,0,1,250.76,461.948Z" transform="translate(-217.466 -420.394)" fill="#fff"/>
          <path id="Path_35449" data-name="Path 35449" d="M291.981,461.019a.885.885,0,1,1-.972.881A.93.93,0,0,1,291.981,461.019Z" transform="translate(-247.73 -419.685)" fill="#fff"/>
          <path id="Path_35450" data-name="Path 35450" d="M333.2,460.089a1.107,1.107,0,1,1-1.215,1.1A1.163,1.163,0,0,1,333.2,460.089Z" transform="translate(-277.995 -418.975)" fill="#fff"/>
          <path id="Path_35451" data-name="Path 35451" d="M374.424,459.16a1.328,1.328,0,1,1-1.459,1.321A1.395,1.395,0,0,1,374.424,459.16Z" transform="translate(-308.26 -418.266)" fill="#fff"/>
          <path id="Path_35452" data-name="Path 35452" d="M415.731,458.346a1.521,1.521,0,1,1-1.671,1.514A1.6,1.6,0,0,1,415.731,458.346Z" transform="translate(-338.611 -417.645)" fill="#fff"/>
          <path id="Path_35453" data-name="Path 35453" d="M457.038,457.532a1.715,1.715,0,1,1-1.884,1.707A1.8,1.8,0,0,1,457.038,457.532Z" transform="translate(-368.962 -417.024)" fill="#fff"/>
          <path id="Path_35454" data-name="Path 35454" d="M126.839,506.3a.083.083,0,1,1-.091.083A.087.087,0,0,1,126.839,506.3Z" transform="translate(-126.414 -474.092)" fill="#fff"/>
          <path id="Path_35455" data-name="Path 35455" d="M167.974,505.251a.332.332,0,1,1-.365.33A.348.348,0,0,1,167.974,505.251Z" transform="translate(-156.592 -473.294)" fill="#fff"/>
          <path id="Path_35456" data-name="Path 35456" d="M209.109,504.205a.581.581,0,1,1-.638.578A.61.61,0,0,1,209.109,504.205Z" transform="translate(-186.771 -472.496)" fill="#fff"/>
          <path id="Path_35457" data-name="Path 35457" d="M250.244,503.159a.83.83,0,1,1-.911.826A.872.872,0,0,1,250.244,503.159Z" transform="translate(-216.95 -471.697)" fill="#fff"/>
          <path id="Path_35458" data-name="Path 35458" d="M291.38,502.114a1.079,1.079,0,1,1-1.185,1.074A1.134,1.134,0,0,1,291.38,502.114Z" transform="translate(-247.129 -470.9)" fill="#fff"/>
          <path id="Path_35459" data-name="Path 35459" d="M332.6,501.184a1.3,1.3,0,1,1-1.428,1.294A1.366,1.366,0,0,1,332.6,501.184Z" transform="translate(-277.394 -470.191)" fill="#fff"/>
          <path id="Path_35460" data-name="Path 35460" d="M373.823,500.253a1.522,1.522,0,1,1-1.671,1.514A1.6,1.6,0,0,1,373.823,500.253Z" transform="translate(-307.66 -469.48)" fill="#fff"/>
          <path id="Path_35461" data-name="Path 35461" d="M415.044,499.324a1.743,1.743,0,1,1-1.914,1.734A1.831,1.831,0,0,1,415.044,499.324Z" transform="translate(-337.924 -468.771)" fill="#fff"/>
          <path id="Path_35462" data-name="Path 35462" d="M456.351,498.511a1.936,1.936,0,1,1-2.127,1.927A2.034,2.034,0,0,1,456.351,498.511Z" transform="translate(-368.275 -468.151)" fill="#fff"/>
          <path id="Path_35463" data-name="Path 35463" d="M126.495,547.739a.194.194,0,1,1-.213.193A.2.2,0,0,1,126.495,547.739Z" transform="translate(-126.069 -525.571)" fill="#fff"/>
          <path id="Path_35464" data-name="Path 35464" d="M167.631,546.694a.443.443,0,1,1-.486.441A.465.465,0,0,1,167.631,546.694Z" transform="translate(-156.249 -524.774)" fill="#fff"/>
          <path id="Path_35465" data-name="Path 35465" d="M208.68,545.532a.719.719,0,1,1-.79.716A.755.755,0,0,1,208.68,545.532Z" transform="translate(-186.342 -523.888)" fill="#fff"/>
          <path id="Path_35466" data-name="Path 35466" d="M249.815,544.486a.968.968,0,1,1-1.063.964A1.017,1.017,0,0,1,249.815,544.486Z" transform="translate(-216.521 -523.09)" fill="#fff"/>
          <path id="Path_35467" data-name="Path 35467" d="M290.951,543.44a1.217,1.217,0,1,1-1.337,1.211A1.279,1.279,0,0,1,290.951,543.44Z" transform="translate(-246.7 -522.291)" fill="#fff"/>
          <path id="Path_35468" data-name="Path 35468" d="M332.086,542.4a1.466,1.466,0,1,1-1.61,1.459A1.54,1.54,0,0,1,332.086,542.4Z" transform="translate(-276.879 -521.494)" fill="#fff"/>
          <path id="Path_35469" data-name="Path 35469" d="M373.223,541.348a1.715,1.715,0,1,1-1.884,1.707A1.8,1.8,0,0,1,373.223,541.348Z" transform="translate(-307.059 -520.695)" fill="#fff"/>
          <path id="Path_35470" data-name="Path 35470" d="M414.443,540.419a1.936,1.936,0,1,1-2.127,1.927A2.034,2.034,0,0,1,414.443,540.419Z" transform="translate(-337.323 -519.986)" fill="#fff"/>
          <path id="Path_35471" data-name="Path 35471" d="M455.664,539.489a2.158,2.158,0,1,1-2.37,2.147A2.267,2.267,0,0,1,455.664,539.489Z" transform="translate(-367.588 -519.276)" fill="#fff"/>
          <path id="Path_35472" data-name="Path 35472" d="M126.152,589.183a.3.3,0,1,1-.334.3A.32.32,0,0,1,126.152,589.183Z" transform="translate(-125.727 -577.053)" fill="#fff"/>
          <path id="Path_35473" data-name="Path 35473" d="M167.288,588.137a.553.553,0,1,1-.608.551A.581.581,0,0,1,167.288,588.137Z" transform="translate(-155.906 -576.255)" fill="#fff"/>
          <path id="Path_35474" data-name="Path 35474" d="M208.337,586.975a.83.83,0,1,1-.911.826A.872.872,0,0,1,208.337,586.975Z" transform="translate(-185.999 -575.368)" fill="#fff"/>
          <path id="Path_35475" data-name="Path 35475" d="M249.386,585.812a1.107,1.107,0,1,1-1.215,1.1A1.163,1.163,0,0,1,249.386,585.812Z" transform="translate(-216.092 -574.481)" fill="#fff"/>
          <path id="Path_35476" data-name="Path 35476" d="M290.522,584.767a1.355,1.355,0,1,1-1.489,1.349A1.424,1.424,0,0,1,290.522,584.767Z" transform="translate(-246.271 -573.683)" fill="#fff"/>
          <path id="Path_35477" data-name="Path 35477" d="M331.572,583.6a1.632,1.632,0,1,1-1.793,1.624A1.715,1.715,0,0,1,331.572,583.6Z" transform="translate(-276.365 -572.797)" fill="#fff"/>
          <path id="Path_35478" data-name="Path 35478" d="M372.707,582.559a1.881,1.881,0,1,1-2.066,1.872A1.976,1.976,0,0,1,372.707,582.559Z" transform="translate(-306.544 -571.998)" fill="#fff"/>
          <path id="Path_35479" data-name="Path 35479" d="M2.32.011A1.956,1.956,0,0,1,4.412,2.1,2.481,2.481,0,0,1,2.1,4.412,1.956,1.956,0,0,1,.011,2.32,2.481,2.481,0,0,1,2.32.011Z" transform="translate(77.12 9.305) rotate(45)" fill="#fff"/>
          <path id="Path_35480" data-name="Path 35480" d="M455.063,580.583a2.351,2.351,0,1,1-2.583,2.34A2.47,2.47,0,0,1,455.063,580.583Z" transform="translate(-366.987 -570.49)" fill="#fff"/>
          <path id="Path_35481" data-name="Path 35481" d="M125.894,630.742a.387.387,0,1,1-.425.386A.407.407,0,0,1,125.894,630.742Z" transform="translate(-125.469 -628.622)" fill="#fff"/>
          <path id="Path_35482" data-name="Path 35482" d="M166.944,629.58a.664.664,0,1,1-.729.661A.7.7,0,0,1,166.944,629.58Z" transform="translate(-155.562 -627.736)" fill="#fff"/>
          <path id="Path_35483" data-name="Path 35483" d="M207.994,628.418a.94.94,0,1,1-1.033.936A.988.988,0,0,1,207.994,628.418Z" transform="translate(-185.656 -626.849)" fill="#fff"/>
          <path id="Path_35484" data-name="Path 35484" d="M249.043,627.256a1.217,1.217,0,1,1-1.336,1.211A1.279,1.279,0,0,1,249.043,627.256Z" transform="translate(-215.749 -625.962)" fill="#fff"/>
          <path id="Path_35485" data-name="Path 35485" d="M290.092,626.093a1.494,1.494,0,1,1-1.641,1.487A1.57,1.57,0,0,1,290.092,626.093Z" transform="translate(-245.842 -625.074)" fill="#fff"/>
          <path id="Path_35486" data-name="Path 35486" d="M331.228,625.048a1.743,1.743,0,1,1-1.914,1.734A1.83,1.83,0,0,1,331.228,625.048Z" transform="translate(-276.021 -624.277)" fill="#fff"/>
          <path id="Path_35487" data-name="Path 35487" d="M372.278,623.885a2.019,2.019,0,1,1-2.218,2.01A2.121,2.121,0,0,1,372.278,623.885Z" transform="translate(-306.115 -623.39)" fill="#fff"/>
          <path id="Path_35488" data-name="Path 35488" d="M413.413,622.84a2.268,2.268,0,1,1-2.491,2.258A2.383,2.383,0,0,1,413.413,622.84Z" transform="translate(-336.294 -622.592)" fill="#fff"/>
          <path id="Path_35489" data-name="Path 35489" d="M454.549,621.794a2.517,2.517,0,1,1-2.765,2.505A2.644,2.644,0,0,1,454.549,621.794Z" transform="translate(-366.473 -621.794)" fill="#fff"/>
        </g>
        <g id="Group_1782" data-name="Group 1782" transform="translate(0 0)">
          <path id="Path_35490" data-name="Path 35490" d="M252.477,338.55a.111.111,0,1,0,.121.11A.117.117,0,0,0,252.477,338.55Z" transform="translate(-194.93 -266.663)" fill="#fff"/>
          <path id="Path_35491" data-name="Path 35491" d="M293.783,337.736a.3.3,0,1,0,.334.3A.32.32,0,0,0,293.783,337.736Z" transform="translate(-247.193 -266.042)" fill="#fff"/>
          <path id="Path_35492" data-name="Path 35492" d="M335.176,337.038a.47.47,0,1,0,.517.468A.494.494,0,0,0,335.176,337.038Z" transform="translate(-299.543 -265.509)" fill="#fff"/>
          <path id="Path_35493" data-name="Path 35493" d="M376.483,336.225a.664.664,0,1,0,.729.661A.7.7,0,0,0,376.483,336.225Z" transform="translate(-351.806 -264.888)" fill="#fff"/>
          <path id="Path_35494" data-name="Path 35494" d="M417.875,335.528a.83.83,0,1,0,.912.826A.872.872,0,0,0,417.875,335.528Z" transform="translate(-404.155 -264.357)" fill="#fff"/>
          <path id="Path_35495" data-name="Path 35495" d="M459.354,334.947a.968.968,0,1,0,1.064.963A1.017,1.017,0,0,0,459.354,334.947Z" transform="translate(-456.59 -263.913)" fill="#fff"/>
          <path id="Path_35496" data-name="Path 35496" d="M210.655,380.574a.083.083,0,1,0,.091.083A.087.087,0,0,0,210.655,380.574Z" transform="translate(-142.152 -318.587)" fill="#fff"/>
          <path id="Path_35497" data-name="Path 35497" d="M251.875,379.644a.3.3,0,1,0,.334.3A.32.32,0,0,0,251.875,379.644Z" transform="translate(-194.329 -317.877)" fill="#fff"/>
          <path id="Path_35498" data-name="Path 35498" d="M293.183,378.83a.5.5,0,1,0,.547.5A.523.523,0,0,0,293.183,378.83Z" transform="translate(-246.593 -317.256)" fill="#fff"/>
          <path id="Path_35499" data-name="Path 35499" d="M334.489,378.017a.692.692,0,1,0,.76.688A.727.727,0,0,0,334.489,378.017Z" transform="translate(-298.856 -316.636)" fill="#fff"/>
          <path id="Path_35500" data-name="Path 35500" d="M375.8,377.2a.885.885,0,1,0,.973.881A.93.93,0,0,0,375.8,377.2Z" transform="translate(-351.119 -316.015)" fill="#fff"/>
          <path id="Path_35501" data-name="Path 35501" d="M417.1,376.39a1.079,1.079,0,1,0,1.185,1.074A1.133,1.133,0,0,0,417.1,376.39Z" transform="translate(-403.383 -315.394)" fill="#fff"/>
          <path id="Path_35502" data-name="Path 35502" d="M458.582,375.809a1.217,1.217,0,1,0,1.337,1.211A1.279,1.279,0,0,0,458.582,375.809Z" transform="translate(-455.817 -314.95)" fill="#fff"/>
          <path id="Path_35503" data-name="Path 35503" d="M168.832,422.6a.055.055,0,1,0,.061.055A.058.058,0,0,0,168.832,422.6Z" transform="translate(-89.373 -370.51)" fill="#fff"/>
          <path id="Path_35504" data-name="Path 35504" d="M210.14,421.784a.249.249,0,1,0,.273.248A.262.262,0,0,0,210.14,421.784Z" transform="translate(-141.637 -369.889)" fill="#fff"/>
          <path id="Path_35505" data-name="Path 35505" d="M251.362,420.854a.47.47,0,1,0,.516.468A.494.494,0,0,0,251.362,420.854Z" transform="translate(-193.815 -369.18)" fill="#fff"/>
          <path id="Path_35506" data-name="Path 35506" d="M292.582,419.925a.692.692,0,1,0,.759.688A.727.727,0,0,0,292.582,419.925Z" transform="translate(-245.992 -368.471)" fill="#fff"/>
          <path id="Path_35507" data-name="Path 35507" d="M333.8,419a.913.913,0,1,0,1,.908A.959.959,0,0,0,333.8,419Z" transform="translate(-298.169 -367.761)" fill="#fff"/>
          <path id="Path_35508" data-name="Path 35508" d="M375.109,418.181a1.107,1.107,0,1,0,1.216,1.1A1.163,1.163,0,0,0,375.109,418.181Z" transform="translate(-350.432 -367.14)" fill="#fff"/>
          <path id="Path_35509" data-name="Path 35509" d="M416.417,417.368a1.3,1.3,0,1,0,1.428,1.294A1.366,1.366,0,0,0,416.417,417.368Z" transform="translate(-402.696 -366.52)" fill="#fff"/>
          <path id="Path_35510" data-name="Path 35510" d="M457.81,416.671a1.466,1.466,0,1,0,1.61,1.459A1.54,1.54,0,0,0,457.81,416.671Z" transform="translate(-455.045 -365.988)" fill="#fff"/>
          <path id="Path_35511" data-name="Path 35511" d="M168.489,464.041a.166.166,0,1,0,.182.165A.174.174,0,0,0,168.489,464.041Z" transform="translate(-89.03 -421.991)" fill="#fff"/>
          <path id="Path_35512" data-name="Path 35512" d="M209.625,462.995a.415.415,0,1,0,.455.413A.436.436,0,0,0,209.625,462.995Z" transform="translate(-141.122 -421.193)" fill="#fff"/>
          <path id="Path_35513" data-name="Path 35513" d="M250.76,461.948a.664.664,0,1,0,.729.661A.7.7,0,0,0,250.76,461.948Z" transform="translate(-193.214 -420.394)" fill="#fff"/>
          <path id="Path_35514" data-name="Path 35514" d="M291.981,461.019a.885.885,0,1,0,.972.881A.93.93,0,0,0,291.981,461.019Z" transform="translate(-245.391 -419.685)" fill="#fff"/>
          <path id="Path_35515" data-name="Path 35515" d="M333.2,460.089a1.107,1.107,0,1,0,1.215,1.1A1.163,1.163,0,0,0,333.2,460.089Z" transform="translate(-297.569 -418.975)" fill="#fff"/>
          <path id="Path_35516" data-name="Path 35516" d="M374.423,459.16a1.328,1.328,0,1,0,1.459,1.321A1.395,1.395,0,0,0,374.423,459.16Z" transform="translate(-349.746 -418.266)" fill="#fff"/>
          <path id="Path_35517" data-name="Path 35517" d="M415.731,458.346a1.521,1.521,0,1,0,1.671,1.514A1.6,1.6,0,0,0,415.731,458.346Z" transform="translate(-402.01 -417.645)" fill="#fff"/>
          <path id="Path_35518" data-name="Path 35518" d="M457.038,457.532a1.715,1.715,0,1,0,1.884,1.707A1.8,1.8,0,0,0,457.038,457.532Z" transform="translate(-454.273 -417.024)" fill="#fff"/>
          <path id="Path_35519" data-name="Path 35519" d="M126.839,506.3a.083.083,0,1,0,.091.083A.087.087,0,0,0,126.839,506.3Z" transform="translate(-36.424 -474.092)" fill="#fff"/>
          <path id="Path_35520" data-name="Path 35520" d="M167.973,505.251a.332.332,0,1,0,.365.33A.348.348,0,0,0,167.973,505.251Z" transform="translate(-88.514 -473.294)" fill="#fff"/>
          <path id="Path_35521" data-name="Path 35521" d="M209.109,504.205a.581.581,0,1,0,.638.578A.61.61,0,0,0,209.109,504.205Z" transform="translate(-140.607 -472.496)" fill="#fff"/>
          <path id="Path_35522" data-name="Path 35522" d="M250.245,503.159a.83.83,0,1,0,.911.826A.872.872,0,0,0,250.245,503.159Z" transform="translate(-192.698 -471.698)" fill="#fff"/>
          <path id="Path_35523" data-name="Path 35523" d="M291.38,502.114a1.079,1.079,0,1,0,1.185,1.074A1.134,1.134,0,0,0,291.38,502.114Z" transform="translate(-244.79 -470.9)" fill="#fff"/>
          <path id="Path_35524" data-name="Path 35524" d="M332.6,501.184a1.3,1.3,0,1,0,1.428,1.294A1.366,1.366,0,0,0,332.6,501.184Z" transform="translate(-296.967 -470.191)" fill="#fff"/>
          <path id="Path_35525" data-name="Path 35525" d="M373.823,500.253a1.522,1.522,0,1,0,1.671,1.514A1.6,1.6,0,0,0,373.823,500.253Z" transform="translate(-349.146 -469.48)" fill="#fff"/>
          <path id="Path_35526" data-name="Path 35526" d="M415.044,499.324a1.743,1.743,0,1,0,1.914,1.734A1.831,1.831,0,0,0,415.044,499.324Z" transform="translate(-401.323 -468.771)" fill="#fff"/>
          <path id="Path_35527" data-name="Path 35527" d="M456.35,498.511a1.936,1.936,0,1,0,2.127,1.927A2.034,2.034,0,0,0,456.35,498.511Z" transform="translate(-453.586 -468.151)" fill="#fff"/>
          <path id="Path_35528" data-name="Path 35528" d="M126.495,547.739a.194.194,0,1,0,.213.193A.2.2,0,0,0,126.495,547.739Z" transform="translate(-36.079 -525.571)" fill="#fff"/>
          <path id="Path_35529" data-name="Path 35529" d="M167.631,546.694a.443.443,0,1,0,.486.441A.465.465,0,0,0,167.631,546.694Z" transform="translate(-88.172 -524.775)" fill="#fff"/>
          <path id="Path_35530" data-name="Path 35530" d="M208.68,545.532a.719.719,0,1,0,.79.716A.755.755,0,0,0,208.68,545.532Z" transform="translate(-140.177 -523.888)" fill="#fff"/>
          <path id="Path_35531" data-name="Path 35531" d="M249.816,544.486a.968.968,0,1,0,1.063.964A1.017,1.017,0,0,0,249.816,544.486Z" transform="translate(-192.269 -523.09)" fill="#fff"/>
          <path id="Path_35532" data-name="Path 35532" d="M290.951,543.44a1.217,1.217,0,1,0,1.337,1.211A1.279,1.279,0,0,0,290.951,543.44Z" transform="translate(-244.361 -522.291)" fill="#fff"/>
          <path id="Path_35533" data-name="Path 35533" d="M332.086,542.4a1.466,1.466,0,1,0,1.61,1.459A1.54,1.54,0,0,0,332.086,542.4Z" transform="translate(-296.453 -521.494)" fill="#fff"/>
          <path id="Path_35534" data-name="Path 35534" d="M373.222,541.348a1.715,1.715,0,1,0,1.884,1.707A1.8,1.8,0,0,0,373.222,541.348Z" transform="translate(-348.545 -520.695)" fill="#fff"/>
          <path id="Path_35535" data-name="Path 35535" d="M414.443,540.419a1.936,1.936,0,1,0,2.127,1.927A2.034,2.034,0,0,0,414.443,540.419Z" transform="translate(-400.722 -519.986)" fill="#fff"/>
          <path id="Path_35536" data-name="Path 35536" d="M455.664,539.489a2.158,2.158,0,1,0,2.37,2.147A2.267,2.267,0,0,0,455.664,539.489Z" transform="translate(-452.899 -519.276)" fill="#fff"/>
          <path id="Path_35537" data-name="Path 35537" d="M126.152,589.183a.3.3,0,1,0,.334.3A.32.32,0,0,0,126.152,589.183Z" transform="translate(-35.737 -577.053)" fill="#fff"/>
          <path id="Path_35538" data-name="Path 35538" d="M167.288,588.137a.553.553,0,1,0,.608.551A.581.581,0,0,0,167.288,588.137Z" transform="translate(-87.829 -576.255)" fill="#fff"/>
          <path id="Path_35539" data-name="Path 35539" d="M208.338,586.975a.83.83,0,1,0,.911.826A.872.872,0,0,0,208.338,586.975Z" transform="translate(-139.835 -575.369)" fill="#fff"/>
          <path id="Path_35540" data-name="Path 35540" d="M249.386,585.812a1.107,1.107,0,1,0,1.215,1.1A1.163,1.163,0,0,0,249.386,585.812Z" transform="translate(-191.84 -574.481)" fill="#fff"/>
          <path id="Path_35541" data-name="Path 35541" d="M290.522,584.767a1.355,1.355,0,1,0,1.489,1.349A1.424,1.424,0,0,0,290.522,584.767Z" transform="translate(-243.932 -573.683)" fill="#fff"/>
          <path id="Path_35542" data-name="Path 35542" d="M331.571,583.6a1.632,1.632,0,1,0,1.793,1.624A1.715,1.715,0,0,0,331.571,583.6Z" transform="translate(-295.938 -572.797)" fill="#fff"/>
          <path id="Path_35543" data-name="Path 35543" d="M372.707,582.559a1.881,1.881,0,1,0,2.066,1.872A1.976,1.976,0,0,0,372.707,582.559Z" transform="translate(-348.03 -571.998)" fill="#fff"/>
          <path id="Path_35544" data-name="Path 35544" d="M2.088,0A2.481,2.481,0,0,1,4.4,2.305,1.956,1.956,0,0,1,2.305,4.4,2.481,2.481,0,0,1,0,2.088,1.956,1.956,0,0,1,2.088,0Z" transform="translate(16.827 12.433) rotate(135)" fill="#fff"/>
          <path id="Path_35545" data-name="Path 35545" d="M455.063,580.583a2.351,2.351,0,1,0,2.583,2.34A2.47,2.47,0,0,0,455.063,580.583Z" transform="translate(-452.299 -570.491)" fill="#fff"/>
          <path id="Path_35546" data-name="Path 35546" d="M125.894,630.742a.387.387,0,1,0,.425.386A.407.407,0,0,0,125.894,630.742Z" transform="translate(-35.479 -628.622)" fill="#fff"/>
          <path id="Path_35547" data-name="Path 35547" d="M166.944,629.58a.664.664,0,1,0,.729.661A.7.7,0,0,0,166.944,629.58Z" transform="translate(-87.485 -627.736)" fill="#fff"/>
          <path id="Path_35548" data-name="Path 35548" d="M207.994,628.418a.94.94,0,1,0,1.033.936A.988.988,0,0,0,207.994,628.418Z" transform="translate(-139.491 -626.849)" fill="#fff"/>
          <path id="Path_35549" data-name="Path 35549" d="M249.044,627.256a1.217,1.217,0,1,0,1.336,1.211A1.279,1.279,0,0,0,249.044,627.256Z" transform="translate(-191.498 -625.962)" fill="#fff"/>
          <path id="Path_35550" data-name="Path 35550" d="M290.093,626.093a1.494,1.494,0,1,0,1.641,1.487A1.569,1.569,0,0,0,290.093,626.093Z" transform="translate(-243.503 -625.074)" fill="#fff"/>
          <path id="Path_35551" data-name="Path 35551" d="M331.228,625.048a1.743,1.743,0,1,0,1.914,1.734A1.83,1.83,0,0,0,331.228,625.048Z" transform="translate(-295.594 -624.277)" fill="#fff"/>
          <path id="Path_35552" data-name="Path 35552" d="M372.277,623.885a2.019,2.019,0,1,0,2.218,2.01A2.121,2.121,0,0,0,372.277,623.885Z" transform="translate(-347.6 -623.39)" fill="#fff"/>
          <path id="Path_35553" data-name="Path 35553" d="M413.413,622.84A2.268,2.268,0,1,0,415.9,625.1,2.383,2.383,0,0,0,413.413,622.84Z" transform="translate(-399.692 -622.592)" fill="#fff"/>
          <path id="Path_35554" data-name="Path 35554" d="M454.548,621.794a2.517,2.517,0,1,0,2.765,2.505A2.644,2.644,0,0,0,454.548,621.794Z" transform="translate(-451.784 -621.794)" fill="#fff"/>
        </g>
      </g>
    </g>
  </g>
</svg>
