<svg xmlns="http://www.w3.org/2000/svg" width="26" height="28" viewBox="0 0 26 28">
  <g id="delete" transform="translate(-3 -2)">
    <path id="XMLID_237_" d="M6,12V27a3,3,0,0,0,3,3H23a3,3,0,0,0,3-3V12Zm6,13a1,1,0,0,1-2,0V16a1,1,0,0,1,2,0Zm5,0a1,1,0,0,1-2,0V16a1,1,0,0,1,2,0Zm5,0a1,1,0,0,1-2,0V16a1,1,0,0,1,2,0Z"/>
    <path id="XMLID_243_" d="M27,6H21V5a3,3,0,0,0-3-3H14a3,3,0,0,0-3,3V6H5A2,2,0,0,0,3,8V9a1,1,0,0,0,1,1H28a1,1,0,0,0,1-1V8A2,2,0,0,0,27,6ZM13,5a1,1,0,0,1,1-1h4a1,1,0,0,1,1,1V6H13Z"/>
  </g>
</svg>
