<svg xmlns="http://www.w3.org/2000/svg" width="23.877" height="25.846" viewBox="0 0 23.877 25.846">
  <g id="edit" transform="translate(-4 -4.154)">
    <path id="Path_43017" data-name="Path 43017" d="M5.81,27.19A1,1,0,0,1,4.82,26l1.26-8.33a1,1,0,0,1,.28-.56L18.54,5a3.08,3.08,0,0,1,4.24,0L27,9.22a3,3,0,0,1,0,4.24L14.85,25.64a1,1,0,0,1-.56.28L6,27.18ZM8,18.34,7,25l6.66-1,12-11.94a1,1,0,0,0,0-1.41l-4.3-4.26a1,1,0,0,0-1.41,0Z"/>
    <path id="Path_43018" data-name="Path 43018" d="M24.9,15.17a1,1,0,0,1-.71-.29L17.12,7.81a1,1,0,1,1,1.42-1.42l7.07,7.07a1,1,0,0,1-.71,1.71Z"/>
    <path id="Path_43019" data-name="Path 43019" d="M25,30H5a1,1,0,0,1,0-2H25a1,1,0,0,1,0,2Z"/>
    <path id="Path_43020" data-name="Path 43020" d="M11.46,14.83,6.38,19.77c-1.18,1.17-.74,4.25.43,5.42s4.37,1.46,5.54.29l6-6.1s-5.73,2.56-7.07,1.06S11.46,14.83,11.46,14.83Z"/>
  </g>
</svg>
