<?xml version="1.0" encoding="UTF-8"?>
<svg version="1.1" viewBox="0 0 2252 1772" width="1280" height="1280" xmlns="http://www.w3.org/2000/svg">
<path transform="translate(591,685)" d="m0 0h10l6 4 6 10 12 26 12 20 12 17 11 13 9 10 16 16 11 9 9 8 28 22 10 9 7 10v9l-6 10-11 14-10 13-10 15-8 16-5 11-7 23-4 19-1 8-1 23 1 16 4 17 5 12 8 11 4 5 10 8 16 8 13 4 15 2h28l16-2 23-6 22-8 29-14 22-12 16-10 24-16 16-12 13-10 22-18 11-10 8-7 11-10h2l1-3 8-7 44-44 10-7 9-3 1 4-3 17-6 22-11 28-8 17-12 22-14 23-15 22-11 15-10 13-12 14-7 8-9 10-17 17-11 9-13 11-15 11-12 8-17 10-12 7-26 12-29 11-31 9-24 5-35 5-29 2h-53l-22-2-16-3-17-6-16-8-11-7-10-8-17-17-10-14-6-10-6-15-3-12-1-7v-11l4-16 7-14 10-14 1-2h2l2-5 9-12 9-15 8-16 6-17 3-13 2-21v-11l-3-21-5-16-7-16-10-18-10-13-12-14-9-10-11-14-8-11-6-10-6-15-2-9v-17l4-15 7-13 9-12 4-5h2l2-4 11-9 10-8 14-9 14-8z" fill="#fff"/>
<path transform="translate(1328,195)" d="m0 0h12l23 3 16 5 12 6 10 8 9 9 6 10 5 14 6 31 6 29 7 23 6 14 8 14 9 13 11 12 14 11 13 8 8 4 16 5 12 3 7 1 43 1 24 1 15 3 13 5 9 6 9 8 9 13 5 12 3 16 1 21-2 31-5 25-6 17-7 11-5 4h-10l-36-12-29-6-14-2-30-2h-22l-38 2-34 4h-7l-8-3-5-5-3-7-2-15-2-19-5-27-4-14-6-18-9-19-11-19-10-13-6-7-8-7-10-7-11-5-10-3-21-3-13 1-18 5-14 7-12 9-4 4h-2l-2 4-10 11-13 18-13 23-9 21-9 27-10 40-8 42-6 38-3 36v107l-2 4-5-1-7-8-10-18-11-24-12-31-9-29-8-37-4-24-3-32-1-20v-17l2-30 3-23 6-31 7-26 9-27 7-18 15-30 12-21 7-11 10-14 14-18 13-15 7-7 1-2h2l2-4 12-12 8-7 14-12 17-13 13-8 15-7 21-6 18-3z" fill="#fff"/>
<path transform="translate(1494,684)" d="m0 0h52l26 3 30 5 25 6 35 12 23 10 16 8 27 15 27 18 18 14 15 15 11 15 10 17 7 15 7 21 3 14 1 8v19l-3 16-5 12-7 10-5 6-13 9-14 7-19 8-17 9-11 6-13 9-11 9-8 7-9 11-7 10-9 16-5 12-4 17-2 13v27l5 30 7 36 1 17-2 13-4 11-7 11-9 10-10 7-11 5-15 5-22 5-22 3-23 1-15-2-8-3-8-5-3-5v-12l2-14v-41l-2-27-5-27-6-23-12-36-10-28-1-4v-12l4-5 10-6 30-11 24-11 18-11 12-9 11-9 3-3h2v-2l7-6 2-3h2l2-4 10-13 8-16 4-13 2-12v-18l-2-10-6-16-9-14-5-6-8-7-9-7-15-9-23-10-20-6-29-6-28-3h-42l-53 3-40 4-39 7-31 7-52 14-5-1-1-5 6-10 8-7 12-10 17-13 15-11 19-12 17-10 27-14 25-11 24-9 28-8 27-6 38-5z" fill="#fff"/>
<path transform="translate(955,191)" d="m0 0h18l18 4 13 5 27 14 16 10 10 8 7 7 4 7v10l-4 10-8 14-15 22-10 15-12 22-7 15-7 19-7 23-6 27-5 23-7 14-6 5h-12l-33-10-15-3-22-3h-18l-22 2-20 4-24 8-16 8-14 11-8 10-7 12-5 15-2 15 1 19 3 15 6 17 8 16 9 14 8 10 9 10 11 11 11 9 19 14 22 15 32 21 13 8 22 12 16 8 28 12 13 5 36 15 27 11 14 6 5 5-1 5-6 5-16 2h-60l-32-2-28-3-23-4-27-6-27-8-27-10-18-8-19-10-21-12-11-8-14-10-13-11-9-7-10-9-8-7-8-8-8-7-7-7v-2h-2l-7-8-12-13-10-13-13-18-12-19-12-23-8-19-7-24-5-25-3-28v-31l2-13 4-13 8-15 8-11 10-10 13-9 17-8 14-4 4-1h15l43 7 10 1h38l22-4 20-7 15-8 11-8 11-9 2-3h2l2-4 9-11 10-16 8-16 7-16 10-24 8-14 7-9 5-6 5-4h2v-2l11-6 11-4z" fill="#fff"/>
<path transform="translate(1191,886)" d="m0 0h6l16 8 16 10 18 13 14 11 14 12 15 14 17 17 7 8 12 14 9 12 11 15 13 20 12 21 11 23 10 23 11 33 7 28 4 21 3 20 2 29v34l-3 30-5 31-6 25-9 29-7 18-7 14-12 17-9 10-7 8-11 10-15 11-16 9-8 4-20 6-12 2-16-1-15-5-10-6-10-8-8-8-11-14-12-14-7-8-13-13-17-13-14-8-19-7-12-3-17-2h-25l-18 3-21 7-19 9-20 12-23 12-18 6-15 1-11-2-16-8-8-6-8-8-12-17-9-16-8-16-7-19-4-13-2-12v-7l3-8 5-5 8-3 22-3 28-7 26-9 26-12 21-12 18-12 14-10 13-10 16-12 11-6 5-1 10 5 7 7 14 19 11 14 21 21 17 13 17 11 19 9 12 4 15 3 18 1 21-3 13-5 10-6 6-4 5-5 10-12 9-17 6-18 3-17 1-9v-40l-3-24-4-19-8-28-11-33-8-21-8-20-8-16-11-23-12-22-8-14-16-27-15-26-5-10z" fill="#fff"/>
<path transform="translate(449,849)" d="m0 0 20 2 19 5 17 7 15 8 12 9 11 10 10 13 7 12 7 19 3 17v15l-3 21-6 20-5 12-7 13-10 13-7 9h-2l-2 4-12 10-12 8-16 7-12 4-24 4h-18l-19-4-21-9-10-6-11-8-10-9-8-8-11-15-8-14-7-19-3-15v-21l4-20 6-17 9-17 10-14 11-12 7-7 15-11 16-8 15-5 12-2z" fill="#fff"/>
<path transform="translate(1806,989)" d="m0 0 17 1 19 4 20 8 15 9 13 11 10 11 10 15 6 13 5 15 3 14 1 10v11l-2 20-6 21-8 16-10 14-11 13-4 2v2l-13 10-14 8-18 7-17 4-8 1h-23l-16-3-16-6-19-10-14-11-16-16-10-15-8-16-5-16-3-19v-13l4-26 10-24 6-11 9-12 6-7 6-5h2v-2l15-10 16-8 18-6 16-3z" fill="#fff"/>
<path transform="translate(1556,159)" d="m0 0h23l18 3 15 5 16 8 13 9 13 11 7 7 10 13 8 14 5 11 5 17 2 11v23l-4 18-6 16-9 16-9 11-9 10-7 7-15 11-15 8-17 6-20 4h-20l-17-3-19-7-16-8-13-9-4-3v-2l-4-2-11-11-8-11-7-11-7-17-5-24v-19l3-18 5-16 8-17 10-15 9-10 4-5 11-9 10-7 15-8 18-5z" fill="#fff"/>
<path transform="translate(1075,1427)" d="m0 0h13l14 2 15 4 17 7 16 9 11 9 10 9 9 11 9 13 9 17 6 20 2 13v20l-3 18-6 16-7 14-8 11-9 11-10 10-15 11-12 7-16 6-17 4h-27l-17-3-16-5-16-8-10-6-11-9-10-10-10-14-8-16-5-16-4-25v-17l3-19 4-15 7-16 5-9 8-12 11-12 6-5 13-9 15-8 15-5 9-2z" fill="#fff"/>
<path transform="translate(746,105)" d="m0 0h13l19 3 18 6 17 9 14 10 12 10v2l3 1 9 11 9 14 5 10 6 18 2 9 1 14-2 21-4 16-9 20-12 17-12 13-3 1v2l-13 9-16 9-18 7-21 5-8 1h-10l-16-2-16-5-15-7-11-6-13-10-3-2v-2l-4-2-10-11-11-15-7-14-5-15-2-10v-31l3-17 5-16 8-17 7-11 7-9 16-14 13-8 16-7 14-4z" fill="#fff"/>
</svg>
