<svg xmlns="http://www.w3.org/2000/svg" width="19.435" height="19.435" viewBox="0 0 19.435 19.435">
  <g id="pen" transform="translate(-2 -2.565)">
    <path id="Path_67520" data-name="Path 67520" d="M17,22H5a3,3,0,0,1-3-3V7A3,3,0,0,1,5,4H9A1,1,0,0,1,9,6H5A1,1,0,0,0,4,7V19a1,1,0,0,0,1,1H17a1,1,0,0,0,1-1V15a1,1,0,0,1,2,0v4A3,3,0,0,1,17,22Z" fill="#888"/>
    <path id="Path_67521" data-name="Path 67521" d="M14.6,5.87l-4.95,5a.41.41,0,0,0-.13.23l-1,3.82a.48.48,0,0,0,.13.48.47.47,0,0,0,.35.1.32.32,0,0,0,.13,0l3.82-1a.41.41,0,0,0,.23-.13L18.13,9.4Z" fill="#888"/>
    <path id="Path_67522" data-name="Path 67522" d="M21,4.45,19.55,3a1.52,1.52,0,0,0-2.13,0L16,4.45,19.55,8,21,6.58a1.52,1.52,0,0,0,0-2.13Z" fill="#888"/>
  </g>
</svg>
