<svg xmlns="http://www.w3.org/2000/svg" width="20" height="20" viewBox="0 0 20 20">
  <path id="youtube" d="M17.556,0A2.445,2.445,0,0,1,20,2.444V17.556A2.445,2.445,0,0,1,17.556,20H2.444A2.445,2.445,0,0,1,0,17.556V2.444A2.445,2.445,0,0,1,2.444,0H17.556Zm-.819,6.861a1.761,1.761,0,0,0-1.243-1.243A42.02,42.02,0,0,0,10,5.323a42.02,42.02,0,0,0-5.494.294A1.761,1.761,0,0,0,3.263,6.861a18.3,18.3,0,0,0-.294,3.385,18.3,18.3,0,0,0,.294,3.385,1.761,1.761,0,0,0,1.243,1.243A42.037,42.037,0,0,0,10,15.167a42.037,42.037,0,0,0,5.494-.294,1.761,1.761,0,0,0,1.243-1.243,18.3,18.3,0,0,0,.294-3.385A18.3,18.3,0,0,0,16.737,6.861ZM8.594,12.355V8.136l3.654,2.109L8.594,12.355Z" fill="#888" fill-rule="evenodd"/>
</svg>
