<?xml version="1.0" encoding="utf-8"?>
<!-- Generator: Adobe Illustrator 24.0.0, SVG Export Plug-In . SVG Version: 6.00 Build 0)  -->
<svg version="1.1" id="Layer_1" xmlns="http://www.w3.org/2000/svg" xmlns:xlink="http://www.w3.org/1999/xlink" x="0px" y="0px"
	 viewBox="0 0 24 24" style="enable-background:new 0 0 24 24;" xml:space="preserve">
<style type="text/css">
	.st0{fill:#1A1A1A;}
	.st1{opacity:0.2;fill:#FFFFFF;enable-background:new    ;}
	.st2{fill:#0099D8;}
	.st3{fill:#FFFFFF;}
	.st4{opacity:0.1;enable-background:new    ;}
	.st5{opacity:0.3;enable-background:new    ;}
	.st6{fill:#FDB515;}
	.st7{fill:url(#SVGID_1_);}
	.st8{fill:url(#SVGID_2_);}
	.st9{fill:url(#SVGID_3_);}
</style>
<g>
	<path class="st0" d="M19.7,18c0.2-0.5,0.3-1.1,0.3-2c0-3.2-1.5-5.1-2.7-6.6C16.6,8.5,16,7.7,16,7l0-0.2c0-1.4,0-4.3-1.5-5.8
		C13.9,0.3,13,0,12,0C9.9,0,8.5,1,8.5,6c0,1.4-0.6,2.5-1.2,3.7c-0.3,0.5-0.5,1.1-0.8,1.6C6.1,12.4,5,15.2,5,16.5
		c0,0.1,0,0.2,0.1,0.2l3.5,6.7c0.1,0.1,0.2,0.2,0.4,0.3c0,0,0,0,0.1,0c0.1,0,0.3-0.1,0.4-0.2C9.6,23.3,11.1,23,12,23h3.4
		c0.1,0,0.3-0.1,0.3-0.1l4.1-4c0.2-0.2,0.2-0.5,0-0.7C19.8,18.1,19.7,18.1,19.7,18z"/>
	<path class="st1" d="M7.3,9.9c0.6-1.2,1.2-2.3,1.2-3.7c0-5,1.4-6,3.5-6c1,0,1.9,0.3,2.5,1C15.8,2.6,16,4.9,16,6.4
		c0-1.5-0.1-4-1.5-5.5C13.9,0.3,13,0,12,0C9.9,0,8.5,1,8.5,6c0,1.4-0.6,2.5-1.2,3.7c-0.3,0.5-0.5,1.1-0.8,1.6
		C6.1,12.4,5,15.2,5,16.5c0,0,0,0,0,0.1c0.1-1.3,1.1-3.9,1.5-5C6.8,11,7,10.5,7.3,9.9z"/>
	<path class="st2" d="M19.9,18.4c0.1,0.1,0.1,0.1,0.1,0.2c0-0.2,0-0.3-0.1-0.5c0,0-0.1,0-0.1-0.1c0,0.1,0,0.1-0.1,0.2
		C19.7,18.3,19.8,18.3,19.9,18.4z"/>
	<path class="st1" d="M16,7.3c0,0.7,0.6,1.5,1.3,2.4c1.2,1.5,2.7,3.3,2.7,6.5c0-0.1,0-0.1,0-0.2c0-3.2-1.5-5.1-2.7-6.6
		C16.6,8.5,16,7.7,16,7c0,0,0,0,0,0L16,7.3z"/>
	<path class="st2" d="M16,7C16,7,16,7,16,7c0-0.2,0-0.4,0-0.6c0,0.1,0,0.2,0,0.3L16,7z"/>
	<g>
		<path class="st3" d="M16.1,16.8c0-2.4-0.3-5.2-2.3-9.1c-1,0.6-2.7,1.2-2.9,1.2c-0.4,0-1.2-0.3-1.8-0.8c-0.2,0.7-0.6,1.4-0.9,2.1
			c-0.3,0.5-0.5,1-0.7,1.5c-0.6,1.5-1.3,3.4-1.4,4.5c0.4,0.3,0.7,0.9,1,1.6c0.3,0.7,0.7,1.5,1.2,1.8c0.9,0.6,1.4,1.5,1.5,2.3
			c0.3,0,0.8,0.1,1.3,0.1c1.2,0,2.9-0.2,4.1-1C15.2,19.7,15.4,17.6,16.1,16.8z"/>
	</g>
	<path class="st2" d="M20,16.2c0,0.8-0.1,1.4-0.3,1.9c0,0,0,0,0.1,0C19.9,17.6,20,17,20,16.2C20,16.2,20,16.2,20,16.2z"/>
	<path class="st4" d="M9.8,21.9c0.3,0,0.8,0.1,1.3,0.1c1.2,0,2.9-0.2,4.1-1v-0.3c-1.2,0.7-2.9,1-4.1,1c-0.5,0-1,0-1.3-0.1"/>
	<path class="st5" d="M15.7,22.6c-0.1,0.1-0.2,0.1-0.3,0.1H12c-0.9,0-2.4,0.3-2.6,0.6c-0.1,0.1-0.2,0.2-0.4,0.2c0,0,0,0-0.1,0
		c-0.2,0-0.3-0.1-0.4-0.3l-3.5-6.7c0-0.1,0-0.1,0-0.2c0,0.1,0,0.1,0,0.2c0,0.1,0,0.2,0.1,0.2l3.5,6.7c0.1,0.1,0.2,0.2,0.4,0.3
		c0,0,0,0,0.1,0c0.1,0,0.3-0.1,0.4-0.2C9.6,23.3,11.1,23,12,23h3.4c0.1,0,0.3-0.1,0.3-0.1l4.1-4c0.1-0.1,0.2-0.3,0.1-0.5
		c0,0.1-0.1,0.2-0.1,0.2L15.7,22.6z"/>
	<path class="st6" d="M20.9,19.1c-0.2-0.1-0.4-0.3-0.6-0.4c-0.1-0.1,0-0.5,0-0.7c0-0.4,0.1-0.9-0.2-1.2c-0.1-0.1-0.3-0.3-0.6-0.3
		c-0.3,0-0.5,0.2-0.5,0.5c0,0,0,0,0,0h-2c0-0.3-0.2-0.5-0.5-0.5c-1.5,0-1.5,5.4-1.5,5.6c0,0.3-0.1,1,0.4,1.5
		c0.3,0.3,0.7,0.4,1.2,0.4c1.3,0,1.9-0.7,2.5-1.3c0.1-0.1,0.2-0.2,0.3-0.3c0.3-0.3,0.7-0.4,1.2-0.6c0.7-0.3,1.5-0.5,1.5-1.3
		C22,19.8,21.4,19.4,20.9,19.1z"/>
	<path class="st6" d="M8.3,19.6c-0.5-0.3-0.9-1.1-1.2-1.8C6.6,16.8,6.2,16,5.5,16c-0.9,0-1.1,0.8-1.2,1.3c0,0.1-0.1,0.3-0.1,0.3
		c-0.1,0-0.4,0.1-0.5,0.1C3,17.9,2,18.1,2,19c0,0.3,0,0.5,0.1,0.7c0.1,0.4,0.1,0.8-0.1,1.6c0,0,0,0.1,0,0.1c0,1.2,1.9,1.4,3,1.5
		c0.2,0,0.3,0,0.4,0c0.2,0,0.5,0.2,0.8,0.3C6.9,23.6,7.7,24,8.5,24c0.6,0,1-0.4,1.2-1C10,22,9.6,20.5,8.3,19.6z"/>
	<path class="st1" d="M3.6,18c0.2,0,0.5-0.1,0.6-0.1c0,0,0.1-0.2,0.1-0.3c0.1-0.5,0.3-1.3,1.3-1.3c0.8,0,1.2,0.8,1.6,1.7
		c0.3,0.7,0.7,1.5,1.3,1.8c0.5,0.3,0.9,0.8,1.1,1.2c-0.2-0.5-0.6-1.1-1.2-1.5c-0.5-0.3-0.9-1.1-1.2-1.8C6.6,16.8,6.2,16,5.5,16
		c-0.9,0-1.1,0.8-1.2,1.3c0,0.1-0.1,0.3-0.1,0.3c-0.1,0-0.4,0.1-0.5,0.1c-0.5,0.1-1.4,0.3-1.6,0.9C2.4,18.2,3.1,18.1,3.6,18z"/>
	<path class="st0" d="M19.5,15.5c-0.1,0-0.2,0-0.3,0.1l-3.3-5.5c-0.4-1-0.8-2.1-1.5-3.3c-0.1-0.2-0.4-0.3-0.7-0.2
		c-0.2,0.1-0.3,0.4-0.2,0.7c2.3,4.4,2.4,7.1,2.4,9.7c0,0.1,0,1,0.5,1.6c0.3,0.3,0.6,0.4,1,0.4l0.2,0c0.1,0,0.1,0,0.2,0
		c0.5,0,1.1,0,1.5-0.5c0.5-0.5,0.7-1.2,0.7-2.5C20,15.7,19.8,15.5,19.5,15.5z"/>
	<path class="st5" d="M19.3,18.3c-0.4,0.4-1,0.5-1.5,0.5c-0.1,0-0.1,0-0.2,0l-0.2,0c-0.4,0-0.7-0.1-1-0.4c-0.4-0.4-0.5-1.1-0.5-1.4
		c0,0,0,0,0,0c0,0.1,0,1,0.5,1.6c0.3,0.3,0.6,0.4,1,0.4l0.2,0c0.1,0,0.1,0,0.2,0c0.5,0,1.1,0,1.5-0.5c0.5-0.5,0.7-1.2,0.7-2.5
		c0,0,0,0,0,0C20,17.1,19.8,17.9,19.3,18.3z"/>
	<path class="st3" d="M13,3c-0.6,0-1,0.6-1,1.5C12,5.4,12.4,6,13,6s1-0.6,1-1.5C14,3.7,13.6,3,13,3z"/>
	<ellipse cx="13" cy="4.9" rx="0.5" ry="0.9"/>
	<path class="st3" d="M10,3C9.4,3,9,3.7,9,4.5C9,5.4,9.4,6,10,6s1-0.6,1-1.5C11,3.7,10.6,3,10,3z"/>
	
		<linearGradient id="SVGID_1_" gradientUnits="userSpaceOnUse" x1="10.3835" y1="19.1903" x2="17.1651" y2="12.4087" gradientTransform="matrix(1 0 0 -1 0 26)">
		<stop  offset="0" style="stop-color:#000000;stop-opacity:0.1"/>
		<stop  offset="1" style="stop-color:#000000;stop-opacity:0"/>
	</linearGradient>
	<path class="st7" d="M13.8,7.7c-1,0.6-2.6,1.1-2.8,1.1c-0.4,0-1.2-0.3-1.8-0.8l6.8,6.8C15.8,12.9,15.3,10.7,13.8,7.7z"/>
	<ellipse cx="10" cy="4.9" rx="0.4" ry="0.9"/>
	<path class="st6" d="M11.6,5C11.6,5,11.5,5,11.6,5c-1.2,0-3.1,1-3.1,2c0,0.9,1.9,2,2.5,2c0.3,0,3.5-1.1,3.5-2
		C14.5,5.7,12.3,5.1,11.6,5z"/>
	<path class="st6" d="M11.6,5C11.6,5,11.5,5,11.6,5c-1.2,0-3.1,1-3.1,2c0,0.9,1.9,2,2.5,2c0.3,0,3.5-1.1,3.5-2
		C14.5,5.7,12.3,5.1,11.6,5z"/>
	<path class="st4" d="M20.5,21.5c-0.4,0.2-0.9,0.3-1.2,0.6c-0.1,0.1-0.2,0.2-0.3,0.3c-0.6,0.6-1.2,1.3-2.5,1.3
		c-0.5,0-0.9-0.2-1.2-0.4C15.1,23,15,22.6,15,22.2c0,0.3,0,0.9,0.4,1.3c0.3,0.3,0.7,0.4,1.2,0.4c1.3,0,1.9-0.7,2.5-1.3
		c0.1-0.1,0.2-0.2,0.3-0.3c0.3-0.3,0.7-0.4,1.2-0.6c0.7-0.3,1.5-0.5,1.5-1.3c0,0,0-0.1,0-0.1C21.9,21,21.2,21.3,20.5,21.5z"/>
	<path class="st4" d="M9.7,22.8c-0.2,0.6-0.7,1-1.2,1c-0.8,0-1.6-0.4-2.3-0.7c-0.3-0.1-0.6-0.3-0.8-0.3c-0.1,0-0.3,0-0.4,0
		c-1.1-0.1-2.9-0.2-3-1.3c0,0,0,0,0,0c0,0,0,0.1,0,0.1c0,1.2,1.9,1.4,3,1.5c0.2,0,0.3,0,0.4,0c0.2,0,0.5,0.2,0.8,0.3
		C6.9,23.6,7.7,24,8.5,24c0.6,0,1-0.4,1.2-1c0.1-0.3,0.1-0.5,0.1-0.9C9.8,22.4,9.8,22.6,9.7,22.8z"/>
	<path class="st4" d="M11,8.8c-0.6,0-2.2-0.9-2.5-1.8c0,0,0,0,0,0c0,0.9,1.9,2,2.5,2c0.3,0,3.5-1.1,3.5-2c0,0,0,0,0-0.1
		C14,7.8,11.3,8.8,11,8.8z"/>
	
		<linearGradient id="SVGID_2_" gradientUnits="userSpaceOnUse" x1="17.8615" y1="8.78" x2="21.7588" y2="4.8827" gradientTransform="matrix(1 0 0 -1 0 26)">
		<stop  offset="0" style="stop-color:#000000;stop-opacity:0.1"/>
		<stop  offset="1" style="stop-color:#000000;stop-opacity:0"/>
	</linearGradient>
	<path class="st8" d="M20.9,19.1c-0.2-0.1-0.4-0.3-0.6-0.4c-0.1-0.1,0-0.5,0-0.7c0-0.4,0.1-0.9-0.2-1.2c0,0-0.1-0.1-0.2-0.1
		c-0.1,0.9-0.3,1.5-0.6,1.9c-0.4,0.4-1,0.5-1.5,0.5c-0.1,0-0.1,0-0.2,0l-0.2,0c-0.4,0-0.7-0.1-1-0.4l3.4,3.4
		c0.2-0.1,0.4-0.2,0.6-0.2c0.7-0.3,1.5-0.5,1.5-1.3C22,19.8,21.4,19.4,20.9,19.1z"/>
	
		<linearGradient id="SVGID_3_" gradientUnits="userSpaceOnUse" x1="5.2451" y1="15.9403" x2="23.0856" y2="7.6211" gradientTransform="matrix(1 0 0 -1 0 26)">
		<stop  offset="0" style="stop-color:#FFFFFF;stop-opacity:0.2"/>
		<stop  offset="1" style="stop-color:#FFFFFF;stop-opacity:0"/>
	</linearGradient>
	<path class="st9" d="M20.9,19.1c-0.2-0.1-0.4-0.3-0.6-0.4c-0.1-0.1,0-0.5,0-0.7c0-0.4,0.1-0.9-0.2-1.2c0,0-0.1-0.1-0.1-0.1
		c0-0.2,0-0.4,0-0.6c0-3.2-1.5-5.1-2.7-6.6C16.6,8.5,16,7.7,16,7l0-0.2c0-1.4,0-4.3-1.5-5.8C13.9,0.3,13,0,12,0C9.9,0,8.5,1,8.5,6
		c0,1.4-0.6,2.5-1.2,3.7c-0.3,0.5-0.5,1.1-0.8,1.6c-0.4,1-1.3,3.4-1.5,4.8c-0.5,0.2-0.7,0.8-0.8,1.2c0,0.1-0.1,0.3-0.1,0.3
		c-0.1,0-0.4,0.1-0.5,0.1C3,17.9,2,18.1,2,19c0,0.3,0,0.5,0.1,0.7c0.1,0.4,0.1,0.8-0.1,1.6c0,0,0,0.1,0,0.1c0,1.2,1.9,1.4,3,1.5
		c0.2,0,0.3,0,0.4,0c0.2,0,0.5,0.2,0.8,0.3C6.9,23.6,7.7,24,8.5,24c0.3,0,0.6-0.1,0.9-0.4c0,0,0,0,0.1,0C9.6,23.3,11.1,23,12,23h3.1
		c0.1,0.2,0.1,0.4,0.3,0.6c0.3,0.3,0.7,0.4,1.2,0.4c1.3,0,1.9-0.7,2.5-1.3c0.1-0.1,0.2-0.2,0.3-0.3c0.3-0.3,0.7-0.4,1.2-0.6
		c0.7-0.3,1.5-0.5,1.5-1.3C22,19.8,21.4,19.4,20.9,19.1z"/>
</g>
</svg>
