<svg id="google-icon" xmlns="http://www.w3.org/2000/svg" xmlns:xlink="http://www.w3.org/1999/xlink" width="28.67" height="28.67" viewBox="0 0 28.67 28.67">
  <defs>
    <linearGradient id="linear-gradient" y1="0.5" x2="1" y2="0.5" gradientUnits="objectBoundingBox">
      <stop offset="0" stop-color="#fff" stop-opacity="0.2"/>
      <stop offset="1" stop-color="#fff" stop-opacity="0"/>
    </linearGradient>
  </defs>
  <path id="Path_60" data-name="Path 60" d="M14.065,5.973a8.317,8.317,0,0,1,5.12,1.761l4.345-4.145A14.307,14.307,0,0,0,1.386,7.657l4.831,3.814A8.357,8.357,0,0,1,14.065,5.973Z" transform="translate(0.27)" fill="#f44336"/>
  <path id="Path_61" data-name="Path 61" d="M26.211,14.28a14.217,14.217,0,0,0,.124-1.794A14.377,14.377,0,0,0,26.019,9.5H12v5.973h7.748a8.448,8.448,0,0,1-3.163,3.965l4.849,3.828A14.319,14.319,0,0,0,26.211,14.28Z" transform="translate(2.335 1.849)" fill="#2196f3"/>
  <path id="Path_62" data-name="Path 62" d="M5.973,13.088a8.327,8.327,0,0,1,.514-2.864L1.655,6.41A14.285,14.285,0,0,0,1.623,19.7L6.46,15.878A8.329,8.329,0,0,1,5.973,13.088Z" transform="translate(0 1.247)" fill="#ffc107"/>
  <path id="Path_63" data-name="Path 63" d="M14.071,19.908A8.358,8.358,0,0,1,6.2,14.336L1.358,18.155A14.312,14.312,0,0,0,23.5,22.326L18.655,18.5A8.161,8.161,0,0,1,14.071,19.908Z" transform="translate(0.264 2.789)" fill="#00b060"/>
  <path id="Path_64" data-name="Path 64" d="M13.742,24.485A14.832,14.832,0,0,1,3.048,19.971a14.286,14.286,0,0,0,21.312.083A14.82,14.82,0,0,1,13.742,24.485Z" transform="translate(0.593 3.886)" opacity="0.1"/>
  <path id="Path_65" data-name="Path 65" d="M12,14.25v.3h7.748l.121-.3Z" transform="translate(2.335 2.773)" opacity="0.1"/>
  <path id="Path_66" data-name="Path 66" d="M23.994,12.184c0-.059.007-.117.007-.176,0-.017,0-.033,0-.05C24,12.034,23.994,12.108,23.994,12.184Z" transform="translate(4.669 2.327)" fill="#e6e6e6"/>
  <path id="Path_67" data-name="Path 67" d="M12,9.5v.3H26.079c-.019-.1-.039-.2-.06-.3Z" transform="translate(2.335 1.849)" fill="#fff" opacity="0.2"/>
  <path id="Path_68" data-name="Path 68" d="M28.354,11.349H14.335v5.973h7.748a8.351,8.351,0,1,1-3.223-9.986c.2.13.407.252.595.4L23.8,3.589l-.1-.075a14.275,14.275,0,1,0,4.651,7.835Z" fill="url(#linear-gradient)"/>
  <path id="Path_69" data-name="Path 69" d="M17.888,6.452A8.324,8.324,0,0,0,5,13.452c0,.05,0,.09,0,.14A8.323,8.323,0,0,1,17.888,6.751c.2.13.407.252.595.4L22.827,3,18.482,6.851C18.294,6.7,18.088,6.582,17.888,6.452Z" transform="translate(0.973 0.585)" opacity="0.1"/>
  <path id="Path_70" data-name="Path 70" d="M14.335.3a14.244,14.244,0,0,1,9.293,3.454l.172-.164-.131-.114A14.13,14.13,0,0,0,14.335,0,14.335,14.335,0,0,0,0,14.335c0,.05.007.1.008.149A14.331,14.331,0,0,1,14.335.3Z" fill="#fff" opacity="0.2"/>
</svg>
