<svg id="btn" xmlns="http://www.w3.org/2000/svg" xmlns:xlink="http://www.w3.org/1999/xlink" viewBox="0 0 200.46 172.98"><defs><style>.cls-1{fill:none;}.cls-2{clip-path:url(#clip-path);}.cls-3{fill:url(#linear-gradient);}.cls-4{fill:url(#linear-gradient-2);}.cls-5{fill:url(#linear-gradient-3);}</style><clipPath id="clip-path" transform="translate(0.46 53.07)"><path class="cls-1" d="M32.5,0h135A32.5,32.5,0,0,1,200,32.5h0A32.5,32.5,0,0,1,167.5,65H32.5A32.5,32.5,0,0,1,0,32.5H0A32.5,32.5,0,0,1,32.5,0Z"/></clipPath><linearGradient id="linear-gradient" x1="75.13" y1="58.12" x2="75.13" y2="57.12" gradientTransform="matrix(200, 0, 0, -65, -14925, 3778)" gradientUnits="userSpaceOnUse"><stop offset="0" stop-color="#c8c7c7"/><stop offset="1" stop-color="#f9f9f9"/></linearGradient><linearGradient id="linear-gradient-2" x1="75.05" y1="57.73" x2="75.08" y2="57.16" gradientTransform="matrix(168.03, 45.05, 13.53, -50.47, -13307.77, -410.12)" xlink:href="#linear-gradient"/><linearGradient id="linear-gradient-3" x1="75.07" y1="57.44" x2="75.06" y2="56.95" gradientTransform="matrix(166.97, 44.77, 13.53, -50.47, -13192.38, -484.6)" xlink:href="#linear-gradient"/></defs><title>btn</title><g class="cls-2"><g id="Mask_Group_1" data-name="Mask Group 1"><path id="Rectangle_4" data-name="Rectangle 4" class="cls-3" d="M32.5,0h135A32.5,32.5,0,0,1,200,32.5h0A32.5,32.5,0,0,1,167.5,65H32.5A32.5,32.5,0,0,1,0,32.5H0A32.5,32.5,0,0,1,32.5,0Z" transform="translate(0.46 53.07)"/><path id="Path_34037" data-name="Path 34037" class="cls-4" d="M83.34,55.55C128.74,71.37,164.85,95.75,164,110s-38.38,13-83.79-2.84S-1.32,67-.45,52.71,37.93,39.74,83.34,55.55Z" transform="translate(0.46 53.07)"/><path id="Path_34038" data-name="Path 34038" class="cls-5" d="M118.56-40.42c45.11,15.74,81,40.05,80.08,54.29s-38.18,13-83.29-2.7-81-40-80.08-54.3S73.45-56.16,118.56-40.42Z" transform="translate(0.46 53.07)"/></g></g></svg>