<svg id="Layer_1" data-name="Layer 1" xmlns="http://www.w3.org/2000/svg" viewBox="0 0 47.9 31"><defs><style>.cls-1{fill:#fff;}</style></defs><title>eye</title><g id="Icon-Eye"><path id="Fill-174" class="cls-1" d="M32,47.4C15.8,47.4,8.5,33.1,8.2,32.5a1.27,1.27,0,0,1,0-1.2c.3-.6,7.6-14.9,23.8-14.9S55.5,30.7,55.8,31.3a1.27,1.27,0,0,1,0,1.2c-.3.7-7.6,14.9-23.8,14.9ZM10.9,32c1.5,2.6,8.4,12.8,21.1,12.8S51.6,34.6,53.1,32C51.6,29.4,44.7,19.2,32,19.2S12.4,29.4,10.9,32Z" transform="translate(-8.05 -16.4)"/><path id="Fill-175" class="cls-1" d="M32,44.6A12.6,12.6,0,1,1,44.6,32,12.61,12.61,0,0,1,32,44.6ZM32,22A10,10,0,1,0,42,32,10,10,0,0,0,32,22Z" transform="translate(-8.05 -16.4)"/><path id="Fill-176" class="cls-1" d="M32,39a7,7,0,0,1-7-7,1.3,1.3,0,0,1,2.6,0,4.3,4.3,0,1,0,4.3-4.3,1.3,1.3,0,1,1,0-2.6,7,7,0,0,1,7,7A6.85,6.85,0,0,1,32,39" transform="translate(-8.05 -16.4)"/></g></svg>