<svg id="Layer_1" data-name="Layer 1" xmlns="http://www.w3.org/2000/svg" viewBox="0 0 47.31 45.95"><defs><style>.cls-1{fill:#484848;}</style></defs><title>scalable-white</title><path class="cls-1" d="M25.35,2a3.06,3.06,0,0,1,1.16,1.33c.84,1.3,1.66,2.6,2.52,4L27.2,8.49,26,6.82V20.1H23.8V7c-.63.37-.71,1-1.25,1.41l-1.8-1.16C22,5.52,22.93,3.6,24.32,2Z" transform="translate(-1.29 -2)"/><path class="cls-1" d="M11,40.32l8.87-5.15-2.7-4.7-8.71,5c-.35-.18-.22-.45-.22-.67,0-4.6,0-9.21,0-13.81a2.2,2.2,0,0,1,1-2.09l12.46-7.2a3.4,3.4,0,0,1,.48-.17V21.71h5.36V11.41l3.47,2c3.05,1.77,6.1,3.55,9.16,5.3a2.34,2.34,0,0,1,1.38,2.12c0,4.85,0,9.69,0,14.78l-8.93-5.13-2.72,4.7,8.91,5.16-2.63,1.51c-3.2,1.85-6.43,3.68-9.6,5.58a3,3,0,0,1-3.43,0c-3.64-2.19-7.34-4.28-11-6.4Zm12.74-2.9V44c0,1,.52,1.78,1.18,1.68.86-.13,1.14-.71,1.13-1.62-.05-4.33,0-8.66-.05-13a1.88,1.88,0,0,1,1.1-1.93c3.79-2.13,7.53-4.35,11.32-6.5.77-.43,1.18-.93.89-1.77-.21-.63-1.18-.71-2-.24-3.89,2.25-7.79,4.48-11.66,6.75a1.25,1.25,0,0,1-1.47,0c-3.93-2.31-7.9-4.54-11.82-6.87a1.25,1.25,0,0,0-1.77.29c-.41.44,0,1.34.66,1.73,3.89,2.24,7.78,4.5,11.68,6.71a1.42,1.42,0,0,1,.83,1.45C23.7,33,23.73,35.18,23.73,37.42Z" transform="translate(-1.29 -2)"/><path class="cls-1" d="M32.13,34.57l1.12-1.92,11.27,6.49c.07-.66-.43-1-.57-1.61a16.46,16.46,0,0,1,1.9-1.11c.92,1.77,1.83,3.47,2.69,5.21.28.56-.46,1.67-1.12,1.71-1.85.11-3.71.18-5.59.28a6.53,6.53,0,0,1-.19-2.16l1.65-.18.08-.2Z" transform="translate(-1.29 -2)"/><path class="cls-1" d="M5.9,37.46,5,39.33l11.57-6.67,1.12,1.93L6.38,41.13c.58.39,1.2.12,1.79.37A6.71,6.71,0,0,1,8,43.61c-1.86-.09-3.67-.16-5.48-.28a1.52,1.52,0,0,1-1.1-2c.81-1.62,1.66-3.22,2.55-4.93Z" transform="translate(-1.29 -2)"/></svg>