<?xml version="1.0" encoding="utf-8"?>
<!-- Generator: Adobe Illustrator 24.0.0, SVG Export Plug-In . SVG Version: 6.00 Build 0)  -->
<svg version="1.1" id="Layer_1" xmlns="http://www.w3.org/2000/svg" xmlns:xlink="http://www.w3.org/1999/xlink" x="0px" y="0px"
	 viewBox="0 0 50 50" style="enable-background:new 0 0 50 50;" xml:space="preserve">
<style type="text/css">
	.st0{fill:#FFFFFF;}
</style>
<g>
	<g>
		<path class="st0" d="M13.9,14.8c-3,0-6.1,0-9.1,0c-0.4,0-0.4,0.1-0.4-0.4c0-0.7,0-1.3,0-2c0-0.3,0-0.3,0.3-0.3c1.1,0,2.3,0,3.4,0
			c5,0,10,0,15,0c0.5,0,0.4-0.1,0.4,0.4c0,0.6,0,1.3,0,1.9c0,0.3,0,0.3-0.3,0.3c-2.3,0-4.7,0-7,0C15.4,14.8,14.7,14.8,13.9,14.8z"/>
		<path class="st0" d="M11.8,27.6c-2.3,0-4.7,0-7,0c-0.1,0-0.1,0-0.2,0c-0.2,0-0.2,0-0.2-0.2c0-0.2,0-0.5,0-0.7c0-0.5,0-1,0-1.5
			c0-0.2,0-0.2,0.2-0.2c0,0,0.1,0,0.1,0c4.7,0,9.4,0,14.2,0c0.4,0,0.4-0.1,0.4,0.4c0,0.6,0,1.3,0,1.9c0,0.3,0,0.3-0.3,0.3
			C16.6,27.6,14.2,27.6,11.8,27.6z"/>
		<path class="st0" d="M41.4,7C41.5,7,41.5,7,41.4,7c0.1,0.3,0.4,0.2,0.4,0.4c0.1,0.2,0.3,0.2,0.3,0.4c0.2,0,0.2,0.4,0.5,0.4
			c0.1,0,0.1,0.1,0,0.1c-0.3,0.2-0.5,0.5-0.8,0.8c-0.2,0.3-0.6,0.4-0.8,0.8c-0.3,0-0.3,0.3-0.5,0.4c-0.2,0.1-0.2,0.3-0.4,0.4
			C40.2,10.9,40.2,11,40,11c0,0.2-0.3,0.2-0.4,0.4c-0.1,0.2-0.3,0.2-0.4,0.4c-0.4,0.1-0.5,0.6-0.8,0.7c0,0.2-0.4,0.2-0.4,0.5
			c-0.2,0-0.2,0.2-0.4,0.2c-0.2,0-0.2-0.1-0.3-0.2c0,0-0.1-0.1-0.1-0.1c-0.1-0.1-0.3-0.1-0.4-0.3c-0.1-0.1-0.2-0.1-0.3-0.3
			c-0.1-0.3-0.1-0.4,0.1-0.6c0.2-0.2,0.5-0.4,0.7-0.6c0.2-0.2,0.4-0.5,0.6-0.7c0.2-0.2,0.5-0.4,0.7-0.6c0.2-0.2,0.3-0.4,0.5-0.5
			c0,0,0-0.1,0.1-0.1c0.2-0.2,0.4-0.5,0.7-0.7c0.2-0.2,0.4-0.4,0.6-0.6c0.2-0.3,0.5-0.5,0.8-0.8C41.4,7,41.4,7,41.4,7z"/>
		<path class="st0" d="M40,14.8c0.4-0.2,0.9-0.1,1.4-0.1c0.1-0.1,0.3-0.1,0.4-0.2c0.2,0,0.4,0,0.6,0c0.2,0,0.5,0,0.7-0.1
			c0.2-0.1,0.4,0,0.6,0c0.1,0,0.3,0,0.4,0c0.1-0.1,0.3-0.1,0.4-0.2c0.5,0,0.5,0,0.5,0.4c0,0.1,0,0.2,0,0.2c0.2,0.2,0,0.4,0.2,0.6
			c0,0.1,0,0.2,0,0.3c0,0.3,0,0.3-0.3,0.4c-0.2,0.2-0.4,0-0.6,0.2c-0.2,0-0.4,0-0.7,0c-0.1,0.1-0.2,0.1-0.4,0.1
			c-0.1,0-0.2,0-0.3,0.1c-0.2,0-0.4,0-0.6,0c-0.2,0-0.5,0-0.7,0.1c-0.2,0.1-0.4,0-0.6,0c-0.2,0-0.4,0-0.5,0c-0.1,0-0.2,0-0.3,0.2
			c-0.1-0.1-0.1-0.3-0.2-0.4c-0.1,0-0.1-0.1-0.1-0.2c0-0.3,0-0.6,0-0.9C39.8,15.2,39.8,15,40,14.8z"/>
		<path class="st0" d="M35.2,4.7C35.2,4.7,35.2,4.7,35.2,4.7c0.4,0,0.4-0.1,0.4,0.3c-0.2,0.1,0,0.4-0.2,0.6c0,0.3,0,0.6,0,0.9
			c-0.1,0.1,0,0.3-0.1,0.5c0,0.3,0,0.5,0,0.8c0,0.1,0,0.2-0.1,0.3c-0.1,0-0.1,0.1-0.1,0.2c0,0.2,0,0.5,0,0.7c0,0.2-0.1,0.5-0.1,0.7
			c0,0.1-0.1,0.1-0.2,0.1c-0.4,0-0.7,0-1.1,0c-0.2-0.1-0.4,0-0.6-0.1C33,9.6,33,9.5,33,9.4c0.2-0.4,0.1-0.8,0.1-1.2
			c0.2-0.1,0-0.4,0.2-0.6c0-0.2,0-0.4,0-0.6c0-0.2,0-0.4,0.1-0.6c0-0.1,0-0.2,0-0.2c0-0.3,0-0.5,0-0.8c0-0.1,0-0.3,0.1-0.4
			c0.1-0.1,0-0.2,0.1-0.4c0-0.1,0-0.2,0.2-0.2c0.2,0,0.5,0,0.7,0C34.7,4.7,35,4.5,35.2,4.7z"/>
		<path class="st0" d="M27,23.3c0,0.1,0,0.2-0.2,0.2c-0.2,0-0.4,0-0.5,0c0-0.1,0-0.2,0.2-0.2C26.7,23.2,26.9,23.2,27,23.3z"/>
		<path class="st0" d="M47.2,30.1c0-0.1,0-0.2,0-0.3c0-0.1,0.1-0.2,0.2-0.2c0,0.1,0,0.2,0,0.3C47.4,30.1,47.3,30.1,47.2,30.1z"/>
		<path class="st0" d="M33.1,9.6c0.1,0,0.3,0,0.4,0c0.1,0,0.1,0,0.1,0.1c-0.1,0-0.3,0-0.4,0C33.2,9.7,33.1,9.7,33.1,9.6z"/>
		<path class="st0" d="M46.6,32.9c0-0.3,0-0.3,0.2-0.4C46.8,32.8,46.8,32.8,46.6,32.9z"/>
		<path class="st0" d="M47.4,22.9C47.4,22.8,47.3,22.8,47.4,22.9c-0.4-0.1-0.6,0.1-0.9,0.1c0,0.2-0.2,0.1-0.3,0.1
			c-0.1,0-0.3,0-0.3,0c-0.2,0.1-0.3,0.1-0.5,0.1c-0.2,0-0.4,0-0.5,0c-0.1,0-0.2,0-0.2,0.1c-0.1,0.1-0.2,0.1-0.3,0.1
			c-0.8,0-1.5,0-2.3,0c-0.1,0-0.1,0-0.2,0c-0.1-0.2-0.3-0.1-0.5-0.2c-0.2,0-0.3,0-0.5,0c-0.2-0.1-0.4-0.1-0.6-0.1
			c-0.1,0-0.2,0-0.2-0.1c0-0.1-0.1-0.1-0.1-0.1c-0.2,0-0.5,0-0.7-0.2c-0.1-0.1-0.2,0-0.3-0.1c0-0.1-0.1-0.1-0.1-0.1
			c-0.2,0-0.4-0.2-0.6-0.2c0,0-0.1,0-0.1,0c0-0.3-0.4-0.1-0.4-0.4c-0.2,0-0.3-0.2-0.4-0.1c-0.2,0-0.2-0.2-0.4-0.2
			c-0.2-0.1-0.4-0.1-0.5-0.3c0-0.1-0.1-0.1-0.2-0.1c-0.1,0-0.2-0.1-0.3-0.2c-0.1-0.1-0.2-0.1-0.3-0.2c0-0.1-0.1-0.1-0.1-0.1
			c-0.3,0-0.3-0.4-0.6-0.4c-0.1-0.3-0.4-0.3-0.5-0.5c0-0.1-0.1-0.1-0.2-0.1c-0.1,0-0.1-0.1-0.2-0.1c0.1,0.2-0.2,0.2-0.3,0.4
			c-0.1,0.2-0.3,0.3-0.4,0.4c-0.4,0.1-0.6,0.6-1,0.8c0,0.2-0.3,0.1-0.3,0.2c-0.1,0.2-0.3,0.3-0.5,0.4c-0.2,0.1-0.3,0.2-0.5,0.3
			c-0.1,0-0.3,0-0.3,0.1c-0.1,0.1-0.1,0.2-0.2,0.2c-0.2,0-0.1,0.2-0.2,0.2c-0.3,0.1-0.7,0.1-0.9,0.3c0,0,0,0-0.1,0
			c-0.3,0-0.5,0.2-0.8,0.2c0,0-0.1,0-0.1,0c-0.1,0.2-0.2,0.1-0.4,0.2c-0.1,0-0.3,0-0.4,0c-0.2,0.1-0.3,0.1-0.5,0.1
			c-0.1,0-0.3,0-0.4,0c-0.1,0.1-0.2,0.1-0.3,0.1c-0.1,0-0.3,0-0.4,0.1c-0.6,0-1.2,0-1.8,0c-0.2,0-0.4,0.1-0.5-0.2c0,0-0.1,0-0.1,0
			c-0.4,0-0.7,0-1.1-0.1c-0.2-0.1-0.5,0.1-0.6-0.2c-0.2,0-0.4-0.1-0.6-0.2c-0.3,0-0.3,0-0.3,0.3c0,1.4,0,2.9,0,4.3
			c0.1,0.2,0.1,0.4,0.1,0.6c0,0.3-0.1,0.6,0.1,0.8c0,0.5-0.1,1,0.1,1.6c0.1,0.2,0,0.5,0,0.7c0,0.1,0,0.2,0,0.2
			c0.2,0.1,0.1,0.3,0.2,0.4c0,0.1,0,0.3,0,0.4c0.1,0.2,0.1,0.4,0.1,0.6c0,0.1,0,0.2,0.1,0.2c0,0,0.1,0.1,0.1,0.1
			c0,0.2,0,0.5,0.1,0.7c0.1,0.1,0,0.3,0.2,0.5c0.1,0,0,0.3,0.1,0.4c0,0.1,0.2,0.1,0.2,0.3c0,0.1,0,0.2,0.1,0.3
			c0.1,0.1,0.1,0.2,0.1,0.3c0,0.2,0.2,0.1,0.2,0.2c0,0,0,0,0,0c0,0.2,0.2,0.4,0.2,0.6c0,0.1,0,0.1,0.1,0.1c0.1,0,0.1,0.1,0.1,0.1
			c0,0.2,0.1,0.4,0.2,0.5c0.1,0.2,0.2,0.3,0.3,0.5c0.1,0.2,0.1,0.4,0.3,0.5c0,0.2,0.2,0.3,0.3,0.6c0.1,0.2,0.2,0.4,0.3,0.6
			c0.1,0.1,0,0.3,0.1,0.3c0.2,0,0.1,0.1,0.2,0.2c0.1,0.3,0.3,0.5,0.5,0.7c0.2,0.1,0.2,0.4,0.4,0.4c0,0.3,0.4,0.4,0.4,0.7
			c0,0,0,0.1,0.1,0.1c0.2,0.1,0.2,0.4,0.5,0.4c0,0.2,0.2,0.2,0.2,0.3c0.1,0.3,0.4,0.4,0.5,0.7c0.3,0.1,0.3,0.3,0.5,0.5
			c0.1,0.1,0.2,0.3,0.4,0.3c0.1,0,0.1,0.1,0.1,0.1c0.2,0.3,0.5,0.5,0.8,0.8c0.1,0.1,0.3,0.1,0.3,0.2c0.3,0.1,0.4,0.3,0.6,0.5
			c0.1,0.1,0.1,0.2,0.2,0.2c0.1,0,0.1,0,0.2,0.1c0,0.2,0.2,0.1,0.3,0.2c0.1,0.1,0.1,0.3,0.3,0.2c0,0.1,0.3,0.1,0.3,0.3
			c0,0,0.1,0.1,0.2,0.1c0.2,0,0.2,0.3,0.4,0.3c0.1,0.3,0.4,0.3,0.5,0.5c0,0,0.1,0.1,0.1,0.1c0.3,0,0.4,0.4,0.6,0.4
			c0,0.2,0.1,0.2,0.3,0.3c0.1,0.1,0.1,0.2,0.3,0.2c0.1,0,0.1,0.1,0.1,0.1c0.2,0.3,0.5,0.3,0.6,0.1c0.2-0.3,0.6-0.4,0.8-0.7
			c0.3-0.1,0.4-0.5,0.8-0.5c0.2-0.3,0.5-0.4,0.7-0.7c0,0,0.1-0.1,0.2-0.2c0.2,0,0.3-0.1,0.3-0.2c0.1-0.1,0.2-0.1,0.3-0.2
			c0.1-0.2,0.4-0.3,0.5-0.5c0,0,0.1,0,0.1,0c0.2,0,0.3-0.2,0.4-0.3c0.1-0.2,0.4-0.2,0.4-0.5c0.3-0.1,0.4-0.4,0.7-0.5
			c0.1-0.1,0.2-0.2,0.3-0.3c0.2-0.2,0.4-0.3,0.5-0.6c0.2,0,0.2-0.2,0.3-0.3c0.1-0.1,0.2-0.1,0.3-0.3c0.1-0.2,0.2-0.4,0.4-0.5
			c0.2-0.2,0.3-0.4,0.5-0.5c0.2-0.2,0.3-0.6,0.6-0.7c0-0.2,0.2-0.2,0.2-0.4c0-0.1,0.1-0.3,0.3-0.4c0-0.3,0.4-0.4,0.4-0.8
			c0,0,0.1-0.2,0.1-0.2c0.1,0,0.1-0.1,0.2-0.2c0.1-0.2,0.1-0.4,0.3-0.5c0-0.2,0.3-0.2,0.2-0.5c0.2-0.1,0.1-0.3,0.2-0.4
			c0.1-0.1,0.2-0.2,0.2-0.3c0,0,0-0.1,0-0.1c0.1-0.1,0.1-0.3,0.3-0.4c0.1,0,0-0.2,0.1-0.3c0.1-0.1,0.1-0.2,0.1-0.3
			c0-0.2,0.2-0.1,0.2-0.2c0-0.1,0-0.1,0-0.2c0,0,0-0.1,0-0.1c0.2,0,0.1-0.2,0.2-0.3c0.1-0.2,0.1-0.4,0.1-0.5c0,0,0-0.1,0-0.1
			c0.2,0,0.1-0.2,0.1-0.3c0-0.2,0.2-0.4,0.2-0.7c0,0,0-0.1,0.1-0.1c0.1,0,0.1-0.1,0.1-0.2c0-0.1,0-0.2,0-0.3
			c0.1-0.2,0.1-0.4,0.1-0.6c0.1-0.1,0.1-0.3,0.2-0.4c0-0.1,0-0.3,0-0.4c0.2-0.3,0.1-0.7,0.1-1c0-0.1,0-0.1,0-0.2
			c0.2-0.1,0.1-0.2,0.1-0.3c0-0.2,0-0.4,0-0.6c0.2-0.1,0-0.4,0.2-0.5c0-2.2,0-4.4,0-6.6C47.4,23,47.4,22.9,47.4,22.9z M41.1,28.5
			c-0.2,0.1-0.3,0.3-0.4,0.5c-0.1,0.1-0.1,0.2-0.2,0.2c-0.2,0.1-0.3,0.3-0.3,0.5c0,0.2,0.2,0.4,0.3,0.6c0.1,0.2,0.2,0.4,0.2,0.6
			c0,0.1,0,0.3,0.2,0.3c0,0,0,0.1,0,0.1c0,0.4,0.2,0.7,0.2,1.1c0.2,0.3,0.1,0.6,0.1,0.9c0,0.4,0.1,0.8-0.1,1.2
			c0.1,0.4-0.1,0.7-0.2,1.1c0,0.1-0.2,0.2-0.2,0.3c0,0.1-0.1,0.2-0.1,0.3c-0.1,0.2-0.2,0.4-0.3,0.6c-0.1,0.2-0.2,0.4-0.4,0.5
			c-0.1,0-0.1,0.1-0.1,0.1c0,0.1-0.2,0.3-0.3,0.4c-0.1,0.1-0.2,0.3-0.4,0.4c0,0.1-0.1,0.1-0.2,0.2c-0.1,0.1-0.2,0.2-0.3,0.3
			c-0.1,0.2-0.3,0.1-0.4,0.2c-0.1,0.1-0.2,0.3-0.3,0.3c-0.1,0-0.2,0.2-0.3,0.2c-0.2,0-0.3,0.2-0.5,0.2c-0.1,0-0.2,0-0.2,0.1
			c0,0,0,0,0,0c-0.3,0-0.4,0.2-0.7,0.2c-0.1,0-0.3,0-0.4,0.1c-0.1,0.1-0.3,0-0.5,0c-0.1,0-0.2,0-0.3,0c-0.4,0.1-0.8,0.1-1.2,0
			c-0.1,0-0.3,0-0.4,0c-0.1,0-0.3,0-0.4-0.1c-0.1-0.1-0.3,0-0.4,0c-0.1,0-0.3,0-0.3-0.1c0,0,0-0.1-0.1-0.1c-0.1,0-0.3,0-0.4-0.2
			c-0.2,0-0.4-0.2-0.6-0.2c-0.1,0-0.2,0-0.2-0.1c-0.1-0.1-0.2-0.2-0.3-0.2c-0.2-0.1-0.4-0.2-0.5-0.4c-0.1-0.1-0.2-0.2-0.3-0.3
			c-0.2-0.1-0.4-0.3-0.5-0.5c-0.2-0.2-0.4-0.5-0.6-0.7c0,0-0.1,0-0.1-0.1c0-0.2-0.1-0.4-0.3-0.4c0,0,0-0.1,0-0.1
			c0-0.1,0-0.3-0.2-0.3c0-0.2-0.1-0.3-0.2-0.5c0-0.1,0-0.3-0.2-0.3c0,0,0-0.1,0-0.1c0-0.4-0.2-0.7-0.2-1.1c0-0.1,0-0.1,0-0.2
			c-0.1-0.5-0.1-0.9,0-1.4c0-0.2,0-0.3,0-0.5c0-0.2,0-0.3,0.1-0.5c0-0.1,0-0.2,0-0.3c0-0.1,0-0.1,0-0.2c0.3-0.2,0.2-0.6,0.3-0.9
			c0-0.1,0.2-0.1,0.2-0.2c0-0.1,0-0.2,0.2-0.2c0,0,0.1-0.1,0.1-0.1c0,0,0-0.1,0-0.1c0-0.2,0.3-0.2,0.3-0.4c0-0.2,0.1-0.3,0.3-0.4
			c0-0.2,0.3-0.3,0.4-0.5c0.2-0.1,0.3-0.3,0.4-0.4c0.1-0.1,0.3-0.2,0.4-0.3c0.1,0,0.1-0.2,0.2-0.2c0.1,0,0.2-0.1,0.3-0.1
			c0.2-0.1,0.3-0.3,0.5-0.3c0.1,0,0.2-0.1,0.3-0.1c0.1,0,0.2,0,0.2-0.1c0,0,0-0.1,0.1-0.1c0.3,0,0.5-0.2,0.8-0.2
			c0.2,0,0.4,0.1,0.5-0.2c0,0,0.1,0,0.2,0c0.6,0,1.1,0,1.7,0c0.1,0,0.2,0,0.3,0.1c0,0.1,0.2,0.1,0.3,0.1c0.3,0,0.6,0.2,0.9,0.2
			c0,0,0.1,0,0.1,0.1c0,0.1,0.1,0.1,0.2,0.1c0.2,0,0.4,0.2,0.6,0.2c0.1,0,0.1,0.2,0.2,0.2c0.1,0.2,0.3,0,0.4,0.3
			c0,0.1,0.3,0.1,0.4,0.2c0.1,0.1,0.3,0.1,0.4-0.1c0.1-0.1,0.2-0.2,0.3-0.3c0.1-0.2,0.4-0.3,0.5-0.5c0-0.1,0.1-0.1,0.1,0
			c0.2,0.2,0.4,0.3,0.5,0.5c0.2,0.2,0.4,0.3,0.5,0.6c0,0.1,0.1,0.1,0.1,0.1C41.2,28.3,41.2,28.4,41.1,28.5z"/>
		<path class="st0" d="M25,4C19.8,4,14.7,4,9.6,4C7.3,4,5,4,2.8,4C2.4,4,2.4,4,2.4,4.3c0,1.3,0,2.6,0,3.8c0,0.6,0,1.3,0,1.9
			c0.1,0.1,0.2,0.1,0.3,0.1c0.3,0,0.5,0,0.8,0c7.1,0,14.3,0,21.4,0c0.1,0,0.3,0,0.4-0.1c0-0.1,0-0.2,0-0.3c0-1.8,0-3.6,0-5.3
			C25.4,3.9,25.4,4,25,4z M6.5,8.2c-0.5,0-1,0-1.5,0c-0.2,0-0.2-0.1-0.2-0.2c0-0.6,0-1.1,0-1.7c0-0.1,0.1-0.2,0.2-0.2
			c0.5,0,1.1,0,1.6,0c0.2,0,0.2,0.1,0.2,0.2c0,0.3,0,0.6,0,0.9c0,0,0,0,0,0c0,0.3,0,0.5,0,0.8C6.7,8.1,6.6,8.2,6.5,8.2z M10.7,8.2
			c-0.5,0-1,0-1.5,0C9,8.2,9,8.1,8.9,8.1C8.8,8,8.8,8,8.8,7.9c0-0.5,0-1.1,0-1.6c0-0.1,0.1-0.2,0.2-0.2c0.3,0,0.6,0,0.9,0
			c0,0,0,0,0,0c0.3,0,0.6,0,0.9,0c0.1,0,0.2,0,0.2,0.2c0,0.6,0,1.2,0,1.7C10.9,8.1,10.8,8.2,10.7,8.2z M14.7,8.2c-0.5,0-1,0-1.5,0
			c-0.1,0-0.2,0-0.2-0.1c-0.1-0.1-0.1-0.2-0.1-0.3c0-0.4,0-0.8,0-1.2c0-0.1,0-0.2,0.1-0.3c0-0.1,0-0.2,0.2-0.2c0.5,0,1.1,0,1.6,0
			c0.1,0,0.2,0.1,0.2,0.2c0,0.6,0,1.1,0,1.7C14.9,8.1,14.8,8.2,14.7,8.2z M18.7,8.2c-0.5,0-1,0-1.5,0c-0.1,0-0.2,0-0.2-0.1
			c-0.1-0.1-0.1-0.2-0.1-0.2c0-0.5,0-1,0-1.5c0-0.1,0-0.2,0.1-0.3c0.6,0,1.1,0,1.7,0c0.2,0,0.2,0,0.2,0.2c0,0.5,0,1.1,0,1.6
			C19,8.1,18.9,8.2,18.7,8.2z M22.9,8.1c-0.5,0-1,0-1.5,0c-0.1,0-0.1-0.1-0.1-0.1c-0.1-0.1-0.1-0.2-0.1-0.3c0-0.5,0-0.9,0-1.4
			c0-0.1,0-0.2,0.1-0.3c0.5,0,1.1,0,1.6,0c0.2,0,0.3,0,0.3,0.2c0,0.5,0,1,0,1.6C23.1,8.1,23,8.1,22.9,8.1z"/>
		<path class="st0" d="M25.5,17.2c0-0.1,0-0.3-0.1-0.4c-0.1,0-0.2,0-0.3,0c-7.4,0-14.9,0-22.3,0c-0.1,0-0.1,0-0.2,0
			c-0.1,0-0.1,0-0.1,0.1c0,0.1,0,0.2,0,0.2c0,1.8,0,3.6,0,5.3c0,0.4-0.1,0.4,0.4,0.4c5.3,0,10.7,0,16,0c0.5,0,0.4,0.1,0.4-0.4
			c0-0.2,0-0.3,0-0.5c0-0.8,0-1.6,0-2.4c0-0.1,0-0.2,0.1-0.2c0.1,0,0.2-0.1,0.3,0.1c0,0,0,0.1,0.1,0.1c0.3,0,0.6,0.3,0.9,0.4
			c0.1,0.1,0.2,0,0.3,0.1c0.1,0.2,0.4,0.2,0.5,0.3c0.1,0,0.2,0,0.2,0.1c0,0.1,0.2,0.1,0.2,0.1c0.1,0,0.3,0,0.3,0.2c0,0,0.1,0,0.1,0
			c0.2,0,0.4,0.1,0.5,0.1c0.2,0,0.4,0,0.5,0.2c0,0,0,0,0,0c0.4,0,0.8,0.1,1.1,0.1c0.3,0,0.7,0,1,0c0.1-0.1,0.1-0.3,0.1-0.4
			C25.5,19.7,25.5,18.4,25.5,17.2z M6.5,21c-0.5,0-1,0-1.5,0c-0.2,0-0.2-0.1-0.2-0.2c0-0.6,0-1.1,0-1.7c0-0.2,0.1-0.2,0.2-0.2
			c0.5,0,1,0,1.5,0c0.2,0,0.2,0,0.2,0.2c0,0.3,0,0.6,0,0.9c0,0,0,0,0,0c0,0.3,0,0.5,0,0.8C6.7,20.9,6.6,21,6.5,21z M10.7,21
			c-0.5,0-1,0-1.6,0c-0.3,0-0.4-0.1-0.4-0.4c0-0.5,0-1,0-1.4c0-0.3,0-0.3,0.3-0.3c0.3,0,0.5,0,0.8,0c0,0,0,0,0,0c0.3,0,0.5,0,0.8,0
			c0.1,0,0.2,0,0.2,0.2c0,0.6,0,1.2,0,1.8C10.9,20.9,10.8,21,10.7,21z M14.7,21c-0.5,0-1,0-1.5,0c-0.1,0-0.2,0-0.2-0.1
			c-0.2-0.2-0.1-0.4-0.1-0.6c0-0.4-0.1-0.8,0.1-1.2c0-0.1,0-0.2,0.2-0.2c0.5,0,1,0,1.6,0c0.2,0,0.2,0.1,0.2,0.2c0,0.2,0,0.5,0,0.7
			c0,0.3,0,0.6,0,0.9C14.9,20.9,14.9,21,14.7,21z"/>
		<path class="st0" d="M29.8,32.7c0-0.4,0.1-0.7,0.2-1.1c0.3-0.2,0.2-0.6,0.5-0.7c0.1-0.1,0.1-0.2,0.1-0.3c0.1-0.1,0.3-0.2,0.4-0.4
			c0.1-0.2,0.2-0.2,0.4-0.3c0,0,0.1-0.1,0.1-0.1c0.1-0.1,0.4-0.4,0.6-0.5c0.1-0.1,0.3-0.2,0.4-0.2c0.1,0,0.2-0.1,0.2-0.1
			c0,0,0,0,0,0c0.1-0.1,0.2-0.2,0.4-0.2c0.1,0,0.3,0,0.4-0.1c0.1-0.1,0.2,0,0.3,0c0.4,0,0.9,0,1.3,0c0.1,0,0.2,0,0.3,0.1
			c0.1,0.1,0.2,0,0.3,0.1c0.1,0,0.2,0,0.2,0.1c0,0.1,0.1,0.1,0.1,0.1c0.1,0,0.3,0.1,0.4,0.1c0.2,0.1,0.3,0.2,0.4,0.3
			c0,0,0,0.1,0.1,0.1c0.2,0.1,0.2,0.1,0,0.2c0,0.2-0.3,0.3-0.4,0.5c-0.1,0.2-0.3,0.3-0.5,0.5c-0.1,0.1-0.1,0.1-0.2,0.2
			c-0.1,0.1-0.2,0.2-0.3,0.3c-0.1,0.1-0.2,0.2-0.3,0.3c-0.1,0.1-0.3,0.1-0.3,0.3c-0.3,0.1-0.4,0.4-0.6,0.7c-0.2,0.2-0.5,0.4-0.7,0.6
			c-0.1,0.1-0.2,0.1-0.4,0c-0.2-0.1-0.3-0.4-0.5-0.5c-0.2-0.2-0.4-0.4-0.6-0.6c-0.1-0.1-0.3-0.1-0.3,0c-0.1,0.2-0.2,0.3-0.4,0.4
			c-0.2,0.2-0.5,0.4-0.7,0.6c0,0.1-0.1,0.1-0.2,0.1c-0.1,0-0.1,0.1,0,0.2c0.2,0.1,0.3,0.3,0.5,0.4c0.2,0.1,0.3,0.3,0.5,0.5
			c0.2,0.2,0.3,0.3,0.5,0.5c0.2,0.2,0.4,0.3,0.5,0.5c0.1,0.2,0.4,0.2,0.5,0.5c0,0.1,0.2,0.2,0.4,0.2c0.2,0,0.2-0.1,0.3-0.2
			c0-0.1,0.1-0.1,0.1-0.1c0.2-0.1,0.3-0.2,0.4-0.3c0-0.2,0.2-0.2,0.3-0.3c0.2-0.2,0.5-0.5,0.7-0.7c0.1-0.1,0.3-0.3,0.5-0.4
			c0,0,0-0.1,0.1-0.2c0.1-0.1,0.2-0.2,0.3-0.3c0.1-0.1,0.1-0.3,0.3-0.3c0.1-0.2,0.4-0.3,0.5-0.6c0-0.1,0.1-0.1,0.1-0.1
			c0.2-0.1,0.3-0.3,0.5-0.5c0.1-0.1,0.3-0.2,0.3-0.3c0-0.2,0.2-0.2,0.3-0.3c0.1-0.1,0.1-0.3,0.3-0.3c0,0,0.1-0.1,0.2-0.1
			c0.1,0,0.2,0.1,0.2,0.2c0,0.1,0,0.3,0.2,0.3c0,0,0,0.1,0,0.1c0,0.3,0.2,0.6,0.2,1c0.1,0.5,0.1,0.9,0,1.4c0.1,0.3-0.2,0.6-0.2,1
			c-0.2,0.2-0.3,0.5-0.3,0.8c-0.2,0-0.2,0.3-0.4,0.4c-0.1,0.1-0.3,0.3-0.4,0.5c-0.2,0.2-0.4,0.5-0.7,0.6c-0.1,0-0.1,0.1-0.1,0.1
			c-0.1,0.1-0.2,0.2-0.4,0.2c-0.1,0-0.1,0-0.1,0.1c0,0,0,0.1-0.1,0.1c-0.3,0-0.5,0.2-0.8,0.2c-0.1,0.1-0.3,0.1-0.4,0.2
			c-0.5,0-1,0-1.5,0c-0.1,0-0.3,0.1-0.3-0.1c0,0-0.1-0.1-0.1,0c-0.3,0-0.5-0.1-0.7-0.1c-0.1,0-0.1,0-0.1-0.1c0-0.1-0.1-0.1-0.1-0.1
			c-0.3-0.1-0.6-0.3-0.9-0.6c0,0,0,0-0.1-0.1c-0.2-0.1-0.4-0.2-0.5-0.5c0-0.1-0.1-0.1-0.1-0.1c-0.1-0.1-0.2-0.2-0.2-0.3
			c0-0.2-0.3-0.1-0.2-0.3c-0.2-0.1,0-0.4-0.3-0.5c0,0,0,0,0-0.1c0-0.4-0.2-0.7-0.2-1.1C29.7,33.7,29.7,33.2,29.8,32.7z"/>
		<path class="st0" d="M20.7,35.7c-0.1-0.3,0-0.7-0.3-0.9c0-0.3-0.2-0.5-0.2-0.8c0-0.1,0.1-0.3-0.2-0.4c0,0,0-0.1,0-0.1
			c0-0.4-0.2-0.7-0.2-1.1c-0.1-0.1-0.1-0.3-0.2-0.4c0-0.1,0-0.3,0-0.4c0-0.1,0-0.2,0-0.2c-0.3-0.2-0.1-0.4-0.2-0.6
			c0-0.2,0-0.3-0.1-0.5c-0.1-0.1-0.1-0.2-0.1-0.3c0-0.4,0-0.4-0.4-0.4c-5.4,0-10.7,0-16.1,0c-0.1,0-0.1,0-0.2,0
			c-0.1,0-0.2,0.1-0.2,0.2c0,0.1,0,0.1,0,0.2c0,1.8,0,3.7,0,5.5c0,0.5-0.1,0.4,0.4,0.4c5.8,0,11.6,0,17.4,0c0.1,0,0.1,0,0.2,0
			C20.7,35.9,20.7,35.9,20.7,35.7z M4.7,33.6c0-0.6,0-1.1,0-1.7c0.7-0.2,1.3-0.2,2,0c0,0.6,0,1.1,0,1.7C6,33.8,5.4,33.7,4.7,33.6z
			 M10.9,33.6c-0.1,0.1-0.2,0.1-0.2,0.1c-0.5,0-1,0-1.5,0c-0.2,0-0.3-0.1-0.3-0.3c0-0.4,0-0.9,0-1.3c0-0.2,0-0.3,0.2-0.3
			c0.5,0,1.1,0,1.6,0c0.1,0,0.1,0,0.1,0.1C10.9,32.4,10.9,33,10.9,33.6z M14.9,33.6c-0.6,0.2-1.3,0.2-1.9,0l0,0
			c-0.2-0.2-0.1-0.4-0.1-0.6c0-0.4-0.1-0.7,0.1-1.1l0,0c0,0,0.1-0.1,0.1-0.1c0.5,0,1.1,0,1.6,0c0.1,0,0.1,0,0.1,0.1
			C14.9,32.4,14.9,33,14.9,33.6z"/>
	</g>
</g>
</svg>
