<svg id="btn-hover" xmlns="http://www.w3.org/2000/svg" xmlns:xlink="http://www.w3.org/1999/xlink" viewBox="0 0 112 40"><defs><style>.cls-1{fill:url(#linear-gradient);}.cls-2{fill:url(#linear-gradient-2);}.cls-3{fill:url(#linear-gradient-3);}</style><linearGradient id="linear-gradient" x1="56" y1="40" x2="56" gradientUnits="userSpaceOnUse"><stop offset="0" stop-color="#ffab6e"/><stop offset="1" stop-color="#ffd8bc"/></linearGradient><linearGradient id="linear-gradient-2" x1="56" y1="10" x2="56" y2="0" xlink:href="#linear-gradient"/><linearGradient id="linear-gradient-3" x1="56" x2="56" y2="30" xlink:href="#linear-gradient"/></defs><title>btn-hover</title><path class="cls-1" d="M112,20a19.94,19.94,0,0,1-5.86,14.14,19.52,19.52,0,0,1-2.85,2.36A19.84,19.84,0,0,1,92,40H20A20,20,0,0,1,5.86,5.86,19.52,19.52,0,0,1,8.71,3.5,19.84,19.84,0,0,1,20,0H92a20,20,0,0,1,20,20Z"/><g id="Mask_Group_89" data-name="Mask Group 89"><path class="cls-2" d="M103.29,3.5C93.36,7.41,75.89,10,56,10S18.64,7.41,8.71,3.5A19.84,19.84,0,0,1,20,0H92A19.84,19.84,0,0,1,103.29,3.5Z"/><path class="cls-3" d="M103.29,36.5A19.84,19.84,0,0,1,92,40H20A19.84,19.84,0,0,1,8.71,36.5C18.64,32.59,36.11,30,56,30S93.36,32.59,103.29,36.5Z"/></g></svg>