<svg id="Layer_1" data-name="Layer 1" xmlns="http://www.w3.org/2000/svg" xmlns:xlink="http://www.w3.org/1999/xlink" viewBox="0 0 249.05 107.92"><defs><style>.cls-1{fill:none;}.cls-2{fill:url(#linear-gradient);}.cls-3{clip-path:url(#clip-path);}.cls-4{fill:#fff;}</style><linearGradient id="linear-gradient" x1="-272.9" y1="328.39" x2="-273.9" y2="328.39" gradientTransform="matrix(249, 0, 0, -65, 68200.05, 21420.92)" gradientUnits="userSpaceOnUse"><stop offset="0" stop-color="#d6d6d6"/><stop offset="0.5" stop-color="#fbfbfb"/><stop offset="1" stop-color="#d6d6d6"/></linearGradient><clipPath id="clip-path" transform="translate(0.05 42.92)"><rect class="cls-1" width="249" height="65"/></clipPath></defs><title>server-middle</title><g id="server-middle"><g id="Group_2161" data-name="Group 2161"><g id="Group_1831" data-name="Group 1831"><rect id="Rectangle_835" data-name="Rectangle 835" class="cls-2" x="0.05" y="42.92" width="249" height="65"/></g><g class="cls-3"><g id="Mask_Group_120" data-name="Mask Group 120"><g id="Group_2150" data-name="Group 2150"><g id="Group_2148" data-name="Group 2148"><path id="Path_43047" data-name="Path 43047" class="cls-4" d="M75.14-41.36a.17.17,0,0,1-.17-.16.16.16,0,0,1,.16-.16.16.16,0,0,1,.16.16h0A.16.16,0,0,1,75.14-41.36Z" transform="translate(0.05 42.92)"/><path id="Path_43048" data-name="Path 43048" class="cls-4" d="M60.83-41.08a.44.44,0,0,1-.44-.44.44.44,0,0,1,.43-.44.45.45,0,0,1,.45.44h0a.44.44,0,0,1-.44.44Z" transform="translate(0.05 42.92)"/><path id="Path_43049" data-name="Path 43049" class="cls-4" d="M46.53-40.84a.67.67,0,0,1-.69-.67.67.67,0,0,1,.68-.68.67.67,0,0,1,.68.67h0A.67.67,0,0,1,46.53-40.84Z" transform="translate(0.05 42.92)"/><path id="Path_43050" data-name="Path 43050" class="cls-4" d="M32.22-40.56a1,1,0,0,1-1-.95,1,1,0,0,1,.95-1,1,1,0,0,1,1,.95h0a1,1,0,0,1-1,1Z" transform="translate(0.05 42.92)"/><path id="Path_43051" data-name="Path 43051" class="cls-4" d="M17.91-40.32a1.19,1.19,0,0,1-1.2-1.19,1.19,1.19,0,0,1,1.18-1.21,1.19,1.19,0,0,1,1.21,1.19h0a1.19,1.19,0,0,1-1.18,1.2Z" transform="translate(0.05 42.92)"/><path id="Path_43052" data-name="Path 43052" class="cls-4" d="M3.61-40.12A1.4,1.4,0,0,1,2.2-41.51a1.39,1.39,0,0,1,1.39-1.41A1.4,1.4,0,0,1,5-41.53H5a1.4,1.4,0,0,1-1.39,1.4Z" transform="translate(0.05 42.92)"/><path id="Path_43053" data-name="Path 43053" class="cls-4" d="M89.44-27a.12.12,0,0,1-.12-.12.12.12,0,0,1,.12-.12.12.12,0,0,1,.12.12h0A.12.12,0,0,1,89.44-27Z" transform="translate(0.05 42.92)"/><path id="Path_43054" data-name="Path 43054" class="cls-4" d="M75.14-26.68a.45.45,0,0,1-.45-.44.44.44,0,0,1,.44-.44.44.44,0,0,1,.44.44h0a.44.44,0,0,1-.43.44Z" transform="translate(0.05 42.92)"/><path id="Path_43055" data-name="Path 43055" class="cls-4" d="M60.83-26.4a.71.71,0,0,1-.72-.71.71.71,0,0,1,.71-.73.71.71,0,0,1,.72.71h0A.7.7,0,0,1,60.83-26.4Z" transform="translate(0.05 42.92)"/><path id="Path_43056" data-name="Path 43056" class="cls-4" d="M46.52-26.12a1,1,0,0,1-1-1,1,1,0,0,1,1-1,1,1,0,0,1,1,1h0A1,1,0,0,1,46.52-26.12Z" transform="translate(0.05 42.92)"/><path id="Path_43057" data-name="Path 43057" class="cls-4" d="M32.22-25.84a1.29,1.29,0,0,1-1.29-1.27A1.29,1.29,0,0,1,32.2-28.4a1.29,1.29,0,0,1,1.29,1.27h0a1.28,1.28,0,0,1-1.27,1.28Z" transform="translate(0.05 42.92)"/><path id="Path_43058" data-name="Path 43058" class="cls-4" d="M17.92-25.57a1.55,1.55,0,0,1-1.57-1.54,1.55,1.55,0,0,1,1.54-1.57,1.56,1.56,0,0,1,1.57,1.55h0a1.55,1.55,0,0,1-1.54,1.55Z" transform="translate(0.05 42.92)"/><path id="Path_43059" data-name="Path 43059" class="cls-4" d="M3.61-25.36a1.77,1.77,0,0,1-1.77-1.75,1.76,1.76,0,0,1,1.75-1.77,1.75,1.75,0,0,1,1.76,1.75h0a1.75,1.75,0,0,1-1.74,1.76Z" transform="translate(0.05 42.92)"/><path id="Path_43060" data-name="Path 43060" class="cls-4" d="M103.75-12.64a.07.07,0,0,1-.08-.08.08.08,0,0,1,.08-.08.09.09,0,0,1,.08.08h0A.08.08,0,0,1,103.75-12.64Z" transform="translate(0.05 42.92)"/><path id="Path_43061" data-name="Path 43061" class="cls-4" d="M89.44-12.36a.36.36,0,0,1-.36-.36.36.36,0,0,1,.36-.36.36.36,0,0,1,.36.36h0a.36.36,0,0,1-.36.36Z" transform="translate(0.05 42.92)"/><path id="Path_43062" data-name="Path 43062" class="cls-4" d="M75.14-12a.68.68,0,0,1-.69-.67.68.68,0,0,1,.68-.69.68.68,0,0,1,.68.68h0A.68.68,0,0,1,75.14-12Z" transform="translate(0.05 42.92)"/><path id="Path_43063" data-name="Path 43063" class="cls-4" d="M60.83-11.72a1,1,0,0,1-1-1,1,1,0,0,1,1-1,1,1,0,0,1,1,1h0A1,1,0,0,1,60.83-11.72Z" transform="translate(0.05 42.92)"/><path id="Path_43064" data-name="Path 43064" class="cls-4" d="M46.52-11.4a1.32,1.32,0,0,1-1.32-1.31A1.32,1.32,0,0,1,46.51-14a1.32,1.32,0,0,1,1.32,1.31h0a1.3,1.3,0,0,1-1.3,1.32Z" transform="translate(0.05 42.92)"/><path id="Path_43065" data-name="Path 43065" class="cls-4" d="M32.22-11.12a1.59,1.59,0,0,1-1.61-1.59,1.6,1.6,0,0,1,1.58-1.61,1.6,1.6,0,0,1,1.62,1.59h0a1.6,1.6,0,0,1-1.59,1.6Z" transform="translate(0.05 42.92)"/><path id="Path_43066" data-name="Path 43066" class="cls-4" d="M17.91-10.84A1.88,1.88,0,0,1,16-12.71a1.89,1.89,0,0,1,1.87-1.89,1.89,1.89,0,0,1,1.89,1.87h0A1.88,1.88,0,0,1,17.91-10.84Z" transform="translate(0.05 42.92)"/><path id="Path_43067" data-name="Path 43067" class="cls-4" d="M3.61-10.61a2.11,2.11,0,0,1-2.13-2.1,2.12,2.12,0,0,1,2.1-2.13,2.12,2.12,0,0,1,2.13,2.1v0A2.11,2.11,0,0,1,3.61-10.61Z" transform="translate(0.05 42.92)"/><path id="Path_43068" data-name="Path 43068" class="cls-4" d="M103.74,1.92a.24.24,0,0,1-.24-.24.24.24,0,0,1,.48,0h0a.24.24,0,0,1-.24.24Z" transform="translate(0.05 42.92)"/><path id="Path_43069" data-name="Path 43069" class="cls-4" d="M89.44,2.28a.59.59,0,0,1-.6-.59.59.59,0,0,1,.59-.61.6.6,0,0,1,.6.6h0A.6.6,0,0,1,89.44,2.28Z" transform="translate(0.05 42.92)"/><path id="Path_43070" data-name="Path 43070" class="cls-4" d="M75.13,2.64a1,1,0,0,1,0-1.92,1,1,0,0,1,1,1h0a1,1,0,0,1-1,1Z" transform="translate(0.05 42.92)"/><path id="Path_43071" data-name="Path 43071" class="cls-4" d="M60.83,3a1.29,1.29,0,0,1-1.29-1.27A1.3,1.3,0,0,1,60.81.4,1.28,1.28,0,0,1,62.1,1.67h0A1.27,1.27,0,0,1,60.83,3Z" transform="translate(0.05 42.92)"/><path id="Path_43072" data-name="Path 43072" class="cls-4" d="M46.52,3.28a1.6,1.6,0,1,1,1.59-1.61h0a1.59,1.59,0,0,1-1.58,1.6Z" transform="translate(0.05 42.92)"/><path id="Path_43073" data-name="Path 43073" class="cls-4" d="M32.22,3.6a1.92,1.92,0,1,1,1.9-1.94v0A1.92,1.92,0,0,1,32.22,3.6Z" transform="translate(0.05 42.92)"/><path id="Path_43074" data-name="Path 43074" class="cls-4" d="M17.92,3.88A2.2,2.2,0,1,1,20.1,1.66v0a2.2,2.2,0,0,1-2.18,2.2Z" transform="translate(0.05 42.92)"/><path id="Path_43075" data-name="Path 43075" class="cls-4" d="M3.61,4.16A2.48,2.48,0,1,1,6.07,1.67h0A2.48,2.48,0,0,1,3.61,4.16Z" transform="translate(0.05 42.92)"/><path id="Path_43076" data-name="Path 43076" class="cls-4" d="M118.05,16.2a.12.12,0,0,1-.12-.12.12.12,0,0,1,.24,0h0a.12.12,0,0,1-.12.12Z" transform="translate(0.05 42.92)"/><path id="Path_43077" data-name="Path 43077" class="cls-4" d="M103.75,16.56a.48.48,0,1,1,.47-.48h0a.47.47,0,0,1-.47.48Z" transform="translate(0.05 42.92)"/><path id="Path_43078" data-name="Path 43078" class="cls-4" d="M89.44,16.92a.84.84,0,1,1,.83-.84h0A.84.84,0,0,1,89.44,16.92Z" transform="translate(0.05 42.92)"/><path id="Path_43079" data-name="Path 43079" class="cls-4" d="M75.13,17.28a1.2,1.2,0,1,1,1.19-1.21h0a1.18,1.18,0,0,1-1.18,1.2Z" transform="translate(0.05 42.92)"/><path id="Path_43080" data-name="Path 43080" class="cls-4" d="M60.83,17.64a1.56,1.56,0,1,1,1.55-1.57h0A1.55,1.55,0,0,1,60.83,17.64Z" transform="translate(0.05 42.92)"/><path id="Path_43081" data-name="Path 43081" class="cls-4" d="M46.52,18a1.88,1.88,0,1,1,1.87-1.89h0A1.87,1.87,0,0,1,46.52,18Z" transform="translate(0.05 42.92)"/><path id="Path_43082" data-name="Path 43082" class="cls-4" d="M32.22,18.28a2.2,2.2,0,1,1,2.18-2.22v0a2.19,2.19,0,0,1-2.18,2.2Z" transform="translate(0.05 42.92)"/><path id="Path_43083" data-name="Path 43083" class="cls-4" d="M17.92,18.6a2.52,2.52,0,1,1,2.49-2.53h0a2.52,2.52,0,0,1-2.5,2.52Z" transform="translate(0.05 42.92)"/><path id="Path_43084" data-name="Path 43084" class="cls-4" d="M3.61,18.88a2.8,2.8,0,1,1,2.78-2.83v0a2.8,2.8,0,0,1-2.78,2.8Z" transform="translate(0.05 42.92)"/><path id="Path_43085" data-name="Path 43085" class="cls-4" d="M118.05,30.76a.27.27,0,0,1-.28-.27.28.28,0,1,1,.56,0h0a.28.28,0,0,1-.28.28Z" transform="translate(0.05 42.92)"/><path id="Path_43086" data-name="Path 43086" class="cls-4" d="M103.74,31.12a.64.64,0,0,1-.64-.63.64.64,0,1,1,1.28,0h0A.64.64,0,0,1,103.74,31.12Z" transform="translate(0.05 42.92)"/><path id="Path_43087" data-name="Path 43087" class="cls-4" d="M89.44,31.52a1,1,0,0,1-1-1,1,1,0,1,1,2.07,0h0A1,1,0,0,1,89.44,31.52Z" transform="translate(0.05 42.92)"/><path id="Path_43088" data-name="Path 43088" class="cls-4" d="M75.14,31.88a1.4,1.4,0,1,1,1.38-1.41h0a1.38,1.38,0,0,1-1.38,1.4Z" transform="translate(0.05 42.92)"/><path id="Path_43089" data-name="Path 43089" class="cls-4" d="M60.83,32.24a1.76,1.76,0,1,1,1.74-1.77v0A1.76,1.76,0,0,1,60.83,32.24Z" transform="translate(0.05 42.92)"/><path id="Path_43090" data-name="Path 43090" class="cls-4" d="M46.52,32.6a2.12,2.12,0,1,1,2.1-2.13h0A2.11,2.11,0,0,1,46.52,32.6Z" transform="translate(0.05 42.92)"/><path id="Path_43091" data-name="Path 43091" class="cls-4" d="M32.22,33a2.48,2.48,0,1,1,2.46-2.49h0A2.48,2.48,0,0,1,32.22,33Z" transform="translate(0.05 42.92)"/><path id="Path_43092" data-name="Path 43092" class="cls-4" d="M17.91,33.28a2.8,2.8,0,1,1,2.78-2.82v0a2.78,2.78,0,0,1-2.77,2.8Z" transform="translate(0.05 42.92)"/><path id="Path_43093" data-name="Path 43093" class="cls-4" d="M3.61,33.6A3.12,3.12,0,1,1,6.7,30.46v0A3.1,3.1,0,0,1,3.62,33.6Z" transform="translate(0.05 42.92)"/><path id="Path_43094" data-name="Path 43094" class="cls-4" d="M118.05,45.32a.44.44,0,0,1-.44-.43.44.44,0,1,1,.88,0h0A.44.44,0,0,1,118.05,45.32Z" transform="translate(0.05 42.92)"/><path id="Path_43095" data-name="Path 43095" class="cls-4" d="M103.75,45.68a.79.79,0,0,1-.81-.79.8.8,0,0,1,.79-.81.81.81,0,0,1,.81.8h0A.8.8,0,0,1,103.75,45.68Z" transform="translate(0.05 42.92)"/><path id="Path_43096" data-name="Path 43096" class="cls-4" d="M89.44,46.08a1.2,1.2,0,1,1,1.19-1.21h0a1.19,1.19,0,0,1-1.19,1.2Z" transform="translate(0.05 42.92)"/><path id="Path_43097" data-name="Path 43097" class="cls-4" d="M75.13,46.48a1.6,1.6,0,1,1,1.59-1.61h0a1.58,1.58,0,0,1-1.58,1.6Z" transform="translate(0.05 42.92)"/><path id="Path_43098" data-name="Path 43098" class="cls-4" d="M60.83,46.84a2,2,0,1,1,1.94-2h0A1.94,1.94,0,0,1,60.83,46.84Z" transform="translate(0.05 42.92)"/><path id="Path_43099" data-name="Path 43099" class="cls-4" d="M46.52,47.24a2.36,2.36,0,1,1,2.34-2.37h0a2.34,2.34,0,0,1-2.33,2.36Z" transform="translate(0.05 42.92)"/><path id="Path_43100" data-name="Path 43100" class="cls-4" d="M32.22,47.6a2.72,2.72,0,1,1,2.7-2.73h0a2.71,2.71,0,0,1-2.7,2.72Z" transform="translate(0.05 42.92)"/><path id="Path_43101" data-name="Path 43101" class="cls-4" d="M15.78,47a3,3,0,0,1,0-4.29,3,3,0,0,1,4.24,0l0,0a3.06,3.06,0,0,1,0,4.29,3,3,0,0,1-4.25,0Z" transform="translate(0.05 42.92)"/><path id="Path_43102" data-name="Path 43102" class="cls-4" d="M3.61,48.28A3.4,3.4,0,1,1,7,44.86v0a3.38,3.38,0,0,1-3.37,3.4Z" transform="translate(0.05 42.92)"/><path id="Path_43103" data-name="Path 43103" class="cls-4" d="M118.05,59.84a.56.56,0,1,1,.55-.56h0a.56.56,0,0,1-.56.56Z" transform="translate(0.05 42.92)"/><path id="Path_43104" data-name="Path 43104" class="cls-4" d="M103.75,60.25a1,1,0,0,1-1-1,1,1,0,0,1,1-1,1,1,0,0,1,1,1h0a1,1,0,0,1-1,1Z" transform="translate(0.05 42.92)"/><path id="Path_43105" data-name="Path 43105" class="cls-4" d="M89.44,60.64a1.36,1.36,0,1,1,1.35-1.37h0A1.35,1.35,0,0,1,89.44,60.64Z" transform="translate(0.05 42.92)"/><path id="Path_43106" data-name="Path 43106" class="cls-4" d="M75.14,61a1.76,1.76,0,1,1,1.74-1.77v0A1.75,1.75,0,0,1,75.14,61Z" transform="translate(0.05 42.92)"/><path id="Path_43107" data-name="Path 43107" class="cls-4" d="M60.83,61.44A2.16,2.16,0,1,1,63,59.27h0A2.14,2.14,0,0,1,60.83,61.44Z" transform="translate(0.05 42.92)"/><path id="Path_43108" data-name="Path 43108" class="cls-4" d="M46.52,61.8A2.52,2.52,0,1,1,49,59.27h0a2.5,2.5,0,0,1-2.49,2.52Z" transform="translate(0.05 42.92)"/><path id="Path_43109" data-name="Path 43109" class="cls-4" d="M32.22,62.2a2.92,2.92,0,1,1,2.9-2.93h0a2.91,2.91,0,0,1-2.9,2.92Z" transform="translate(0.05 42.92)"/><path id="Path_43110" data-name="Path 43110" class="cls-4" d="M17.91,62.56a3.28,3.28,0,1,1,3.26-3.3v0a3.27,3.27,0,0,1-3.25,3.28Z" transform="translate(0.05 42.92)"/><path id="Path_43111" data-name="Path 43111" class="cls-4" d="M3.61,62.92a3.64,3.64,0,1,1,3.61-3.66v0A3.62,3.62,0,0,1,3.61,62.92Z" transform="translate(0.05 42.92)"/></g><g id="Group_2149" data-name="Group 2149"><path id="Path_43112" data-name="Path 43112" class="cls-4" d="M173.38-41.36a.16.16,0,0,0,.16-.16.15.15,0,0,0-.15-.16.17.17,0,0,0-.17.16h0A.16.16,0,0,0,173.38-41.36Z" transform="translate(0.05 42.92)"/><path id="Path_43113" data-name="Path 43113" class="cls-4" d="M187.69-41.08a.44.44,0,0,0,.44-.44.44.44,0,0,0-.44-.44.44.44,0,0,0-.44.44h0a.44.44,0,0,0,.44.44Z" transform="translate(0.05 42.92)"/><path id="Path_43114" data-name="Path 43114" class="cls-4" d="M202-40.84a.68.68,0,0,0,.69-.67.67.67,0,0,0-.68-.68.67.67,0,0,0-.68.67h0a.67.67,0,0,0,.67.68Z" transform="translate(0.05 42.92)"/><path id="Path_43115" data-name="Path 43115" class="cls-4" d="M216.3-40.56a1,1,0,0,0,1-.95,1,1,0,0,0-.95-1,1,1,0,0,0-1,.95h0a1,1,0,0,0,1,1Z" transform="translate(0.05 42.92)"/><path id="Path_43116" data-name="Path 43116" class="cls-4" d="M230.6-40.32a1.2,1.2,0,0,0,1.21-1.19,1.2,1.2,0,0,0-1.19-1.21,1.2,1.2,0,0,0-1.21,1.19h0a1.2,1.2,0,0,0,1.19,1.2Z" transform="translate(0.05 42.92)"/><path id="Path_43117" data-name="Path 43117" class="cls-4" d="M244.91-40.12a1.41,1.41,0,0,0,1.41-1.39,1.39,1.39,0,0,0-1.39-1.41,1.4,1.4,0,0,0-1.41,1.39h0a1.4,1.4,0,0,0,1.38,1.4Z" transform="translate(0.05 42.92)"/><path id="Path_43118" data-name="Path 43118" class="cls-4" d="M159.08-27a.12.12,0,0,0,.12-.12.12.12,0,0,0-.12-.12.12.12,0,0,0-.12.12h0A.12.12,0,0,0,159.08-27Z" transform="translate(0.05 42.92)"/><path id="Path_43119" data-name="Path 43119" class="cls-4" d="M173.38-26.68a.44.44,0,0,0,.44-.44.43.43,0,0,0-.43-.44.44.44,0,0,0-.44.44h0a.43.43,0,0,0,.43.44Z" transform="translate(0.05 42.92)"/><path id="Path_43120" data-name="Path 43120" class="cls-4" d="M187.69-26.4a.71.71,0,0,0,.72-.71.72.72,0,0,0-.71-.73.73.73,0,0,0-.73.71h0A.72.72,0,0,0,187.69-26.4Z" transform="translate(0.05 42.92)"/><path id="Path_43121" data-name="Path 43121" class="cls-4" d="M202-26.12a1,1,0,0,0,1-1,1,1,0,0,0-1-1,1,1,0,0,0-1,1h0A1,1,0,0,0,202-26.12Z" transform="translate(0.05 42.92)"/><path id="Path_43122" data-name="Path 43122" class="cls-4" d="M216.3-25.84a1.28,1.28,0,0,0,1.28-1.27,1.28,1.28,0,0,0-1.27-1.29A1.28,1.28,0,0,0,215-27.13h0a1.27,1.27,0,0,0,1.27,1.28Z" transform="translate(0.05 42.92)"/><path id="Path_43123" data-name="Path 43123" class="cls-4" d="M230.6-25.57a1.55,1.55,0,0,0,1.57-1.54,1.56,1.56,0,0,0-1.55-1.57,1.55,1.55,0,0,0-1.56,1.55h0a1.54,1.54,0,0,0,1.54,1.55Z" transform="translate(0.05 42.92)"/><path id="Path_43124" data-name="Path 43124" class="cls-4" d="M244.91-25.36a1.77,1.77,0,0,0,1.77-1.75,1.77,1.77,0,0,0-1.75-1.77,1.77,1.77,0,0,0-1.77,1.75h0a1.76,1.76,0,0,0,1.75,1.76Z" transform="translate(0.05 42.92)"/><path id="Path_43125" data-name="Path 43125" class="cls-4" d="M144.77-12.64a.07.07,0,0,0,.08-.08.08.08,0,0,0-.08-.08.09.09,0,0,0-.08.08h0A.08.08,0,0,0,144.77-12.64Z" transform="translate(0.05 42.92)"/><path id="Path_43126" data-name="Path 43126" class="cls-4" d="M159.08-12.36a.36.36,0,0,0,.36-.36.36.36,0,0,0-.36-.36.36.36,0,0,0-.36.36h0a.36.36,0,0,0,.36.36Z" transform="translate(0.05 42.92)"/><path id="Path_43127" data-name="Path 43127" class="cls-4" d="M173.38-12a.69.69,0,0,0,.69-.67.68.68,0,0,0-.68-.69.68.68,0,0,0-.68.68h0A.68.68,0,0,0,173.38-12Z" transform="translate(0.05 42.92)"/><path id="Path_43128" data-name="Path 43128" class="cls-4" d="M187.69-11.72a1,1,0,0,0,1-1,1,1,0,0,0-1-1,1,1,0,0,0-1,1h0A1,1,0,0,0,187.69-11.72Z" transform="translate(0.05 42.92)"/><path id="Path_43129" data-name="Path 43129" class="cls-4" d="M202-11.4a1.33,1.33,0,0,0,1.33-1.31A1.33,1.33,0,0,0,202-14a1.33,1.33,0,0,0-1.33,1.31h0A1.32,1.32,0,0,0,202-11.4Z" transform="translate(0.05 42.92)"/><path id="Path_43130" data-name="Path 43130" class="cls-4" d="M216.3-11.12a1.6,1.6,0,0,0,1.61-1.59,1.6,1.6,0,0,0-1.59-1.61,1.6,1.6,0,0,0-1.61,1.59h0a1.6,1.6,0,0,0,1.58,1.6Z" transform="translate(0.05 42.92)"/><path id="Path_43131" data-name="Path 43131" class="cls-4" d="M230.6-10.84a1.88,1.88,0,0,0,1.89-1.87,1.88,1.88,0,0,0-1.86-1.89,1.88,1.88,0,0,0-1.89,1.87h0A1.87,1.87,0,0,0,230.6-10.84Z" transform="translate(0.05 42.92)"/><path id="Path_43132" data-name="Path 43132" class="cls-4" d="M244.9-10.61a2.12,2.12,0,0,0,2.14-2.1,2.12,2.12,0,0,0-2.1-2.13,2.11,2.11,0,0,0-2.13,2.1v0A2.11,2.11,0,0,0,244.9-10.61Z" transform="translate(0.05 42.92)"/><path id="Path_43133" data-name="Path 43133" class="cls-4" d="M144.77,1.92a.23.23,0,0,0,.24-.24.23.23,0,0,0-.23-.24.25.25,0,0,0-.25.24h0a.24.24,0,0,0,.24.24Z" transform="translate(0.05 42.92)"/><path id="Path_43134" data-name="Path 43134" class="cls-4" d="M159.08,2.28a.59.59,0,0,0,.6-.59.59.59,0,0,0-.59-.61.61.61,0,0,0-.61.6h0A.6.6,0,0,0,159.08,2.28Z" transform="translate(0.05 42.92)"/><path id="Path_43135" data-name="Path 43135" class="cls-4" d="M173.38,2.64a1,1,0,0,0,1-1,1,1,0,1,0-1.92,0h0a1,1,0,0,0,.95,1Z" transform="translate(0.05 42.92)"/><path id="Path_43136" data-name="Path 43136" class="cls-4" d="M187.69,3a1.28,1.28,0,1,0-1.27-1.29h0A1.27,1.27,0,0,0,187.69,3Z" transform="translate(0.05 42.92)"/><path id="Path_43137" data-name="Path 43137" class="cls-4" d="M202,3.28a1.6,1.6,0,1,0-1.58-1.61h0A1.59,1.59,0,0,0,202,3.28Z" transform="translate(0.05 42.92)"/><path id="Path_43138" data-name="Path 43138" class="cls-4" d="M216.3,3.6a1.92,1.92,0,1,0-1.9-1.94v0A1.91,1.91,0,0,0,216.3,3.6Z" transform="translate(0.05 42.92)"/><path id="Path_43139" data-name="Path 43139" class="cls-4" d="M230.6,3.88a2.2,2.2,0,1,0-2.18-2.22v0a2.19,2.19,0,0,0,2.18,2.2Z" transform="translate(0.05 42.92)"/><path id="Path_43140" data-name="Path 43140" class="cls-4" d="M244.91,4.16a2.48,2.48,0,1,0-2.46-2.49h0A2.47,2.47,0,0,0,244.91,4.16Z" transform="translate(0.05 42.92)"/><path id="Path_43141" data-name="Path 43141" class="cls-4" d="M130.47,16.2a.12.12,0,1,0,0-.24.12.12,0,0,0-.12.12h0a.12.12,0,0,0,.12.12Z" transform="translate(0.05 42.92)"/><path id="Path_43142" data-name="Path 43142" class="cls-4" d="M144.77,16.56a.48.48,0,1,0-.47-.48h0a.47.47,0,0,0,.47.48Z" transform="translate(0.05 42.92)"/><path id="Path_43143" data-name="Path 43143" class="cls-4" d="M159.07,16.92a.84.84,0,1,0-.83-.84h0A.84.84,0,0,0,159.07,16.92Z" transform="translate(0.05 42.92)"/><path id="Path_43144" data-name="Path 43144" class="cls-4" d="M173.38,17.28a1.2,1.2,0,1,0-1.19-1.21h0a1.19,1.19,0,0,0,1.19,1.2Z" transform="translate(0.05 42.92)"/><path id="Path_43145" data-name="Path 43145" class="cls-4" d="M187.69,17.64a1.56,1.56,0,1,0-1.55-1.57h0A1.55,1.55,0,0,0,187.69,17.64Z" transform="translate(0.05 42.92)"/><path id="Path_43146" data-name="Path 43146" class="cls-4" d="M202,18a1.88,1.88,0,1,0-1.86-1.89h0A1.86,1.86,0,0,0,202,18Z" transform="translate(0.05 42.92)"/><path id="Path_43147" data-name="Path 43147" class="cls-4" d="M216.3,18.28a2.2,2.2,0,1,0-2.18-2.22v0a2.19,2.19,0,0,0,2.17,2.2Z" transform="translate(0.05 42.92)"/><path id="Path_43148" data-name="Path 43148" class="cls-4" d="M230.6,18.6a2.52,2.52,0,1,0-2.5-2.53h0a2.52,2.52,0,0,0,2.5,2.52Z" transform="translate(0.05 42.92)"/><path id="Path_43149" data-name="Path 43149" class="cls-4" d="M244.91,18.88a2.8,2.8,0,1,0-2.78-2.83v0a2.79,2.79,0,0,0,2.77,2.8Z" transform="translate(0.05 42.92)"/><path id="Path_43150" data-name="Path 43150" class="cls-4" d="M130.47,30.76a.27.27,0,0,0,.28-.27.28.28,0,1,0-.56,0h0a.27.27,0,0,0,.28.28Z" transform="translate(0.05 42.92)"/><path id="Path_43151" data-name="Path 43151" class="cls-4" d="M144.77,31.12a.64.64,0,0,0,.65-.63.65.65,0,0,0-.64-.65.64.64,0,0,0-.64.64h0A.64.64,0,0,0,144.77,31.12Z" transform="translate(0.05 42.92)"/><path id="Path_43152" data-name="Path 43152" class="cls-4" d="M159.08,31.52a1,1,0,1,0,0-2.07,1,1,0,0,0-1,1h0A1,1,0,0,0,159.08,31.52Z" transform="translate(0.05 42.92)"/><path id="Path_43153" data-name="Path 43153" class="cls-4" d="M173.38,31.88a1.4,1.4,0,0,0,0-2.8A1.41,1.41,0,0,0,172,30.47h0a1.4,1.4,0,0,0,1.39,1.4Z" transform="translate(0.05 42.92)"/><path id="Path_43154" data-name="Path 43154" class="cls-4" d="M187.69,32.24a1.76,1.76,0,1,0-1.75-1.77h0a1.75,1.75,0,0,0,1.75,1.76Z" transform="translate(0.05 42.92)"/><path id="Path_43155" data-name="Path 43155" class="cls-4" d="M202,32.6a2.12,2.12,0,1,0-2.1-2.13h0A2.11,2.11,0,0,0,202,32.6Z" transform="translate(0.05 42.92)"/><path id="Path_43156" data-name="Path 43156" class="cls-4" d="M216.3,33a2.48,2.48,0,1,0-2.46-2.49h0A2.47,2.47,0,0,0,216.3,33Z" transform="translate(0.05 42.92)"/><path id="Path_43157" data-name="Path 43157" class="cls-4" d="M230.6,33.28a2.8,2.8,0,1,0-2.77-2.82v0a2.78,2.78,0,0,0,2.77,2.8Z" transform="translate(0.05 42.92)"/><path id="Path_43158" data-name="Path 43158" class="cls-4" d="M244.91,33.6a3.12,3.12,0,1,0-3.1-3.14v0a3.1,3.1,0,0,0,3.09,3.12Z" transform="translate(0.05 42.92)"/><path id="Path_43159" data-name="Path 43159" class="cls-4" d="M130.47,45.32a.44.44,0,0,0,.44-.43.44.44,0,1,0-.88,0h0A.44.44,0,0,0,130.47,45.32Z" transform="translate(0.05 42.92)"/><path id="Path_43160" data-name="Path 43160" class="cls-4" d="M144.77,45.68a.8.8,0,0,0,.81-.79.81.81,0,0,0-.79-.81.8.8,0,0,0-.81.8h0A.79.79,0,0,0,144.77,45.68Z" transform="translate(0.05 42.92)"/><path id="Path_43161" data-name="Path 43161" class="cls-4" d="M159.08,46.08a1.2,1.2,0,1,0-1.19-1.21h0a1.19,1.19,0,0,0,1.19,1.2Z" transform="translate(0.05 42.92)"/><path id="Path_43162" data-name="Path 43162" class="cls-4" d="M173.38,46.48a1.6,1.6,0,1,0-1.58-1.61h0a1.58,1.58,0,0,0,1.58,1.6Z" transform="translate(0.05 42.92)"/><path id="Path_43163" data-name="Path 43163" class="cls-4" d="M187.69,46.84a2,2,0,1,0-1.95-2h0A2,2,0,0,0,187.69,46.84Z" transform="translate(0.05 42.92)"/><path id="Path_43164" data-name="Path 43164" class="cls-4" d="M202,47.24a2.36,2.36,0,1,0-2.34-2.37h0A2.35,2.35,0,0,0,202,47.24Z" transform="translate(0.05 42.92)"/><path id="Path_43165" data-name="Path 43165" class="cls-4" d="M216.3,47.6a2.72,2.72,0,1,0-2.7-2.73h0a2.7,2.7,0,0,0,2.69,2.72Z" transform="translate(0.05 42.92)"/><path id="Path_43166" data-name="Path 43166" class="cls-4" d="M228.47,42.74a3,3,0,0,1,4.24,0l0,0a3,3,0,0,1,0,4.29,3,3,0,0,1-4.24,0l0,0A3,3,0,0,1,228.47,42.74Z" transform="translate(0.05 42.92)"/><path id="Path_43167" data-name="Path 43167" class="cls-4" d="M244.91,48.28a3.4,3.4,0,1,0-3.37-3.42v0a3.38,3.38,0,0,0,3.37,3.4Z" transform="translate(0.05 42.92)"/><path id="Path_43168" data-name="Path 43168" class="cls-4" d="M130.47,59.84a.54.54,0,0,0,.56-.55.56.56,0,0,0-.56-.56.55.55,0,0,0-.56.55h0a.56.56,0,0,0,.56.56Z" transform="translate(0.05 42.92)"/><path id="Path_43169" data-name="Path 43169" class="cls-4" d="M144.77,60.25a1,1,0,0,0,1-1,1,1,0,0,0-1.92,0h0a1,1,0,0,0,1,1Z" transform="translate(0.05 42.92)"/><path id="Path_43170" data-name="Path 43170" class="cls-4" d="M159.08,60.64a1.36,1.36,0,1,0-1.35-1.37h0A1.35,1.35,0,0,0,159.08,60.64Z" transform="translate(0.05 42.92)"/><path id="Path_43171" data-name="Path 43171" class="cls-4" d="M173.38,61a1.76,1.76,0,1,0-1.74-1.77v0A1.74,1.74,0,0,0,173.38,61Z" transform="translate(0.05 42.92)"/><path id="Path_43172" data-name="Path 43172" class="cls-4" d="M187.69,61.44a2.16,2.16,0,1,0-2.14-2.17h0A2.16,2.16,0,0,0,187.69,61.44Z" transform="translate(0.05 42.92)"/><path id="Path_43173" data-name="Path 43173" class="cls-4" d="M202,61.8a2.52,2.52,0,1,0-2.5-2.53h0A2.52,2.52,0,0,0,202,61.8Z" transform="translate(0.05 42.92)"/><path id="Path_43174" data-name="Path 43174" class="cls-4" d="M216.3,62.2a2.92,2.92,0,1,0-2.9-2.93h0a2.9,2.9,0,0,0,2.89,2.92Z" transform="translate(0.05 42.92)"/><path id="Path_43175" data-name="Path 43175" class="cls-4" d="M230.6,62.56a3.28,3.28,0,1,0-3.25-3.3v0a3.26,3.26,0,0,0,3.25,3.28Z" transform="translate(0.05 42.92)"/><path id="Path_43176" data-name="Path 43176" class="cls-4" d="M244.91,62.92a3.64,3.64,0,1,0-3.61-3.66v0A3.62,3.62,0,0,0,244.91,62.92Z" transform="translate(0.05 42.92)"/></g></g></g></g></g></g></svg>