<svg id="Group_2262" data-name="Group 2262" xmlns="http://www.w3.org/2000/svg" xmlns:xlink="http://www.w3.org/1999/xlink" viewBox="0 0 255.23 150.7"><defs><style>.cls-1{fill:none;}.cls-2{fill:url(#linear-gradient);}.cls-3{fill:url(#radial-gradient);}.cls-4{clip-path:url(#clip-path);}.cls-5{opacity:0.7;}.cls-6{fill:#fff;}</style><linearGradient id="linear-gradient" x1="249" y1="10" x2="0" y2="10" gradientUnits="userSpaceOnUse"><stop offset="0" stop-color="#d6d6d6"/><stop offset="0.5" stop-color="#fbfbfb"/><stop offset="1" stop-color="#d6d6d6"/></linearGradient><radialGradient id="radial-gradient" cx="124.28" cy="20.3" r="71.11" gradientTransform="translate(0 18.53) scale(1 0.09)" gradientUnits="userSpaceOnUse"><stop offset="0" stop-color="#fff" stop-opacity="0.99"/><stop offset="0.6" stop-color="#d2d2d2"/><stop offset="1" stop-color="#b5b5b5"/></radialGradient><clipPath id="clip-path" transform="translate(6.23 116.37)"><path class="cls-1" d="M0,0H249a20,20,0,0,1-20,20H20A20,20,0,0,1,0,0Z"/></clipPath></defs><title>server-bottom</title><path class="cls-2" d="M249,0a19.94,19.94,0,0,1-5.86,14.14A19.94,19.94,0,0,1,229,20H20A20,20,0,0,1,0,0Z" transform="translate(6.23 116.37)"/><g id="Mask_Group_110" data-name="Mask Group 110"><path class="cls-3" d="M225,20H24c17.44-3.31,55.9-5.62,100.53-5.62S207.59,16.69,225,20Z" transform="translate(6.23 116.37)"/></g><g class="cls-4"><g id="Mask_Group_111" data-name="Mask Group 111" class="cls-5"><g id="Group_1780" data-name="Group 1780"><g id="Group_1778" data-name="Group 1778"><path id="Path_35295" data-name="Path 35295" class="cls-6" d="M94.69-115.29a.1.1,0,0,0,.1-.12.1.1,0,0,0-.12-.1.11.11,0,0,0-.1.11A.13.13,0,0,0,94.69-115.29Z" transform="translate(6.23 116.37)"/><path id="Path_35296" data-name="Path 35296" class="cls-6" d="M105.65-115.1a.3.3,0,0,0,.26-.33.29.29,0,0,0-.33-.26.28.28,0,0,0-.26.29A.31.31,0,0,0,105.65-115.1Z" transform="translate(6.23 116.37)"/><path id="Path_35297" data-name="Path 35297" class="cls-6" d="M116.61-114.93a.48.48,0,0,0,.42-.52.48.48,0,0,0-.52-.42.48.48,0,0,0-.42.47A.51.51,0,0,0,116.61-114.93Z" transform="translate(6.23 116.37)"/><path id="Path_35298" data-name="Path 35298" class="cls-6" d="M127.56-114.74a.67.67,0,0,0,.6-.73.66.66,0,0,0-.73-.59.66.66,0,0,0-.6.66A.7.7,0,0,0,127.56-114.74Z" transform="translate(6.23 116.37)"/><path id="Path_35299" data-name="Path 35299" class="cls-6" d="M138.52-114.57a.83.83,0,0,0,.74-.91.83.83,0,0,0-.9-.75.83.83,0,0,0-.75.83A.87.87,0,0,0,138.52-114.57Z" transform="translate(6.23 116.37)"/><path id="Path_35300" data-name="Path 35300" class="cls-6" d="M149.48-114.44a1,1,0,0,0,.86-1.06,1,1,0,0,0-1.06-.86,1,1,0,0,0-.87,1A1,1,0,0,0,149.48-114.44Z" transform="translate(6.23 116.37)"/><path id="Path_35301" data-name="Path 35301" class="cls-6" d="M83.74-105.39s.08,0,.07-.09a.08.08,0,0,0-.09-.08.09.09,0,0,0-.07.09.09.09,0,0,0,.09.08Z" transform="translate(6.23 116.37)"/><path id="Path_35302" data-name="Path 35302" class="cls-6" d="M94.69-105.17a.3.3,0,0,0,.27-.33.31.31,0,0,0-.33-.27.31.31,0,0,0-.27.3A.32.32,0,0,0,94.69-105.17Z" transform="translate(6.23 116.37)"/><path id="Path_35303" data-name="Path 35303" class="cls-6" d="M105.65-105a.49.49,0,0,0,.45-.54.49.49,0,0,0-.54-.45.5.5,0,0,0-.46.49.53.53,0,0,0,.55.5Z" transform="translate(6.23 116.37)"/><path id="Path_35304" data-name="Path 35304" class="cls-6" d="M116.61-104.78a.69.69,0,0,0,.62-.76.69.69,0,0,0-.76-.62.69.69,0,0,0-.62.69A.73.73,0,0,0,116.61-104.78Z" transform="translate(6.23 116.37)"/><path id="Path_35305" data-name="Path 35305" class="cls-6" d="M127.57-104.59a.89.89,0,0,0,.79-1,.88.88,0,0,0-1-.79.88.88,0,0,0-.8.88A.94.94,0,0,0,127.57-104.59Z" transform="translate(6.23 116.37)"/><path id="Path_35306" data-name="Path 35306" class="cls-6" d="M138.52-104.4a1.08,1.08,0,0,0,1-1.18,1.07,1.07,0,0,0-1.18-1,1.08,1.08,0,0,0-1,1.08A1.13,1.13,0,0,0,138.52-104.4Z" transform="translate(6.23 116.37)"/><path id="Path_35307" data-name="Path 35307" class="cls-6" d="M149.48-104.26a1.23,1.23,0,0,0,1.09-1.33,1.22,1.22,0,0,0-1.33-1.09,1.21,1.21,0,0,0-1.1,1.21A1.28,1.28,0,0,0,149.48-104.26Z" transform="translate(6.23 116.37)"/><path id="Path_35308" data-name="Path 35308" class="cls-6" d="M72.78-95.49a.06.06,0,0,0,0-.06.06.06,0,0,0-.06,0,.05.05,0,0,0,0,0,.06.06,0,0,0,.06.06Z" transform="translate(6.23 116.37)"/><path id="Path_35309" data-name="Path 35309" class="cls-6" d="M83.74-95.3a.24.24,0,0,0,.22-.27.23.23,0,0,0-.27-.22.24.24,0,0,0-.22.25A.25.25,0,0,0,83.74-95.3Z" transform="translate(6.23 116.37)"/><path id="Path_35310" data-name="Path 35310" class="cls-6" d="M94.69-95.08a.47.47,0,0,0,.43-.51A.47.47,0,0,0,94.6-96a.46.46,0,0,0-.42.46A.48.48,0,0,0,94.69-95.08Z" transform="translate(6.23 116.37)"/><path id="Path_35311" data-name="Path 35311" class="cls-6" d="M105.65-94.86a.69.69,0,0,0,.62-.75.69.69,0,0,0-.75-.63.7.7,0,0,0-.63.69A.73.73,0,0,0,105.65-94.86Z" transform="translate(6.23 116.37)"/><path id="Path_35312" data-name="Path 35312" class="cls-6" d="M116.6-94.64a.92.92,0,0,0,.83-1,.92.92,0,0,0-1-.82.91.91,0,0,0-.83.91A1,1,0,0,0,116.6-94.64Z" transform="translate(6.23 116.37)"/><path id="Path_35313" data-name="Path 35313" class="cls-6" d="M127.56-94.44a1.13,1.13,0,0,0,1-1.22,1.12,1.12,0,0,0-1.21-1,1.12,1.12,0,0,0-1,1.11A1.17,1.17,0,0,0,127.56-94.44Z" transform="translate(6.23 116.37)"/><path id="Path_35314" data-name="Path 35314" class="cls-6" d="M138.52-94.25a1.31,1.31,0,0,0,1.17-1.42,1.31,1.31,0,0,0-1.43-1.17,1.31,1.31,0,0,0-1.17,1.29A1.38,1.38,0,0,0,138.52-94.25Z" transform="translate(6.23 116.37)"/><path id="Path_35315" data-name="Path 35315" class="cls-6" d="M149.48-94.09a1.46,1.46,0,0,0,1.31-1.6,1.46,1.46,0,0,0-1.6-1.31,1.46,1.46,0,0,0-1.32,1.45A1.53,1.53,0,0,0,149.48-94.09Z" transform="translate(6.23 116.37)"/><path id="Path_35316" data-name="Path 35316" class="cls-6" d="M72.78-85.45a.17.17,0,0,0,.15-.18.16.16,0,0,0-.18-.15.16.16,0,0,0-.15.16A.18.18,0,0,0,72.78-85.45Z" transform="translate(6.23 116.37)"/><path id="Path_35317" data-name="Path 35317" class="cls-6" d="M83.74-85.2a.42.42,0,0,0,.37-.46.41.41,0,0,0-.45-.37.41.41,0,0,0-.38.41A.44.44,0,0,0,83.74-85.2Z" transform="translate(6.23 116.37)"/><path id="Path_35318" data-name="Path 35318" class="cls-6" d="M94.69-85a.66.66,0,0,0,.6-.72.66.66,0,0,0-.73-.6.67.67,0,0,0-.6.66A.71.71,0,0,0,94.69-85Z" transform="translate(6.23 116.37)"/><path id="Path_35319" data-name="Path 35319" class="cls-6" d="M105.65-84.74a.88.88,0,0,0,.79-1,.88.88,0,0,0-1-.8.89.89,0,0,0-.8.88A.93.93,0,0,0,105.65-84.74Z" transform="translate(6.23 116.37)"/><path id="Path_35320" data-name="Path 35320" class="cls-6" d="M116.61-84.52a1.11,1.11,0,0,0,1-1.21,1.1,1.1,0,0,0-1.21-1,1.11,1.11,0,0,0-1,1.1A1.16,1.16,0,0,0,116.61-84.52Z" transform="translate(6.23 116.37)"/><path id="Path_35321" data-name="Path 35321" class="cls-6" d="M127.56-84.3a1.32,1.32,0,0,0,1.19-1.45,1.32,1.32,0,0,0-1.45-1.19,1.33,1.33,0,0,0-1.2,1.32A1.39,1.39,0,0,0,127.56-84.3Z" transform="translate(6.23 116.37)"/><path id="Path_35322" data-name="Path 35322" class="cls-6" d="M138.52-84.1a1.52,1.52,0,0,0,1.36-1.67,1.52,1.52,0,0,0-1.66-1.36,1.52,1.52,0,0,0-1.37,1.51A1.6,1.6,0,0,0,138.52-84.1Z" transform="translate(6.23 116.37)"/><path id="Path_35323" data-name="Path 35323" class="cls-6" d="M149.48-83.91A1.7,1.7,0,0,0,151-85.79a1.7,1.7,0,0,0-1.87-1.53,1.71,1.71,0,0,0-1.55,1.7A1.8,1.8,0,0,0,149.48-83.91Z" transform="translate(6.23 116.37)"/><path id="Path_35324" data-name="Path 35324" class="cls-6" d="M61.82-75.61a.08.08,0,0,0,.08-.09.08.08,0,0,0-.09-.07.09.09,0,0,0-.08.08.09.09,0,0,0,.09.08Z" transform="translate(6.23 116.37)"/><path id="Path_35325" data-name="Path 35325" class="cls-6" d="M72.78-75.36a.33.33,0,0,0,.3-.36.33.33,0,0,0-.36-.3.33.33,0,0,0-.3.33A.35.35,0,0,0,72.78-75.36Z" transform="translate(6.23 116.37)"/><path id="Path_35326" data-name="Path 35326" class="cls-6" d="M83.74-75.11a.58.58,0,0,0,.52-.64.58.58,0,0,0-.64-.52.58.58,0,0,0-.52.58A.62.62,0,0,0,83.74-75.11Z" transform="translate(6.23 116.37)"/><path id="Path_35327" data-name="Path 35327" class="cls-6" d="M94.69-74.87a.83.83,0,0,0,.75-.9.84.84,0,0,0-.91-.75.84.84,0,0,0-.75.83A.86.86,0,0,0,94.69-74.87Z" transform="translate(6.23 116.37)"/><path id="Path_35328" data-name="Path 35328" class="cls-6" d="M105.65-74.62a1.08,1.08,0,0,0,1-1.18,1.08,1.08,0,0,0-1.18-1,1.07,1.07,0,0,0-1,1.07A1.13,1.13,0,0,0,105.65-74.62Z" transform="translate(6.23 116.37)"/><path id="Path_35329" data-name="Path 35329" class="cls-6" d="M116.61-74.4a1.29,1.29,0,0,0,1.16-1.42A1.29,1.29,0,0,0,116.35-77a1.29,1.29,0,0,0-1.17,1.29A1.36,1.36,0,0,0,116.61-74.4Z" transform="translate(6.23 116.37)"/><path id="Path_35330" data-name="Path 35330" class="cls-6" d="M127.56-74.18a1.52,1.52,0,0,0,1.37-1.66,1.52,1.52,0,0,0-1.66-1.37,1.54,1.54,0,0,0-1.38,1.52A1.6,1.6,0,0,0,127.56-74.18Z" transform="translate(6.23 116.37)"/><path id="Path_35331" data-name="Path 35331" class="cls-6" d="M138.52-74a1.73,1.73,0,0,0,1.56-1.9,1.74,1.74,0,0,0-1.9-1.57,1.75,1.75,0,0,0-1.57,1.74A1.82,1.82,0,0,0,138.52-74Z" transform="translate(6.23 116.37)"/><path id="Path_35332" data-name="Path 35332" class="cls-6" d="M149.48-73.76a1.94,1.94,0,0,0,1.73-2.12,1.93,1.93,0,0,0-2.12-1.74,1.93,1.93,0,0,0-1.74,1.93A2,2,0,0,0,149.48-73.76Z" transform="translate(6.23 116.37)"/><path id="Path_35333" data-name="Path 35333" class="cls-6" d="M61.83-65.57a.2.2,0,0,0,.17-.21.2.2,0,0,0-.21-.18.2.2,0,0,0-.18.2.21.21,0,0,0,.21.19Z" transform="translate(6.23 116.37)"/><path id="Path_35334" data-name="Path 35334" class="cls-6" d="M72.78-65.32a.45.45,0,0,0,.4-.49.43.43,0,0,0-.48-.39.44.44,0,0,0-.4.44A.47.47,0,0,0,72.78-65.32Z" transform="translate(6.23 116.37)"/><path id="Path_35335" data-name="Path 35335" class="cls-6" d="M83.74-65a.72.72,0,0,0,.64-.78.72.72,0,0,0-.78-.65.73.73,0,0,0-.65.72A.75.75,0,0,0,83.74-65Z" transform="translate(6.23 116.37)"/><path id="Path_35336" data-name="Path 35336" class="cls-6" d="M94.69-64.8a1,1,0,0,0,.87-1.06,1,1,0,0,0-1.06-.87,1,1,0,0,0-.87,1A1,1,0,0,0,94.69-64.8Z" transform="translate(6.23 116.37)"/><path id="Path_35337" data-name="Path 35337" class="cls-6" d="M105.65-64.55a1.21,1.21,0,0,0,1.09-1.33A1.21,1.21,0,0,0,105.41-67a1.22,1.22,0,0,0-1.1,1.21A1.29,1.29,0,0,0,105.65-64.55Z" transform="translate(6.23 116.37)"/><path id="Path_35338" data-name="Path 35338" class="cls-6" d="M116.61-64.3a1.47,1.47,0,0,0,1.31-1.61,1.47,1.47,0,0,0-1.6-1.31A1.46,1.46,0,0,0,115-65.76,1.54,1.54,0,0,0,116.61-64.3Z" transform="translate(6.23 116.37)"/><path id="Path_35339" data-name="Path 35339" class="cls-6" d="M127.56-64.06a1.71,1.71,0,0,0,1.54-1.87,1.72,1.72,0,0,0-1.87-1.54,1.72,1.72,0,0,0-1.55,1.71A1.79,1.79,0,0,0,127.56-64.06Z" transform="translate(6.23 116.37)"/><path id="Path_35340" data-name="Path 35340" class="cls-6" d="M138.52-63.84a1.94,1.94,0,0,0,1.74-2.11,2,2,0,0,0-2.12-1.74,1.94,1.94,0,0,0-1.75,1.93A2,2,0,0,0,138.52-63.84Z" transform="translate(6.23 116.37)"/><path id="Path_35341" data-name="Path 35341" class="cls-6" d="M149.48-63.62A2.15,2.15,0,0,0,151.41-66a2.16,2.16,0,0,0-2.36-1.93,2.16,2.16,0,0,0-1.94,2.15A2.26,2.26,0,0,0,149.48-63.62Z" transform="translate(6.23 116.37)"/><path id="Path_35342" data-name="Path 35342" class="cls-6" d="M61.83-55.53a.3.3,0,0,0,.26-.34.3.3,0,0,0-.33-.26.3.3,0,0,0-.27.3A.33.33,0,0,0,61.83-55.53Z" transform="translate(6.23 116.37)"/><path id="Path_35343" data-name="Path 35343" class="cls-6" d="M72.78-55.29a.55.55,0,0,0,.5-.6.55.55,0,0,0-.61-.5.56.56,0,0,0-.5.55A.58.58,0,0,0,72.78-55.29Z" transform="translate(6.23 116.37)"/><path id="Path_35344" data-name="Path 35344" class="cls-6" d="M83.74-55a.82.82,0,0,0,.74-.91.82.82,0,0,0-.9-.74.82.82,0,0,0-.75.82A.87.87,0,0,0,83.74-55Z" transform="translate(6.23 116.37)"/><path id="Path_35345" data-name="Path 35345" class="cls-6" d="M94.69-54.73a1.12,1.12,0,0,0,1-1.21,1.11,1.11,0,0,0-1.21-1,1.12,1.12,0,0,0-1,1.11A1.17,1.17,0,0,0,94.69-54.73Z" transform="translate(6.23 116.37)"/><path id="Path_35346" data-name="Path 35346" class="cls-6" d="M105.65-54.49A1.35,1.35,0,0,0,106.87-56a1.36,1.36,0,0,0-1.49-1.21,1.35,1.35,0,0,0-1.22,1.34A1.42,1.42,0,0,0,105.65-54.49Z" transform="translate(6.23 116.37)"/><path id="Path_35347" data-name="Path 35347" class="cls-6" d="M116.61-54.21A1.64,1.64,0,0,0,118.07-56a1.63,1.63,0,0,0-1.78-1.46,1.64,1.64,0,0,0-1.48,1.62A1.72,1.72,0,0,0,116.61-54.21Z" transform="translate(6.23 116.37)"/><path id="Path_35348" data-name="Path 35348" class="cls-6" d="M127.56-54A1.88,1.88,0,0,0,129.25-56a1.88,1.88,0,0,0-2.06-1.69,1.87,1.87,0,0,0-1.69,1.87A2,2,0,0,0,127.56-54Z" transform="translate(6.23 116.37)"/><path id="Path_35349" data-name="Path 35349" class="cls-6" d="M136.89-57.32a2.48,2.48,0,0,1,3.26,0,2,2,0,0,1,.19,2.76l-.19.19a2.48,2.48,0,0,1-3.26,0,2,2,0,0,1-.21-2.76A1.39,1.39,0,0,1,136.89-57.32Z" transform="translate(6.23 116.37)"/><path id="Path_35350" data-name="Path 35350" class="cls-6" d="M149.48-53.5a2.34,2.34,0,0,0,2.1-2.57A2.36,2.36,0,0,0,149-58.18a2.36,2.36,0,0,0-2.12,2.34A2.47,2.47,0,0,0,149.48-53.5Z" transform="translate(6.23 116.37)"/><path id="Path_35351" data-name="Path 35351" class="cls-6" d="M61.82-45.52a.39.39,0,0,0,.35-.43.38.38,0,0,0-.42-.34.38.38,0,0,0-.35.38A.41.41,0,0,0,61.82-45.52Z" transform="translate(6.23 116.37)"/><path id="Path_35352" data-name="Path 35352" class="cls-6" d="M72.78-45.25a.66.66,0,0,0,.6-.72.66.66,0,0,0-.73-.6.66.66,0,0,0-.6.66A.7.7,0,0,0,72.78-45.25Z" transform="translate(6.23 116.37)"/><path id="Path_35353" data-name="Path 35353" class="cls-6" d="M83.74-45a.94.94,0,0,0,.84-1,.93.93,0,0,0-1-.84.94.94,0,0,0-.85.93A1,1,0,0,0,83.74-45Z" transform="translate(6.23 116.37)"/><path id="Path_35354" data-name="Path 35354" class="cls-6" d="M94.69-44.7A1.22,1.22,0,0,0,95.79-46a1.22,1.22,0,0,0-1.33-1.09,1.21,1.21,0,0,0-1.1,1.21A1.27,1.27,0,0,0,94.69-44.7Z" transform="translate(6.23 116.37)"/><path id="Path_35355" data-name="Path 35355" class="cls-6" d="M105.65-44.42A1.5,1.5,0,0,0,107-46.06a1.49,1.49,0,0,0-1.63-1.34A1.5,1.5,0,0,0,104-45.91,1.57,1.57,0,0,0,105.65-44.42Z" transform="translate(6.23 116.37)"/><path id="Path_35356" data-name="Path 35356" class="cls-6" d="M116.61-44.17a1.75,1.75,0,0,0,1.56-1.91,1.74,1.74,0,0,0-1.91-1.56,1.74,1.74,0,0,0-1.57,1.73A1.84,1.84,0,0,0,116.61-44.17Z" transform="translate(6.23 116.37)"/><path id="Path_35357" data-name="Path 35357" class="cls-6" d="M127.56-43.9a2,2,0,0,0,1.81-2.21,2,2,0,0,0-2.2-1.81,2,2,0,0,0-1.82,2A2.12,2.12,0,0,0,127.56-43.9Z" transform="translate(6.23 116.37)"/><path id="Path_35358" data-name="Path 35358" class="cls-6" d="M138.52-43.65a2.25,2.25,0,0,0,2-2.48,2.27,2.27,0,0,0-2.48-2,2.28,2.28,0,0,0-2,2.26A2.39,2.39,0,0,0,138.52-43.65Z" transform="translate(6.23 116.37)"/><path id="Path_35359" data-name="Path 35359" class="cls-6" d="M149.48-43.41a2.51,2.51,0,0,0,2.25-2.75A2.52,2.52,0,0,0,149-48.42a2.52,2.52,0,0,0-2.27,2.51A2.65,2.65,0,0,0,149.48-43.41Z" transform="translate(6.23 116.37)"/></g><g id="Group_1779" data-name="Group 1779"><path id="Path_35360" data-name="Path 35360" class="cls-6" d="M50.82-115.29a.11.11,0,0,1-.1-.12.11.11,0,0,1,.12-.1.1.1,0,0,1,.1.11A.12.12,0,0,1,50.82-115.29Z" transform="translate(6.23 116.37)"/><path id="Path_35361" data-name="Path 35361" class="cls-6" d="M39.86-115.1a.3.3,0,0,1-.26-.33.3.3,0,0,1,.33-.26.29.29,0,0,1,.27.29A.32.32,0,0,1,39.86-115.1Z" transform="translate(6.23 116.37)"/><path id="Path_35362" data-name="Path 35362" class="cls-6" d="M28.9-114.93a.49.49,0,0,1-.42-.52.48.48,0,0,1,.52-.42.48.48,0,0,1,.42.47A.49.49,0,0,1,28.9-114.93Z" transform="translate(6.23 116.37)"/><path id="Path_35363" data-name="Path 35363" class="cls-6" d="M18-114.74a.67.67,0,0,1-.6-.73.66.66,0,0,1,.73-.59.66.66,0,0,1,.6.66A.7.7,0,0,1,18-114.74Z" transform="translate(6.23 116.37)"/><path id="Path_35364" data-name="Path 35364" class="cls-6" d="M7-114.57a.84.84,0,0,1-.74-.91.83.83,0,0,1,.91-.75.83.83,0,0,1,.74.83A.87.87,0,0,1,7-114.57Z" transform="translate(6.23 116.37)"/><path id="Path_35365" data-name="Path 35365" class="cls-6" d="M-4-114.44a1,1,0,0,1-.87-1.06,1,1,0,0,1,1.06-.86,1,1,0,0,1,.87,1A1,1,0,0,1-4-114.44Z" transform="translate(6.23 116.37)"/><path id="Path_35366" data-name="Path 35366" class="cls-6" d="M61.78-105.39a.09.09,0,0,1-.08-.09.09.09,0,0,1,.09-.08.1.1,0,0,1,.08.09.11.11,0,0,1-.09.08Z" transform="translate(6.23 116.37)"/><path id="Path_35367" data-name="Path 35367" class="cls-6" d="M50.82-105.17a.31.31,0,0,1-.27-.33.31.31,0,0,1,.34-.27.3.3,0,0,1,.26.3A.32.32,0,0,1,50.82-105.17Z" transform="translate(6.23 116.37)"/><path id="Path_35368" data-name="Path 35368" class="cls-6" d="M39.86-105a.5.5,0,0,1-.45-.54A.5.5,0,0,1,40-106a.49.49,0,0,1,.45.49.53.53,0,0,1-.55.5Z" transform="translate(6.23 116.37)"/><path id="Path_35369" data-name="Path 35369" class="cls-6" d="M28.91-104.78a.7.7,0,0,1-.63-.76.69.69,0,0,1,.76-.62.69.69,0,0,1,.63.69A.75.75,0,0,1,28.91-104.78Z" transform="translate(6.23 116.37)"/><path id="Path_35370" data-name="Path 35370" class="cls-6" d="M18-104.59a.89.89,0,0,1-.79-1,.88.88,0,0,1,1-.79.88.88,0,0,1,.8.88A.94.94,0,0,1,18-104.59Z" transform="translate(6.23 116.37)"/><path id="Path_35371" data-name="Path 35371" class="cls-6" d="M7-104.4a1.08,1.08,0,0,1-1-1.18,1.08,1.08,0,0,1,1.18-1,1.08,1.08,0,0,1,1,1.08A1.13,1.13,0,0,1,7-104.4Z" transform="translate(6.23 116.37)"/><path id="Path_35372" data-name="Path 35372" class="cls-6" d="M-4-104.26A1.21,1.21,0,0,1-5-105.59a1.21,1.21,0,0,1,1.33-1.09,1.21,1.21,0,0,1,1.09,1.21A1.27,1.27,0,0,1-4-104.26Z" transform="translate(6.23 116.37)"/><path id="Path_35373" data-name="Path 35373" class="cls-6" d="M72.73-95.49a.06.06,0,0,1,0-.06.06.06,0,0,1,.06,0,.05.05,0,0,1,.05,0,.06.06,0,0,1-.06.06Z" transform="translate(6.23 116.37)"/><path id="Path_35374" data-name="Path 35374" class="cls-6" d="M61.78-95.3a.25.25,0,0,1-.23-.27.24.24,0,0,1,.27-.22.25.25,0,0,1,.23.25A.26.26,0,0,1,61.78-95.3Z" transform="translate(6.23 116.37)"/><path id="Path_35375" data-name="Path 35375" class="cls-6" d="M50.82-95.08a.46.46,0,0,1-.42-.51.46.46,0,0,1,.51-.42.47.47,0,0,1,.43.46A.5.5,0,0,1,50.82-95.08Z" transform="translate(6.23 116.37)"/><path id="Path_35376" data-name="Path 35376" class="cls-6" d="M39.86-94.86a.69.69,0,0,1-.62-.75.7.7,0,0,1,.76-.63.7.7,0,0,1,.62.69A.73.73,0,0,1,39.86-94.86Z" transform="translate(6.23 116.37)"/><path id="Path_35377" data-name="Path 35377" class="cls-6" d="M28.9-94.64a.91.91,0,0,1-.82-1,.92.92,0,0,1,1-.82.9.9,0,0,1,.82.91A1,1,0,0,1,28.9-94.64Z" transform="translate(6.23 116.37)"/><path id="Path_35378" data-name="Path 35378" class="cls-6" d="M18-94.44a1.12,1.12,0,0,1-1-1.22,1.11,1.11,0,0,1,1.21-1,1.12,1.12,0,0,1,1,1.11A1.18,1.18,0,0,1,18-94.44Z" transform="translate(6.23 116.37)"/><path id="Path_35379" data-name="Path 35379" class="cls-6" d="M7-94.25a1.3,1.3,0,0,1-1.16-1.42,1.29,1.29,0,0,1,1.42-1.17,1.31,1.31,0,0,1,1.17,1.29A1.38,1.38,0,0,1,7-94.25Z" transform="translate(6.23 116.37)"/><path id="Path_35380" data-name="Path 35380" class="cls-6" d="M-4-94.09a1.46,1.46,0,0,1-1.32-1.6A1.46,1.46,0,0,1-3.68-97a1.46,1.46,0,0,1,1.33,1.45A1.55,1.55,0,0,1-4-94.09Z" transform="translate(6.23 116.37)"/><path id="Path_35381" data-name="Path 35381" class="cls-6" d="M72.73-85.45a.17.17,0,0,1-.15-.18.16.16,0,0,1,.18-.15.16.16,0,0,1,.15.16A.17.17,0,0,1,72.73-85.45Z" transform="translate(6.23 116.37)"/><path id="Path_35382" data-name="Path 35382" class="cls-6" d="M61.78-85.2a.43.43,0,0,1-.38-.46.42.42,0,0,1,.46-.37.41.41,0,0,1,.37.41A.44.44,0,0,1,61.78-85.2Z" transform="translate(6.23 116.37)"/><path id="Path_35383" data-name="Path 35383" class="cls-6" d="M50.82-85a.66.66,0,0,1-.6-.72.66.66,0,0,1,.73-.6.66.66,0,0,1,.6.66A.7.7,0,0,1,50.82-85Z" transform="translate(6.23 116.37)"/><path id="Path_35384" data-name="Path 35384" class="cls-6" d="M39.86-84.74a.88.88,0,0,1-.79-1,.89.89,0,0,1,1-.8.89.89,0,0,1,.79.88A.92.92,0,0,1,39.86-84.74Z" transform="translate(6.23 116.37)"/><path id="Path_35385" data-name="Path 35385" class="cls-6" d="M28.9-84.52a1.1,1.1,0,0,1-1-1.21,1.1,1.1,0,0,1,1.21-1,1.1,1.1,0,0,1,1,1.1A1.17,1.17,0,0,1,28.9-84.52Z" transform="translate(6.23 116.37)"/><path id="Path_35386" data-name="Path 35386" class="cls-6" d="M18-84.3a1.33,1.33,0,0,1-1.19-1.45,1.32,1.32,0,0,1,1.45-1.19,1.33,1.33,0,0,1,1.2,1.32A1.39,1.39,0,0,1,18-84.3Z" transform="translate(6.23 116.37)"/><path id="Path_35387" data-name="Path 35387" class="cls-6" d="M7-84.1a1.53,1.53,0,0,1-1.36-1.67,1.52,1.52,0,0,1,1.66-1.36,1.52,1.52,0,0,1,1.37,1.51A1.6,1.6,0,0,1,7-84.1Z" transform="translate(6.23 116.37)"/><path id="Path_35388" data-name="Path 35388" class="cls-6" d="M-4-83.91A1.71,1.71,0,0,1-5.5-85.79a1.7,1.7,0,0,1,1.87-1.53,1.71,1.71,0,0,1,1.55,1.7A1.8,1.8,0,0,1-4-83.91Z" transform="translate(6.23 116.37)"/><path id="Path_35389" data-name="Path 35389" class="cls-6" d="M83.69-75.61a.08.08,0,0,1-.08-.09.08.08,0,0,1,.09-.07.08.08,0,0,1,.08.08.08.08,0,0,1-.09.08Z" transform="translate(6.23 116.37)"/><path id="Path_35390" data-name="Path 35390" class="cls-6" d="M72.73-75.36a.34.34,0,0,1-.3-.36.33.33,0,0,1,.37-.3.33.33,0,0,1,.3.33A.35.35,0,0,1,72.73-75.36Z" transform="translate(6.23 116.37)"/><path id="Path_35391" data-name="Path 35391" class="cls-6" d="M61.77-75.11a.58.58,0,0,1-.52-.64.58.58,0,0,1,.64-.52.58.58,0,0,1,.52.58A.62.62,0,0,1,61.77-75.11Z" transform="translate(6.23 116.37)"/><path id="Path_35392" data-name="Path 35392" class="cls-6" d="M50.82-74.87a.83.83,0,0,1-.75-.9.84.84,0,0,1,.91-.75.83.83,0,0,1,.75.83A.86.86,0,0,1,50.82-74.87Z" transform="translate(6.23 116.37)"/><path id="Path_35393" data-name="Path 35393" class="cls-6" d="M39.86-74.62a1.09,1.09,0,0,1-1-1.18,1.08,1.08,0,0,1,1.18-1,1.07,1.07,0,0,1,1,1.07A1.14,1.14,0,0,1,39.86-74.62Z" transform="translate(6.23 116.37)"/><path id="Path_35394" data-name="Path 35394" class="cls-6" d="M28.9-74.4a1.29,1.29,0,0,1-1.16-1.42A1.29,1.29,0,0,1,29.16-77a1.29,1.29,0,0,1,1.17,1.29A1.36,1.36,0,0,1,28.9-74.4Z" transform="translate(6.23 116.37)"/><path id="Path_35395" data-name="Path 35395" class="cls-6" d="M18-74.18a1.52,1.52,0,0,1-1.37-1.66,1.53,1.53,0,0,1,1.67-1.37,1.53,1.53,0,0,1,1.37,1.52A1.6,1.6,0,0,1,18-74.18Z" transform="translate(6.23 116.37)"/><path id="Path_35396" data-name="Path 35396" class="cls-6" d="M7-74a1.73,1.73,0,0,1-1.56-1.9,1.75,1.75,0,0,1,1.91-1.57,1.75,1.75,0,0,1,1.57,1.74A1.83,1.83,0,0,1,7-74Z" transform="translate(6.23 116.37)"/><path id="Path_35397" data-name="Path 35397" class="cls-6" d="M-4-73.76A1.94,1.94,0,0,1-5.7-75.88a1.94,1.94,0,0,1,2.12-1.74,1.93,1.93,0,0,1,1.74,1.93A2,2,0,0,1-4-73.76Z" transform="translate(6.23 116.37)"/><path id="Path_35398" data-name="Path 35398" class="cls-6" d="M83.69-65.57a.2.2,0,0,1-.18-.21.2.2,0,0,1,.22-.18.2.2,0,0,1,.17.2.2.2,0,0,1-.21.19Z" transform="translate(6.23 116.37)"/><path id="Path_35399" data-name="Path 35399" class="cls-6" d="M72.73-65.32a.46.46,0,0,1-.4-.49.44.44,0,0,1,.49-.39.44.44,0,0,1,.4.44A.47.47,0,0,1,72.73-65.32Z" transform="translate(6.23 116.37)"/><path id="Path_35400" data-name="Path 35400" class="cls-6" d="M61.77-65a.72.72,0,0,1-.64-.78.72.72,0,0,1,.79-.65.73.73,0,0,1,.64.72A.75.75,0,0,1,61.77-65Z" transform="translate(6.23 116.37)"/><path id="Path_35401" data-name="Path 35401" class="cls-6" d="M50.82-64.8A1,1,0,0,1,50-65.86,1,1,0,0,1,51-66.73a1,1,0,0,1,.87,1A1,1,0,0,1,50.82-64.8Z" transform="translate(6.23 116.37)"/><path id="Path_35402" data-name="Path 35402" class="cls-6" d="M39.86-64.55a1.21,1.21,0,0,1-1.09-1.33A1.21,1.21,0,0,1,40.1-67a1.22,1.22,0,0,1,1.1,1.21A1.29,1.29,0,0,1,39.86-64.55Z" transform="translate(6.23 116.37)"/><path id="Path_35403" data-name="Path 35403" class="cls-6" d="M28.9-64.3a1.47,1.47,0,0,1-1.31-1.61,1.47,1.47,0,0,1,1.6-1.31,1.46,1.46,0,0,1,1.32,1.46A1.54,1.54,0,0,1,28.9-64.3Z" transform="translate(6.23 116.37)"/><path id="Path_35404" data-name="Path 35404" class="cls-6" d="M18-64.06a1.72,1.72,0,0,1-1.54-1.87,1.72,1.72,0,0,1,1.88-1.54,1.72,1.72,0,0,1,1.54,1.71A1.79,1.79,0,0,1,18-64.06Z" transform="translate(6.23 116.37)"/><path id="Path_35405" data-name="Path 35405" class="cls-6" d="M7-63.84a1.92,1.92,0,0,1-1.73-2.11,1.93,1.93,0,0,1,2.12-1.74,1.93,1.93,0,0,1,1.74,1.93A2,2,0,0,1,7-63.84Z" transform="translate(6.23 116.37)"/><path id="Path_35406" data-name="Path 35406" class="cls-6" d="M-4-63.62A2.15,2.15,0,0,1-5.9-66a2.16,2.16,0,0,1,2.36-1.93,2.16,2.16,0,0,1,2,2.15A2.27,2.27,0,0,1-4-63.62Z" transform="translate(6.23 116.37)"/><path id="Path_35407" data-name="Path 35407" class="cls-6" d="M83.69-55.53a.3.3,0,0,1-.27-.34.3.3,0,0,1,.34-.26.3.3,0,0,1,.26.3A.33.33,0,0,1,83.69-55.53Z" transform="translate(6.23 116.37)"/><path id="Path_35408" data-name="Path 35408" class="cls-6" d="M72.73-55.29a.55.55,0,0,1-.49-.6.55.55,0,0,1,.6-.5.56.56,0,0,1,.5.55A.58.58,0,0,1,72.73-55.29Z" transform="translate(6.23 116.37)"/><path id="Path_35409" data-name="Path 35409" class="cls-6" d="M61.77-55a.83.83,0,0,1-.74-.91.82.82,0,0,1,.91-.74.83.83,0,0,1,.75.82A.89.89,0,0,1,61.77-55Z" transform="translate(6.23 116.37)"/><path id="Path_35410" data-name="Path 35410" class="cls-6" d="M50.82-54.73a1.12,1.12,0,0,1-1-1.21,1.12,1.12,0,0,1,1.21-1,1.11,1.11,0,0,1,1,1.11A1.17,1.17,0,0,1,50.82-54.73Z" transform="translate(6.23 116.37)"/><path id="Path_35411" data-name="Path 35411" class="cls-6" d="M39.86-54.49A1.34,1.34,0,0,1,38.65-56a1.35,1.35,0,0,1,1.48-1.21,1.35,1.35,0,0,1,1.22,1.34A1.41,1.41,0,0,1,39.86-54.49Z" transform="translate(6.23 116.37)"/><path id="Path_35412" data-name="Path 35412" class="cls-6" d="M28.91-54.21A1.64,1.64,0,0,1,27.44-56a1.64,1.64,0,0,1,1.79-1.46,1.64,1.64,0,0,1,1.47,1.62A1.72,1.72,0,0,1,28.91-54.21Z" transform="translate(6.23 116.37)"/><path id="Path_35413" data-name="Path 35413" class="cls-6" d="M18-54A1.88,1.88,0,0,1,16.26-56a1.88,1.88,0,0,1,2.06-1.69A1.89,1.89,0,0,1,20-55.84,2,2,0,0,1,18-54Z" transform="translate(6.23 116.37)"/><path id="Path_35414" data-name="Path 35414" class="cls-6" d="M5.36-54.35a2,2,0,0,1-.2-2.76l.2-.2a2.47,2.47,0,0,1,3.26,0,2,2,0,0,1,.21,2.76l-.2.2A2.5,2.5,0,0,1,5.36-54.35Z" transform="translate(6.23 116.37)"/><path id="Path_35415" data-name="Path 35415" class="cls-6" d="M-4-53.5a2.34,2.34,0,0,1-2.11-2.57A2.36,2.36,0,0,1-3.5-58.18a2.36,2.36,0,0,1,2.12,2.34A2.47,2.47,0,0,1-4-53.5Z" transform="translate(6.23 116.37)"/><path id="Path_35416" data-name="Path 35416" class="cls-6" d="M83.69-45.52a.39.39,0,0,1-.35-.43.38.38,0,0,1,.42-.34.38.38,0,0,1,.35.38A.41.41,0,0,1,83.69-45.52Z" transform="translate(6.23 116.37)"/><path id="Path_35417" data-name="Path 35417" class="cls-6" d="M72.73-45.25a.65.65,0,0,1-.59-.72.66.66,0,0,1,.72-.6.66.66,0,0,1,.6.66A.7.7,0,0,1,72.73-45.25Z" transform="translate(6.23 116.37)"/><path id="Path_35418" data-name="Path 35418" class="cls-6" d="M61.78-45a.94.94,0,0,1-.85-1,.93.93,0,0,1,1-.84.93.93,0,0,1,.85.93A1,1,0,0,1,61.78-45Z" transform="translate(6.23 116.37)"/><path id="Path_35419" data-name="Path 35419" class="cls-6" d="M50.82-44.7A1.21,1.21,0,0,1,49.73-46a1.21,1.21,0,0,1,1.33-1.09,1.21,1.21,0,0,1,1.09,1.21A1.27,1.27,0,0,1,50.82-44.7Z" transform="translate(6.23 116.37)"/><path id="Path_35420" data-name="Path 35420" class="cls-6" d="M39.86-44.42a1.5,1.5,0,0,1-1.34-1.64,1.5,1.5,0,0,1,1.64-1.34,1.5,1.5,0,0,1,1.34,1.49A1.57,1.57,0,0,1,39.86-44.42Z" transform="translate(6.23 116.37)"/><path id="Path_35421" data-name="Path 35421" class="cls-6" d="M28.91-44.17a1.76,1.76,0,0,1-1.57-1.91,1.74,1.74,0,0,1,1.91-1.56,1.74,1.74,0,0,1,1.57,1.73A1.84,1.84,0,0,1,28.91-44.17Z" transform="translate(6.23 116.37)"/><path id="Path_35422" data-name="Path 35422" class="cls-6" d="M18-43.9a2,2,0,0,1-1.81-2.21,2,2,0,0,1,2.21-1.81,2,2,0,0,1,1.82,2A2.13,2.13,0,0,1,18-43.9Z" transform="translate(6.23 116.37)"/><path id="Path_35423" data-name="Path 35423" class="cls-6" d="M7-43.65a2.28,2.28,0,0,1-2-2.48,2.28,2.28,0,0,1,2.48-2,2.28,2.28,0,0,1,2.05,2.26A2.39,2.39,0,0,1,7-43.65Z" transform="translate(6.23 116.37)"/><path id="Path_35424" data-name="Path 35424" class="cls-6" d="M-4-43.41a2.51,2.51,0,0,1-2.26-2.75,2.53,2.53,0,0,1,2.75-2.26A2.52,2.52,0,0,1-1.2-45.91,2.64,2.64,0,0,1-4-43.41Z" transform="translate(6.23 116.37)"/></g></g><g id="Group_1783" data-name="Group 1783"><g id="Group_1781" data-name="Group 1781"><path id="Path_35425" data-name="Path 35425" class="cls-6" d="M184.61,33.25a.11.11,0,0,1,.1.12.11.11,0,0,1-.12.11.12.12,0,0,1-.1-.12A.12.12,0,0,1,184.61,33.25Z" transform="translate(6.23 116.37)"/><path id="Path_35426" data-name="Path 35426" class="cls-6" d="M195.57,33.06a.3.3,0,0,1-.07.6.31.31,0,0,1-.27-.3A.32.32,0,0,1,195.57,33.06Z" transform="translate(6.23 116.37)"/><path id="Path_35427" data-name="Path 35427" class="cls-6" d="M206.53,32.9a.47.47,0,1,1-.1.93.46.46,0,0,1-.42-.47A.48.48,0,0,1,206.53,32.9Z" transform="translate(6.23 116.37)"/><path id="Path_35428" data-name="Path 35428" class="cls-6" d="M217.48,32.7a.67.67,0,0,1,.6.73.68.68,0,0,1-.73.6.67.67,0,0,1-.6-.66A.71.71,0,0,1,217.48,32.7Z" transform="translate(6.23 116.37)"/><path id="Path_35429" data-name="Path 35429" class="cls-6" d="M228.44,32.54a.83.83,0,1,1-.91.82A.86.86,0,0,1,228.44,32.54Z" transform="translate(6.23 116.37)"/><path id="Path_35430" data-name="Path 35430" class="cls-6" d="M239.39,32.4a1,1,0,1,1-1.06,1A1,1,0,0,1,239.39,32.4Z" transform="translate(6.23 116.37)"/><path id="Path_35431" data-name="Path 35431" class="cls-6" d="M173.66,23.35s.08,0,.07.09a.08.08,0,0,1-.09.08.08.08,0,0,1-.07-.08.09.09,0,0,1,.09-.09Z" transform="translate(6.23 116.37)"/><path id="Path_35432" data-name="Path 35432" class="cls-6" d="M184.61,23.13a.31.31,0,0,1,.27.34.3.3,0,0,1-.34.26.29.29,0,0,1-.26-.3A.33.33,0,0,1,184.61,23.13Z" transform="translate(6.23 116.37)"/><path id="Path_35433" data-name="Path 35433" class="cls-6" d="M195.57,22.94a.5.5,0,1,1-.55.5.53.53,0,0,1,.55-.5Z" transform="translate(6.23 116.37)"/><path id="Path_35434" data-name="Path 35434" class="cls-6" d="M206.53,22.75a.69.69,0,0,1,.62.75.7.7,0,0,1-1.39-.06A.74.74,0,0,1,206.53,22.75Z" transform="translate(6.23 116.37)"/><path id="Path_35435" data-name="Path 35435" class="cls-6" d="M217.48,22.55a.88.88,0,1,1-1,.88A.93.93,0,0,1,217.48,22.55Z" transform="translate(6.23 116.37)"/><path id="Path_35436" data-name="Path 35436" class="cls-6" d="M228.43,22.36a1.08,1.08,0,1,1-1.18,1.08A1.13,1.13,0,0,1,228.43,22.36Z" transform="translate(6.23 116.37)"/><path id="Path_35437" data-name="Path 35437" class="cls-6" d="M239.39,22.23a1.22,1.22,0,1,1-1.33,1.21A1.26,1.26,0,0,1,239.39,22.23Z" transform="translate(6.23 116.37)"/><path id="Path_35438" data-name="Path 35438" class="cls-6" d="M162.7,13.46a.06.06,0,1,1,0,.11.06.06,0,0,1-.05-.06.06.06,0,0,1,.06,0Z" transform="translate(6.23 116.37)"/><path id="Path_35439" data-name="Path 35439" class="cls-6" d="M173.66,13.26a.26.26,0,0,1,.22.27.25.25,0,0,1-.27.23.25.25,0,0,1-.23-.25A.27.27,0,0,1,173.66,13.26Z" transform="translate(6.23 116.37)"/><path id="Path_35440" data-name="Path 35440" class="cls-6" d="M184.61,13a.47.47,0,1,1-.51.47A.49.49,0,0,1,184.61,13Z" transform="translate(6.23 116.37)"/><path id="Path_35441" data-name="Path 35441" class="cls-6" d="M195.57,12.82a.69.69,0,1,1-.76.69A.73.73,0,0,1,195.57,12.82Z" transform="translate(6.23 116.37)"/><path id="Path_35442" data-name="Path 35442" class="cls-6" d="M206.52,12.61a.91.91,0,0,1-.17,1.81.91.91,0,0,1-.83-.91A1,1,0,0,1,206.52,12.61Z" transform="translate(6.23 116.37)"/><path id="Path_35443" data-name="Path 35443" class="cls-6" d="M217.48,12.41a1.11,1.11,0,1,1-1.21,1.1A1.15,1.15,0,0,1,217.48,12.41Z" transform="translate(6.23 116.37)"/><path id="Path_35444" data-name="Path 35444" class="cls-6" d="M228.44,12.22A1.3,1.3,0,1,1,227,13.51,1.36,1.36,0,0,1,228.44,12.22Z" transform="translate(6.23 116.37)"/><path id="Path_35445" data-name="Path 35445" class="cls-6" d="M239.39,12.05a1.47,1.47,0,1,1-1.61,1.46A1.55,1.55,0,0,1,239.39,12.05Z" transform="translate(6.23 116.37)"/><path id="Path_35446" data-name="Path 35446" class="cls-6" d="M162.7,3.42a.17.17,0,0,1,0,.33.17.17,0,0,1,0-.33Z" transform="translate(6.23 116.37)"/><path id="Path_35447" data-name="Path 35447" class="cls-6" d="M173.65,3.17a.42.42,0,0,1,.38.45.42.42,0,0,1-.83,0A.43.43,0,0,1,173.65,3.17Z" transform="translate(6.23 116.37)"/><path id="Path_35448" data-name="Path 35448" class="cls-6" d="M184.61,2.92a.67.67,0,0,1,.6.73.67.67,0,0,1-1.33-.07A.7.7,0,0,1,184.61,2.92Z" transform="translate(6.23 116.37)"/><path id="Path_35449" data-name="Path 35449" class="cls-6" d="M195.57,2.7a.88.88,0,1,1-1,.88A.93.93,0,0,1,195.57,2.7Z" transform="translate(6.23 116.37)"/><path id="Path_35450" data-name="Path 35450" class="cls-6" d="M206.52,2.48a1.1,1.1,0,1,1-1.21,1.1A1.15,1.15,0,0,1,206.52,2.48Z" transform="translate(6.23 116.37)"/><path id="Path_35451" data-name="Path 35451" class="cls-6" d="M217.48,2.26A1.33,1.33,0,1,1,216,3.58,1.4,1.4,0,0,1,217.48,2.26Z" transform="translate(6.23 116.37)"/><path id="Path_35452" data-name="Path 35452" class="cls-6" d="M228.44,2.07a1.52,1.52,0,1,1-1.67,1.51A1.59,1.59,0,0,1,228.44,2.07Z" transform="translate(6.23 116.37)"/><path id="Path_35453" data-name="Path 35453" class="cls-6" d="M239.39,1.88a1.71,1.71,0,1,1-1.88,1.7A1.79,1.79,0,0,1,239.39,1.88Z" transform="translate(6.23 116.37)"/><path id="Path_35454" data-name="Path 35454" class="cls-6" d="M151.74-6.43a.1.1,0,0,1,.08.1.1.1,0,0,1-.09.07.08.08,0,0,1-.08-.08.09.09,0,0,1,.09-.09Z" transform="translate(6.23 116.37)"/><path id="Path_35455" data-name="Path 35455" class="cls-6" d="M162.7-6.68a.34.34,0,0,1,.3.37.33.33,0,0,1-.37.29.31.31,0,0,1-.29-.33A.34.34,0,0,1,162.7-6.68Z" transform="translate(6.23 116.37)"/><path id="Path_35456" data-name="Path 35456" class="cls-6" d="M173.66-6.92a.57.57,0,0,1,.52.63.58.58,0,0,1-.64.52.58.58,0,0,1-.52-.58A.61.61,0,0,1,173.66-6.92Z" transform="translate(6.23 116.37)"/><path id="Path_35457" data-name="Path 35457" class="cls-6" d="M184.61-7.17a.83.83,0,0,1,.75.91.83.83,0,0,1-.91.74.84.84,0,0,1-.75-.83A.88.88,0,0,1,184.61-7.17Z" transform="translate(6.23 116.37)"/><path id="Path_35458" data-name="Path 35458" class="cls-6" d="M195.57-7.42a1.08,1.08,0,0,1,1,1.18,1.08,1.08,0,0,1-1.18,1,1.08,1.08,0,0,1-1-1.07A1.14,1.14,0,0,1,195.57-7.42Z" transform="translate(6.23 116.37)"/><path id="Path_35459" data-name="Path 35459" class="cls-6" d="M206.52-7.64a1.3,1.3,0,0,1,1.17,1.42A1.3,1.3,0,0,1,206.27-5a1.3,1.3,0,0,1-1.17-1.3A1.35,1.35,0,0,1,206.52-7.64Z" transform="translate(6.23 116.37)"/><path id="Path_35460" data-name="Path 35460" class="cls-6" d="M217.48-7.86a1.52,1.52,0,0,1,1.37,1.66,1.53,1.53,0,0,1-1.67,1.37,1.52,1.52,0,0,1-1.37-1.52A1.6,1.6,0,0,1,217.48-7.86Z" transform="translate(6.23 116.37)"/><path id="Path_35461" data-name="Path 35461" class="cls-6" d="M228.44-8.08A1.74,1.74,0,0,1,230-6.17a1.75,1.75,0,0,1-1.9,1.56,1.75,1.75,0,0,1-1.58-1.74A1.84,1.84,0,0,1,228.44-8.08Z" transform="translate(6.23 116.37)"/><path id="Path_35462" data-name="Path 35462" class="cls-6" d="M239.39-8.27a1.92,1.92,0,0,1,1.74,2.11A1.93,1.93,0,0,1,239-4.42a1.93,1.93,0,0,1-1.74-1.93A2,2,0,0,1,239.39-8.27Z" transform="translate(6.23 116.37)"/><path id="Path_35463" data-name="Path 35463" class="cls-6" d="M151.74-16.46a.19.19,0,0,1,.18.21.2.2,0,0,1-.21.17.19.19,0,0,1-.18-.19.21.21,0,0,1,.21-.2Z" transform="translate(6.23 116.37)"/><path id="Path_35464" data-name="Path 35464" class="cls-6" d="M162.7-16.71a.45.45,0,0,1,.4.48.46.46,0,0,1-.49.4.44.44,0,0,1-.4-.44A.47.47,0,0,1,162.7-16.71Z" transform="translate(6.23 116.37)"/><path id="Path_35465" data-name="Path 35465" class="cls-6" d="M173.66-17a.72.72,0,0,1,.64.79.72.72,0,0,1-.79.64.71.71,0,0,1-.64-.71A.75.75,0,0,1,173.66-17Z" transform="translate(6.23 116.37)"/><path id="Path_35466" data-name="Path 35466" class="cls-6" d="M184.61-17.24a1,1,0,0,1,.87,1.06,1,1,0,0,1-1.06.87,1,1,0,0,1-.87-1A1,1,0,0,1,184.61-17.24Z" transform="translate(6.23 116.37)"/><path id="Path_35467" data-name="Path 35467" class="cls-6" d="M195.57-17.48a1.21,1.21,0,0,1,1.09,1.33,1.22,1.22,0,0,1-1.33,1.09,1.22,1.22,0,0,1-1.1-1.21A1.27,1.27,0,0,1,195.57-17.48Z" transform="translate(6.23 116.37)"/><path id="Path_35468" data-name="Path 35468" class="cls-6" d="M206.53-17.73a1.47,1.47,0,0,1,1.31,1.61,1.47,1.47,0,0,1-1.6,1.31,1.46,1.46,0,0,1-1.32-1.46A1.54,1.54,0,0,1,206.53-17.73Z" transform="translate(6.23 116.37)"/><path id="Path_35469" data-name="Path 35469" class="cls-6" d="M217.48-18A1.72,1.72,0,0,1,219-16.1a1.7,1.7,0,0,1-1.88,1.53,1.71,1.71,0,0,1-1.54-1.7A1.8,1.8,0,0,1,217.48-18Z" transform="translate(6.23 116.37)"/><path id="Path_35470" data-name="Path 35470" class="cls-6" d="M228.44-18.2a1.93,1.93,0,0,1,1.73,2.12,1.92,1.92,0,0,1-2.11,1.73,1.94,1.94,0,0,1-1.75-1.92A2,2,0,0,1,228.44-18.2Z" transform="translate(6.23 116.37)"/><path id="Path_35471" data-name="Path 35471" class="cls-6" d="M239.39-18.42a2.16,2.16,0,0,1,1.94,2.36A2.16,2.16,0,0,1,239-14.12,2.17,2.17,0,0,1,237-16.27,2.27,2.27,0,0,1,239.39-18.42Z" transform="translate(6.23 116.37)"/><path id="Path_35472" data-name="Path 35472" class="cls-6" d="M151.74-26.5a.3.3,0,0,1,.27.33.3.3,0,0,1-.33.26.29.29,0,0,1-.27-.29A.31.31,0,0,1,151.74-26.5Z" transform="translate(6.23 116.37)"/><path id="Path_35473" data-name="Path 35473" class="cls-6" d="M162.7-26.75a.56.56,0,0,1,.5.6.56.56,0,0,1-.61.5.56.56,0,0,1-.5-.55A.58.58,0,0,1,162.7-26.75Z" transform="translate(6.23 116.37)"/><path id="Path_35474" data-name="Path 35474" class="cls-6" d="M173.66-27a.83.83,0,0,1,.74.91.83.83,0,0,1-.91.75.83.83,0,0,1-.74-.83A.87.87,0,0,1,173.66-27Z" transform="translate(6.23 116.37)"/><path id="Path_35475" data-name="Path 35475" class="cls-6" d="M184.61-27.3a1.11,1.11,0,0,1,1,1.21,1.11,1.11,0,0,1-1.21,1,1.1,1.1,0,0,1-1-1.1A1.15,1.15,0,0,1,184.61-27.3Z" transform="translate(6.23 116.37)"/><path id="Path_35476" data-name="Path 35476" class="cls-6" d="M195.57-27.55a1.35,1.35,0,0,1,1.21,1.48,1.35,1.35,0,0,1-1.48,1.22,1.36,1.36,0,0,1-1.22-1.35A1.43,1.43,0,0,1,195.57-27.55Z" transform="translate(6.23 116.37)"/><path id="Path_35477" data-name="Path 35477" class="cls-6" d="M206.53-27.83A1.64,1.64,0,0,1,208-26a1.64,1.64,0,0,1-1.79,1.46,1.64,1.64,0,0,1-1.47-1.63A1.72,1.72,0,0,1,206.53-27.83Z" transform="translate(6.23 116.37)"/><path id="Path_35478" data-name="Path 35478" class="cls-6" d="M217.48-28.07A1.88,1.88,0,0,1,219.17-26a1.88,1.88,0,0,1-2.06,1.69,1.89,1.89,0,0,1-1.7-1.87A2,2,0,0,1,217.48-28.07Z" transform="translate(6.23 116.37)"/><path id="Path_35479" data-name="Path 35479" class="cls-6" d="M230.07-27.68a2,2,0,0,1,.2,2.76,1.89,1.89,0,0,1-.2.2,2.49,2.49,0,0,1-3.26,0,2,2,0,0,1-.21-2.76c.07-.07.13-.14.2-.2A2.48,2.48,0,0,1,230.07-27.68Z" transform="translate(6.23 116.37)"/><path id="Path_35480" data-name="Path 35480" class="cls-6" d="M239.39-28.54A2.35,2.35,0,0,1,241.5-26a2.35,2.35,0,0,1-2.57,2.11,2.35,2.35,0,0,1-2.12-2.34A2.47,2.47,0,0,1,239.39-28.54Z" transform="translate(6.23 116.37)"/><path id="Path_35481" data-name="Path 35481" class="cls-6" d="M151.74-36.51a.38.38,0,0,1,.35.42.39.39,0,0,1-.42.35.39.39,0,0,1-.35-.39A.4.4,0,0,1,151.74-36.51Z" transform="translate(6.23 116.37)"/><path id="Path_35482" data-name="Path 35482" class="cls-6" d="M162.7-36.79a.68.68,0,0,1,.6.73.67.67,0,0,1-.73.59.66.66,0,0,1-.6-.66A.7.7,0,0,1,162.7-36.79Z" transform="translate(6.23 116.37)"/><path id="Path_35483" data-name="Path 35483" class="cls-6" d="M173.66-37.06a.94.94,0,0,1,.84,1,.94.94,0,0,1-1,.85,1,1,0,0,1-.85-.94A1,1,0,0,1,173.66-37.06Z" transform="translate(6.23 116.37)"/><path id="Path_35484" data-name="Path 35484" class="cls-6" d="M184.61-37.34A1.21,1.21,0,0,1,185.7-36a1.21,1.21,0,0,1-1.33,1.09,1.21,1.21,0,0,1-1.09-1.21A1.27,1.27,0,0,1,184.61-37.34Z" transform="translate(6.23 116.37)"/><path id="Path_35485" data-name="Path 35485" class="cls-6" d="M195.57-37.61A1.49,1.49,0,0,1,196.91-36a1.5,1.5,0,0,1-1.64,1.34,1.5,1.5,0,0,1-1.34-1.49A1.56,1.56,0,0,1,195.57-37.61Z" transform="translate(6.23 116.37)"/><path id="Path_35486" data-name="Path 35486" class="cls-6" d="M206.53-37.86a1.75,1.75,0,0,1,1.56,1.9,1.76,1.76,0,0,1-1.91,1.57,1.75,1.75,0,0,1-1.57-1.74A1.83,1.83,0,0,1,206.53-37.86Z" transform="translate(6.23 116.37)"/><path id="Path_35487" data-name="Path 35487" class="cls-6" d="M217.48-38.14a2,2,0,0,1,1.81,2.21,2,2,0,0,1-2.21,1.81,2,2,0,0,1-1.82-2A2.13,2.13,0,0,1,217.48-38.14Z" transform="translate(6.23 116.37)"/><path id="Path_35488" data-name="Path 35488" class="cls-6" d="M228.44-38.38a2.27,2.27,0,0,1,2,2.48,2.27,2.27,0,0,1-2.48,2,2.27,2.27,0,0,1-2-2.26A2.37,2.37,0,0,1,228.44-38.38Z" transform="translate(6.23 116.37)"/><path id="Path_35489" data-name="Path 35489" class="cls-6" d="M239.39-38.63a2.51,2.51,0,0,1,2.26,2.75,2.53,2.53,0,0,1-2.75,2.26,2.52,2.52,0,0,1-2.27-2.51A2.64,2.64,0,0,1,239.39-38.63Z" transform="translate(6.23 116.37)"/></g><g id="Group_1782" data-name="Group 1782"><path id="Path_35490" data-name="Path 35490" class="cls-6" d="M65.28,33.25a.11.11,0,0,0-.1.12.11.11,0,0,0,.12.11.12.12,0,0,0,.1-.12A.12.12,0,0,0,65.28,33.25Z" transform="translate(6.23 116.37)"/><path id="Path_35491" data-name="Path 35491" class="cls-6" d="M54.32,33.06a.3.3,0,0,0,.07.6.31.31,0,0,0,.27-.3A.32.32,0,0,0,54.32,33.06Z" transform="translate(6.23 116.37)"/><path id="Path_35492" data-name="Path 35492" class="cls-6" d="M43.37,32.9a.47.47,0,1,0,.51.46A.48.48,0,0,0,43.37,32.9Z" transform="translate(6.23 116.37)"/><path id="Path_35493" data-name="Path 35493" class="cls-6" d="M32.41,32.7A.67.67,0,1,0,32.54,34a.67.67,0,0,0,.6-.66A.71.71,0,0,0,32.41,32.7Z" transform="translate(6.23 116.37)"/><path id="Path_35494" data-name="Path 35494" class="cls-6" d="M21.45,32.54a.83.83,0,1,0,.91.82A.86.86,0,0,0,21.45,32.54Z" transform="translate(6.23 116.37)"/><path id="Path_35495" data-name="Path 35495" class="cls-6" d="M10.5,32.4a1,1,0,1,0,1.06,1A1,1,0,0,0,10.5,32.4Z" transform="translate(6.23 116.37)"/><path id="Path_35496" data-name="Path 35496" class="cls-6" d="M76.24,23.35a.09.09,0,1,0,0,.17.09.09,0,0,0,.08-.08.11.11,0,0,0-.09-.09Z" transform="translate(6.23 116.37)"/><path id="Path_35497" data-name="Path 35497" class="cls-6" d="M65.28,23.13a.31.31,0,0,0-.27.34.3.3,0,0,0,.34.26.29.29,0,0,0,.26-.3A.33.33,0,0,0,65.28,23.13Z" transform="translate(6.23 116.37)"/><path id="Path_35498" data-name="Path 35498" class="cls-6" d="M54.32,22.94a.5.5,0,1,0,.55.5.52.52,0,0,0-.54-.5Z" transform="translate(6.23 116.37)"/><path id="Path_35499" data-name="Path 35499" class="cls-6" d="M43.37,22.75a.69.69,0,0,0,.13,1.38.7.7,0,0,0,.63-.69A.73.73,0,0,0,43.37,22.75Z" transform="translate(6.23 116.37)"/><path id="Path_35500" data-name="Path 35500" class="cls-6" d="M32.41,22.55a.88.88,0,1,0,1,.88A.94.94,0,0,0,32.41,22.55Z" transform="translate(6.23 116.37)"/><path id="Path_35501" data-name="Path 35501" class="cls-6" d="M21.45,22.36a1.08,1.08,0,1,0,1.19,1.08A1.14,1.14,0,0,0,21.45,22.36Z" transform="translate(6.23 116.37)"/><path id="Path_35502" data-name="Path 35502" class="cls-6" d="M10.5,22.23a1.22,1.22,0,0,0,.24,2.42,1.22,1.22,0,0,0,1.1-1.21A1.27,1.27,0,0,0,10.5,22.23Z" transform="translate(6.23 116.37)"/><path id="Path_35503" data-name="Path 35503" class="cls-6" d="M87.19,13.46a.06.06,0,0,0,0,.06.06.06,0,0,0,.11,0,.06.06,0,0,0-.06,0Z" transform="translate(6.23 116.37)"/><path id="Path_35504" data-name="Path 35504" class="cls-6" d="M76.24,13.26a.25.25,0,0,0,0,.5.25.25,0,0,0,.23-.25A.27.27,0,0,0,76.24,13.26Z" transform="translate(6.23 116.37)"/><path id="Path_35505" data-name="Path 35505" class="cls-6" d="M65.28,13a.47.47,0,0,0,.09.94.48.48,0,0,0,.43-.47A.51.51,0,0,0,65.28,13Z" transform="translate(6.23 116.37)"/><path id="Path_35506" data-name="Path 35506" class="cls-6" d="M54.32,12.82a.69.69,0,1,0,.76.69A.73.73,0,0,0,54.32,12.82Z" transform="translate(6.23 116.37)"/><path id="Path_35507" data-name="Path 35507" class="cls-6" d="M43.36,12.61a.9.9,0,0,0-.82,1,.92.92,0,0,0,1,.82.9.9,0,0,0,.82-.91A1,1,0,0,0,43.36,12.61Z" transform="translate(6.23 116.37)"/><path id="Path_35508" data-name="Path 35508" class="cls-6" d="M32.41,12.41a1.11,1.11,0,1,0,1.22,1.1A1.17,1.17,0,0,0,32.41,12.41Z" transform="translate(6.23 116.37)"/><path id="Path_35509" data-name="Path 35509" class="cls-6" d="M21.45,12.22a1.3,1.3,0,1,0,1.43,1.29A1.36,1.36,0,0,0,21.45,12.22Z" transform="translate(6.23 116.37)"/><path id="Path_35510" data-name="Path 35510" class="cls-6" d="M10.5,12.05a1.47,1.47,0,1,0,1.61,1.46A1.55,1.55,0,0,0,10.5,12.05Z" transform="translate(6.23 116.37)"/><path id="Path_35511" data-name="Path 35511" class="cls-6" d="M87.19,3.42a.17.17,0,0,0,0,.33.17.17,0,0,0,0-.33Z" transform="translate(6.23 116.37)"/><path id="Path_35512" data-name="Path 35512" class="cls-6" d="M76.24,3.17a.42.42,0,0,0-.38.45.43.43,0,0,0,.46.38.42.42,0,0,0,.37-.42A.43.43,0,0,0,76.24,3.17Z" transform="translate(6.23 116.37)"/><path id="Path_35513" data-name="Path 35513" class="cls-6" d="M65.28,2.92a.67.67,0,0,0-.6.73A.67.67,0,0,0,66,3.58.7.7,0,0,0,65.28,2.92Z" transform="translate(6.23 116.37)"/><path id="Path_35514" data-name="Path 35514" class="cls-6" d="M54.32,2.7a.88.88,0,1,0,.18,1.76.87.87,0,0,0,.79-.88A.93.93,0,0,0,54.32,2.7Z" transform="translate(6.23 116.37)"/><path id="Path_35515" data-name="Path 35515" class="cls-6" d="M43.36,2.48a1.11,1.11,0,1,0,1.22,1.1A1.16,1.16,0,0,0,43.36,2.48Z" transform="translate(6.23 116.37)"/><path id="Path_35516" data-name="Path 35516" class="cls-6" d="M32.41,2.26a1.33,1.33,0,1,0,1.46,1.32A1.4,1.4,0,0,0,32.41,2.26Z" transform="translate(6.23 116.37)"/><path id="Path_35517" data-name="Path 35517" class="cls-6" d="M21.45,2.07a1.52,1.52,0,1,0,1.67,1.51A1.59,1.59,0,0,0,21.45,2.07Z" transform="translate(6.23 116.37)"/><path id="Path_35518" data-name="Path 35518" class="cls-6" d="M10.5,1.88a1.71,1.71,0,1,0,1.88,1.7A1.79,1.79,0,0,0,10.5,1.88Z" transform="translate(6.23 116.37)"/><path id="Path_35519" data-name="Path 35519" class="cls-6" d="M98.15-6.43a.1.1,0,0,0-.08.1.1.1,0,0,0,.09.07.08.08,0,0,0,.08-.08.09.09,0,0,0-.09-.09Z" transform="translate(6.23 116.37)"/><path id="Path_35520" data-name="Path 35520" class="cls-6" d="M87.19-6.68a.34.34,0,0,0-.3.37.34.34,0,0,0,.37.29.33.33,0,0,0,.3-.33A.35.35,0,0,0,87.19-6.68Z" transform="translate(6.23 116.37)"/><path id="Path_35521" data-name="Path 35521" class="cls-6" d="M76.23-6.92a.58.58,0,0,0-.52.63.59.59,0,0,0,.64.52.58.58,0,0,0,.52-.58A.6.6,0,0,0,76.23-6.92Z" transform="translate(6.23 116.37)"/><path id="Path_35522" data-name="Path 35522" class="cls-6" d="M65.28-7.17a.83.83,0,0,0-.75.91.84.84,0,0,0,.91.74.83.83,0,0,0,.75-.83A.86.86,0,0,0,65.28-7.17Z" transform="translate(6.23 116.37)"/><path id="Path_35523" data-name="Path 35523" class="cls-6" d="M54.32-7.42a1.08,1.08,0,0,0-1,1.18,1.07,1.07,0,0,0,1.18,1,1.08,1.08,0,0,0,1-1.07A1.13,1.13,0,0,0,54.32-7.42Z" transform="translate(6.23 116.37)"/><path id="Path_35524" data-name="Path 35524" class="cls-6" d="M43.37-7.64A1.3,1.3,0,0,0,42.2-6.22,1.3,1.3,0,0,0,43.62-5a1.3,1.3,0,0,0,1.17-1.3A1.35,1.35,0,0,0,43.37-7.64Z" transform="translate(6.23 116.37)"/><path id="Path_35525" data-name="Path 35525" class="cls-6" d="M32.41-7.86A1.52,1.52,0,0,0,31-6.2a1.53,1.53,0,0,0,1.67,1.37,1.52,1.52,0,0,0,1.37-1.52A1.6,1.6,0,0,0,32.41-7.86Z" transform="translate(6.23 116.37)"/><path id="Path_35526" data-name="Path 35526" class="cls-6" d="M21.45-8.08a1.75,1.75,0,0,0-1.56,1.91A1.75,1.75,0,0,0,21.8-4.61a1.75,1.75,0,0,0,1.57-1.74A1.83,1.83,0,0,0,21.45-8.08Z" transform="translate(6.23 116.37)"/><path id="Path_35527" data-name="Path 35527" class="cls-6" d="M10.5-8.27A1.93,1.93,0,0,0,8.76-6.16a1.94,1.94,0,0,0,2.12,1.74,1.93,1.93,0,0,0,1.74-1.93A2,2,0,0,0,10.5-8.27Z" transform="translate(6.23 116.37)"/><path id="Path_35528" data-name="Path 35528" class="cls-6" d="M98.15-16.46a.19.19,0,0,0-.18.21.21.21,0,0,0,.22.17.19.19,0,0,0,.17-.19.2.2,0,0,0-.2-.2Z" transform="translate(6.23 116.37)"/><path id="Path_35529" data-name="Path 35529" class="cls-6" d="M87.19-16.71a.45.45,0,0,0-.4.48.46.46,0,0,0,.49.4.45.45,0,0,0,.4-.44A.46.46,0,0,0,87.19-16.71Z" transform="translate(6.23 116.37)"/><path id="Path_35530" data-name="Path 35530" class="cls-6" d="M76.24-17a.72.72,0,0,0-.65.79.72.72,0,0,0,.79.64.71.71,0,0,0,.65-.71A.76.76,0,0,0,76.24-17Z" transform="translate(6.23 116.37)"/><path id="Path_35531" data-name="Path 35531" class="cls-6" d="M65.28-17.24a1,1,0,0,0-.87,1.06,1,1,0,0,0,1.06.87,1,1,0,0,0,.87-1A1,1,0,0,0,65.28-17.24Z" transform="translate(6.23 116.37)"/><path id="Path_35532" data-name="Path 35532" class="cls-6" d="M54.32-17.48a1.21,1.21,0,0,0-1.09,1.33,1.22,1.22,0,0,0,1.33,1.09,1.22,1.22,0,0,0,1.1-1.21A1.27,1.27,0,0,0,54.32-17.48Z" transform="translate(6.23 116.37)"/><path id="Path_35533" data-name="Path 35533" class="cls-6" d="M43.37-17.73a1.47,1.47,0,0,0-1.32,1.61,1.47,1.47,0,0,0,1.6,1.31A1.47,1.47,0,0,0,45-16.27,1.55,1.55,0,0,0,43.37-17.73Z" transform="translate(6.23 116.37)"/><path id="Path_35534" data-name="Path 35534" class="cls-6" d="M32.41-18a1.72,1.72,0,0,0-1.54,1.88,1.72,1.72,0,0,0,1.88,1.53,1.7,1.7,0,0,0,1.54-1.7A1.8,1.8,0,0,0,32.41-18Z" transform="translate(6.23 116.37)"/><path id="Path_35535" data-name="Path 35535" class="cls-6" d="M21.45-18.2a1.93,1.93,0,0,0-1.73,2.12,1.93,1.93,0,0,0,2.12,1.73,1.93,1.93,0,0,0,1.74-1.92A2,2,0,0,0,21.45-18.2Z" transform="translate(6.23 116.37)"/><path id="Path_35536" data-name="Path 35536" class="cls-6" d="M10.5-18.42a2.16,2.16,0,0,0-1.94,2.36,2.17,2.17,0,0,0,2.36,1.94,2.16,2.16,0,0,0,1.95-2.15A2.27,2.27,0,0,0,10.5-18.42Z" transform="translate(6.23 116.37)"/><path id="Path_35537" data-name="Path 35537" class="cls-6" d="M98.15-26.5a.3.3,0,0,0-.27.33.3.3,0,0,0,.34.26.28.28,0,0,0,.26-.29A.31.31,0,0,0,98.15-26.5Z" transform="translate(6.23 116.37)"/><path id="Path_35538" data-name="Path 35538" class="cls-6" d="M87.19-26.75a.55.55,0,0,0-.49.6.55.55,0,0,0,.6.5.56.56,0,0,0,.5-.55A.58.58,0,0,0,87.19-26.75Z" transform="translate(6.23 116.37)"/><path id="Path_35539" data-name="Path 35539" class="cls-6" d="M76.24-27a.84.84,0,0,0-.75.91.84.84,0,0,0,.91.75.84.84,0,0,0,.75-.83A.88.88,0,0,0,76.24-27Z" transform="translate(6.23 116.37)"/><path id="Path_35540" data-name="Path 35540" class="cls-6" d="M65.28-27.3a1.1,1.1,0,0,0-1,1.21,1.09,1.09,0,0,0,1.2,1,1.1,1.1,0,0,0,1-1.1A1.15,1.15,0,0,0,65.28-27.3Z" transform="translate(6.23 116.37)"/><path id="Path_35541" data-name="Path 35541" class="cls-6" d="M54.32-27.55a1.35,1.35,0,0,0-1.21,1.48,1.36,1.36,0,0,0,1.48,1.22,1.36,1.36,0,0,0,1.22-1.35A1.42,1.42,0,0,0,54.32-27.55Z" transform="translate(6.23 116.37)"/><path id="Path_35542" data-name="Path 35542" class="cls-6" d="M43.37-27.83A1.64,1.64,0,0,0,41.9-26a1.64,1.64,0,0,0,1.79,1.46,1.64,1.64,0,0,0,1.47-1.63A1.72,1.72,0,0,0,43.37-27.83Z" transform="translate(6.23 116.37)"/><path id="Path_35543" data-name="Path 35543" class="cls-6" d="M32.41-28.07A1.88,1.88,0,0,0,30.72-26a1.89,1.89,0,0,0,2.06,1.69,1.88,1.88,0,0,0,1.7-1.87A2,2,0,0,0,32.41-28.07Z" transform="translate(6.23 116.37)"/><path id="Path_35544" data-name="Path 35544" class="cls-6" d="M23.09-24.72a2.49,2.49,0,0,1-3.27,0,2,2,0,0,1-.19-2.76,1.8,1.8,0,0,1,.19-.2,2.49,2.49,0,0,1,3.27,0,2,2,0,0,1,.2,2.76A1.89,1.89,0,0,1,23.09-24.72Z" transform="translate(6.23 116.37)"/><path id="Path_35545" data-name="Path 35545" class="cls-6" d="M10.5-28.54A2.35,2.35,0,0,0,8.39-26,2.35,2.35,0,0,0,11-23.86a2.35,2.35,0,0,0,2.12-2.34A2.46,2.46,0,0,0,10.5-28.54Z" transform="translate(6.23 116.37)"/><path id="Path_35546" data-name="Path 35546" class="cls-6" d="M98.15-36.51a.39.39,0,0,0-.35.42.39.39,0,0,0,.42.35.39.39,0,0,0,.35-.39A.4.4,0,0,0,98.15-36.51Z" transform="translate(6.23 116.37)"/><path id="Path_35547" data-name="Path 35547" class="cls-6" d="M87.19-36.79a.66.66,0,0,0-.59.73.65.65,0,0,0,.72.59.66.66,0,0,0,.6-.66A.69.69,0,0,0,87.19-36.79Z" transform="translate(6.23 116.37)"/><path id="Path_35548" data-name="Path 35548" class="cls-6" d="M76.24-37.06a.94.94,0,0,0-.85,1,1,1,0,0,0,1,.85,1,1,0,0,0,.85-.94A1,1,0,0,0,76.24-37.06Z" transform="translate(6.23 116.37)"/><path id="Path_35549" data-name="Path 35549" class="cls-6" d="M65.28-37.34A1.21,1.21,0,0,0,64.19-36a1.21,1.21,0,0,0,1.33,1.09,1.22,1.22,0,0,0,1.1-1.21A1.29,1.29,0,0,0,65.28-37.34Z" transform="translate(6.23 116.37)"/><path id="Path_35550" data-name="Path 35550" class="cls-6" d="M54.32-37.61A1.49,1.49,0,0,0,53-36a1.5,1.5,0,0,0,1.64,1.34A1.5,1.5,0,0,0,56-36.13,1.56,1.56,0,0,0,54.32-37.61Z" transform="translate(6.23 116.37)"/><path id="Path_35551" data-name="Path 35551" class="cls-6" d="M43.37-37.86A1.75,1.75,0,0,0,41.8-36a1.76,1.76,0,0,0,1.91,1.57,1.75,1.75,0,0,0,1.57-1.74A1.83,1.83,0,0,0,43.37-37.86Z" transform="translate(6.23 116.37)"/><path id="Path_35552" data-name="Path 35552" class="cls-6" d="M32.41-38.14a2,2,0,0,0-1.81,2.21,2,2,0,0,0,2.21,1.81,2,2,0,0,0,1.82-2A2.13,2.13,0,0,0,32.41-38.14Z" transform="translate(6.23 116.37)"/><path id="Path_35553" data-name="Path 35553" class="cls-6" d="M21.45-38.38a2.25,2.25,0,0,0-2,2.47,2.26,2.26,0,0,0,2.47,2,2.27,2.27,0,0,0,2.05-2.26A2.38,2.38,0,0,0,21.45-38.38Z" transform="translate(6.23 116.37)"/><path id="Path_35554" data-name="Path 35554" class="cls-6" d="M10.5-38.63a2.51,2.51,0,0,0-2.26,2.75A2.53,2.53,0,0,0,11-33.62a2.52,2.52,0,0,0,2.27-2.51A2.64,2.64,0,0,0,10.5-38.63Z" transform="translate(6.23 116.37)"/></g></g></g></g></svg>