<?xml version="1.0" encoding="utf-8"?>
<!-- Generator: Adobe Illustrator 24.0.0, SVG Export Plug-In . SVG Version: 6.00 Build 0)  -->
<svg version="1.1" id="Layer_1" xmlns="http://www.w3.org/2000/svg" xmlns:xlink="http://www.w3.org/1999/xlink" x="0px" y="0px"
	 viewBox="0 0 166.7 189" style="enable-background:new 0 0 166.7 189;" xml:space="preserve">
<style type="text/css">
	.st0{fill:#005A8F;}
	.st1{fill:#FFFFFF;}
	.st2{fill:#0E78BE;}
	.st3{fill:#044A75;}
	.st4{fill:#8ACBF0;}
	.st5{fill:none;}
	.st6{fill:#2AAAE1;}
</style>
<g>
	<g>
		<path class="st0" d="M40.8,55.4c-3.1-1.9-6-2.7-8.9-4.6c-1.8-1.2-4.3-4.1-6.4-6.6c-0.4,4-1.6,5.7-3.1,6.8c-3,2.3-4.9,3.1-7.4,4.4
			C12.8,56.5,1,63.5,1,78.6s12.7,26.2,26.8,26.2c14.1,0,26.3-10.3,26.3-25.7C54.1,63.6,42.7,56.5,40.8,55.4z"/>
		<path class="st1" d="M36,91.7c0.9,0,1.9,0.1,2.6,0.5c0.7,0.5,1.1,1.5,1.3,2.1c0.2,0.6,0,0.9-0.5,1.2c-0.4,0.2-0.5,0.1-0.9-0.7
			c-0.4-0.8-0.8-1.5-2.8-1.5s-2.7,0.7-3.7,1.5c-1,0.8-1.3,1.1-1.7,0.7s-0.2-1,0.4-1.5c0.7-0.6,1.7-1.5,2.7-1.9
			C34.6,91.6,35.1,91.7,36,91.7L36,91.7z"/>
		<path class="st1" d="M26.3,98.4c1.2,1,2.9,1.7,6.7,1.7c3.7,0,6.4-1.1,7.6-1.9c0.5-0.4,0.8-0.1,0.8,0.2c0.1,0.2,0.2,0.6-0.2,1
			c-0.3,0.3-3,2.2-6.1,2.5s-7.4,0.5-10-1.9c-0.4-0.4-0.3-1,0-1.2c0.3-0.2,0.5-0.4,0.9-0.4S26.2,98.2,26.3,98.4L26.3,98.4z"/>
		<path class="st2" d="M12,93.9c4.4-0.1,5.3-0.8,9.2-2.6c21.2-9.5,25.1-18.1,25.9-20.1c0.8-2,1.9-5.2,0.7-8.8
			c-0.2-0.7-0.4-1.2-0.5-1.7c-2.8-3.2-5.6-4.9-6.4-5.4c-3.1-1.9-6-2.7-8.9-4.6c-1.8-1.2-4.3-4.1-6.4-6.7c-0.4,4-1.6,5.7-3.1,6.8
			c-3,2.3-4.9,3.1-7.4,4.4C12.8,56.5,1,63.5,1,78.6c0,4.8,1.3,9.2,3.5,13l0.6,0C6.3,92.7,8.3,94,12,93.9z"/>
		<path class="st3" d="M40.8,55.4c-3.1-1.9-6-2.7-8.9-4.6c-1.8-1.2-4.3-4.1-6.4-6.7c-0.4,4-1.6,5.7-3.1,6.8c-3,2.3-4.9,3.1-7.4,4.4
			C12.8,56.5,1,63.5,1,78.5c0,4.8,1.3,9.2,3.5,13c4.7,8,13.7,13.2,23.3,13.2c14.1,0,26.3-10.3,26.3-25.7c0-8.5-3.4-14.5-6.9-18.3
			C44.4,57.6,41.6,55.9,40.8,55.4z M47.9,62.2c3.8,4.8,5.8,10.5,5.8,16.9c0,3.7-0.7,7.2-2.1,10.4c-1.3,3-3.2,5.7-5.7,8
			c-4.8,4.5-11.2,6.9-18.1,6.9c-3.4,0-6.8-0.7-10-1.9c-3.2-1.3-6-3.1-8.4-5.4c-5.1-4.9-8-11.4-8-18.4c0-6.3,2-11.8,6-16.6
			c3.1-3.6,6.4-5.6,7.7-6.3c0.6-0.3,1.2-0.6,1.8-0.9c1.8-0.9,3.4-1.8,5.7-3.5c1.2-0.9,2.5-2.4,3.1-6.1c1.9,2.3,4.2,4.9,5.9,6
			c1.5,1,3.1,1.7,4.6,2.4c1.4,0.7,2.9,1.3,4.4,2.2l0.1,0C44.9,58.4,47.1,61.3,47.9,62.2z"/>
		<path class="st4" d="M25.7,45.2c0.8,2.4,0.7,3.6,0.7,4.1s-0.3,1.9-1.2,2.6c-0.4,0.3-0.5,0.5-0.5,0.6c0,0.2,0.5,0.4,0.5,0.9
			c0,0.7-0.3,1.9-3.4,5c-3.1,3.1-7.6,5.8-11,7.6s-5.1,1.6-5.6,0.8c-0.5-0.8,0.2-2.6,2.3-5s9-5.8,9-5.8l8.5-6l0.5-2.3"/>
		<path class="st1" d="M25.7,45.2c-0.5,3.9-1.7,5-3.3,6.3c-2.6,2-5.2,3.2-5.8,3.5c-1.5,0.8-7,3.8-9.9,8.2c-0.9,1.3,0,1.9,0.2,2
			c0.2,0.1,2.2,0.4,6.4-2.2c4.3-2.6,6.1-4.1,8.5-6.6c1.3-1.3,1.5-2.1,1.5-2.5c0-0.4-0.3-0.6-0.8-0.7c-0.2-0.1-0.3-0.2,0-0.4
			c0.3-0.2,1.5-0.8,1.8-1c0.3-0.2,1.7-1.2,1.7-2.7C26.2,47.6,26.1,46.5,25.7,45.2L25.7,45.2z"/>
		<path class="st1" d="M12.5,87.7c0.1-4.6,4.3-8.8,9.7-8.9c6.8-0.1,11.6,6.8,15,6.7c2.9-0.1,8.5-5.8,11.3-5.8c2.9,0,3.7,3.1,3.7,4.9
			s-0.6,5.1-2,7.1s-2.3,2.8-3.9,2.7c-2.1-0.2-6.3-6.7-9-6.8c-3.4-0.1-10.8,7.1-16.6,7.1c-3.5,0-4.6-0.5-5.7-1.3
			C13.4,92.1,12.5,90.3,12.5,87.7L12.5,87.7z"/>
		<path class="st5" d="M47.8,62.4c1.2,3.6,0.1,6.8-0.7,8.8c-0.8,2-4.7,10.6-25.9,20.1c-3.9,1.7-4.7,2.5-9.2,2.6
			c-3.7,0.1-5.7-1.2-6.9-2.3l-0.6,0c4.7,8,13.7,13.2,23.3,13.2c14.1,0,26.3-10.3,26.3-25.7c0-8.5-3.4-14.5-6.9-18.3
			C47.4,61.2,47.5,61.8,47.8,62.4z"/>
	</g>
	<g>
		<path class="st6" d="M112.3,70.9H108v8c0,2.3-1,4.2-3.3,4.2s-3.3-1.9-3.3-4.2v-7.9h-4.2v8c0,4.6,3,8.3,7.6,8.3s7.6-3.7,7.6-8.3
			L112.3,70.9z"/>
		<rect x="150.6" y="66" class="st6" width="4.2" height="20.7"/>
		<g>
			<path class="st6" d="M158,66.8v-0.7h3.3v0.8h-1.2v3.3h-0.9v-3.3H158z"/>
			<path class="st6" d="M163,66.1l0.9,2.8h0l0.9-2.8h1.2v4h-0.8v-2.9h0l-1,2.9h-0.7l-1-2.8h0v2.8h-0.8v-4H163z"/>
		</g>
		<path class="st6" d="M93.7,70.7c-3.7-0.8-5.9,2.8-6.1,3c0,0.1,0,0.1-0.2,0.1c-0.1,0-0.1-0.1-0.1-0.1l-0.4-2.8H83v15.8h4.2v-8.6
			c0-0.7,1.9-4.1,5.5-3.2c1.8,0.4,2.6,1.2,2.6,1.2s0-3.1,0-4.8C94.7,71,94.3,70.9,93.7,70.7z"/>
		<path class="st6" d="M118,92v-5.7l0,0v-2.1c0,0,0-0.2,0.2-0.2c0.1,0,0.2,0.1,0.2,0.2c0.3,0.8,2.1,3.9,6,2.9c3.5-1,6.1-4.2,6.1-8.1
			c0-4.6-3.8-8.4-8.4-8.4s-8.4,3.8-8.4,8.4c0,0,0,11.5,0,13H118L118,92z M122.1,74.7c2.3,0,4.2,1.9,4.2,4.2c0,2.3-1.9,4.2-4.2,4.2
			c-2.3,0-4.2-1.9-4.2-4.2C117.9,76.6,119.8,74.7,122.1,74.7z"/>
		<path class="st6" d="M144.6,86.8h4.3V79c0-4.6-3.8-8.4-8.4-8.4s-8.4,3.8-8.4,8.4c0,3.8,2.6,7.1,6.1,8.1c3.9,1,5.7-2.1,6-2.9
			c0-0.1,0.1-0.2,0.2-0.2c0.2,0,0.2,0.2,0.2,0.2 M144.8,79c0,2.3-1.9,4.2-4.2,4.2s-4.2-1.9-4.2-4.2c0-2.3,1.9-4.2,4.2-4.2
			C142.9,74.7,144.8,76.6,144.8,79z"/>
		<g>
			<path class="st6" d="M69.7,86.7h-4.8V66H70c6.3,0,11,1.2,11,10.3C81.1,85.5,76,86.7,69.7,86.7z M70.8,69.6h-1.7v13.5l1.8,0
				c3.6,0,5.9-0.3,5.9-6.8C76.8,70.2,74.8,69.6,70.8,69.6z"/>
		</g>
	</g>
</g>
</svg>
