<?xml version="1.0" encoding="utf-8"?>
<!-- Generator: Adobe Illustrator 24.0.0, SVG Export Plug-In . SVG Version: 6.00 Build 0)  -->
<svg version="1.1" id="Layer_1" xmlns="http://www.w3.org/2000/svg" xmlns:xlink="http://www.w3.org/1999/xlink" x="0px" y="0px"
	 viewBox="0 0 50 50" style="enable-background:new 0 0 50 50;" xml:space="preserve">
<style type="text/css">
	.st0{fill:#419243;}
	.st1{fill:#AAA98A;}
	.st2{fill:#C3C1A9;}
	.st3{fill:#B0AE91;}
	.st4{fill:#B4B397;}
	.st5{fill:#BDBCA2;}
	.st6{fill:#CAC8B2;}
	.st7{fill:#B9B79C;}
	.st8{fill:#D1CFBB;}
	.st9{fill:#D8D7C4;}
	.st10{fill:#E3E2D3;}
	.st11{fill:#61B251;}
	.st12{fill:#484749;}
	.st13{fill:#4FA84B;}
	.st14{fill:#A3A483;}
	.st15{fill:#749E63;}
	.st16{fill:#C1BFBE;}
</style>
<image style="overflow:visible;" width="1756" height="476" xlink:href="FC6977F.jpg"  transform="matrix(0.9999 0 0 0.9999 -8167 -8167)">
</image>
<g>
	<g>
		<path class="st0" d="M7.2,28.3c0,0,0-0.1,0-0.1C7.1,27.8,7,27.4,6.9,27c-0.1-0.4-0.3-0.7-0.5-1.1c-0.3-0.6-0.7-1.1-1.1-1.5
			C5.1,24.3,5,24.2,4.9,24c-0.1-0.2-0.2-0.3-0.3-0.5c0,0,0,0.1,0,0.1c0,0.2,0,0.3,0,0.5c0,0.1,0,0.2,0,0.3c0,0.1,0,0.3,0,0.4
			c0,0,0,0.1,0,0.1c0,0.4,0,0.8,0,1.1c0,0.1,0,0.1,0,0.2c0,0,0,0,0,0c0,0,0,0,0,0c0,0,0,0.1,0,0.1c0,0.3,0,0.6,0,0.8
			c0,0,0,0.1,0,0.1c0,0,0,0,0,0c0,0,0,0,0,0.1c0,0.4,0,0.7,0,1.1c0,0,0,0.1,0,0.1c0,0,0,0,0,0c0,0,0,0,0,0.1c0,0.2,0,0.4,0,0.7
			c0,0.1,0,0.2,0,0.3c0,0.1,0,0.2,0,0.3c0,0,0,0,0,0c0,0,0,0,0,0c-0.1,0.1,0,0.1,0,0.2c0,0.3,0,0.5,0,0.8c0,0.1,0,0.2,0,0.3
			c0,0,0,0,0,0c0,0,0,0,0,0c0,0.1,0,0.1,0,0.2c0,0.1,0,0.2,0,0.3c0,0,0,0.1,0,0.1c0,0.1,0,0.3,0,0.4c0,0,0,0,0,0
			c-0.1,0.1,0,0.2,0,0.3c0,0.1,0,0.2,0,0.3c0,0.1,0,0.3,0.1,0.4c0,0.1,0,0.2,0.1,0.2c0,0.1,0,0.1,0.1,0.2c0,0,0,0.1,0.1,0.1
			c0,0,0,0.1,0.1,0.1c0,0,0,0,0,0.1c0,0,0.1,0.1,0.1,0c0.2-0.2,0.4-0.3,0.6-0.5C5.7,33.3,5.9,33.2,6,33c0.3-0.3,0.5-0.7,0.7-1.1
			c0.2-0.4,0.4-0.8,0.5-1.3c0.1-0.4,0.1-0.8,0.2-1.1C7.3,29.1,7.3,28.7,7.2,28.3z"/>
		<path class="st1" d="M4.7,33.3c0,0.1,0,0.2,0.1,0.2c-0.1,0.2-0.1,0.4-0.2,0.6c0,0,0,0.1-0.1,0.1c0-0.1,0-0.1-0.1-0.2
			c0.1-0.1,0.1-0.2,0.1-0.4c0-0.1,0-0.1,0-0.2c0-0.1,0.1-0.1,0.1-0.2C4.6,33.3,4.6,33.2,4.7,33.3z"/>
		<path class="st2" d="M4.9,33.9c0,0,0.1,0,0.1,0.1c-0.1,0.1-0.1,0.2-0.2,0.4c-0.1,0.2-0.1,0.5-0.2,0.7c0,0,0,0.1-0.1,0.1
			c0-0.1,0-0.2,0-0.3C4.6,34.6,4.8,34.3,4.9,33.9C4.9,33.9,4.9,33.9,4.9,33.9z"/>
		<path class="st3" d="M4.5,34.3c0.1-0.2,0.1-0.4,0.2-0.6c0,0,0-0.1,0.1-0.1c0,0.1,0,0.1,0.1,0.2c-0.1,0.2-0.2,0.5-0.2,0.7
			c0,0,0,0.1-0.1,0.1C4.5,34.4,4.4,34.3,4.5,34.3z"/>
		<path class="st4" d="M4.5,34.4c0.1,0,0.1-0.1,0.1-0.2c0.1-0.2,0.1-0.4,0.2-0.6c0,0,0,0.1,0.1,0.1c-0.1,0.3-0.2,0.5-0.2,0.7
			c0,0,0,0.1-0.1,0.1C4.5,34.5,4.5,34.5,4.5,34.4z"/>
		<path class="st5" d="M4.9,33.9c-0.1,0.2-0.1,0.4-0.2,0.6c-0.1,0.1-0.1,0.3-0.1,0.4c0,0,0-0.1,0-0.1c0.1-0.3,0.2-0.6,0.3-0.8
			C4.8,33.9,4.8,33.8,4.9,33.9C4.9,33.8,4.9,33.9,4.9,33.9z"/>
		<path class="st6" d="M4.6,35.1c0.1-0.2,0.2-0.5,0.2-0.7c0-0.1,0-0.1,0.1-0.2c0,0.1,0,0.2,0,0.3C4.8,34.8,4.7,35,4.6,35.1
			c0.1,0.1,0.1,0.2,0,0.2C4.6,35.3,4.6,35.2,4.6,35.1z"/>
		<path class="st7" d="M4.9,33.8c-0.1,0.1-0.1,0.2-0.1,0.3c-0.1,0.2-0.1,0.4-0.2,0.5c0,0,0,0.1-0.1,0.1c0-0.1,0-0.1,0-0.2
			c0.1-0.2,0.2-0.5,0.3-0.7C4.8,33.8,4.8,33.8,4.9,33.8C4.9,33.8,4.9,33.8,4.9,33.8z"/>
		<path class="st8" d="M4.6,35.4c0.1-0.1,0.1-0.3,0.2-0.5c0-0.1,0.1-0.2,0.1-0.3c0,0.1,0,0.1,0,0.2c0,0.2-0.1,0.3-0.1,0.5
			C4.7,35.4,4.7,35.4,4.6,35.4C4.6,35.4,4.5,35.4,4.6,35.4z"/>
		<path class="st9" d="M4.6,35.4c0.1-0.2,0.1-0.4,0.2-0.6c0,0.1,0,0.2,0,0.3c0,0.1,0,0.2-0.1,0.3C4.7,35.5,4.7,35.5,4.6,35.4
			C4.6,35.5,4.6,35.4,4.6,35.4z"/>
		<path class="st10" d="M4.6,35.5c0.1,0,0.1,0,0.1-0.1c0-0.1,0.1-0.2,0.1-0.3c0,0.1,0,0.1,0,0.2c0,0.1,0,0.2,0,0.2
			C4.8,35.5,4.7,35.5,4.6,35.5z"/>
		<path class="st11" d="M4.7,29.8C4.7,29.8,4.7,29.8,4.7,29.8C4.7,29.8,4.7,29.8,4.7,29.8c0-0.2,0-0.3,0-0.4c0-0.2,0-0.5,0-0.7
			c0,0,0,0,0-0.1c0-0.4,0-0.9,0-1.3c0-0.4,0-0.7,0-1.1c0,0,0,0,0,0c0-0.4,0-0.9,0-1.3c0,0,0-0.1,0-0.1c0-0.1,0-0.3,0-0.4
			c0-0.1,0-0.2,0-0.3c0-0.2,0-0.4,0-0.6c0,0,0-0.1,0-0.1c0,0,0,0.1,0,0.1c0,0.2-0.1,0.3-0.2,0.4c-0.1,0.1-0.3,0.2-0.4,0.3
			c-0.1,0.1-0.2,0.2-0.3,0.3c-0.1,0.1-0.2,0.2-0.3,0.3c-0.1,0.1-0.2,0.2-0.2,0.3c-0.1,0.1-0.2,0.2-0.2,0.4c-0.1,0.1-0.2,0.2-0.2,0.4
			c-0.1,0.1-0.1,0.2-0.2,0.3c-0.1,0.1-0.1,0.2-0.1,0.4c-0.1,0.1-0.1,0.3-0.1,0.4c-0.1,0.2-0.1,0.4-0.2,0.6C2,27.9,2,28.1,2,28.3
			c0,0.1,0,0.2,0,0.3c0,0.1,0,0.1-0.1,0.2c0,0.1,0,0.1,0,0.2c0,0,0,0.1,0,0.1c0,0.2,0,0.4,0,0.6c0.1,0,0,0,0,0.1c0,0.1,0,0.2,0,0.3
			C2,30.8,2.3,31.4,2.6,32c0.1,0.2,0.2,0.4,0.4,0.6c0,0.1,0.1,0.1,0.1,0.2c0.1,0.1,0.2,0.3,0.3,0.4c0.1,0.1,0.1,0.2,0.2,0.2
			c0.1,0.2,0.3,0.3,0.4,0.4c0.1,0.1,0.2,0.2,0.3,0.3c0.1-0.1,0.1-0.2,0.1-0.4c0,0,0,0,0,0c0,0,0-0.1,0-0.1c0.1-0.1,0.1-0.3,0.1-0.4
			c0,0,0,0,0,0c0.1-0.1,0-0.2,0-0.2c0-0.1,0-0.2,0-0.3c0,0,0,0,0,0c0,0,0,0,0,0c0-0.1,0-0.2,0-0.3c0-0.1,0-0.3,0-0.4
			c0,0,0-0.1,0-0.1c0-0.1,0-0.2,0-0.3c0-0.1,0-0.1,0-0.2c0-0.1,0-0.2,0-0.3c0,0,0-0.1,0-0.1c0,0,0,0,0,0c0,0,0-0.1,0-0.1
			C4.7,30.4,4.7,30.1,4.7,29.8z"/>
		<g>
			<path class="st12" d="M15.6,33.4c0,0-0.1,0-0.1,0c-0.2-0.1-0.3-0.1-0.3-0.4c0-0.5,0-1.1,0-1.6c0-0.3-0.1-0.5-0.2-0.8
				c-0.2-0.4-0.7-0.6-1.2-0.5c-0.3,0.1-0.5,0.2-0.8,0.4c-0.3,0.2-0.3,0.2-0.5-0.1c0,0,0,0,0,0c-0.2-0.3-0.6-0.4-1-0.3
				c-0.3,0.1-0.6,0.3-0.9,0.5c0,0-0.1,0.1-0.1,0c-0.1,0-0.1-0.1-0.1-0.1c0-0.1,0-0.2,0-0.3c0-0.1,0-0.1-0.1-0.1
				c-0.3,0.1-0.5,0.2-0.8,0.2c-0.1,0-0.2,0-0.3,0.1c-0.1,0-0.1,0-0.1,0.1c0,0.1,0.1,0.1,0.1,0.1c0.1,0,0.1,0,0.2,0.1
				c0.3,0.1,0.4,0.2,0.4,0.5c0,0.6,0,1.3,0,1.9c0,0.2-0.1,0.3-0.3,0.4c-0.1,0-0.1,0-0.2,0c-0.1,0-0.1,0.1-0.1,0.1
				c0,0.1,0,0.1,0.1,0.1c0.2,0,0.3,0,0.5,0c0.4,0,0.7,0,1.1,0c0.1,0,0.1-0.1,0.1-0.2c0-0.1,0-0.1-0.1-0.1c-0.1,0-0.1,0-0.2,0
				c-0.1,0-0.2-0.1-0.2-0.2c0-0.1,0-0.2,0-0.3c0-0.3,0-0.6,0-0.9c0-0.3,0-0.6,0-1c0-0.1,0-0.2,0.1-0.3c0.3-0.2,0.5-0.3,0.9-0.3
				c0.3,0,0.5,0.2,0.7,0.5c0.1,0.2,0.1,0.5,0.1,0.7c0,0.5,0,0.9,0,1.4c0,0.2-0.1,0.3-0.3,0.3c-0.1,0-0.1,0-0.2,0
				c-0.1,0-0.1,0.1-0.1,0.2c0,0.1,0.1,0.1,0.1,0.1c0.3,0,0.7-0.1,1,0c0.2,0,0.4,0,0.6,0c0.1,0,0.1-0.1,0.1-0.2c0-0.1,0-0.1-0.1-0.1
				c-0.1,0-0.1,0-0.2,0c-0.2,0-0.3-0.1-0.3-0.3c0-0.6,0-1.2,0-1.8c0-0.1,0-0.2,0-0.2c0-0.1,0-0.2,0.1-0.2c0.3-0.2,0.5-0.3,0.9-0.3
				c0.3,0,0.7,0.3,0.7,0.6c0,0.2,0.1,0.3,0.1,0.5c0,0.4,0,0.9,0,1.3c0,0.4-0.1,0.4-0.4,0.5c0,0,0,0-0.1,0c-0.1,0,0,0.1-0.1,0.2
				c0,0.1,0,0.1,0.1,0.1c0.1,0,0.2,0,0.3,0c0.4,0,0.9,0,1.3,0c0.1,0,0.1,0,0.2-0.1C15.7,33.4,15.7,33.4,15.6,33.4z"/>
			<path class="st12" d="M25,33.3c-0.3-0.1-0.4-0.1-0.4-0.5c0-0.2,0-0.5,0-0.7c0-0.2,0-0.4,0-0.5c0-0.3,0-0.7-0.1-1
				c-0.1-0.3-0.3-0.6-0.7-0.7c-0.3-0.1-0.6,0-0.9,0.1c-0.2,0.1-0.4,0.2-0.6,0.4c0,0-0.1,0.1-0.1,0c-0.1,0,0-0.1,0-0.1
				c0-0.1,0-0.2,0-0.3c0-0.1,0-0.1-0.1-0.1c-0.4,0.1-0.7,0.2-1.1,0.3c-0.1,0-0.1,0-0.2,0.1c0,0.1,0.1,0.1,0.1,0.1
				c0.1,0,0.3,0.1,0.4,0.2c0.1,0,0.1,0.1,0.1,0.2c0,0.7,0,1.4,0,2.1c0,0.2-0.1,0.3-0.3,0.3c-0.1,0-0.1,0-0.2,0c-0.1,0-0.1,0-0.1,0.1
				c0,0.2,0,0.2,0.2,0.2c0.5,0,1,0,1.5,0c0.1,0,0.1,0.1,0.2,0c0-0.1,0-0.1,0-0.2c0-0.1,0-0.1-0.1-0.1c-0.1,0-0.2,0-0.3-0.1
				c-0.1,0-0.2-0.1-0.2-0.2c0-0.2,0-0.5,0-0.7c0-0.4,0-0.9,0-1.3c0-0.2,0.1-0.3,0.3-0.4c0.2-0.1,0.5-0.2,0.7-0.2
				c0.3,0,0.6,0.2,0.7,0.6c0,0.2,0,0.4,0,0.6c0,0.4,0,0.9,0,1.3c0,0.2-0.1,0.3-0.2,0.4c-0.1,0-0.1,0-0.2,0c-0.2,0-0.1,0.1-0.1,0.2
				c0,0.1,0,0.1,0.1,0.1c0.3-0.1,0.6,0,0.9,0c0.3,0,0.5,0,0.8,0c0,0,0.1,0,0.1,0c0-0.1,0.1-0.2,0-0.3C25.2,33.3,25.2,33.4,25,33.3
				C25.1,33.3,25.1,33.3,25,33.3z"/>
			<path class="st12" d="M19.1,30.2c-0.4-0.2-0.8-0.3-1.3-0.1c-0.3,0.1-0.7,0.2-0.9,0.5c-0.4,0.4-0.6,0.8-0.6,1.4
				c0,0.2,0,0.4,0.1,0.6c0.1,0.4,0.3,0.7,0.6,0.9c0.5,0.3,1,0.4,1.6,0.2c0.5-0.2,0.9-0.5,1.2-1c0.2-0.4,0.2-0.8,0.1-1.3
				C19.9,30.8,19.6,30.4,19.1,30.2z M19,33.1c-0.1,0.2-0.3,0.3-0.5,0.3c-0.4,0-0.7,0-1-0.3c-0.3-0.3-0.4-0.6-0.5-1
				c0-0.1,0-0.3,0-0.4c0-0.3,0-0.7,0.2-1c0.1-0.2,0.3-0.3,0.5-0.3c0.7-0.1,1.2,0.4,1.4,1c0.1,0.2,0.1,0.5,0.1,0.7
				C19.3,32.4,19.3,32.8,19,33.1z"/>
			<path class="st12" d="M28.6,30.2c-0.4-0.1-0.8-0.2-1.2-0.1c-0.4,0.1-0.7,0.2-1,0.5c-0.3,0.4-0.4,0.9-0.2,1.4
				c0.1,0.3,0.4,0.5,0.6,0.6c0.1,0.1,0.1,0.2,0,0.2c-0.2,0.1-0.3,0.2-0.5,0.3c-0.1,0-0.1,0.1-0.1,0.2c0.1,0.2,0.2,0.3,0.4,0.4
				c0.1,0.1,0.1,0.1,0,0.2c-0.2,0.1-0.3,0.2-0.5,0.3c-0.2,0.2-0.4,0.4-0.4,0.6c0,0.3,0.2,0.5,0.4,0.7c0.2,0.2,0.5,0.3,0.8,0.3
				c0,0,0,0,0,0.1c0.2,0,0.4,0,0.7,0c0-0.1,0.1,0,0.1-0.1c0.5-0.1,1-0.4,1.4-0.8c0.2-0.3,0.4-0.6,0.3-1c0-0.2-0.1-0.4-0.3-0.6
				c-0.3-0.2-0.6-0.2-1-0.2c-0.3,0-0.6,0-0.8-0.1c-0.1,0-0.1,0-0.2-0.1c-0.1-0.1-0.2-0.2-0.2-0.3c0-0.1,0.1-0.2,0.3-0.2
				c0.3,0,0.7-0.1,1-0.3c0.3-0.2,0.5-0.3,0.6-0.6c0.1-0.3,0.2-0.6,0.1-0.9c-0.1-0.2,0-0.2,0.2-0.2c0.2,0,0.4,0,0.5-0.3
				c0-0.1,0-0.2,0-0.3c-0.1,0.1-0.1,0.1-0.2,0.1C29.2,30.3,28.9,30.3,28.6,30.2z M27.5,33.8c0.3,0,0.7,0,1,0.1
				c0.2,0.1,0.5,0.2,0.5,0.4c0.1,0.3,0,0.5-0.2,0.7c-0.3,0.3-0.6,0.4-1.1,0.4c-0.2,0-0.5,0-0.8-0.2c-0.5-0.3-0.5-0.9-0.1-1.2
				C27.1,33.8,27.3,33.8,27.5,33.8z M28.1,32.1c-0.1,0.1-0.2,0.1-0.3,0.1c-0.4,0-0.8-0.1-0.9-0.5c-0.1-0.3-0.1-0.7,0-1
				c0.1-0.4,0.5-0.5,0.8-0.4c0.4,0.1,0.6,0.3,0.7,0.8c0,0.1,0,0.2,0,0.3C28.4,31.6,28.3,31.9,28.1,32.1z"/>
			<path class="st12" d="M34,31.3c-0.1-0.4-0.3-0.8-0.7-1C33,30,32.6,29.9,32.1,30c-0.4,0.1-0.7,0.2-1.1,0.4
				c-0.5,0.3-0.7,0.8-0.7,1.3c0,0.2,0,0.5,0.1,0.7c0.1,0.4,0.3,0.7,0.6,0.9c0.4,0.3,0.9,0.4,1.4,0.3c0.3-0.1,0.7-0.2,0.9-0.4
				c0.5-0.4,0.7-0.9,0.7-1.6C34.1,31.6,34,31.5,34,31.3z M33.3,32.7c-0.1,0.4-0.4,0.7-0.8,0.7c-0.5,0-0.9-0.2-1.1-0.6
				c-0.3-0.4-0.3-0.9-0.3-1.4c0-0.2,0.1-0.5,0.2-0.7c0.1-0.2,0.3-0.3,0.5-0.3c0.4-0.1,0.8,0.1,1,0.4c0.2,0.2,0.3,0.5,0.3,0.8
				C33.3,31.9,33.4,32.3,33.3,32.7z"/>
		</g>
		<path class="st13" d="M4.7,29.8c0-0.1,0-0.2,0-0.4c0.1,0.2,0,0.4,0,0.5c0,0.3,0,0.6,0,0.8c0,0,0,0.1,0,0.1c0,0,0-0.1,0-0.1
			C4.7,30.5,4.7,30.1,4.7,29.8z"/>
		<path class="st13" d="M4.7,31.7c0-0.1,0-0.2,0-0.3C4.7,31.5,4.7,31.6,4.7,31.7z"/>
		<path class="st11" d="M4.6,24.4c-0.1-0.1,0-0.2,0-0.3C4.7,24.2,4.6,24.3,4.6,24.4z"/>
		<path class="st14" d="M4.6,33.1c0-0.1,0-0.2,0-0.3c0,0,0,0,0,0c0,0.1,0,0.3,0,0.4c-0.1,0-0.1,0.1-0.1,0.1c0,0.1,0,0.1-0.1,0.1
			C4.5,33.4,4.5,33.2,4.6,33.1z"/>
		<path class="st15" d="M4.6,32.8C4.6,32.8,4.6,32.8,4.6,32.8c-0.1-0.1,0-0.2,0-0.3c0,0,0,0,0,0C4.6,32.6,4.6,32.7,4.6,32.8z"/>
		<g>
			<path class="st16" d="M38.7,28.2c-0.5-0.1-1-0.1-1.5-0.1c-0.7,0-1.4,0-2.1,0c-0.2,0-0.2,0.1-0.3,0.2c-0.1,0.1,0,0.1,0.1,0.1
				c0.1,0,0.2,0,0.4,0.1c0.2,0,0.4,0.1,0.4,0.3c0,0.2,0,0.3,0,0.5c0,1.1,0,2.3,0,3.4c0,0.3-0.1,0.4-0.4,0.5c0,0-0.1,0-0.1,0
				c-0.1,0-0.2,0.2-0.2,0.2c0,0.1,0.1,0.1,0.2,0.1c0.4,0,0.8,0,1.2,0c0,0,0,0,0,0c0.3,0,0.7,0,1,0c0.5,0,0.9-0.1,1.3-0.2
				c0.5-0.2,1-0.5,1.3-1c0.4-0.5,0.5-1.2,0.5-1.8c0-0.4-0.1-0.8-0.3-1.1C39.9,28.8,39.4,28.4,38.7,28.2z M39.3,32.2
				c-0.3,0.6-0.8,0.9-1.5,1c-0.3,0-0.6,0-0.9-0.1c-0.3-0.1-0.5-0.3-0.5-0.6c0-0.6,0-1.2,0-1.9c0-0.4,0-0.8,0-1.2c0-0.3,0-0.5,0-0.8
				c0-0.1,0.1-0.2,0.2-0.2c0.2,0,0.5,0,0.7,0c0.2,0,0.5,0.1,0.7,0.1c0.7,0.3,1.2,0.7,1.4,1.5C39.7,30.8,39.7,31.5,39.3,32.2z"/>
			<path class="st16" d="M45.4,30.9c-0.2-0.2-0.4-0.3-0.7-0.4c0,0-0.1,0-0.1-0.1c0-0.1,0.1-0.1,0.1-0.1c0.5-0.3,0.8-0.7,0.7-1.2
				c0-0.2-0.1-0.4-0.3-0.6c-0.3-0.4-0.7-0.5-1.2-0.5c-0.4,0-0.9,0-1.3,0c-0.4,0-0.8,0-1.3,0c-0.1,0-0.2,0-0.2,0.2
				c-0.1,0.1,0,0.1,0.1,0.2c0.1,0,0.3,0,0.4,0.1c0.2,0,0.3,0.1,0.3,0.3c0,0.1,0,0.3,0,0.4c0,1.1,0,2.2,0,3.3c0,0.1,0,0.2,0,0.3
				c0,0.1,0,0.2-0.1,0.3c0,0.1,0,0.1-0.1,0.1c-0.1,0-0.2,0.1-0.4,0.1c-0.2,0-0.2,0-0.3,0.2c0,0.1,0,0.1,0.1,0.1c0.2,0,0.3,0,0.5,0
				c0.4,0,0.8,0,1.2,0c0.4,0,0.8,0,1.2-0.1c0.5-0.1,0.9-0.3,1.3-0.6c0.4-0.4,0.5-0.8,0.4-1.3C45.8,31.3,45.7,31.1,45.4,30.9z
				 M42.8,29.5C42.8,29.5,42.8,29.5,42.8,29.5c0-0.3,0-0.5,0-0.8c0-0.2,0-0.2,0.2-0.2c0.3,0,0.6,0,0.9,0.1c0.4,0.1,0.6,0.5,0.6,0.9
				c0,0.2,0,0.4-0.1,0.6c-0.1,0.3-0.3,0.4-0.6,0.4c-0.3,0-0.7,0-1,0c-0.1,0-0.1-0.1-0.1-0.1C42.8,30,42.8,29.8,42.8,29.5z
				 M44.9,32.5c-0.1,0.4-0.4,0.6-0.8,0.7c-0.3,0.1-0.5,0-0.8,0c-0.3-0.1-0.5-0.3-0.5-0.6c0-0.3,0-0.6,0-0.8c0,0,0,0,0,0
				c0-0.3,0-0.6,0-0.9c0-0.1,0-0.1,0.1-0.1c0.5,0,0.9,0,1.4,0.2c0.4,0.2,0.6,0.4,0.7,0.9C45,32.1,45,32.3,44.9,32.5z"/>
			<path class="st16" d="M48.4,33.5L48.4,33.5c0.1,0,0.1-0.1,0.1-0.2c0-0.1,0-0.1-0.1-0.1c0,0-0.1-0.1-0.2-0.1c-0.1,0-0.1,0-0.2,0
				v0.8h0.1v-0.3h0.1c0.1,0,0.1,0,0.2,0.2c0,0.1,0,0.2,0.1,0.2h0.1c0,0,0-0.1-0.1-0.2C48.5,33.6,48.5,33.5,48.4,33.5z M48.3,33.5
				h-0.1v-0.3c0,0,0.1,0,0.1,0c0.1,0,0.2,0,0.2,0.1C48.4,33.4,48.4,33.5,48.3,33.5z"/>
			<path class="st16" d="M48.3,32.8c-0.4,0-0.7,0.3-0.7,0.7c0,0.4,0.3,0.7,0.7,0.7c0.4,0,0.7-0.3,0.7-0.7
				C49,33.1,48.7,32.8,48.3,32.8z M48.3,34.1c-0.3,0-0.6-0.3-0.6-0.6c0-0.3,0.3-0.6,0.6-0.6c0.3,0,0.6,0.3,0.6,0.6
				C48.9,33.8,48.7,34.1,48.3,34.1z"/>
		</g>
	</g>
</g>
</svg>
