<?xml version="1.0" encoding="utf-8"?>
<!-- Generator: Adobe Illustrator 24.0.0, SVG Export Plug-In . SVG Version: 6.00 Build 0)  -->
<svg version="1.1" id="Layer_1" xmlns="http://www.w3.org/2000/svg" xmlns:xlink="http://www.w3.org/1999/xlink" x="0px" y="0px"
	 viewBox="0 0 512 512" style="enable-background:new 0 0 512 512;" xml:space="preserve">
<style type="text/css">
	.st0{fill:#366F9F;}
	.st1{fill:#FFD343;}
</style>
<g id="Layer_4">
	<g>
		<path id="path46" d="M207.1,260.6c0-16.8-4.8-25.5-14.4-26c-3.8-0.2-7.6,0.4-11.2,1.8c-2.9,1-4.8,2.1-5.9,3.1v40.2
			c6.1,3.9,11.6,5.6,16.4,5.4C202,284.5,207.1,276.3,207.1,260.6z M218.9,261.3c0,8.6-2,15.7-6,21.3c-4.5,6.4-10.7,9.7-18.7,9.9
			c-6,0.2-12.2-1.7-18.6-5.6v36.5l-10.3-3.7v-81.1c1.7-2.1,3.9-3.9,6.5-5.4c6.1-3.6,13.6-5.4,22.4-5.5l0.1,0.1
			c8-0.1,14.2,3.2,18.5,9.9C216.9,243.9,218.9,251.7,218.9,261.3z"/>
		<path id="path48" d="M281.9,285.3c0,11.5-1.1,19.4-3.4,23.8c-2.3,4.4-6.7,7.9-13.2,10.6c-5.3,2.1-11,3.2-17.1,3.4l-1.7-6.5
			c6.2-0.8,10.6-1.7,13.1-2.5c5-1.7,8.4-4.3,10.3-7.8c1.5-2.8,2.3-8.2,2.3-16.2v-2.7c-7,3.2-14.4,4.8-22.2,4.8
			c-5.1,0-9.6-1.6-13.4-4.8c-4.3-3.5-6.5-7.9-6.5-13.3v-42.9l10.3-3.5v43.2c0,4.6,1.5,8.2,4.5,10.7c3,2.5,6.8,3.7,11.6,3.6
			c4.7-0.1,9.8-1.9,15.2-5.5v-50.4h10.3L281.9,285.3L281.9,285.3z"/>
		<path id="path50" d="M322.2,291.9c-1.2,0.1-2.4,0.1-3.4,0.1c-5.8,0-10.4-1.4-13.6-4.2c-3.2-2.8-4.9-6.6-4.9-11.5v-40.6h-7.1v-6.5
			h7.1v-17.2l10.3-3.7v20.9h11.6v6.5h-11.6v40.3c0,3.9,1,6.6,3.1,8.2c1.8,1.3,4.6,2.1,8.5,2.3V291.9z"/>
		<path id="path52" d="M384.5,291.1h-10.3v-39.8c0-4-0.9-7.5-2.8-10.4c-2.2-3.3-5.2-4.9-9.1-4.9c-4.7,0-10.6,2.5-17.7,7.5v47.7
			h-10.3V196l10.3-3.2v43.3c6.6-4.8,13.8-7.2,21.6-7.2c5.5,0,9.9,1.8,13.3,5.5c3.4,3.7,5.1,8.2,5.1,13.7L384.5,291.1L384.5,291.1z"
			/>
		<path id="path54" d="M439.3,259c0-6.5-1.2-11.8-3.7-16c-2.9-5.2-7.4-7.9-13.5-8.2c-11.3,0.7-16.9,8.7-16.9,24.3
			c0,7.1,1.2,13.1,3.5,17.8c3,6.1,7.6,9.1,13.6,9C433.7,285.8,439.3,276.8,439.3,259z M450.6,259.1c0,9.2-2.4,16.9-7.1,23
			c-5.2,6.9-12.3,10.3-21.4,10.3c-9,0-16.1-3.4-21.2-10.3c-4.6-6.1-6.9-13.8-6.9-23c0-8.7,2.5-15.9,7.5-21.9
			c5.3-6.3,12.2-9.4,20.7-9.4s15.5,3.2,20.9,9.4C448.1,243.1,450.6,250.4,450.6,259.1z"/>
		<path id="path56" d="M509.7,291.1h-10.3v-42c0-4.6-1.4-8.2-4.2-10.8c-2.8-2.6-6.5-3.8-11.1-3.7c-4.9,0.1-9.6,1.7-14,4.8v51.8
			h-10.3V238c5.9-4.3,11.4-7.1,16.4-8.5c4.7-1.2,8.9-1.8,12.4-1.8c2.4,0,4.7,0.2,6.9,0.7c4,0.9,7.3,2.7,9.9,5.2
			c2.8,2.8,4.2,6.2,4.2,10.2L509.7,291.1L509.7,291.1z"/>
		<path id="path1948" class="st0" d="M63.5,196.4c-5.3,0-10.4,0.5-14.8,1.3c-13.1,2.3-15.5,7.2-15.5,16.1v11.8h31v3.9h-31H21.6
			c-9,0-16.9,5.4-19.4,15.7c-2.8,11.8-3,19.2,0,31.5c2.2,9.2,7.5,15.7,16.5,15.7h10.7v-14.2c0-10.2,8.9-19.3,19.4-19.3h31
			c8.6,0,15.5-7.1,15.5-15.8v-29.5c0-8.4-7.1-14.7-15.5-16.1C74.4,196.8,68.8,196.4,63.5,196.4z M46.8,205.9c3.2,0,5.8,2.7,5.8,5.9
			c0,3.3-2.6,5.9-5.8,5.9c-3.2,0-5.8-2.6-5.8-5.9C40.9,208.5,43.5,205.9,46.8,205.9z"/>
		<path id="path1950" class="st1" d="M99.1,229.5v13.8C99.1,254,90,263,79.7,263h-31c-8.5,0-15.5,7.3-15.5,15.8v29.5
			c0,8.4,7.3,13.4,15.5,15.8c9.8,2.9,19.2,3.4,31,0c7.8-2.3,15.5-6.8,15.5-15.8v-11.8h-31v-3.9h31h15.5c9,0,12.4-6.3,15.5-15.7
			c3.2-9.7,3.1-19.1,0-31.5c-2.2-9-6.5-15.7-15.5-15.7L99.1,229.5L99.1,229.5z M81.6,304.3c3.2,0,5.8,2.6,5.8,5.9
			c0,3.3-2.6,5.9-5.8,5.9c-3.2,0-5.8-2.7-5.8-5.9C75.8,307,78.4,304.3,81.6,304.3z"/>
	</g>
</g>
</svg>
