<?xml version="1.0" encoding="utf-8"?>
<!-- Generator: Adobe Illustrator 24.0.0, SVG Export Plug-In . SVG Version: 6.00 Build 0)  -->
<svg version="1.1" id="Layer_2_1_" xmlns="http://www.w3.org/2000/svg" xmlns:xlink="http://www.w3.org/1999/xlink" x="0px" y="0px"
	 viewBox="0 0 600 600" style="enable-background:new 0 0 600 600;" xml:space="preserve">
<style type="text/css">
	.st0{fill:#00D8FF;}
</style>
<g>
	<circle class="st0" cx="117.8" cy="302" r="18"/>
	<path class="st0" d="M208.2,284c-6.2-5.2-15-9.8-25.5-13.4c-2.1-0.7-4.2-1.4-6.5-2c0.4-1.5,0.7-3,1-4.5c5-24.3,1.5-43.2-9.3-49.4
		c-5.2-3-12.4-3-20.7,0c-7.6,2.8-16.1,8.1-24.4,15.4c-1.7,1.5-3.4,3-5,4.6c-1.1-1.1-2.2-2.1-3.4-3.1C96,215.1,77.7,208.7,67,214.9
		c-5.3,3.1-8.8,9.3-10.3,18c-1.4,8-1,18,1.1,28.8c0.4,2.2,0.9,4.4,1.5,6.7c-2.6,0.7-5.1,1.5-7.5,2.4c-21.9,7.6-35,19.3-35,31.2
		c0,6.2,3.7,12.6,10.6,18.5c6.5,5.6,15.6,10.4,26.4,14.1c1.8,0.6,3.6,1.2,5.5,1.7c-0.6,2.4-1.1,4.8-1.6,7.2
		c-4.3,22.8-0.8,40,9.6,45.9c2.7,1.6,6,2.4,9.6,2.4c3.5,0,7.5-0.8,11.7-2.3c8-2.8,16.8-8.3,25.4-15.8c1.4-1.2,2.8-2.5,4.2-3.9
		c1.8,1.8,3.6,3.4,5.5,5c12.9,11.1,25.3,17,35.1,17c3.6,0,6.8-0.8,9.4-2.4c5.4-3.1,9.1-9.5,10.8-18.4c1.5-8.4,1.2-18.7-1-29.9
		c-0.3-1.8-0.8-3.6-1.2-5.4c1.3-0.4,2.5-0.8,3.8-1.2c23.6-7.8,38.2-20.3,38.2-32.7C218.6,295.9,215,289.7,208.2,284z M150.2,222.8
		c5.7-2.1,10.5-2.3,13.5-0.6c5.8,3.3,9.8,17.3,5.1,40.2c-0.3,1.3-0.6,2.6-0.9,4c-8.4-1.9-17.5-3.4-27-4.3
		c-5.5-7.9-11.3-15.1-17-21.2c1.5-1.5,3.1-2.9,4.6-4.2C136.1,230,143.6,225.3,150.2,222.8z M145.9,318.4c-3.2,5.5-6.4,10.7-9.7,15.6
		c-6,0.4-12.2,0.6-18.5,0.6c-6.3,0-12.4-0.2-18.3-0.6c-3.4-5-6.8-10.3-9.9-15.6c-3.1-5.4-6-10.8-8.6-16.3c2.6-5.4,5.5-10.9,8.6-16.2
		l0,0c3.1-5.4,6.4-10.6,9.8-15.6c6-0.5,12.2-0.7,18.3-0.7c6.2,0,12.4,0.2,18.4,0.7c3.3,4.9,6.6,10.1,9.7,15.5
		c3.2,5.5,6.1,10.9,8.7,16.2C152,307.5,149.1,313,145.9,318.4z M159.2,312c2.7,6.2,5,12.1,6.8,17.8c-5.8,1.3-12.2,2.4-18.8,3.2
		c2.1-3.3,4.2-6.7,6.2-10.3C155.4,319.1,157.4,315.6,159.2,312z M118.1,357.6c-4.1-4.4-8.2-9.3-12.1-14.5c3.8,0.1,7.8,0.2,11.8,0.2
		c4.1,0,8.2-0.1,12.2-0.3C126,348.4,122,353.2,118.1,357.6z M88.5,333.1c-6.6-0.7-12.8-1.7-18.6-3c1.8-5.8,4-11.7,6.5-17.8
		c1.8,3.5,3.7,7,5.7,10.4C84.2,326.3,86.3,329.8,88.5,333.1z M82.2,281.6c-2,3.5-3.9,7-5.7,10.5c-2.5-5.9-4.7-11.8-6.4-17.5
		c5.8-1.3,11.9-2.3,18.3-3.1C86.2,274.8,84.2,278.2,82.2,281.6z M117.9,247c4,4.3,7.9,9.1,11.8,14.3c-4-0.2-8-0.3-12-0.3
		c-4,0-7.9,0.1-11.8,0.3C109.8,256.2,113.8,251.4,117.9,247z M153.3,281.5c-2-3.4-4-6.8-6.1-10.1c6.4,0.8,12.6,1.9,18.4,3.2
		c-1.7,5.6-3.9,11.4-6.5,17.4C157.3,288.6,155.4,285.1,153.3,281.5z M66.3,260.1c-1.9-9.8-2.3-18.7-1.1-25.7c1-6,3.2-10.3,6.2-12
		c5.8-3.3,19.9,0.1,37.4,15.7c1,0.9,2,1.8,3,2.8c-5.9,6.3-11.6,13.5-17.1,21.2c-9.5,0.9-18.6,2.3-27,4.2
		C67.2,264.2,66.7,262.1,66.3,260.1z M56.6,326.5c-21.3-7.3-31.1-17.8-31.1-24.5c0-6.4,9-16.1,29.2-23.1c2.2-0.8,4.5-1.5,6.9-2.2
		c2.5,8.2,5.8,16.8,9.8,25.5c-4,8.8-7.4,17.5-9.9,25.8C59.8,327.5,58.2,327,56.6,326.5z M76.8,383.2c-2.2,0-4-0.4-5.4-1.2
		c-5.5-3.2-9.4-15.8-5.4-36.8c0.4-2.2,0.9-4.4,1.5-6.7c8.2,1.8,17.3,3.1,27.2,3.9c5.6,7.9,11.4,15.1,17.3,21.4
		c-1.3,1.2-2.6,2.4-3.8,3.5C95.2,378.7,84,383.2,76.8,383.2z M169.5,342.9c4.4,22.1,0.1,35.8-5.6,39.1c-5.6,3.2-18.4,0.2-34.6-13.7
		c-1.7-1.4-3.4-3-5.1-4.6c5.7-6.2,11.3-13.4,16.9-21.5c9.8-0.9,19-2.3,27.3-4.2C168.8,339.7,169.1,341.3,169.5,342.9z M177.7,326.5
		c-1.1,0.4-2.2,0.7-3.4,1.1c-2.5-8-6-16.6-10.2-25.5c4-8.7,7.3-17.2,9.8-25.2c2.1,0.6,4.1,1.2,6,1.9c9.4,3.3,17.3,7.4,22.8,11.9
		c4.7,3.9,7.3,7.9,7.3,11.3C210,308.6,199.9,319.1,177.7,326.5z"/>
</g>
<g>
	<path class="st0" d="M265.9,258.4c5.8-1.2,14.1-1.9,22.1-1.9c12.3,0,20.2,2.2,25.8,7.3c4.5,4,7,10,7,16.9
		c0,11.8-7.4,19.6-16.8,22.7v0.4c6.9,2.4,11,8.7,13.1,18c2.9,12.4,5,21,6.9,24.5H312c-1.5-2.5-3.4-10.2-5.9-21.3
		c-2.6-12.3-7.4-16.9-17.8-17.3h-10.8v38.6h-11.5V258.4z M277.4,299h11.8c12.3,0,20.1-6.7,20.1-16.9c0-11.5-8.3-16.5-20.5-16.7
		c-5.6,0-9.5,0.5-11.4,1.1V299z"/>
	<path class="st0" d="M343.6,316.4c0.3,15.7,10.3,22.2,21.9,22.2c8.3,0,13.3-1.5,17.7-3.3l2,8.3c-4.1,1.9-11.1,4-21.3,4
		c-19.7,0-31.5-13-31.5-32.3c0-19.3,11.4-34.5,30-34.5c20.9,0,26.4,18.4,26.4,30.1c0,2.4-0.3,4.2-0.4,5.4H343.6z M377.7,308.1
		c0.1-7.4-3-18.9-16.1-18.9c-11.8,0-16.9,10.8-17.8,18.9H377.7z"/>
	<path class="st0" d="M438.8,346.3l-0.9-8.1h-0.4c-3.6,5-10.4,9.5-19.6,9.5c-13,0-19.6-9.1-19.6-18.4c0-15.5,13.7-23.9,38.5-23.8
		v-1.3c0-5.3-1.5-14.8-14.5-14.8c-5.9,0-12.2,1.8-16.7,4.8l-2.6-7.7c5.3-3.4,13-5.7,21-5.7c19.6,0,24.3,13.4,24.3,26.2V331
		c0,5.6,0.3,11,1.1,15.3H438.8z M437.1,313.7c-12.7-0.3-27.1,2-27.1,14.4c0,7.5,5,11.1,11,11.1c8.3,0,13.6-5.3,15.5-10.7
		c0.4-1.2,0.7-2.5,0.7-3.7V313.7z"/>
	<path class="st0" d="M512.7,343.9c-3,1.6-9.8,3.7-18.4,3.7c-19.3,0-31.9-13.1-31.9-32.6c0-19.7,13.5-34,34.4-34
		c6.9,0,13,1.7,16.1,3.3l-2.6,9c-2.8-1.6-7.1-3-13.5-3c-14.7,0-22.6,10.8-22.6,24.2c0,14.8,9.5,23.9,22.2,23.9
		c6.6,0,11-1.7,14.3-3.2L512.7,343.9z"/>
	<path class="st0" d="M542,264v18.4h16.7v8.9H542v34.5c0,7.9,2.2,12.4,8.7,12.4c3,0,5.3-0.4,6.7-0.8l0.5,8.7
		c-2.2,0.9-5.8,1.6-10.3,1.6c-5.4,0-9.8-1.7-12.6-4.9c-3.3-3.4-4.5-9.1-4.5-16.7v-34.9h-9.9v-8.9h9.9V267L542,264z"/>
</g>
</svg>
