<svg xmlns="http://www.w3.org/2000/svg" width="72.804" height="72.747" viewBox="0 0 72.804 72.747">
  <path id="application" d="M74.772,38.375a3.163,3.163,0,0,0-1.582-2.689l-6.326-3.638,6.326-3.638a3.163,3.163,0,0,0,.158-5.377L40.135,2.473a3.163,3.163,0,0,0-3.321,0L3.6,23.034a3.163,3.163,0,0,0,0,5.377l6.326,3.638L3.6,35.687a3.163,3.163,0,0,0,0,5.536L9.926,44.7,3.6,48.34a3.163,3.163,0,0,0-.158,5.377L36.655,74.278a3.163,3.163,0,0,0,3.321,0L73.19,53.717a3.163,3.163,0,0,0-.158-5.377L66.864,44.7l6.326-3.638A3.163,3.163,0,0,0,74.772,38.375ZM38.4,8.958,65.441,25.565,38.4,41.064,11.35,25.565ZM36.814,47.391l1.582.474,1.582-.474,20.561-11.7,4.745,2.689L38.4,53.717,11.508,38.375l4.745-2.689Zm28.627,3.638L38.4,67.793,11.35,51.186l4.9-2.847,20.561,11.7,1.582.474,1.582-.474,20.561-11.7Z" transform="translate(-1.968 -2.002)" fill="#fff"/>
</svg>
