<svg xmlns="http://www.w3.org/2000/svg" width="48.059" height="50" viewBox="0 0 48.059 50">
  <g id="ubuntu_icon" transform="translate(0 0.824)">
    <circle id="XMLID_1320_" cx="5.006" cy="5.006" r="5.006" transform="translate(0 19.17)" fill="#fff"/>
    <ellipse id="XMLID_1319_" cx="5" cy="5.5" rx="5" ry="5.5" transform="translate(34.029 -0.824)" fill="#fff"/>
    <ellipse id="XMLID_1318_" cx="5" cy="5.5" rx="5" ry="5.5" transform="translate(34.029 38.176)" fill="#fff"/>
    <path id="Path_42949" data-name="Path 42949" d="M21.969,19.5A5.117,5.117,0,0,1,26.9,23.126a5.007,5.007,0,0,0-9.86.015A5.134,5.134,0,0,1,21.969,19.5Z" transform="translate(17.079 19.193)" fill="#fff" opacity="0.2"/>
    <path id="Path_42950" data-name="Path 42950" d="M21.967,25.572a5.117,5.117,0,0,1-4.929-3.625,5.007,5.007,0,0,0,9.86-.015A5.134,5.134,0,0,1,21.967,25.572Z" transform="translate(17.08 22.132)" fill="#fff" opacity="0.1"/>
    <path id="Path_42951" data-name="Path 42951" d="M21.969.5A5.117,5.117,0,0,1,26.9,4.126a5.007,5.007,0,0,0-9.86.015A5.134,5.134,0,0,1,21.969.5Z" transform="translate(17.079 0.147)" fill="#fff" opacity="0.2"/>
    <path id="Path_42952" data-name="Path 42952" d="M21.967,6.572a5.117,5.117,0,0,1-4.929-3.625,5.007,5.007,0,0,0,9.86-.015A5.134,5.134,0,0,1,21.967,6.572Z" transform="translate(17.08 3.086)" fill="#fff" opacity="0.1"/>
    <path id="Path_42953" data-name="Path 42953" d="M14.464,12.912A9.929,9.929,0,0,1,28.48,21.023H38.593A19.964,19.964,0,0,0,33.549,8.769a6.961,6.961,0,0,1-3.967,1.241A7.017,7.017,0,0,1,22.573,3c0-.2.043-.39.059-.587a19.978,19.978,0,0,0-13.19,1.8Z" transform="translate(9.466 2.152)" fill="#fff"/>
    <path id="Path_42954" data-name="Path 42954" d="M17.753,28.52a9.955,9.955,0,0,1,0-16.212l-5.024-8.7a20.052,20.052,0,0,0-8.3,10.975,6.993,6.993,0,0,1,0,11.666,20.053,20.053,0,0,0,8.3,10.975Z" transform="translate(4.445 3.762)" fill="#fff"/>
    <path id="Path_42955" data-name="Path 42955" d="M22.573,30.522a7,7,0,0,1,10.976-5.767A19.963,19.963,0,0,0,38.593,12.5H28.48a9.929,9.929,0,0,1-14.016,8.111l-5.021,8.7a19.914,19.914,0,0,0,9.126,2.215,20.111,20.111,0,0,0,4.064-.414C22.616,30.912,22.573,30.723,22.573,30.522Z" transform="translate(9.466 12.677)" fill="#fff"/>
    <path id="Path_42956" data-name="Path 42956" d="M22.583,2.907c.01-.166.036-.328.05-.493A20.114,20.114,0,0,0,18.569,2,19.914,19.914,0,0,0,9.443,4.215l.23.4a19.883,19.883,0,0,1,8.9-2.113A20.106,20.106,0,0,1,22.583,2.907Z" transform="translate(9.466 2.152)" fill="#fff" opacity="0.2"/>
    <path id="Path_42957" data-name="Path 42957" d="M23.467,5.881a18.528,18.528,0,0,1,4.914,10.706l.13,1.048q-.044-.879-.161-1.736A19.97,19.97,0,0,0,23.467,5.38,6.961,6.961,0,0,1,19.5,6.621S22.338,6.66,23.467,5.881Z" transform="translate(19.548 5.54)" fill="#fff" opacity="0.2"/>
    <path id="Path_42958" data-name="Path 42958" d="M28.48,19.414A9.929,9.929,0,0,0,14.464,11.3s-4.947-8.234-5.021-8.2l5.021,8.7A9.929,9.929,0,0,1,28.48,19.914H38.593c-.008-.169-.034-.333-.047-.5Z" transform="translate(9.466 3.26)" fill="#fff" opacity="0.1"/>
    <path id="Path_42959" data-name="Path 42959" d="M12.729,4.107l4.828,8.362c.067-.051.128-.11.2-.16l-5.024-8.7a20.052,20.052,0,0,0-8.3,10.975c.049.033.092.072.14.106A20.053,20.053,0,0,1,12.729,4.107Z" transform="translate(4.445 3.762)" fill="#fff" opacity="0.2"/>
    <path id="Path_42960" data-name="Path 42960" d="M4.574,14.86c-.048.034-.091.073-.14.106a20.053,20.053,0,0,0,8.3,10.975l5.024-8.7c-.069-.049-.129-.109-.2-.16L12.729,25.44A20.053,20.053,0,0,1,4.574,14.86Z" transform="translate(4.445 15.043)" fill="#fff" opacity="0.1"/>
    <path id="Path_42961" data-name="Path 42961" d="M18.569,22.012A9.978,9.978,0,0,0,28.48,13l10.079-.132c.012-.168.026-.2.034-.368H28.48a9.929,9.929,0,0,1-14.016,8.111l-5.021,8.7c.074.038,5.021-8.2,5.021-8.2A9.942,9.942,0,0,0,18.569,22.012Z" transform="translate(9.466 12.677)" fill="#fff" opacity="0.2"/>
    <path id="Path_42962" data-name="Path 42962" d="M9.591,20.765l-.149.258a19.915,19.915,0,0,0,9.126,2.215,20.111,20.111,0,0,0,4.064-.414c-.014-.165-.04-.327-.05-.493a20.1,20.1,0,0,1-4.014.406A20.138,20.138,0,0,1,9.591,20.765Z" transform="translate(9.466 20.962)" fill="#fff" opacity="0.1"/>
    <path id="Path_42963" data-name="Path 42963" d="M26.976,24.253A7,7,0,0,0,16,30.02a1.266,1.266,0,0,0,.007.2,7,7,0,0,1,10.969-5.464,19.972,19.972,0,0,0,4.857-10.34q.138-.944.186-1.915l-.011.2q-.053.7-.154,1.39A19.548,19.548,0,0,1,26.976,24.253Z" transform="translate(16.039 12.676)" fill="#fff" opacity="0.1"/>
    <path id="Path_42964" data-name="Path 42964" d="M4.969,10A5.117,5.117,0,0,1,9.9,13.626,4.962,4.962,0,0,0,4.969,9.5,4.978,4.978,0,0,0,.037,13.641,5.134,5.134,0,0,1,4.969,10Z" transform="translate(0.037 9.67)" fill="#fff" opacity="0.2"/>
    <path id="Path_42965" data-name="Path 42965" d="M4.967,16.072A5.117,5.117,0,0,1,.039,12.447a4.962,4.962,0,0,0,4.929,4.126A4.978,4.978,0,0,0,9.9,12.432,5.134,5.134,0,0,1,4.967,16.072Z" transform="translate(0.039 12.609)" fill="#fff" opacity="0.1"/>
    <path id="Path_42966" data-name="Path 42966" d="M5.006,19.023a5.006,5.006,0,1,0,5.006,5.006A5.006,5.006,0,0,0,5.006,19.023Zm34.041-9.011a5.006,5.006,0,1,0-5.006-5.006A5.006,5.006,0,0,0,39.048,10.012Zm0,28.034a5.006,5.006,0,1,0,5.006,5.006A5.006,5.006,0,0,0,39.048,38.046ZM28.034,14.017a9.978,9.978,0,0,1,9.911,9.011H48.059a19.963,19.963,0,0,0-5.044-12.255,6.961,6.961,0,0,1-3.967,1.241,7.017,7.017,0,0,1-7.009-7.009c0-.2.043-.39.059-.587a19.978,19.978,0,0,0-13.19,1.8l5.021,8.7A9.941,9.941,0,0,1,28.034,14.017ZM18.022,24.029A9.977,9.977,0,0,1,22.2,15.923l-5.024-8.7A20.052,20.052,0,0,0,8.879,18.2a6.993,6.993,0,0,1,0,11.666,20.053,20.053,0,0,0,8.3,10.975l5.024-8.7A9.977,9.977,0,0,1,18.022,24.029ZM28.034,34.041a9.941,9.941,0,0,1-4.105-.9l-5.021,8.7a19.977,19.977,0,0,0,13.19,1.8c-.017-.2-.059-.386-.059-.587a7,7,0,0,1,10.976-5.767,19.963,19.963,0,0,0,5.044-12.255H37.945A9.978,9.978,0,0,1,28.034,34.041Z" transform="translate(0 0.147)" fill="#fff"/>
  </g>
</svg>
