<svg id="search-btn-hover" xmlns="http://www.w3.org/2000/svg" xmlns:xlink="http://www.w3.org/1999/xlink" viewBox="0 0 123.37 93.52"><defs><style>.cls-1{fill:none;}.cls-2{clip-path:url(#clip-path);}.cls-3{fill:url(#linear-gradient);}.cls-4{fill:url(#linear-gradient-2);}.cls-5{fill:url(#linear-gradient-3);}</style><clipPath id="clip-path" transform="translate(0.81 21.23)"><path class="cls-1" d="M25,0H95a25,25,0,0,1,25,25h0A25,25,0,0,1,95,50H25A25,25,0,0,1,0,25H0A25,25,0,0,1,25,0Z"/></clipPath><linearGradient id="linear-gradient" x1="-335.68" y1="320.52" x2="-335.68" y2="319.52" gradientTransform="matrix(120, 0, 0, -50, 40341, 16026)" gradientUnits="userSpaceOnUse"><stop offset="0" stop-color="#ffab6e"/><stop offset="1" stop-color="#ffd8bc"/></linearGradient><linearGradient id="linear-gradient-2" x1="-333.56" y1="320.18" x2="-333.62" y2="318.91" gradientTransform="matrix(0, 80.93, 31.16, 0, -9927.79, 27050.9)" xlink:href="#linear-gradient"/><linearGradient id="linear-gradient-3" x1="-333.79" y1="320.48" x2="-333.71" y2="319.2" gradientTransform="matrix(0, 84.03, 32.36, 0, -10273.2, 28043.56)" xlink:href="#linear-gradient"/></defs><title>search-btn-hover</title><g class="cls-2"><g id="Mask_Group_1" data-name="Mask Group 1"><path id="Rectangle_4" data-name="Rectangle 4" class="cls-3" d="M25,0H95a25,25,0,0,1,25,25h0A25,25,0,0,1,95,50H25A25,25,0,0,1,0,25H0A25,25,0,0,1,25,0Z" transform="translate(0.81 21.23)"/><ellipse id="Ellipse_1" data-name="Ellipse 1" class="cls-4" cx="38.48" cy="53.95" rx="15.58" ry="40.47" transform="matrix(0.26, -0.97, 0.97, 0.26, -22.78, 98.38)"/><ellipse id="Ellipse_2" data-name="Ellipse 2" class="cls-5" cx="81.76" cy="-2.19" rx="16.18" ry="42.01" transform="translate(63.51 98.58) rotate(-74.99)"/></g></g></svg>