<svg id="email" xmlns="http://www.w3.org/2000/svg" width="57.548" height="35.414" viewBox="0 0 57.548 35.414">
  <path id="Path_56" data-name="Path 56" d="M55.452,130.864c1.522.8,22.659,12.326,23.448,12.741a6.911,6.911,0,0,0,5.672,0c.789-.415,21.926-11.938,23.448-12.741.567-.29,1.522-.816,1.729-1.411.36-1.051-.028-1.453-1.563-1.453h-52.9c-1.536,0-1.923.415-1.563,1.453C53.93,130.061,54.885,130.573,55.452,130.864Z" transform="translate(-52.824 -128)" fill="#fff"/>
  <path id="Path_57" data-name="Path 57" d="M104.4,151.706c-1.134.581-11.316,7.83-18.053,12.187l11.371,12.8c.277.277.4.609.249.775s-.526.069-.816-.194L83.51,165.76C81.449,167.088,80,168,79.748,168.14a6.911,6.911,0,0,1-5.672,0c-.263-.138-1.7-1.051-3.763-2.379L56.674,177.27c-.277.277-.65.36-.816.194s-.041-.5.235-.775l11.357-12.8c-6.737-4.358-17.029-11.606-18.163-12.187-1.217-.623-1.287.111-1.287.678v28.359c0,1.286,1.9,2.891,3.251,2.891h51.322a3.435,3.435,0,0,0,2.974-2.891V152.383C105.547,151.8,105.63,151.083,104.4,151.706Z" transform="translate(-48 -148.219)" fill="#fff"/>
</svg>
