<svg id="server_icon" xmlns="http://www.w3.org/2000/svg" width="52.115" height="59.128" viewBox="0 0 52.115 59.128">
  <g id="Group_2115" data-name="Group 2115">
    <path id="Path_43034" data-name="Path 43034" d="M61.225,0H14.611a2.758,2.758,0,0,0-2.75,2.75V11a2.758,2.758,0,0,0,2.75,2.75H61.225A2.759,2.759,0,0,0,63.976,11V2.75A2.759,2.759,0,0,0,61.225,0ZM47.763,7.546H40.717a.671.671,0,0,1,0-1.342h7.045a.671.671,0,1,1,0,1.342Zm4.25.838a1.51,1.51,0,1,1,1.509-1.509A1.51,1.51,0,0,1,52.013,8.385Zm5.087,0a1.51,1.51,0,1,1,1.51-1.509A1.51,1.51,0,0,1,57.1,8.385Z" transform="translate(-11.861)" fill="#fff"/>
    <path id="Path_43035" data-name="Path 43035" d="M61.225,55.815H14.611a2.758,2.758,0,0,0-2.75,2.749v8.251a2.757,2.757,0,0,0,2.75,2.749H61.225a2.758,2.758,0,0,0,2.751-2.749V58.564A2.758,2.758,0,0,0,61.225,55.815ZM47.763,63.361H40.717a.671.671,0,1,1,0-1.341h7.045a.671.671,0,1,1,0,1.341Zm4.25.839a1.509,1.509,0,1,1,1.509-1.509A1.51,1.51,0,0,1,52.013,64.2Zm5.087,0a1.509,1.509,0,1,1,1.51-1.509A1.51,1.51,0,0,1,57.1,64.2Z" transform="translate(-11.861 -39.314)" fill="#fff"/>
    <path id="Path_43036" data-name="Path 43036" d="M61.225,111.627H14.611a2.759,2.759,0,0,0-2.75,2.751v8.251a2.758,2.758,0,0,0,2.75,2.749H61.225a2.759,2.759,0,0,0,2.751-2.749v-8.251A2.759,2.759,0,0,0,61.225,111.627Zm-13.463,7.546H40.717a.671.671,0,0,1,0-1.342h7.045a.671.671,0,1,1,0,1.342Zm4.25.839a1.509,1.509,0,1,1,1.509-1.509A1.51,1.51,0,0,1,52.013,120.012Zm5.087,0a1.509,1.509,0,1,1,1.51-1.509A1.509,1.509,0,0,1,57.1,120.012Z" transform="translate(-11.861 -78.626)" fill="#fff"/>
  </g>
  <g id="Group_2116" data-name="Group 2116" transform="translate(6.119 49.502)">
    <path id="Path_43037" data-name="Path 43037" d="M46.308,185.646a.828.828,0,0,1-.825.825h-12.1a.828.828,0,0,1-.825-.825v-1.1a.828.828,0,0,1,.825-.825h12.1a.828.828,0,0,1,.825.825Z" transform="translate(-32.557 -178.908)" fill="#fff"/>
    <path id="Path_43038" data-name="Path 43038" d="M134.681,185.646a.828.828,0,0,1-.825.825h-12.1a.827.827,0,0,1-.825-.825v-1.1a.827.827,0,0,1,.825-.825h12.1a.828.828,0,0,1,.825.825Z" transform="translate(-94.803 -178.908)" fill="#fff"/>
    <path id="Path_43039" data-name="Path 43039" d="M95,170.434a.823.823,0,0,0-.584-.242H93.182v-1.925a.824.824,0,0,0-.824-.825h-1.1a.826.826,0,0,0-.826.825v1.925H89.194a.827.827,0,0,0-.825.825v5.225a.825.825,0,0,0,.825.825H94.42a.824.824,0,0,0,.826-.825v-5.225A.823.823,0,0,0,95,170.434Z" transform="translate(-71.869 -167.442)" fill="#fff"/>
  </g>
</svg>
