<svg id="support" xmlns="http://www.w3.org/2000/svg" width="62" height="62" viewBox="0 0 62 62">
  <rect id="Rectangle_887" data-name="Rectangle 887" width="2" height="2" transform="translate(24 50)" fill="#fff"/>
  <rect id="Rectangle_888" data-name="Rectangle 888" width="2" height="2" transform="translate(24 46)" fill="#fff"/>
  <rect id="Rectangle_889" data-name="Rectangle 889" width="2" height="2" transform="translate(24 42)" fill="#fff"/>
  <path id="Path_43027" data-name="Path 43027" d="M26,28H24a2,2,0,0,1-4,0H18a4,4,0,0,0,8,0Z" transform="translate(-1 -1)" fill="#fff"/>
  <circle id="Ellipse_8592" data-name="Ellipse 8592" cx="1" cy="1" r="1" transform="translate(15 20)" fill="#fff"/>
  <circle id="Ellipse_8593" data-name="Ellipse 8593" cx="1" cy="1" r="1" transform="translate(25 20)" fill="#fff"/>
  <path id="Path_43029" data-name="Path 43029" d="M58,37H50.287L41,31.195V37H34a4.95,4.95,0,0,0-3.219,1.207L28,37.279V35.207a11.013,11.013,0,0,0,4.822-7.291A4.988,4.988,0,0,0,36.98,23.2,51.082,51.082,0,0,0,38,12V10.612L34.726,11.7c-1.909-7.5-6.119-9.525-6.306-9.611l-.862-.4-.986,1.873C24.805,2.6,20.573,1,12,1H10.719l.928,3.71L6.836,3.747l.991,7.929L4,10.719V12A20.835,20.835,0,0,0,7.037,23.366a4.985,4.985,0,0,0,4.141,4.547A11.009,11.009,0,0,0,16,35.207v2.072L5.786,40.685A6.989,6.989,0,0,0,1,47.324V57H29v1a5.006,5.006,0,0,0,5,5H58a5.006,5.006,0,0,0,5-5V42A5.006,5.006,0,0,0,58,37ZM33,25.816V20.185a2.982,2.982,0,0,1,0,5.631ZM10.173,14.324,9.164,6.253,14.353,7.29,13.284,3.013c9.985.2,12.961,2.7,12.98,2.719l.956.893,1.147-2.177c1.225.984,3.546,3.474,4.653,8.758l.229,1.1,2.735-.912a60.316,60.316,0,0,1-.418,6.116A5,5,0,0,0,33,18.1V16H31v1.982a20.052,20.052,0,0,1-9.485-2.84L20,14.233V16a9.492,9.492,0,0,0,.362,2.589,28.4,28.4,0,0,1-7.22-3.069L11,14.233V18.1A5,5,0,0,0,7.728,20.44a20.212,20.212,0,0,1-1.692-7.15ZM9,23a3,3,0,0,1,2-2.816v5.631A2.994,2.994,0,0,1,9,23Zm4,3V17.746a30.365,30.365,0,0,0,8.8,3.234l2.005.4-1.02-2.04A7.469,7.469,0,0,1,22.22,17.8,22.067,22.067,0,0,0,31,19.983V26a9,9,0,0,1-18,0Zm9,11a10.927,10.927,0,0,0,4-.764v1.641a4.122,4.122,0,0,1-8,0v-1.64A10.927,10.927,0,0,0,22,37ZM11,55V47H9v8H3V47.324a4.993,4.993,0,0,1,3.419-4.743l9.949-3.316A6.1,6.1,0,0,0,21,42.916V53h2V42.916a6.1,6.1,0,0,0,4.632-3.651l1.855.619A4.939,4.939,0,0,0,29,42V55Zm50,3a3,3,0,0,1-3,3H34a3,3,0,0,1-3-3V42a3,3,0,0,1,3-3h9V34.805L49.713,39H58a3,3,0,0,1,3,3Z" transform="translate(-1 -1)" fill="#fff"/>
  <g id="head_phones" transform="translate(38.523 42)">
    <path id="Path_43030" data-name="Path 43030" d="M5,11.244V9.477a6.477,6.477,0,0,1,12.955,0v1.767" transform="translate(-5 -3)" fill="none" stroke="#fff" stroke-linejoin="round" stroke-miterlimit="10" stroke-width="1.5"/>
    <path id="Path_43031" data-name="Path 43031" d="M22.477,17A6.471,6.471,0,0,1,17,23.418a.9.9,0,0,1-1-.883h0a.8.8,0,0,1,.824-.824h0a.93.93,0,0,1,.942.942v.236" transform="translate(-9.523 -8.756)" fill="none" stroke="#fff" stroke-linejoin="round" stroke-miterlimit="10" stroke-width="1.5"/>
    <path id="Path_43032" data-name="Path 43032" d="M7.355,13a2.355,2.355,0,1,0,0,4.711Z" transform="translate(-5 -7.112)" fill="none" stroke="#fff" stroke-linejoin="round" stroke-miterlimit="10" stroke-width="1.5"/>
    <path id="Path_43033" data-name="Path 43033" d="M23,17.711A2.355,2.355,0,0,0,23,13Z" transform="translate(-12.401 -7.112)" fill="none" stroke="#fff" stroke-linejoin="round" stroke-miterlimit="10" stroke-width="1.5"/>
  </g>
</svg>
