<svg xmlns="http://www.w3.org/2000/svg" width="48.078" height="52.462" viewBox="0 0 48.078 52.462">
  <g id="windows_icon" transform="translate(-80 -64)">
    <path id="Path_42967" data-name="Path 42967" d="M96.677,266.7H81.83A1.848,1.848,0,0,0,80,268.571v12.156a1.834,1.834,0,0,0,1.461,1.8l14.4,2.882.942.164a1.853,1.853,0,0,0,1.735-1.844V268.571a1.862,1.862,0,0,0-1.858-1.871Z" transform="translate(0 -175.014)" fill="#fff"/>
    <path id="Path_42968" data-name="Path 42968" d="M261.6,266.7H238.63a1.848,1.848,0,0,0-1.83,1.871v16.486a1.83,1.83,0,0,0,1.079,1.666l.027.027.724.15h.041l22.5,4.494a.289.289,0,0,0,.1.041.05.05,0,0,0,.041-.014.539.539,0,0,0,.287.055,1.857,1.857,0,0,0,1.858-1.844V268.571A1.842,1.842,0,0,0,261.6,266.7Z" transform="translate(-135.384 -175.014)" fill="#fff"/>
    <path id="Path_42969" data-name="Path 42969" d="M261.6,64a.539.539,0,0,0-.287.055.05.05,0,0,0-.041-.014.148.148,0,0,0-.1.041l-22.509,4.48h-.041l-.7.15a.085.085,0,0,0-.055.027,1.87,1.87,0,0,0-1.079,1.694V86.891a1.848,1.848,0,0,0,1.83,1.871H261.6a1.871,1.871,0,0,0,1.858-1.871V65.844A1.866,1.866,0,0,0,261.6,64Z" transform="translate(-135.384)" fill="#fff"/>
    <path id="Path_42970" data-name="Path 42970" d="M96.8,107l-.942.164-14.4,2.9a1.834,1.834,0,0,0-1.461,1.8v12.156a1.848,1.848,0,0,0,1.83,1.871h14.86a1.871,1.871,0,0,0,1.858-1.871V108.844A1.874,1.874,0,0,0,96.8,107Z" transform="translate(0 -37.127)" fill="#fff"/>
  </g>
</svg>
